<?xml version="1.0" encoding="utf-8" standalone="no"?>
<!DOCTYPE svg PUBLIC "-//W3C//DTD SVG 1.1//EN"
  "http://www.w3.org/Graphics/SVG/1.1/DTD/svg11.dtd">
<svg xmlns:xlink="http://www.w3.org/1999/xlink" width="261.494063pt" height="309.8575pt" viewBox="0 0 261.494063 309.8575" xmlns="http://www.w3.org/2000/svg" version="1.1">
 <metadata>
  <rdf:RDF xmlns:dc="http://purl.org/dc/elements/1.1/" xmlns:cc="http://creativecommons.org/ns#" xmlns:rdf="http://www.w3.org/1999/02/22-rdf-syntax-ns#">
   <cc:Work>
    <dc:type rdf:resource="http://purl.org/dc/dcmitype/StillImage"/>
    <dc:date>2024-05-11T10:49:13.473766</dc:date>
    <dc:format>image/svg+xml</dc:format>
    <dc:creator>
     <cc:Agent>
      <dc:title>Matplotlib v3.5.1, https://matplotlib.org/</dc:title>
     </cc:Agent>
    </dc:creator>
   </cc:Work>
  </rdf:RDF>
 </metadata>
 <defs>
  <style type="text/css">*{stroke-linejoin: round; stroke-linecap: butt}</style>
 </defs>
 <g id="figure_1">
  <g id="patch_1">
   <path d="M 0 309.8575 
L 261.494063 309.8575 
L 261.494063 0 
L 0 0 
z
" style="fill: #ffffff"/>
  </g>
  <g id="axes_1">
   <g id="patch_2">
    <path d="M 109.782277 292.528125 
L 229.353705 292.528125 
L 229.353705 15.328125 
L 109.782277 15.328125 
L 109.782277 292.528125 
z
" style="fill: none"/>
   </g>
   <g id="patch_3">
    <path d="M -4290.446295 25.723125 
L 187.423991 25.723125 
L 187.423991 42.553125 
L -4290.446295 42.553125 
z
" clip-path="url(#p6895da546d)" style="fill: #b9ccdd"/>
   </g>
   <g id="patch_4">
    <path d="M -4290.446295 164.323125 
L 189.655991 164.323125 
L 189.655991 181.153125 
L -4290.446295 181.153125 
z
" clip-path="url(#p6895da546d)" style="fill: #b9ccdd"/>
   </g>
   <g id="patch_5">
    <path d="M -4290.446295 42.553125 
L 188.539991 42.553125 
L 188.539991 59.383125 
L -4290.446295 59.383125 
z
" clip-path="url(#p6895da546d)" style="fill: #cfe6ca"/>
   </g>
   <g id="patch_6">
    <path d="M -4290.446295 181.153125 
L 188.69942 181.153125 
L 188.69942 197.983125 
L -4290.446295 197.983125 
z
" clip-path="url(#p6895da546d)" style="fill: #cfe6ca"/>
   </g>
   <g id="patch_7">
    <path d="M -4290.446295 59.383125 
L 188.380562 59.383125 
L 188.380562 76.213125 
L -4290.446295 76.213125 
z
" clip-path="url(#p6895da546d)" style="fill: #dccee1"/>
   </g>
   <g id="patch_8">
    <path d="M -4290.446295 197.983125 
L 186.307991 197.983125 
L 186.307991 214.813125 
L -4290.446295 214.813125 
z
" clip-path="url(#p6895da546d)" style="fill: #dccee1"/>
   </g>
   <g id="patch_9">
    <path d="M -4290.446295 76.213125 
L 195.873705 76.213125 
L 195.873705 93.043125 
L -4290.446295 93.043125 
z
" clip-path="url(#p6895da546d)" style="fill: #f3d7b1"/>
   </g>
   <g id="patch_10">
    <path d="M -4290.446295 214.813125 
L 201.294277 214.813125 
L 201.294277 231.643125 
L -4290.446295 231.643125 
z
" clip-path="url(#p6895da546d)" style="fill: #f3d7b1"/>
   </g>
   <g id="patch_11">
    <path d="M -4290.446295 93.043125 
L 186.786277 93.043125 
L 186.786277 109.873125 
L -4290.446295 109.873125 
z
" clip-path="url(#p6895da546d)" style="fill: #e0d6c2"/>
   </g>
   <g id="patch_12">
    <path d="M -4290.446295 231.643125 
L 190.612562 231.643125 
L 190.612562 248.473125 
L -4290.446295 248.473125 
z
" clip-path="url(#p6895da546d)" style="fill: #e0d6c2"/>
   </g>
   <g id="patch_13">
    <path d="M -4290.446295 109.873125 
L 174.988562 109.873125 
L 174.988562 126.703125 
L -4290.446295 126.703125 
z
" clip-path="url(#p6895da546d)" style="fill: #f9deec"/>
   </g>
   <g id="patch_14">
    <path d="M -4290.446295 248.473125 
L 183.278848 248.473125 
L 183.278848 265.303125 
L -4290.446295 265.303125 
z
" clip-path="url(#p6895da546d)" style="fill: #f9deec"/>
   </g>
   <g id="patch_15">
    <path d="M -4290.446295 126.703125 
L 210.222277 126.703125 
L 210.222277 143.533125 
L -4290.446295 143.533125 
z
" clip-path="url(#p6895da546d)" style="fill: #f1bcb8"/>
   </g>
   <g id="patch_16">
    <path d="M -4290.446295 265.303125 
L 214.36742 265.303125 
L 214.36742 282.133125 
L -4290.446295 282.133125 
z
" clip-path="url(#p6895da546d)" style="fill: #f1bcb8"/>
   </g>
   <g id="matplotlib.axis_1">
    <g id="xtick_1">
     <g id="line2d_1">
      <defs>
       <path id="m1a1b762e9c" d="M 0 0 
L 0 2 
" style="stroke: #000000; stroke-width: 1.5"/>
      </defs>
      <g>
       <use xlink:href="#m1a1b762e9c" x="109.782277" y="292.528125" style="stroke: #000000; stroke-width: 1.5"/>
      </g>
     </g>
     <g id="text_1">
      <!-- 0.92 -->
      <g transform="translate(98.105714 306.63625)scale(0.12 -0.12)">
       <defs>
        <path id="Helvetica-30" d="M 1731 4475 
Q 2600 4475 2988 3759 
Q 3288 3206 3288 2244 
Q 3288 1331 3016 734 
Q 2622 -122 1728 -122 
Q 922 -122 528 578 
Q 200 1163 200 2147 
Q 200 2909 397 3456 
Q 766 4475 1731 4475 
z
M 1725 391 
Q 2163 391 2422 778 
Q 2681 1166 2681 2222 
Q 2681 2984 2493 3476 
Q 2306 3969 1766 3969 
Q 1269 3969 1039 3501 
Q 809 3034 809 2125 
Q 809 1441 956 1025 
Q 1181 391 1725 391 
z
" transform="scale(0.015625)"/>
        <path id="Helvetica-2e" d="M 547 681 
L 1200 681 
L 1200 0 
L 547 0 
L 547 681 
z
" transform="scale(0.015625)"/>
        <path id="Helvetica-39" d="M 850 1081 
Q 875 616 1209 438 
Q 1381 344 1597 344 
Q 2000 344 2284 680 
Q 2569 1016 2688 2044 
Q 2500 1747 2223 1626 
Q 1947 1506 1628 1506 
Q 981 1506 604 1909 
Q 228 2313 228 2947 
Q 228 3556 600 4018 
Q 972 4481 1697 4481 
Q 2675 4481 3047 3600 
Q 3253 3116 3253 2388 
Q 3253 1566 3006 931 
Q 2597 -125 1619 -125 
Q 963 -125 622 219 
Q 281 563 281 1081 
L 850 1081 
z
M 1703 2000 
Q 2038 2000 2314 2220 
Q 2591 2441 2591 2991 
Q 2591 3484 2342 3726 
Q 2094 3969 1709 3969 
Q 1297 3969 1055 3692 
Q 813 3416 813 2953 
Q 813 2516 1025 2258 
Q 1238 2000 1703 2000 
z
" transform="scale(0.015625)"/>
        <path id="Helvetica-32" d="M 200 0 
Q 231 578 439 1006 
Q 647 1434 1250 1784 
L 1850 2131 
Q 2253 2366 2416 2531 
Q 2672 2791 2672 3125 
Q 2672 3516 2437 3745 
Q 2203 3975 1813 3975 
Q 1234 3975 1013 3538 
Q 894 3303 881 2888 
L 309 2888 
Q 319 3472 525 3841 
Q 891 4491 1816 4491 
Q 2584 4491 2939 4075 
Q 3294 3659 3294 3150 
Q 3294 2613 2916 2231 
Q 2697 2009 2131 1694 
L 1703 1456 
Q 1397 1288 1222 1134 
Q 909 863 828 531 
L 3272 531 
L 3272 0 
L 200 0 
z
" transform="scale(0.015625)"/>
       </defs>
       <use xlink:href="#Helvetica-30"/>
       <use xlink:href="#Helvetica-2e" x="55.615234"/>
       <use xlink:href="#Helvetica-39" x="83.398438"/>
       <use xlink:href="#Helvetica-32" x="139.013672"/>
      </g>
     </g>
    </g>
    <g id="xtick_2">
     <g id="line2d_2">
      <g>
       <use xlink:href="#m1a1b762e9c" x="157.610848" y="292.528125" style="stroke: #000000; stroke-width: 1.5"/>
      </g>
     </g>
     <g id="text_2">
      <!-- 0.93 -->
      <g transform="translate(145.934286 306.63625)scale(0.12 -0.12)">
       <defs>
        <path id="Helvetica-33" d="M 1663 -122 
Q 869 -122 511 314 
Q 153 750 153 1375 
L 741 1375 
Q 778 941 903 744 
Q 1122 391 1694 391 
Q 2138 391 2406 628 
Q 2675 866 2675 1241 
Q 2675 1703 2392 1887 
Q 2109 2072 1606 2072 
Q 1550 2072 1492 2070 
Q 1434 2069 1375 2066 
L 1375 2563 
Q 1463 2553 1522 2550 
Q 1581 2547 1650 2547 
Q 1966 2547 2169 2647 
Q 2525 2822 2525 3272 
Q 2525 3606 2287 3787 
Q 2050 3969 1734 3969 
Q 1172 3969 956 3594 
Q 838 3388 822 3006 
L 266 3006 
Q 266 3506 466 3856 
Q 809 4481 1675 4481 
Q 2359 4481 2734 4176 
Q 3109 3872 3109 3294 
Q 3109 2881 2888 2625 
Q 2750 2466 2531 2375 
Q 2884 2278 3082 2001 
Q 3281 1725 3281 1325 
Q 3281 684 2859 281 
Q 2438 -122 1663 -122 
z
" transform="scale(0.015625)"/>
       </defs>
       <use xlink:href="#Helvetica-30"/>
       <use xlink:href="#Helvetica-2e" x="55.615234"/>
       <use xlink:href="#Helvetica-39" x="83.398438"/>
       <use xlink:href="#Helvetica-33" x="139.013672"/>
      </g>
     </g>
    </g>
    <g id="xtick_3">
     <g id="line2d_3">
      <g>
       <use xlink:href="#m1a1b762e9c" x="205.43942" y="292.528125" style="stroke: #000000; stroke-width: 1.5"/>
      </g>
     </g>
     <g id="text_3">
      <!-- 0.94 -->
      <g transform="translate(193.762857 306.63625)scale(0.12 -0.12)">
       <defs>
        <path id="Helvetica-34" d="M 2116 1584 
L 2116 3613 
L 681 1584 
L 2116 1584 
z
M 2125 0 
L 2125 1094 
L 163 1094 
L 163 1644 
L 2213 4488 
L 2688 4488 
L 2688 1584 
L 3347 1584 
L 3347 1094 
L 2688 1094 
L 2688 0 
L 2125 0 
z
" transform="scale(0.015625)"/>
       </defs>
       <use xlink:href="#Helvetica-30"/>
       <use xlink:href="#Helvetica-2e" x="55.615234"/>
       <use xlink:href="#Helvetica-39" x="83.398438"/>
       <use xlink:href="#Helvetica-34" x="139.013672"/>
      </g>
     </g>
    </g>
   </g>
   <g id="matplotlib.axis_2">
    <g id="ytick_1">
     <g id="text_4">
      <!-- Setting 1 -->
      <g transform="translate(101.627277 108.310313)rotate(-90)scale(0.12 -0.12)">
       <defs>
        <path id="Helvetica-53" d="M 894 1481 
Q 916 1091 1078 847 
Q 1388 391 2169 391 
Q 2519 391 2806 491 
Q 3363 684 3363 1184 
Q 3363 1559 3128 1719 
Q 2891 1875 2384 1991 
L 1763 2131 
Q 1153 2269 900 2434 
Q 463 2722 463 3294 
Q 463 3913 891 4309 
Q 1319 4706 2103 4706 
Q 2825 4706 3329 4357 
Q 3834 4009 3834 3244 
L 3250 3244 
Q 3203 3613 3050 3809 
Q 2766 4169 2084 4169 
Q 1534 4169 1293 3937 
Q 1053 3706 1053 3400 
Q 1053 3063 1334 2906 
Q 1519 2806 2169 2656 
L 2813 2509 
Q 3278 2403 3531 2219 
Q 3969 1897 3969 1284 
Q 3969 522 3414 194 
Q 2859 -134 2125 -134 
Q 1269 -134 784 303 
Q 300 738 309 1481 
L 894 1481 
z
M 2150 4716 
L 2150 4716 
z
" transform="scale(0.015625)"/>
        <path id="Helvetica-65" d="M 1806 3422 
Q 2163 3422 2497 3255 
Q 2831 3088 3006 2822 
Q 3175 2569 3231 2231 
Q 3281 2000 3281 1494 
L 828 1494 
Q 844 984 1069 676 
Q 1294 369 1766 369 
Q 2206 369 2469 659 
Q 2619 828 2681 1050 
L 3234 1050 
Q 3213 866 3089 639 
Q 2966 413 2813 269 
Q 2556 19 2178 -69 
Q 1975 -119 1719 -119 
Q 1094 -119 659 336 
Q 225 791 225 1609 
Q 225 2416 662 2919 
Q 1100 3422 1806 3422 
z
M 2703 1941 
Q 2669 2306 2544 2525 
Q 2313 2931 1772 2931 
Q 1384 2931 1121 2651 
Q 859 2372 844 1941 
L 2703 1941 
z
M 1753 3428 
L 1753 3428 
z
" transform="scale(0.015625)"/>
        <path id="Helvetica-74" d="M 525 4281 
L 1094 4281 
L 1094 3347 
L 1628 3347 
L 1628 2888 
L 1094 2888 
L 1094 703 
Q 1094 528 1213 469 
Q 1278 434 1431 434 
Q 1472 434 1519 436 
Q 1566 438 1628 444 
L 1628 0 
Q 1531 -28 1426 -40 
Q 1322 -53 1200 -53 
Q 806 -53 665 148 
Q 525 350 525 672 
L 525 2888 
L 72 2888 
L 72 3347 
L 525 3347 
L 525 4281 
z
" transform="scale(0.015625)"/>
        <path id="Helvetica-69" d="M 413 3331 
L 984 3331 
L 984 0 
L 413 0 
L 413 3331 
z
M 413 4591 
L 984 4591 
L 984 3953 
L 413 3953 
L 413 4591 
z
" transform="scale(0.015625)"/>
        <path id="Helvetica-6e" d="M 413 3347 
L 947 3347 
L 947 2872 
Q 1184 3166 1450 3294 
Q 1716 3422 2041 3422 
Q 2753 3422 3003 2925 
Q 3141 2653 3141 2147 
L 3141 0 
L 2569 0 
L 2569 2109 
Q 2569 2416 2478 2603 
Q 2328 2916 1934 2916 
Q 1734 2916 1606 2875 
Q 1375 2806 1200 2600 
Q 1059 2434 1017 2257 
Q 975 2081 975 1753 
L 975 0 
L 413 0 
L 413 3347 
z
M 1734 3428 
L 1734 3428 
z
" transform="scale(0.015625)"/>
        <path id="Helvetica-67" d="M 1594 3406 
Q 1988 3406 2281 3213 
Q 2441 3103 2606 2894 
L 2606 3316 
L 3125 3316 
L 3125 272 
Q 3125 -366 2938 -734 
Q 2588 -1416 1616 -1416 
Q 1075 -1416 706 -1173 
Q 338 -931 294 -416 
L 866 -416 
Q 906 -641 1028 -763 
Q 1219 -950 1628 -950 
Q 2275 -950 2475 -494 
Q 2594 -225 2584 466 
Q 2416 209 2178 84 
Q 1941 -41 1550 -41 
Q 1006 -41 598 345 
Q 191 731 191 1622 
Q 191 2463 602 2934 
Q 1013 3406 1594 3406 
z
M 2606 1688 
Q 2606 2309 2350 2609 
Q 2094 2909 1697 2909 
Q 1103 2909 884 2353 
Q 769 2056 769 1575 
Q 769 1009 998 714 
Q 1228 419 1616 419 
Q 2222 419 2469 966 
Q 2606 1275 2606 1688 
z
M 1659 3428 
L 1659 3428 
z
" transform="scale(0.015625)"/>
        <path id="Helvetica-20" transform="scale(0.015625)"/>
        <path id="Helvetica-31" d="M 613 3169 
L 613 3600 
Q 1222 3659 1462 3798 
Q 1703 3938 1822 4456 
L 2266 4456 
L 2266 0 
L 1666 0 
L 1666 3169 
L 613 3169 
z
" transform="scale(0.015625)"/>
       </defs>
       <use xlink:href="#Helvetica-53"/>
       <use xlink:href="#Helvetica-65" x="66.699219"/>
       <use xlink:href="#Helvetica-74" x="122.314453"/>
       <use xlink:href="#Helvetica-74" x="150.097656"/>
       <use xlink:href="#Helvetica-69" x="177.880859"/>
       <use xlink:href="#Helvetica-6e" x="200.097656"/>
       <use xlink:href="#Helvetica-67" x="255.712891"/>
       <use xlink:href="#Helvetica-20" x="311.328125"/>
       <use xlink:href="#Helvetica-31" x="339.111328"/>
      </g>
     </g>
    </g>
    <g id="ytick_2">
     <g id="text_5">
      <!-- Setting 2 -->
      <g transform="translate(101.627277 246.910313)rotate(-90)scale(0.12 -0.12)">
       <use xlink:href="#Helvetica-53"/>
       <use xlink:href="#Helvetica-65" x="66.699219"/>
       <use xlink:href="#Helvetica-74" x="122.314453"/>
       <use xlink:href="#Helvetica-74" x="150.097656"/>
       <use xlink:href="#Helvetica-69" x="177.880859"/>
       <use xlink:href="#Helvetica-6e" x="200.097656"/>
       <use xlink:href="#Helvetica-67" x="255.712891"/>
       <use xlink:href="#Helvetica-20" x="311.328125"/>
       <use xlink:href="#Helvetica-32" x="339.111328"/>
      </g>
     </g>
    </g>
   </g>
   <g id="line2d_4">
    <path d="M 178.651434 34.138125 
L 196.989705 34.138125 
" clip-path="url(#p6895da546d)" style="fill: none; stroke: #424242; stroke-width: 2.7; stroke-linecap: square"/>
   </g>
   <g id="line2d_5">
    <path d="M 180.249705 172.738125 
L 198.902848 172.738125 
" clip-path="url(#p6895da546d)" style="fill: none; stroke: #424242; stroke-width: 2.7; stroke-linecap: square"/>
   </g>
   <g id="line2d_6">
    <path d="M 180.568562 50.968125 
L 196.51142 50.968125 
" clip-path="url(#p6895da546d)" style="fill: none; stroke: #424242; stroke-width: 2.7; stroke-linecap: square"/>
   </g>
   <g id="line2d_7">
    <path d="M 179.12972 189.568125 
L 197.312548 189.568125 
" clip-path="url(#p6895da546d)" style="fill: none; stroke: #424242; stroke-width: 2.7; stroke-linecap: square"/>
   </g>
   <g id="line2d_8">
    <path d="M 179.452562 67.798125 
L 195.076562 67.798125 
" clip-path="url(#p6895da546d)" style="fill: none; stroke: #424242; stroke-width: 2.7; stroke-linecap: square"/>
   </g>
   <g id="line2d_9">
    <path d="M 176.742277 206.398125 
L 193.964548 206.398125 
" clip-path="url(#p6895da546d)" style="fill: none; stroke: #424242; stroke-width: 2.7; stroke-linecap: square"/>
   </g>
   <g id="line2d_10">
    <path d="M 188.380562 84.628125 
L 203.051977 84.628125 
" clip-path="url(#p6895da546d)" style="fill: none; stroke: #424242; stroke-width: 2.7; stroke-linecap: square"/>
   </g>
   <g id="line2d_11">
    <path d="M 195.235991 223.228125 
L 206.714848 223.228125 
" clip-path="url(#p6895da546d)" style="fill: none; stroke: #424242; stroke-width: 2.7; stroke-linecap: square"/>
   </g>
   <g id="line2d_12">
    <path d="M 177.220562 101.458125 
L 194.438848 101.458125 
" clip-path="url(#p6895da546d)" style="fill: none; stroke: #424242; stroke-width: 2.7; stroke-linecap: square"/>
   </g>
   <g id="line2d_13">
    <path d="M 184.23542 240.058125 
L 196.989705 240.058125 
" clip-path="url(#p6895da546d)" style="fill: none; stroke: #424242; stroke-width: 2.7; stroke-linecap: square"/>
   </g>
   <g id="line2d_14">
    <path d="M 161.596562 118.288125 
L 188.862834 118.288125 
" clip-path="url(#p6895da546d)" style="fill: none; stroke: #424242; stroke-width: 2.7; stroke-linecap: square"/>
   </g>
   <g id="line2d_15">
    <path d="M 171.154305 256.888125 
L 193.482277 256.888125 
" clip-path="url(#p6895da546d)" style="fill: none; stroke: #424242; stroke-width: 2.7; stroke-linecap: square"/>
   </g>
   <g id="line2d_16">
    <path d="M 205.917705 135.118125 
L 213.889134 135.118125 
" clip-path="url(#p6895da546d)" style="fill: none; stroke: #424242; stroke-width: 2.7; stroke-linecap: square"/>
   </g>
   <g id="line2d_17">
    <path d="M 207.033705 273.718125 
L 222.342834 273.718125 
" clip-path="url(#p6895da546d)" style="fill: none; stroke: #424242; stroke-width: 2.7; stroke-linecap: square"/>
   </g>
   <g id="patch_17">
    <path d="M 109.782277 292.528125 
L 109.782277 15.328125 
" style="fill: none; stroke: #000000; stroke-width: 1.5; stroke-linejoin: miter; stroke-linecap: square"/>
   </g>
   <g id="patch_18">
    <path d="M 109.782277 292.528125 
L 229.353705 292.528125 
" style="fill: none; stroke: #000000; stroke-width: 1.5; stroke-linejoin: miter; stroke-linecap: square"/>
   </g>
   <g id="text_6">
    <!-- 0.936 -->
    <g transform="translate(137.423991 36.682656)scale(0.1 -0.1)">
     <defs>
      <path id="Helvetica-36" d="M 1872 4494 
Q 2622 4494 2917 4105 
Q 3213 3716 3213 3303 
L 2656 3303 
Q 2606 3569 2497 3719 
Q 2294 4000 1881 4000 
Q 1409 4000 1131 3564 
Q 853 3128 822 2316 
Q 1016 2600 1309 2741 
Q 1578 2866 1909 2866 
Q 2472 2866 2890 2506 
Q 3309 2147 3309 1434 
Q 3309 825 2912 354 
Q 2516 -116 1781 -116 
Q 1153 -116 697 361 
Q 241 838 241 1966 
Q 241 2800 444 3381 
Q 834 4494 1872 4494 
z
M 1831 384 
Q 2275 384 2495 682 
Q 2716 981 2716 1388 
Q 2716 1731 2519 2042 
Q 2322 2353 1803 2353 
Q 1441 2353 1167 2112 
Q 894 1872 894 1388 
Q 894 963 1142 673 
Q 1391 384 1831 384 
z
" transform="scale(0.015625)"/>
     </defs>
     <use xlink:href="#Helvetica-30"/>
     <use xlink:href="#Helvetica-2e" x="55.615234"/>
     <use xlink:href="#Helvetica-39" x="83.398438"/>
     <use xlink:href="#Helvetica-33" x="139.013672"/>
     <use xlink:href="#Helvetica-36" x="194.628906"/>
    </g>
   </g>
   <g id="text_7">
    <!-- 0.937 -->
    <g transform="translate(139.655991 175.282656)scale(0.1 -0.1)">
     <defs>
      <path id="Helvetica-37" d="M 3347 4400 
L 3347 3909 
Q 3131 3700 2773 3181 
Q 2416 2663 2141 2063 
Q 1869 1478 1728 997 
Q 1638 688 1494 0 
L 872 0 
Q 1084 1281 1809 2550 
Q 2238 3294 2709 3834 
L 234 3834 
L 234 4400 
L 3347 4400 
z
" transform="scale(0.015625)"/>
     </defs>
     <use xlink:href="#Helvetica-30"/>
     <use xlink:href="#Helvetica-2e" x="55.615234"/>
     <use xlink:href="#Helvetica-39" x="83.398438"/>
     <use xlink:href="#Helvetica-33" x="139.013672"/>
     <use xlink:href="#Helvetica-37" x="194.628906"/>
    </g>
   </g>
   <g id="text_8">
    <!-- 0.936 -->
    <g transform="translate(138.539991 53.512656)scale(0.1 -0.1)">
     <use xlink:href="#Helvetica-30"/>
     <use xlink:href="#Helvetica-2e" x="55.615234"/>
     <use xlink:href="#Helvetica-39" x="83.398438"/>
     <use xlink:href="#Helvetica-33" x="139.013672"/>
     <use xlink:href="#Helvetica-36" x="194.628906"/>
    </g>
   </g>
   <g id="text_9">
    <!-- 0.936 -->
    <g transform="translate(138.69942 192.112656)scale(0.1 -0.1)">
     <use xlink:href="#Helvetica-30"/>
     <use xlink:href="#Helvetica-2e" x="55.615234"/>
     <use xlink:href="#Helvetica-39" x="83.398438"/>
     <use xlink:href="#Helvetica-33" x="139.013672"/>
     <use xlink:href="#Helvetica-36" x="194.628906"/>
    </g>
   </g>
   <g id="text_10">
    <!-- 0.936 -->
    <g transform="translate(138.380562 70.342656)scale(0.1 -0.1)">
     <use xlink:href="#Helvetica-30"/>
     <use xlink:href="#Helvetica-2e" x="55.615234"/>
     <use xlink:href="#Helvetica-39" x="83.398438"/>
     <use xlink:href="#Helvetica-33" x="139.013672"/>
     <use xlink:href="#Helvetica-36" x="194.628906"/>
    </g>
   </g>
   <g id="text_11">
    <!-- 0.936 -->
    <g transform="translate(136.307991 208.942656)scale(0.1 -0.1)">
     <use xlink:href="#Helvetica-30"/>
     <use xlink:href="#Helvetica-2e" x="55.615234"/>
     <use xlink:href="#Helvetica-39" x="83.398438"/>
     <use xlink:href="#Helvetica-33" x="139.013672"/>
     <use xlink:href="#Helvetica-36" x="194.628906"/>
    </g>
   </g>
   <g id="text_12">
    <!-- 0.938 -->
    <g transform="translate(145.873705 87.172656)scale(0.1 -0.1)">
     <defs>
      <path id="Helvetica-38" d="M 1741 2600 
Q 2113 2600 2322 2808 
Q 2531 3016 2531 3303 
Q 2531 3553 2331 3762 
Q 2131 3972 1722 3972 
Q 1316 3972 1134 3762 
Q 953 3553 953 3272 
Q 953 2956 1187 2778 
Q 1422 2600 1741 2600 
z
M 1775 384 
Q 2166 384 2423 595 
Q 2681 806 2681 1225 
Q 2681 1659 2415 1884 
Q 2150 2109 1734 2109 
Q 1331 2109 1076 1879 
Q 822 1650 822 1244 
Q 822 894 1055 639 
Q 1288 384 1775 384 
z
M 975 2384 
Q 741 2484 609 2619 
Q 363 2869 363 3269 
Q 363 3769 725 4128 
Q 1088 4488 1753 4488 
Q 2397 4488 2762 4148 
Q 3128 3809 3128 3356 
Q 3128 2938 2916 2678 
Q 2797 2531 2547 2391 
Q 2825 2263 2984 2097 
Q 3281 1784 3281 1284 
Q 3281 694 2884 283 
Q 2488 -128 1763 -128 
Q 1109 -128 657 226 
Q 206 581 206 1256 
Q 206 1653 400 1942 
Q 594 2231 975 2384 
z
" transform="scale(0.015625)"/>
     </defs>
     <use xlink:href="#Helvetica-30"/>
     <use xlink:href="#Helvetica-2e" x="55.615234"/>
     <use xlink:href="#Helvetica-39" x="83.398438"/>
     <use xlink:href="#Helvetica-33" x="139.013672"/>
     <use xlink:href="#Helvetica-38" x="194.628906"/>
    </g>
   </g>
   <g id="text_13">
    <!-- 0.939 -->
    <g transform="translate(151.294277 225.772656)scale(0.1 -0.1)">
     <use xlink:href="#Helvetica-30"/>
     <use xlink:href="#Helvetica-2e" x="55.615234"/>
     <use xlink:href="#Helvetica-39" x="83.398438"/>
     <use xlink:href="#Helvetica-33" x="139.013672"/>
     <use xlink:href="#Helvetica-39" x="194.628906"/>
    </g>
   </g>
   <g id="text_14">
    <!-- 0.936 -->
    <g transform="translate(136.786277 104.002656)scale(0.1 -0.1)">
     <use xlink:href="#Helvetica-30"/>
     <use xlink:href="#Helvetica-2e" x="55.615234"/>
     <use xlink:href="#Helvetica-39" x="83.398438"/>
     <use xlink:href="#Helvetica-33" x="139.013672"/>
     <use xlink:href="#Helvetica-36" x="194.628906"/>
    </g>
   </g>
   <g id="text_15">
    <!-- 0.937 -->
    <g transform="translate(140.612562 242.602656)scale(0.1 -0.1)">
     <use xlink:href="#Helvetica-30"/>
     <use xlink:href="#Helvetica-2e" x="55.615234"/>
     <use xlink:href="#Helvetica-39" x="83.398438"/>
     <use xlink:href="#Helvetica-33" x="139.013672"/>
     <use xlink:href="#Helvetica-37" x="194.628906"/>
    </g>
   </g>
   <g id="text_16">
    <!-- 0.934 -->
    <g transform="translate(124.988562 120.832656)scale(0.1 -0.1)">
     <use xlink:href="#Helvetica-30"/>
     <use xlink:href="#Helvetica-2e" x="55.615234"/>
     <use xlink:href="#Helvetica-39" x="83.398438"/>
     <use xlink:href="#Helvetica-33" x="139.013672"/>
     <use xlink:href="#Helvetica-34" x="194.628906"/>
    </g>
   </g>
   <g id="text_17">
    <!-- 0.935 -->
    <g transform="translate(133.278848 259.432656)scale(0.1 -0.1)">
     <defs>
      <path id="Helvetica-35" d="M 791 1141 
Q 847 659 1238 475 
Q 1438 381 1700 381 
Q 2200 381 2440 700 
Q 2681 1019 2681 1406 
Q 2681 1875 2395 2131 
Q 2109 2388 1709 2388 
Q 1419 2388 1211 2275 
Q 1003 2163 856 1963 
L 369 1991 
L 709 4400 
L 3034 4400 
L 3034 3856 
L 1131 3856 
L 941 2613 
Q 1097 2731 1238 2791 
Q 1488 2894 1816 2894 
Q 2431 2894 2859 2497 
Q 3288 2100 3288 1491 
Q 3288 856 2895 371 
Q 2503 -113 1644 -113 
Q 1097 -113 676 195 
Q 256 503 206 1141 
L 791 1141 
z
" transform="scale(0.015625)"/>
     </defs>
     <use xlink:href="#Helvetica-30"/>
     <use xlink:href="#Helvetica-2e" x="55.615234"/>
     <use xlink:href="#Helvetica-39" x="83.398438"/>
     <use xlink:href="#Helvetica-33" x="139.013672"/>
     <use xlink:href="#Helvetica-35" x="194.628906"/>
    </g>
   </g>
   <g id="text_18">
    <!-- 0.941 -->
    <g transform="translate(160.222277 137.662656)scale(0.1 -0.1)">
     <use xlink:href="#Helvetica-30"/>
     <use xlink:href="#Helvetica-2e" x="55.615234"/>
     <use xlink:href="#Helvetica-39" x="83.398438"/>
     <use xlink:href="#Helvetica-34" x="139.013672"/>
     <use xlink:href="#Helvetica-31" x="194.628906"/>
    </g>
   </g>
   <g id="text_19">
    <!-- 0.942 -->
    <g transform="translate(164.36742 276.262656)scale(0.1 -0.1)">
     <use xlink:href="#Helvetica-30"/>
     <use xlink:href="#Helvetica-2e" x="55.615234"/>
     <use xlink:href="#Helvetica-39" x="83.398438"/>
     <use xlink:href="#Helvetica-34" x="139.013672"/>
     <use xlink:href="#Helvetica-32" x="194.628906"/>
    </g>
   </g>
   <g id="text_20">
    <!-- P-value -->
    <g transform="translate(217.184219 19.852656)scale(0.1 -0.1)">
     <defs>
      <path id="Helvetica-50" d="M 547 4591 
L 2613 4591 
Q 3225 4591 3600 4245 
Q 3975 3900 3975 3275 
Q 3975 2738 3640 2339 
Q 3306 1941 2613 1941 
L 1169 1941 
L 1169 0 
L 547 0 
L 547 4591 
z
M 3347 3272 
Q 3347 3778 2972 3959 
Q 2766 4056 2406 4056 
L 1169 4056 
L 1169 2466 
L 2406 2466 
Q 2825 2466 3086 2644 
Q 3347 2822 3347 3272 
z
" transform="scale(0.015625)"/>
      <path id="Helvetica-2d" d="M 266 2072 
L 1834 2072 
L 1834 1494 
L 266 1494 
L 266 2072 
z
" transform="scale(0.015625)"/>
      <path id="Helvetica-76" d="M 688 3347 
L 1581 622 
L 2516 3347 
L 3131 3347 
L 1869 0 
L 1269 0 
L 34 3347 
L 688 3347 
z
" transform="scale(0.015625)"/>
      <path id="Helvetica-61" d="M 844 891 
Q 844 647 1022 506 
Q 1200 366 1444 366 
Q 1741 366 2019 503 
Q 2488 731 2488 1250 
L 2488 1703 
Q 2384 1638 2221 1594 
Q 2059 1550 1903 1531 
L 1563 1488 
Q 1256 1447 1103 1359 
Q 844 1213 844 891 
z
M 2206 2028 
Q 2400 2053 2466 2191 
Q 2503 2266 2503 2406 
Q 2503 2694 2298 2823 
Q 2094 2953 1713 2953 
Q 1272 2953 1088 2716 
Q 984 2584 953 2325 
L 428 2325 
Q 444 2944 830 3186 
Q 1216 3428 1725 3428 
Q 2316 3428 2684 3203 
Q 3050 2978 3050 2503 
L 3050 575 
Q 3050 488 3086 434 
Q 3122 381 3238 381 
Q 3275 381 3322 386 
Q 3369 391 3422 400 
L 3422 -16 
Q 3291 -53 3222 -62 
Q 3153 -72 3034 -72 
Q 2744 -72 2613 134 
Q 2544 244 2516 444 
Q 2344 219 2022 53 
Q 1700 -113 1313 -113 
Q 847 -113 551 170 
Q 256 453 256 878 
Q 256 1344 547 1600 
Q 838 1856 1309 1916 
L 2206 2028 
z
M 1741 3428 
L 1741 3428 
z
" transform="scale(0.015625)"/>
      <path id="Helvetica-6c" d="M 428 4591 
L 991 4591 
L 991 0 
L 428 0 
L 428 4591 
z
" transform="scale(0.015625)"/>
      <path id="Helvetica-75" d="M 975 3347 
L 975 1125 
Q 975 869 1056 706 
Q 1206 406 1616 406 
Q 2203 406 2416 931 
Q 2531 1213 2531 1703 
L 2531 3347 
L 3094 3347 
L 3094 0 
L 2563 0 
L 2569 494 
Q 2459 303 2297 172 
Q 1975 -91 1516 -91 
Q 800 -91 541 388 
Q 400 644 400 1072 
L 400 3347 
L 975 3347 
z
M 1747 3428 
L 1747 3428 
z
" transform="scale(0.015625)"/>
     </defs>
     <use xlink:href="#Helvetica-50"/>
     <use xlink:href="#Helvetica-2d" x="66.699219"/>
     <use xlink:href="#Helvetica-76" x="100"/>
     <use xlink:href="#Helvetica-61" x="150"/>
     <use xlink:href="#Helvetica-6c" x="205.615234"/>
     <use xlink:href="#Helvetica-75" x="227.832031"/>
     <use xlink:href="#Helvetica-65" x="283.447266"/>
    </g>
   </g>
   <g id="text_21">
    <!-- P-value -->
    <g transform="translate(217.184219 158.452656)scale(0.1 -0.1)">
     <use xlink:href="#Helvetica-50"/>
     <use xlink:href="#Helvetica-2d" x="66.699219"/>
     <use xlink:href="#Helvetica-76" x="100"/>
     <use xlink:href="#Helvetica-61" x="150"/>
     <use xlink:href="#Helvetica-6c" x="205.615234"/>
     <use xlink:href="#Helvetica-75" x="227.832031"/>
     <use xlink:href="#Helvetica-65" x="283.447266"/>
    </g>
   </g>
   <g id="text_22">
    <!-- - - - - - - - - - - - - - - - - -->
    <g transform="translate(207.499062 26.41075)scale(0.1 -0.1)">
     <use xlink:href="#Helvetica-2d"/>
     <use xlink:href="#Helvetica-2d" x="33.300781"/>
     <use xlink:href="#Helvetica-2d" x="66.601562"/>
     <use xlink:href="#Helvetica-2d" x="99.902344"/>
     <use xlink:href="#Helvetica-2d" x="133.203125"/>
     <use xlink:href="#Helvetica-2d" x="166.503906"/>
     <use xlink:href="#Helvetica-2d" x="199.804688"/>
     <use xlink:href="#Helvetica-2d" x="233.105469"/>
     <use xlink:href="#Helvetica-2d" x="266.40625"/>
     <use xlink:href="#Helvetica-2d" x="299.707031"/>
     <use xlink:href="#Helvetica-2d" x="333.007812"/>
     <use xlink:href="#Helvetica-2d" x="366.308594"/>
     <use xlink:href="#Helvetica-2d" x="399.609375"/>
     <use xlink:href="#Helvetica-2d" x="432.910156"/>
     <use xlink:href="#Helvetica-2d" x="466.210938"/>
     <use xlink:href="#Helvetica-2d" x="499.511719"/>
    </g>
   </g>
   <g id="text_23">
    <!-- - - - - - - - - - - - - - - - - -->
    <g transform="translate(207.499062 165.01075)scale(0.1 -0.1)">
     <use xlink:href="#Helvetica-2d"/>
     <use xlink:href="#Helvetica-2d" x="33.300781"/>
     <use xlink:href="#Helvetica-2d" x="66.601562"/>
     <use xlink:href="#Helvetica-2d" x="99.902344"/>
     <use xlink:href="#Helvetica-2d" x="133.203125"/>
     <use xlink:href="#Helvetica-2d" x="166.503906"/>
     <use xlink:href="#Helvetica-2d" x="199.804688"/>
     <use xlink:href="#Helvetica-2d" x="233.105469"/>
     <use xlink:href="#Helvetica-2d" x="266.40625"/>
     <use xlink:href="#Helvetica-2d" x="299.707031"/>
     <use xlink:href="#Helvetica-2d" x="333.007812"/>
     <use xlink:href="#Helvetica-2d" x="366.308594"/>
     <use xlink:href="#Helvetica-2d" x="399.609375"/>
     <use xlink:href="#Helvetica-2d" x="432.910156"/>
     <use xlink:href="#Helvetica-2d" x="466.210938"/>
     <use xlink:href="#Helvetica-2d" x="499.511719"/>
    </g>
   </g>
   <g id="text_24">
    <!-- 1.60e-04 -->
    <g transform="translate(214.399844 36.682656)scale(0.1 -0.1)">
     <use xlink:href="#Helvetica-31"/>
     <use xlink:href="#Helvetica-2e" x="55.615234"/>
     <use xlink:href="#Helvetica-36" x="83.398438"/>
     <use xlink:href="#Helvetica-30" x="139.013672"/>
     <use xlink:href="#Helvetica-65" x="194.628906"/>
     <use xlink:href="#Helvetica-2d" x="250.244141"/>
     <use xlink:href="#Helvetica-30" x="283.544922"/>
     <use xlink:href="#Helvetica-34" x="339.160156"/>
    </g>
   </g>
   <g id="text_25">
    <!-- 6.15e-05 -->
    <g transform="translate(214.399844 53.512656)scale(0.1 -0.1)">
     <use xlink:href="#Helvetica-36"/>
     <use xlink:href="#Helvetica-2e" x="55.615234"/>
     <use xlink:href="#Helvetica-31" x="83.398438"/>
     <use xlink:href="#Helvetica-35" x="139.013672"/>
     <use xlink:href="#Helvetica-65" x="194.628906"/>
     <use xlink:href="#Helvetica-2d" x="250.244141"/>
     <use xlink:href="#Helvetica-30" x="283.544922"/>
     <use xlink:href="#Helvetica-35" x="339.160156"/>
    </g>
   </g>
   <g id="text_26">
    <!-- 9.63e-04 -->
    <g transform="translate(214.399844 70.342656)scale(0.1 -0.1)">
     <use xlink:href="#Helvetica-39"/>
     <use xlink:href="#Helvetica-2e" x="55.615234"/>
     <use xlink:href="#Helvetica-36" x="83.398438"/>
     <use xlink:href="#Helvetica-33" x="139.013672"/>
     <use xlink:href="#Helvetica-65" x="194.628906"/>
     <use xlink:href="#Helvetica-2d" x="250.244141"/>
     <use xlink:href="#Helvetica-30" x="283.544922"/>
     <use xlink:href="#Helvetica-34" x="339.160156"/>
    </g>
   </g>
   <g id="text_27">
    <!-- 8.71e-04 -->
    <g transform="translate(214.399844 87.172656)scale(0.1 -0.1)">
     <use xlink:href="#Helvetica-38"/>
     <use xlink:href="#Helvetica-2e" x="55.615234"/>
     <use xlink:href="#Helvetica-37" x="83.398438"/>
     <use xlink:href="#Helvetica-31" x="139.013672"/>
     <use xlink:href="#Helvetica-65" x="194.628906"/>
     <use xlink:href="#Helvetica-2d" x="250.244141"/>
     <use xlink:href="#Helvetica-30" x="283.544922"/>
     <use xlink:href="#Helvetica-34" x="339.160156"/>
    </g>
   </g>
   <g id="text_28">
    <!-- 6.34e-04 -->
    <g transform="translate(214.399844 104.002656)scale(0.1 -0.1)">
     <use xlink:href="#Helvetica-36"/>
     <use xlink:href="#Helvetica-2e" x="55.615234"/>
     <use xlink:href="#Helvetica-33" x="83.398438"/>
     <use xlink:href="#Helvetica-34" x="139.013672"/>
     <use xlink:href="#Helvetica-65" x="194.628906"/>
     <use xlink:href="#Helvetica-2d" x="250.244141"/>
     <use xlink:href="#Helvetica-30" x="283.544922"/>
     <use xlink:href="#Helvetica-34" x="339.160156"/>
    </g>
   </g>
   <g id="text_29">
    <!-- 3.79e-04 -->
    <g transform="translate(214.399844 120.832656)scale(0.1 -0.1)">
     <use xlink:href="#Helvetica-33"/>
     <use xlink:href="#Helvetica-2e" x="55.615234"/>
     <use xlink:href="#Helvetica-37" x="83.398438"/>
     <use xlink:href="#Helvetica-39" x="139.013672"/>
     <use xlink:href="#Helvetica-65" x="194.628906"/>
     <use xlink:href="#Helvetica-2d" x="250.244141"/>
     <use xlink:href="#Helvetica-30" x="283.544922"/>
     <use xlink:href="#Helvetica-34" x="339.160156"/>
    </g>
   </g>
   <g id="text_30">
    <!-- 1.01e-04 -->
    <g transform="translate(214.399844 175.282656)scale(0.1 -0.1)">
     <use xlink:href="#Helvetica-31"/>
     <use xlink:href="#Helvetica-2e" x="55.615234"/>
     <use xlink:href="#Helvetica-30" x="83.398438"/>
     <use xlink:href="#Helvetica-31" x="139.013672"/>
     <use xlink:href="#Helvetica-65" x="194.628906"/>
     <use xlink:href="#Helvetica-2d" x="250.244141"/>
     <use xlink:href="#Helvetica-30" x="283.544922"/>
     <use xlink:href="#Helvetica-34" x="339.160156"/>
    </g>
   </g>
   <g id="text_31">
    <!-- 7.94e-05 -->
    <g transform="translate(214.399844 192.112656)scale(0.1 -0.1)">
     <use xlink:href="#Helvetica-37"/>
     <use xlink:href="#Helvetica-2e" x="55.615234"/>
     <use xlink:href="#Helvetica-39" x="83.398438"/>
     <use xlink:href="#Helvetica-34" x="139.013672"/>
     <use xlink:href="#Helvetica-65" x="194.628906"/>
     <use xlink:href="#Helvetica-2d" x="250.244141"/>
     <use xlink:href="#Helvetica-30" x="283.544922"/>
     <use xlink:href="#Helvetica-35" x="339.160156"/>
    </g>
   </g>
   <g id="text_32">
    <!-- 1.05e-04 -->
    <g transform="translate(214.399844 208.942656)scale(0.1 -0.1)">
     <use xlink:href="#Helvetica-31"/>
     <use xlink:href="#Helvetica-2e" x="55.615234"/>
     <use xlink:href="#Helvetica-30" x="83.398438"/>
     <use xlink:href="#Helvetica-35" x="139.013672"/>
     <use xlink:href="#Helvetica-65" x="194.628906"/>
     <use xlink:href="#Helvetica-2d" x="250.244141"/>
     <use xlink:href="#Helvetica-30" x="283.544922"/>
     <use xlink:href="#Helvetica-34" x="339.160156"/>
    </g>
   </g>
   <g id="text_33">
    <!-- 2.72e-04 -->
    <g transform="translate(214.399844 225.772656)scale(0.1 -0.1)">
     <use xlink:href="#Helvetica-32"/>
     <use xlink:href="#Helvetica-2e" x="55.615234"/>
     <use xlink:href="#Helvetica-37" x="83.398438"/>
     <use xlink:href="#Helvetica-32" x="139.013672"/>
     <use xlink:href="#Helvetica-65" x="194.628906"/>
     <use xlink:href="#Helvetica-2d" x="250.244141"/>
     <use xlink:href="#Helvetica-30" x="283.544922"/>
     <use xlink:href="#Helvetica-34" x="339.160156"/>
    </g>
   </g>
   <g id="text_34">
    <!-- 2.11e-03 -->
    <g transform="translate(214.399844 242.602656)scale(0.1 -0.1)">
     <use xlink:href="#Helvetica-32"/>
     <use xlink:href="#Helvetica-2e" x="55.615234"/>
     <use xlink:href="#Helvetica-31" x="83.398438"/>
     <use xlink:href="#Helvetica-31" x="139.013672"/>
     <use xlink:href="#Helvetica-65" x="194.628906"/>
     <use xlink:href="#Helvetica-2d" x="250.244141"/>
     <use xlink:href="#Helvetica-30" x="283.544922"/>
     <use xlink:href="#Helvetica-33" x="339.160156"/>
    </g>
   </g>
   <g id="text_35">
    <!-- 2.54e-03 -->
    <g transform="translate(214.399844 259.432656)scale(0.1 -0.1)">
     <use xlink:href="#Helvetica-32"/>
     <use xlink:href="#Helvetica-2e" x="55.615234"/>
     <use xlink:href="#Helvetica-35" x="83.398438"/>
     <use xlink:href="#Helvetica-34" x="139.013672"/>
     <use xlink:href="#Helvetica-65" x="194.628906"/>
     <use xlink:href="#Helvetica-2d" x="250.244141"/>
     <use xlink:href="#Helvetica-30" x="283.544922"/>
     <use xlink:href="#Helvetica-33" x="339.160156"/>
    </g>
   </g>
   <g id="text_36">
    <!-- Accuracy -->
    <g transform="translate(144.894866 9.328125)scale(0.12 -0.12)">
     <defs>
      <path id="Helvetica-41" d="M 2844 1881 
L 2147 3909 
L 1406 1881 
L 2844 1881 
z
M 1822 4591 
L 2525 4591 
L 4191 0 
L 3509 0 
L 3044 1375 
L 1228 1375 
L 731 0 
L 94 0 
L 1822 4591 
z
" transform="scale(0.015625)"/>
      <path id="Helvetica-63" d="M 1703 3444 
Q 2269 3444 2623 3169 
Q 2978 2894 3050 2222 
L 2503 2222 
Q 2453 2531 2275 2736 
Q 2097 2941 1703 2941 
Q 1166 2941 934 2416 
Q 784 2075 784 1575 
Q 784 1072 996 728 
Q 1209 384 1666 384 
Q 2016 384 2220 598 
Q 2425 813 2503 1184 
L 3050 1184 
Q 2956 519 2581 211 
Q 2206 -97 1622 -97 
Q 966 -97 575 383 
Q 184 863 184 1581 
Q 184 2463 612 2953 
Q 1041 3444 1703 3444 
z
M 1616 3428 
L 1616 3428 
z
" transform="scale(0.015625)"/>
      <path id="Helvetica-72" d="M 428 3347 
L 963 3347 
L 963 2769 
Q 1028 2938 1284 3180 
Q 1541 3422 1875 3422 
Q 1891 3422 1928 3419 
Q 1966 3416 2056 3406 
L 2056 2813 
Q 2006 2822 1964 2825 
Q 1922 2828 1872 2828 
Q 1447 2828 1219 2554 
Q 991 2281 991 1925 
L 991 0 
L 428 0 
L 428 3347 
z
" transform="scale(0.015625)"/>
      <path id="Helvetica-79" d="M 2503 3347 
L 3125 3347 
Q 3006 3025 2597 1878 
Q 2291 1016 2084 472 
Q 1597 -809 1397 -1090 
Q 1197 -1372 709 -1372 
Q 591 -1372 527 -1362 
Q 463 -1353 369 -1328 
L 369 -816 
Q 516 -856 581 -865 
Q 647 -875 697 -875 
Q 853 -875 926 -823 
Q 1000 -772 1050 -697 
Q 1066 -672 1162 -440 
Q 1259 -209 1303 -97 
L 66 3347 
L 703 3347 
L 1600 622 
L 2503 3347 
z
M 1597 3428 
L 1597 3428 
z
" transform="scale(0.015625)"/>
     </defs>
     <use xlink:href="#Helvetica-41"/>
     <use xlink:href="#Helvetica-63" x="66.699219"/>
     <use xlink:href="#Helvetica-63" x="116.699219"/>
     <use xlink:href="#Helvetica-75" x="166.699219"/>
     <use xlink:href="#Helvetica-72" x="222.314453"/>
     <use xlink:href="#Helvetica-61" x="255.615234"/>
     <use xlink:href="#Helvetica-63" x="311.230469"/>
     <use xlink:href="#Helvetica-79" x="361.230469"/>
    </g>
   </g>
   <g id="legend_1">
    <g id="patch_19">
     <path d="M 2.72 206.879688 
L 84.846563 206.879688 
Q 86.846563 206.879688 86.846563 204.879688 
L 86.846563 102.976563 
Q 86.846563 100.976563 84.846563 100.976563 
L 2.72 100.976563 
Q 0.72 100.976563 0.72 102.976563 
L 0.72 204.879688 
Q 0.72 206.879688 2.72 206.879688 
z
" style="fill: #ffffff; opacity: 0.8; stroke: #cccccc; stroke-linejoin: miter"/>
    </g>
    <g id="patch_20">
     <path d="M 5.72 113.15 
L 15.72 113.15 
L 15.72 106.15 
L 5.72 106.15 
z
" style="fill: #b9ccdd"/>
    </g>
    <g id="text_37">
     <!-- Lasso -->
     <g transform="translate(20.72 113.15)scale(0.1 -0.1)">
      <defs>
       <path id="Helvetica-4c" d="M 488 4591 
L 1109 4591 
L 1109 547 
L 3434 547 
L 3434 0 
L 488 0 
L 488 4591 
z
" transform="scale(0.015625)"/>
       <path id="Helvetica-73" d="M 747 1050 
Q 772 769 888 619 
Q 1100 347 1625 347 
Q 1938 347 2175 483 
Q 2413 619 2413 903 
Q 2413 1119 2222 1231 
Q 2100 1300 1741 1391 
L 1294 1503 
Q 866 1609 663 1741 
Q 300 1969 300 2372 
Q 300 2847 642 3140 
Q 984 3434 1563 3434 
Q 2319 3434 2653 2991 
Q 2863 2709 2856 2384 
L 2325 2384 
Q 2309 2575 2191 2731 
Q 1997 2953 1519 2953 
Q 1200 2953 1036 2831 
Q 872 2709 872 2509 
Q 872 2291 1088 2159 
Q 1213 2081 1456 2022 
L 1828 1931 
Q 2434 1784 2641 1647 
Q 2969 1431 2969 969 
Q 2969 522 2630 197 
Q 2291 -128 1597 -128 
Q 850 -128 539 211 
Q 228 550 206 1050 
L 747 1050 
z
M 1578 3428 
L 1578 3428 
z
" transform="scale(0.015625)"/>
       <path id="Helvetica-6f" d="M 1741 363 
Q 2300 363 2508 786 
Q 2716 1209 2716 1728 
Q 2716 2197 2566 2491 
Q 2328 2953 1747 2953 
Q 1231 2953 997 2559 
Q 763 2166 763 1609 
Q 763 1075 997 719 
Q 1231 363 1741 363 
z
M 1763 3444 
Q 2409 3444 2856 3012 
Q 3303 2581 3303 1744 
Q 3303 934 2909 406 
Q 2516 -122 1688 -122 
Q 997 -122 590 345 
Q 184 813 184 1600 
Q 184 2444 612 2944 
Q 1041 3444 1763 3444 
z
M 1744 3428 
L 1744 3428 
z
" transform="scale(0.015625)"/>
      </defs>
      <use xlink:href="#Helvetica-4c"/>
      <use xlink:href="#Helvetica-61" x="55.615234"/>
      <use xlink:href="#Helvetica-73" x="111.230469"/>
      <use xlink:href="#Helvetica-73" x="161.230469"/>
      <use xlink:href="#Helvetica-6f" x="211.230469"/>
     </g>
    </g>
    <g id="patch_21">
     <path d="M 5.72 127.407813 
L 15.72 127.407813 
L 15.72 120.407813 
L 5.72 120.407813 
z
" style="fill: #cfe6ca"/>
    </g>
    <g id="text_38">
     <!-- ENet -->
     <g transform="translate(20.72 127.407813)scale(0.1 -0.1)">
      <defs>
       <path id="Helvetica-45" d="M 547 4591 
L 3894 4591 
L 3894 4028 
L 1153 4028 
L 1153 2634 
L 3688 2634 
L 3688 2103 
L 1153 2103 
L 1153 547 
L 3941 547 
L 3941 0 
L 547 0 
L 547 4591 
z
M 2244 4591 
L 2244 4591 
z
" transform="scale(0.015625)"/>
       <path id="Helvetica-4e" d="M 488 4591 
L 1222 4591 
L 3541 872 
L 3541 4591 
L 4131 4591 
L 4131 0 
L 3434 0 
L 1081 3716 
L 1081 0 
L 488 0 
L 488 4591 
z
M 2269 4591 
L 2269 4591 
z
" transform="scale(0.015625)"/>
      </defs>
      <use xlink:href="#Helvetica-45"/>
      <use xlink:href="#Helvetica-4e" x="66.699219"/>
      <use xlink:href="#Helvetica-65" x="138.916016"/>
      <use xlink:href="#Helvetica-74" x="194.53125"/>
     </g>
    </g>
    <g id="patch_22">
     <path d="M 5.72 141.665625 
L 15.72 141.665625 
L 15.72 134.665625 
L 5.72 134.665625 
z
" style="fill: #dccee1"/>
    </g>
    <g id="text_39">
     <!-- SGLasso -->
     <g transform="translate(20.72 141.665625)scale(0.1 -0.1)">
      <defs>
       <path id="Helvetica-47" d="M 2472 4709 
Q 3119 4709 3591 4459 
Q 4275 4100 4428 3200 
L 3813 3200 
Q 3700 3703 3347 3933 
Q 2994 4163 2456 4163 
Q 1819 4163 1383 3684 
Q 947 3206 947 2259 
Q 947 1441 1306 927 
Q 1666 413 2478 413 
Q 3100 413 3508 773 
Q 3916 1134 3925 1941 
L 2488 1941 
L 2488 2456 
L 4503 2456 
L 4503 0 
L 4103 0 
L 3953 591 
Q 3638 244 3394 109 
Q 2984 -122 2353 -122 
Q 1538 -122 950 406 
Q 309 1069 309 2225 
Q 309 3378 934 4059 
Q 1528 4709 2472 4709 
z
M 2369 4716 
L 2369 4716 
z
" transform="scale(0.015625)"/>
      </defs>
      <use xlink:href="#Helvetica-53"/>
      <use xlink:href="#Helvetica-47" x="66.699219"/>
      <use xlink:href="#Helvetica-4c" x="144.482422"/>
      <use xlink:href="#Helvetica-61" x="200.097656"/>
      <use xlink:href="#Helvetica-73" x="255.712891"/>
      <use xlink:href="#Helvetica-73" x="305.712891"/>
      <use xlink:href="#Helvetica-6f" x="355.712891"/>
     </g>
    </g>
    <g id="patch_23">
     <path d="M 5.72 155.923438 
L 15.72 155.923438 
L 15.72 148.923438 
L 5.72 148.923438 
z
" style="fill: #f3d7b1"/>
    </g>
    <g id="text_40">
     <!-- Pclogit -->
     <g transform="translate(20.72 155.923438)scale(0.1 -0.1)">
      <use xlink:href="#Helvetica-50"/>
      <use xlink:href="#Helvetica-63" x="66.699219"/>
      <use xlink:href="#Helvetica-6c" x="116.699219"/>
      <use xlink:href="#Helvetica-6f" x="138.916016"/>
      <use xlink:href="#Helvetica-67" x="194.53125"/>
      <use xlink:href="#Helvetica-69" x="250.146484"/>
      <use xlink:href="#Helvetica-74" x="272.363281"/>
     </g>
    </g>
    <g id="patch_24">
     <path d="M 5.72 170.504688 
L 15.72 170.504688 
L 15.72 163.504688 
L 5.72 163.504688 
z
" style="fill: #e0d6c2"/>
    </g>
    <g id="text_41">
     <!-- CDReg w/o S -->
     <g transform="translate(20.72 170.504688)scale(0.1 -0.1)">
      <defs>
       <path id="Helvetica-43" d="M 2422 4716 
Q 3294 4716 3775 4256 
Q 4256 3797 4309 3213 
L 3703 3213 
Q 3600 3656 3292 3915 
Q 2984 4175 2428 4175 
Q 1750 4175 1333 3698 
Q 916 3222 916 2238 
Q 916 1431 1292 929 
Q 1669 428 2416 428 
Q 3103 428 3463 956 
Q 3653 1234 3747 1688 
L 4353 1688 
Q 4272 963 3816 472 
Q 3269 -119 2341 -119 
Q 1541 -119 997 366 
Q 281 1006 281 2344 
Q 281 3359 819 4009 
Q 1400 4716 2422 4716 
z
M 2297 4716 
L 2297 4716 
z
" transform="scale(0.015625)"/>
       <path id="Helvetica-44" d="M 2250 531 
Q 2566 531 2769 597 
Q 3131 719 3363 1066 
Q 3547 1344 3628 1778 
Q 3675 2038 3675 2259 
Q 3675 3113 3336 3584 
Q 2997 4056 2244 4056 
L 1141 4056 
L 1141 531 
L 2250 531 
z
M 516 4591 
L 2375 4591 
Q 3322 4591 3844 3919 
Q 4309 3313 4309 2366 
Q 4309 1634 4034 1044 
Q 3550 0 2369 0 
L 516 0 
L 516 4591 
z
" transform="scale(0.015625)"/>
       <path id="Helvetica-52" d="M 2622 2488 
Q 3059 2488 3314 2663 
Q 3569 2838 3569 3294 
Q 3569 3784 3213 3963 
Q 3022 4056 2703 4056 
L 1184 4056 
L 1184 2488 
L 2622 2488 
z
M 563 4591 
L 2688 4591 
Q 3213 4591 3553 4438 
Q 4200 4144 4200 3353 
Q 4200 2941 4029 2678 
Q 3859 2416 3553 2256 
Q 3822 2147 3958 1969 
Q 4094 1791 4109 1391 
L 4131 775 
Q 4141 513 4175 384 
Q 4231 166 4375 103 
L 4375 0 
L 3613 0 
Q 3581 59 3562 153 
Q 3544 247 3531 516 
L 3494 1281 
Q 3472 1731 3159 1884 
Q 2981 1969 2600 1969 
L 1184 1969 
L 1184 0 
L 563 0 
L 563 4591 
z
" transform="scale(0.015625)"/>
       <path id="Helvetica-77" d="M 672 3347 
L 1316 709 
L 1969 3347 
L 2600 3347 
L 3256 725 
L 3941 3347 
L 4503 3347 
L 3531 0 
L 2947 0 
L 2266 2591 
L 1606 0 
L 1022 0 
L 56 3347 
L 672 3347 
z
" transform="scale(0.015625)"/>
       <path id="Helvetica-2f" d="M 1456 4591 
L 1931 4591 
L 475 0 
L 0 0 
L 1456 4591 
z
" transform="scale(0.015625)"/>
      </defs>
      <use xlink:href="#Helvetica-43"/>
      <use xlink:href="#Helvetica-44" x="72.216797"/>
      <use xlink:href="#Helvetica-52" x="144.433594"/>
      <use xlink:href="#Helvetica-65" x="216.650391"/>
      <use xlink:href="#Helvetica-67" x="272.265625"/>
      <use xlink:href="#Helvetica-20" x="327.880859"/>
      <use xlink:href="#Helvetica-77" x="355.664062"/>
      <use xlink:href="#Helvetica-2f" x="427.880859"/>
      <use xlink:href="#Helvetica-6f" x="455.664062"/>
      <use xlink:href="#Helvetica-20" x="511.279297"/>
      <use xlink:href="#Helvetica-53" x="539.0625"/>
     </g>
    </g>
    <g id="patch_25">
     <path d="M 5.72 185.085938 
L 15.72 185.085938 
L 15.72 178.085938 
L 5.72 178.085938 
z
" style="fill: #f9deec"/>
    </g>
    <g id="text_42">
     <!-- CDReg w/o C -->
     <g transform="translate(20.72 185.085938)scale(0.1 -0.1)">
      <use xlink:href="#Helvetica-43"/>
      <use xlink:href="#Helvetica-44" x="72.216797"/>
      <use xlink:href="#Helvetica-52" x="144.433594"/>
      <use xlink:href="#Helvetica-65" x="216.650391"/>
      <use xlink:href="#Helvetica-67" x="272.265625"/>
      <use xlink:href="#Helvetica-20" x="327.880859"/>
      <use xlink:href="#Helvetica-77" x="355.664062"/>
      <use xlink:href="#Helvetica-2f" x="427.880859"/>
      <use xlink:href="#Helvetica-6f" x="455.664062"/>
      <use xlink:href="#Helvetica-20" x="511.279297"/>
      <use xlink:href="#Helvetica-43" x="539.0625"/>
     </g>
    </g>
    <g id="patch_26">
     <path d="M 5.72 199.667188 
L 15.72 199.667188 
L 15.72 192.667188 
L 5.72 192.667188 
z
" style="fill: #f1bcb8"/>
    </g>
    <g id="text_43">
     <!-- CDReg -->
     <g transform="translate(20.72 199.667188)scale(0.1 -0.1)">
      <use xlink:href="#Helvetica-43"/>
      <use xlink:href="#Helvetica-44" x="72.216797"/>
      <use xlink:href="#Helvetica-52" x="144.433594"/>
      <use xlink:href="#Helvetica-65" x="216.650391"/>
      <use xlink:href="#Helvetica-67" x="272.265625"/>
     </g>
    </g>
   </g>
  </g>
 </g>
 <defs>
  <clipPath id="p6895da546d">
   <rect x="109.782277" y="15.328125" width="119.571429" height="277.2"/>
  </clipPath>
 </defs>
</svg>
