<?xml version="1.0" encoding="utf-8" standalone="no"?>
<!DOCTYPE svg PUBLIC "-//W3C//DTD SVG 1.1//EN"
  "http://www.w3.org/Graphics/SVG/1.1/DTD/svg11.dtd">
<svg xmlns:xlink="http://www.w3.org/1999/xlink" width="211.93692pt" height="309.8575pt" viewBox="0 0 211.93692 309.8575" xmlns="http://www.w3.org/2000/svg" version="1.1">
 <metadata>
  <rdf:RDF xmlns:dc="http://purl.org/dc/elements/1.1/" xmlns:cc="http://creativecommons.org/ns#" xmlns:rdf="http://www.w3.org/1999/02/22-rdf-syntax-ns#">
   <cc:Work>
    <dc:type rdf:resource="http://purl.org/dc/dcmitype/StillImage"/>
    <dc:date>2024-05-11T10:49:13.125292</dc:date>
    <dc:format>image/svg+xml</dc:format>
    <dc:creator>
     <cc:Agent>
      <dc:title>Matplotlib v3.5.1, https://matplotlib.org/</dc:title>
     </cc:Agent>
    </dc:creator>
   </cc:Work>
  </rdf:RDF>
 </metadata>
 <defs>
  <style type="text/css">*{stroke-linejoin: round; stroke-linecap: butt}</style>
 </defs>
 <g id="figure_1">
  <g id="patch_1">
   <path d="M 0 309.8575 
L 211.93692 309.8575 
L 211.93692 0 
L 0 0 
z
" style="fill: #ffffff"/>
  </g>
  <g id="axes_1">
   <g id="patch_2">
    <path d="M 12.396562 292.528125 
L 179.796562 292.528125 
L 179.796562 15.328125 
L 12.396562 15.328125 
L 12.396562 292.528125 
z
" style="fill: none"/>
   </g>
   <g id="patch_3">
    <path d="M -4435.66058 25.723125 
L 110.863315 25.723125 
L 110.863315 42.553125 
L -4435.66058 42.553125 
z
" clip-path="url(#p73b50668cb)" style="fill: #b9ccdd"/>
   </g>
   <g id="patch_4">
    <path d="M -4435.66058 164.323125 
L 121.502462 164.323125 
L 121.502462 181.153125 
L -4435.66058 181.153125 
z
" clip-path="url(#p73b50668cb)" style="fill: #b9ccdd"/>
   </g>
   <g id="patch_5">
    <path d="M -4435.66058 42.553125 
L 112.107177 42.553125 
L 112.107177 59.383125 
L -4435.66058 59.383125 
z
" clip-path="url(#p73b50668cb)" style="fill: #cfe6ca"/>
   </g>
   <g id="patch_6">
    <path d="M -4435.66058 181.153125 
L 122.493364 181.153125 
L 122.493364 197.983125 
L -4435.66058 197.983125 
z
" clip-path="url(#p73b50668cb)" style="fill: #cfe6ca"/>
   </g>
   <g id="patch_7">
    <path d="M -4435.66058 59.383125 
L 135.405271 59.383125 
L 135.405271 76.213125 
L -4435.66058 76.213125 
z
" clip-path="url(#p73b50668cb)" style="fill: #dccee1"/>
   </g>
   <g id="patch_8">
    <path d="M -4435.66058 197.983125 
L 147.233011 197.983125 
L 147.233011 214.813125 
L -4435.66058 214.813125 
z
" clip-path="url(#p73b50668cb)" style="fill: #dccee1"/>
   </g>
   <g id="patch_9">
    <path d="M -4435.66058 76.213125 
L 120.592922 76.213125 
L 120.592922 93.043125 
L -4435.66058 93.043125 
z
" clip-path="url(#p73b50668cb)" style="fill: #f3d7b1"/>
   </g>
   <g id="patch_10">
    <path d="M -4435.66058 214.813125 
L 133.227849 214.813125 
L 133.227849 231.643125 
L -4435.66058 231.643125 
z
" clip-path="url(#p73b50668cb)" style="fill: #f3d7b1"/>
   </g>
   <g id="patch_11">
    <path d="M -4435.66058 93.043125 
L 88.90365 93.043125 
L 88.90365 109.873125 
L -4435.66058 109.873125 
z
" clip-path="url(#p73b50668cb)" style="fill: #e0d6c2"/>
   </g>
   <g id="patch_12">
    <path d="M -4435.66058 231.643125 
L 99.060393 231.643125 
L 99.060393 248.473125 
L -4435.66058 248.473125 
z
" clip-path="url(#p73b50668cb)" style="fill: #e0d6c2"/>
   </g>
   <g id="patch_13">
    <path d="M -4435.66058 109.873125 
L 95.0649 109.873125 
L 95.0649 126.703125 
L -4435.66058 126.703125 
z
" clip-path="url(#p73b50668cb)" style="fill: #f9deec"/>
   </g>
   <g id="patch_14">
    <path d="M -4435.66058 248.473125 
L 108.556277 248.473125 
L 108.556277 265.303125 
L -4435.66058 265.303125 
z
" clip-path="url(#p73b50668cb)" style="fill: #f9deec"/>
   </g>
   <g id="patch_15">
    <path d="M -4435.66058 126.703125 
L 141.931905 126.703125 
L 141.931905 143.533125 
L -4435.66058 143.533125 
z
" clip-path="url(#p73b50668cb)" style="fill: #f1bcb8"/>
   </g>
   <g id="patch_16">
    <path d="M -4435.66058 265.303125 
L 160.797406 265.303125 
L 160.797406 282.133125 
L -4435.66058 282.133125 
z
" clip-path="url(#p73b50668cb)" style="fill: #f1bcb8"/>
   </g>
   <g id="matplotlib.axis_1">
    <g id="xtick_1">
     <g id="line2d_1">
      <defs>
       <path id="md0904fe969" d="M 0 0 
L 0 2 
" style="stroke: #000000; stroke-width: 1.5"/>
      </defs>
      <g>
       <use xlink:href="#md0904fe969" x="12.396563" y="292.528125" style="stroke: #000000; stroke-width: 1.5"/>
      </g>
     </g>
     <g id="text_1">
      <!-- 0.93 -->
      <g transform="translate(0.72 306.63625)scale(0.12 -0.12)">
       <defs>
        <path id="Helvetica-30" d="M 1731 4475 
Q 2600 4475 2988 3759 
Q 3288 3206 3288 2244 
Q 3288 1331 3016 734 
Q 2622 -122 1728 -122 
Q 922 -122 528 578 
Q 200 1163 200 2147 
Q 200 2909 397 3456 
Q 766 4475 1731 4475 
z
M 1725 391 
Q 2163 391 2422 778 
Q 2681 1166 2681 2222 
Q 2681 2984 2493 3476 
Q 2306 3969 1766 3969 
Q 1269 3969 1039 3501 
Q 809 3034 809 2125 
Q 809 1441 956 1025 
Q 1181 391 1725 391 
z
" transform="scale(0.015625)"/>
        <path id="Helvetica-2e" d="M 547 681 
L 1200 681 
L 1200 0 
L 547 0 
L 547 681 
z
" transform="scale(0.015625)"/>
        <path id="Helvetica-39" d="M 850 1081 
Q 875 616 1209 438 
Q 1381 344 1597 344 
Q 2000 344 2284 680 
Q 2569 1016 2688 2044 
Q 2500 1747 2223 1626 
Q 1947 1506 1628 1506 
Q 981 1506 604 1909 
Q 228 2313 228 2947 
Q 228 3556 600 4018 
Q 972 4481 1697 4481 
Q 2675 4481 3047 3600 
Q 3253 3116 3253 2388 
Q 3253 1566 3006 931 
Q 2597 -125 1619 -125 
Q 963 -125 622 219 
Q 281 563 281 1081 
L 850 1081 
z
M 1703 2000 
Q 2038 2000 2314 2220 
Q 2591 2441 2591 2991 
Q 2591 3484 2342 3726 
Q 2094 3969 1709 3969 
Q 1297 3969 1055 3692 
Q 813 3416 813 2953 
Q 813 2516 1025 2258 
Q 1238 2000 1703 2000 
z
" transform="scale(0.015625)"/>
        <path id="Helvetica-33" d="M 1663 -122 
Q 869 -122 511 314 
Q 153 750 153 1375 
L 741 1375 
Q 778 941 903 744 
Q 1122 391 1694 391 
Q 2138 391 2406 628 
Q 2675 866 2675 1241 
Q 2675 1703 2392 1887 
Q 2109 2072 1606 2072 
Q 1550 2072 1492 2070 
Q 1434 2069 1375 2066 
L 1375 2563 
Q 1463 2553 1522 2550 
Q 1581 2547 1650 2547 
Q 1966 2547 2169 2647 
Q 2525 2822 2525 3272 
Q 2525 3606 2287 3787 
Q 2050 3969 1734 3969 
Q 1172 3969 956 3594 
Q 838 3388 822 3006 
L 266 3006 
Q 266 3506 466 3856 
Q 809 4481 1675 4481 
Q 2359 4481 2734 4176 
Q 3109 3872 3109 3294 
Q 3109 2881 2888 2625 
Q 2750 2466 2531 2375 
Q 2884 2278 3082 2001 
Q 3281 1725 3281 1325 
Q 3281 684 2859 281 
Q 2438 -122 1663 -122 
z
" transform="scale(0.015625)"/>
       </defs>
       <use xlink:href="#Helvetica-30"/>
       <use xlink:href="#Helvetica-2e" x="55.615234"/>
       <use xlink:href="#Helvetica-39" x="83.398438"/>
       <use xlink:href="#Helvetica-33" x="139.013672"/>
      </g>
     </g>
    </g>
    <g id="xtick_2">
     <g id="line2d_2">
      <g>
       <use xlink:href="#md0904fe969" x="60.225134" y="292.528125" style="stroke: #000000; stroke-width: 1.5"/>
      </g>
     </g>
     <g id="text_2">
      <!-- 0.94 -->
      <g transform="translate(48.548571 306.63625)scale(0.12 -0.12)">
       <defs>
        <path id="Helvetica-34" d="M 2116 1584 
L 2116 3613 
L 681 1584 
L 2116 1584 
z
M 2125 0 
L 2125 1094 
L 163 1094 
L 163 1644 
L 2213 4488 
L 2688 4488 
L 2688 1584 
L 3347 1584 
L 3347 1094 
L 2688 1094 
L 2688 0 
L 2125 0 
z
" transform="scale(0.015625)"/>
       </defs>
       <use xlink:href="#Helvetica-30"/>
       <use xlink:href="#Helvetica-2e" x="55.615234"/>
       <use xlink:href="#Helvetica-39" x="83.398438"/>
       <use xlink:href="#Helvetica-34" x="139.013672"/>
      </g>
     </g>
    </g>
    <g id="xtick_3">
     <g id="line2d_3">
      <g>
       <use xlink:href="#md0904fe969" x="108.053705" y="292.528125" style="stroke: #000000; stroke-width: 1.5"/>
      </g>
     </g>
     <g id="text_3">
      <!-- 0.95 -->
      <g transform="translate(96.377143 306.63625)scale(0.12 -0.12)">
       <defs>
        <path id="Helvetica-35" d="M 791 1141 
Q 847 659 1238 475 
Q 1438 381 1700 381 
Q 2200 381 2440 700 
Q 2681 1019 2681 1406 
Q 2681 1875 2395 2131 
Q 2109 2388 1709 2388 
Q 1419 2388 1211 2275 
Q 1003 2163 856 1963 
L 369 1991 
L 709 4400 
L 3034 4400 
L 3034 3856 
L 1131 3856 
L 941 2613 
Q 1097 2731 1238 2791 
Q 1488 2894 1816 2894 
Q 2431 2894 2859 2497 
Q 3288 2100 3288 1491 
Q 3288 856 2895 371 
Q 2503 -113 1644 -113 
Q 1097 -113 676 195 
Q 256 503 206 1141 
L 791 1141 
z
" transform="scale(0.015625)"/>
       </defs>
       <use xlink:href="#Helvetica-30"/>
       <use xlink:href="#Helvetica-2e" x="55.615234"/>
       <use xlink:href="#Helvetica-39" x="83.398438"/>
       <use xlink:href="#Helvetica-35" x="139.013672"/>
      </g>
     </g>
    </g>
    <g id="xtick_4">
     <g id="line2d_4">
      <g>
       <use xlink:href="#md0904fe969" x="155.882277" y="292.528125" style="stroke: #000000; stroke-width: 1.5"/>
      </g>
     </g>
     <g id="text_4">
      <!-- 0.96 -->
      <g transform="translate(144.205714 306.63625)scale(0.12 -0.12)">
       <defs>
        <path id="Helvetica-36" d="M 1872 4494 
Q 2622 4494 2917 4105 
Q 3213 3716 3213 3303 
L 2656 3303 
Q 2606 3569 2497 3719 
Q 2294 4000 1881 4000 
Q 1409 4000 1131 3564 
Q 853 3128 822 2316 
Q 1016 2600 1309 2741 
Q 1578 2866 1909 2866 
Q 2472 2866 2890 2506 
Q 3309 2147 3309 1434 
Q 3309 825 2912 354 
Q 2516 -116 1781 -116 
Q 1153 -116 697 361 
Q 241 838 241 1966 
Q 241 2800 444 3381 
Q 834 4494 1872 4494 
z
M 1831 384 
Q 2275 384 2495 682 
Q 2716 981 2716 1388 
Q 2716 1731 2519 2042 
Q 2322 2353 1803 2353 
Q 1441 2353 1167 2112 
Q 894 1872 894 1388 
Q 894 963 1142 673 
Q 1391 384 1831 384 
z
" transform="scale(0.015625)"/>
       </defs>
       <use xlink:href="#Helvetica-30"/>
       <use xlink:href="#Helvetica-2e" x="55.615234"/>
       <use xlink:href="#Helvetica-39" x="83.398438"/>
       <use xlink:href="#Helvetica-36" x="139.013672"/>
      </g>
     </g>
    </g>
   </g>
   <g id="matplotlib.axis_2">
    <g id="ytick_1"/>
    <g id="ytick_2"/>
   </g>
   <g id="line2d_5">
    <path d="M 104.114208 34.138125 
L 116.762207 34.138125 
" clip-path="url(#p73b50668cb)" style="fill: none; stroke: #424242; stroke-width: 2.7; stroke-linecap: square"/>
   </g>
   <g id="line2d_6">
    <path d="M 117.513636 172.738125 
L 125.536871 172.738125 
" clip-path="url(#p73b50668cb)" style="fill: none; stroke: #424242; stroke-width: 2.7; stroke-linecap: square"/>
   </g>
   <g id="line2d_7">
    <path d="M 105.507763 50.968125 
L 117.989568 50.968125 
" clip-path="url(#p73b50668cb)" style="fill: none; stroke: #424242; stroke-width: 2.7; stroke-linecap: square"/>
   </g>
   <g id="line2d_8">
    <path d="M 118.559145 189.568125 
L 126.66645 189.568125 
" clip-path="url(#p73b50668cb)" style="fill: none; stroke: #424242; stroke-width: 2.7; stroke-linecap: square"/>
   </g>
   <g id="line2d_9">
    <path d="M 129.562064 67.798125 
L 141.460364 67.798125 
" clip-path="url(#p73b50668cb)" style="fill: none; stroke: #424242; stroke-width: 2.7; stroke-linecap: square"/>
   </g>
   <g id="line2d_10">
    <path d="M 140.953995 206.398125 
L 152.992335 206.398125 
" clip-path="url(#p73b50668cb)" style="fill: none; stroke: #424242; stroke-width: 2.7; stroke-linecap: square"/>
   </g>
   <g id="line2d_11">
    <path d="M 115.226439 84.628125 
L 125.808098 84.628125 
" clip-path="url(#p73b50668cb)" style="fill: none; stroke: #424242; stroke-width: 2.7; stroke-linecap: square"/>
   </g>
   <g id="line2d_12">
    <path d="M 129.676888 223.228125 
L 136.212349 223.228125 
" clip-path="url(#p73b50668cb)" style="fill: none; stroke: #424242; stroke-width: 2.7; stroke-linecap: square"/>
   </g>
   <g id="line2d_13">
    <path d="M 75.314883 101.458125 
L 102.089567 101.458125 
" clip-path="url(#p73b50668cb)" style="fill: none; stroke: #424242; stroke-width: 2.7; stroke-linecap: square"/>
   </g>
   <g id="line2d_14">
    <path d="M 86.664699 240.058125 
L 112.310003 240.058125 
" clip-path="url(#p73b50668cb)" style="fill: none; stroke: #424242; stroke-width: 2.7; stroke-linecap: square"/>
   </g>
   <g id="line2d_15">
    <path d="M 80.348838 118.288125 
L 106.074438 118.288125 
" clip-path="url(#p73b50668cb)" style="fill: none; stroke: #424242; stroke-width: 2.7; stroke-linecap: square"/>
   </g>
   <g id="line2d_16">
    <path d="M 91.213528 256.888125 
L 125.71026 256.888125 
" clip-path="url(#p73b50668cb)" style="fill: none; stroke: #424242; stroke-width: 2.7; stroke-linecap: square"/>
   </g>
   <g id="line2d_17">
    <path d="M 135.589244 135.118125 
L 147.81426 135.118125 
" clip-path="url(#p73b50668cb)" style="fill: none; stroke: #424242; stroke-width: 2.7; stroke-linecap: square"/>
   </g>
   <g id="line2d_18">
    <path d="M 153.481736 273.718125 
L 168.320684 273.718125 
" clip-path="url(#p73b50668cb)" style="fill: none; stroke: #424242; stroke-width: 2.7; stroke-linecap: square"/>
   </g>
   <g id="patch_17">
    <path d="M 12.396562 292.528125 
L 12.396562 15.328125 
" style="fill: none; stroke: #000000; stroke-width: 1.5; stroke-linejoin: miter; stroke-linecap: square"/>
   </g>
   <g id="patch_18">
    <path d="M 12.396563 292.528125 
L 179.796562 292.528125 
" style="fill: none; stroke: #000000; stroke-width: 1.5; stroke-linejoin: miter; stroke-linecap: square"/>
   </g>
   <g id="text_5">
    <!-- 0.951 -->
    <g transform="translate(60.863315 36.682656)scale(0.1 -0.1)">
     <defs>
      <path id="Helvetica-31" d="M 613 3169 
L 613 3600 
Q 1222 3659 1462 3798 
Q 1703 3938 1822 4456 
L 2266 4456 
L 2266 0 
L 1666 0 
L 1666 3169 
L 613 3169 
z
" transform="scale(0.015625)"/>
     </defs>
     <use xlink:href="#Helvetica-30"/>
     <use xlink:href="#Helvetica-2e" x="55.615234"/>
     <use xlink:href="#Helvetica-39" x="83.398438"/>
     <use xlink:href="#Helvetica-35" x="139.013672"/>
     <use xlink:href="#Helvetica-31" x="194.628906"/>
    </g>
   </g>
   <g id="text_6">
    <!-- 0.953 -->
    <g transform="translate(71.502462 175.282656)scale(0.1 -0.1)">
     <use xlink:href="#Helvetica-30"/>
     <use xlink:href="#Helvetica-2e" x="55.615234"/>
     <use xlink:href="#Helvetica-39" x="83.398438"/>
     <use xlink:href="#Helvetica-35" x="139.013672"/>
     <use xlink:href="#Helvetica-33" x="194.628906"/>
    </g>
   </g>
   <g id="text_7">
    <!-- 0.951 -->
    <g transform="translate(62.107177 53.512656)scale(0.1 -0.1)">
     <use xlink:href="#Helvetica-30"/>
     <use xlink:href="#Helvetica-2e" x="55.615234"/>
     <use xlink:href="#Helvetica-39" x="83.398438"/>
     <use xlink:href="#Helvetica-35" x="139.013672"/>
     <use xlink:href="#Helvetica-31" x="194.628906"/>
    </g>
   </g>
   <g id="text_8">
    <!-- 0.953 -->
    <g transform="translate(72.493364 192.112656)scale(0.1 -0.1)">
     <use xlink:href="#Helvetica-30"/>
     <use xlink:href="#Helvetica-2e" x="55.615234"/>
     <use xlink:href="#Helvetica-39" x="83.398438"/>
     <use xlink:href="#Helvetica-35" x="139.013672"/>
     <use xlink:href="#Helvetica-33" x="194.628906"/>
    </g>
   </g>
   <g id="text_9">
    <!-- 0.956 -->
    <g transform="translate(85.405271 70.342656)scale(0.1 -0.1)">
     <use xlink:href="#Helvetica-30"/>
     <use xlink:href="#Helvetica-2e" x="55.615234"/>
     <use xlink:href="#Helvetica-39" x="83.398438"/>
     <use xlink:href="#Helvetica-35" x="139.013672"/>
     <use xlink:href="#Helvetica-36" x="194.628906"/>
    </g>
   </g>
   <g id="text_10">
    <!-- 0.958 -->
    <g transform="translate(97.233011 208.942656)scale(0.1 -0.1)">
     <defs>
      <path id="Helvetica-38" d="M 1741 2600 
Q 2113 2600 2322 2808 
Q 2531 3016 2531 3303 
Q 2531 3553 2331 3762 
Q 2131 3972 1722 3972 
Q 1316 3972 1134 3762 
Q 953 3553 953 3272 
Q 953 2956 1187 2778 
Q 1422 2600 1741 2600 
z
M 1775 384 
Q 2166 384 2423 595 
Q 2681 806 2681 1225 
Q 2681 1659 2415 1884 
Q 2150 2109 1734 2109 
Q 1331 2109 1076 1879 
Q 822 1650 822 1244 
Q 822 894 1055 639 
Q 1288 384 1775 384 
z
M 975 2384 
Q 741 2484 609 2619 
Q 363 2869 363 3269 
Q 363 3769 725 4128 
Q 1088 4488 1753 4488 
Q 2397 4488 2762 4148 
Q 3128 3809 3128 3356 
Q 3128 2938 2916 2678 
Q 2797 2531 2547 2391 
Q 2825 2263 2984 2097 
Q 3281 1784 3281 1284 
Q 3281 694 2884 283 
Q 2488 -128 1763 -128 
Q 1109 -128 657 226 
Q 206 581 206 1256 
Q 206 1653 400 1942 
Q 594 2231 975 2384 
z
" transform="scale(0.015625)"/>
     </defs>
     <use xlink:href="#Helvetica-30"/>
     <use xlink:href="#Helvetica-2e" x="55.615234"/>
     <use xlink:href="#Helvetica-39" x="83.398438"/>
     <use xlink:href="#Helvetica-35" x="139.013672"/>
     <use xlink:href="#Helvetica-38" x="194.628906"/>
    </g>
   </g>
   <g id="text_11">
    <!-- 0.953 -->
    <g transform="translate(70.592922 87.172656)scale(0.1 -0.1)">
     <use xlink:href="#Helvetica-30"/>
     <use xlink:href="#Helvetica-2e" x="55.615234"/>
     <use xlink:href="#Helvetica-39" x="83.398438"/>
     <use xlink:href="#Helvetica-35" x="139.013672"/>
     <use xlink:href="#Helvetica-33" x="194.628906"/>
    </g>
   </g>
   <g id="text_12">
    <!-- 0.955 -->
    <g transform="translate(83.227849 225.772656)scale(0.1 -0.1)">
     <use xlink:href="#Helvetica-30"/>
     <use xlink:href="#Helvetica-2e" x="55.615234"/>
     <use xlink:href="#Helvetica-39" x="83.398438"/>
     <use xlink:href="#Helvetica-35" x="139.013672"/>
     <use xlink:href="#Helvetica-35" x="194.628906"/>
    </g>
   </g>
   <g id="text_13">
    <!-- 0.946 -->
    <g transform="translate(38.90365 104.002656)scale(0.1 -0.1)">
     <use xlink:href="#Helvetica-30"/>
     <use xlink:href="#Helvetica-2e" x="55.615234"/>
     <use xlink:href="#Helvetica-39" x="83.398438"/>
     <use xlink:href="#Helvetica-34" x="139.013672"/>
     <use xlink:href="#Helvetica-36" x="194.628906"/>
    </g>
   </g>
   <g id="text_14">
    <!-- 0.948 -->
    <g transform="translate(49.060393 242.602656)scale(0.1 -0.1)">
     <use xlink:href="#Helvetica-30"/>
     <use xlink:href="#Helvetica-2e" x="55.615234"/>
     <use xlink:href="#Helvetica-39" x="83.398438"/>
     <use xlink:href="#Helvetica-34" x="139.013672"/>
     <use xlink:href="#Helvetica-38" x="194.628906"/>
    </g>
   </g>
   <g id="text_15">
    <!-- 0.947 -->
    <g transform="translate(45.0649 120.832656)scale(0.1 -0.1)">
     <defs>
      <path id="Helvetica-37" d="M 3347 4400 
L 3347 3909 
Q 3131 3700 2773 3181 
Q 2416 2663 2141 2063 
Q 1869 1478 1728 997 
Q 1638 688 1494 0 
L 872 0 
Q 1084 1281 1809 2550 
Q 2238 3294 2709 3834 
L 234 3834 
L 234 4400 
L 3347 4400 
z
" transform="scale(0.015625)"/>
     </defs>
     <use xlink:href="#Helvetica-30"/>
     <use xlink:href="#Helvetica-2e" x="55.615234"/>
     <use xlink:href="#Helvetica-39" x="83.398438"/>
     <use xlink:href="#Helvetica-34" x="139.013672"/>
     <use xlink:href="#Helvetica-37" x="194.628906"/>
    </g>
   </g>
   <g id="text_16">
    <!-- 0.950 -->
    <g transform="translate(58.556277 259.432656)scale(0.1 -0.1)">
     <use xlink:href="#Helvetica-30"/>
     <use xlink:href="#Helvetica-2e" x="55.615234"/>
     <use xlink:href="#Helvetica-39" x="83.398438"/>
     <use xlink:href="#Helvetica-35" x="139.013672"/>
     <use xlink:href="#Helvetica-30" x="194.628906"/>
    </g>
   </g>
   <g id="text_17">
    <!-- 0.957 -->
    <g transform="translate(91.931905 137.662656)scale(0.1 -0.1)">
     <use xlink:href="#Helvetica-30"/>
     <use xlink:href="#Helvetica-2e" x="55.615234"/>
     <use xlink:href="#Helvetica-39" x="83.398438"/>
     <use xlink:href="#Helvetica-35" x="139.013672"/>
     <use xlink:href="#Helvetica-37" x="194.628906"/>
    </g>
   </g>
   <g id="text_18">
    <!-- 0.961 -->
    <g transform="translate(110.797406 276.262656)scale(0.1 -0.1)">
     <use xlink:href="#Helvetica-30"/>
     <use xlink:href="#Helvetica-2e" x="55.615234"/>
     <use xlink:href="#Helvetica-39" x="83.398438"/>
     <use xlink:href="#Helvetica-36" x="139.013672"/>
     <use xlink:href="#Helvetica-31" x="194.628906"/>
    </g>
   </g>
   <g id="text_19">
    <!-- P-value -->
    <g transform="translate(167.627076 19.852656)scale(0.1 -0.1)">
     <defs>
      <path id="Helvetica-50" d="M 547 4591 
L 2613 4591 
Q 3225 4591 3600 4245 
Q 3975 3900 3975 3275 
Q 3975 2738 3640 2339 
Q 3306 1941 2613 1941 
L 1169 1941 
L 1169 0 
L 547 0 
L 547 4591 
z
M 3347 3272 
Q 3347 3778 2972 3959 
Q 2766 4056 2406 4056 
L 1169 4056 
L 1169 2466 
L 2406 2466 
Q 2825 2466 3086 2644 
Q 3347 2822 3347 3272 
z
" transform="scale(0.015625)"/>
      <path id="Helvetica-2d" d="M 266 2072 
L 1834 2072 
L 1834 1494 
L 266 1494 
L 266 2072 
z
" transform="scale(0.015625)"/>
      <path id="Helvetica-76" d="M 688 3347 
L 1581 622 
L 2516 3347 
L 3131 3347 
L 1869 0 
L 1269 0 
L 34 3347 
L 688 3347 
z
" transform="scale(0.015625)"/>
      <path id="Helvetica-61" d="M 844 891 
Q 844 647 1022 506 
Q 1200 366 1444 366 
Q 1741 366 2019 503 
Q 2488 731 2488 1250 
L 2488 1703 
Q 2384 1638 2221 1594 
Q 2059 1550 1903 1531 
L 1563 1488 
Q 1256 1447 1103 1359 
Q 844 1213 844 891 
z
M 2206 2028 
Q 2400 2053 2466 2191 
Q 2503 2266 2503 2406 
Q 2503 2694 2298 2823 
Q 2094 2953 1713 2953 
Q 1272 2953 1088 2716 
Q 984 2584 953 2325 
L 428 2325 
Q 444 2944 830 3186 
Q 1216 3428 1725 3428 
Q 2316 3428 2684 3203 
Q 3050 2978 3050 2503 
L 3050 575 
Q 3050 488 3086 434 
Q 3122 381 3238 381 
Q 3275 381 3322 386 
Q 3369 391 3422 400 
L 3422 -16 
Q 3291 -53 3222 -62 
Q 3153 -72 3034 -72 
Q 2744 -72 2613 134 
Q 2544 244 2516 444 
Q 2344 219 2022 53 
Q 1700 -113 1313 -113 
Q 847 -113 551 170 
Q 256 453 256 878 
Q 256 1344 547 1600 
Q 838 1856 1309 1916 
L 2206 2028 
z
M 1741 3428 
L 1741 3428 
z
" transform="scale(0.015625)"/>
      <path id="Helvetica-6c" d="M 428 4591 
L 991 4591 
L 991 0 
L 428 0 
L 428 4591 
z
" transform="scale(0.015625)"/>
      <path id="Helvetica-75" d="M 975 3347 
L 975 1125 
Q 975 869 1056 706 
Q 1206 406 1616 406 
Q 2203 406 2416 931 
Q 2531 1213 2531 1703 
L 2531 3347 
L 3094 3347 
L 3094 0 
L 2563 0 
L 2569 494 
Q 2459 303 2297 172 
Q 1975 -91 1516 -91 
Q 800 -91 541 388 
Q 400 644 400 1072 
L 400 3347 
L 975 3347 
z
M 1747 3428 
L 1747 3428 
z
" transform="scale(0.015625)"/>
      <path id="Helvetica-65" d="M 1806 3422 
Q 2163 3422 2497 3255 
Q 2831 3088 3006 2822 
Q 3175 2569 3231 2231 
Q 3281 2000 3281 1494 
L 828 1494 
Q 844 984 1069 676 
Q 1294 369 1766 369 
Q 2206 369 2469 659 
Q 2619 828 2681 1050 
L 3234 1050 
Q 3213 866 3089 639 
Q 2966 413 2813 269 
Q 2556 19 2178 -69 
Q 1975 -119 1719 -119 
Q 1094 -119 659 336 
Q 225 791 225 1609 
Q 225 2416 662 2919 
Q 1100 3422 1806 3422 
z
M 2703 1941 
Q 2669 2306 2544 2525 
Q 2313 2931 1772 2931 
Q 1384 2931 1121 2651 
Q 859 2372 844 1941 
L 2703 1941 
z
M 1753 3428 
L 1753 3428 
z
" transform="scale(0.015625)"/>
     </defs>
     <use xlink:href="#Helvetica-50"/>
     <use xlink:href="#Helvetica-2d" x="66.699219"/>
     <use xlink:href="#Helvetica-76" x="100"/>
     <use xlink:href="#Helvetica-61" x="150"/>
     <use xlink:href="#Helvetica-6c" x="205.615234"/>
     <use xlink:href="#Helvetica-75" x="227.832031"/>
     <use xlink:href="#Helvetica-65" x="283.447266"/>
    </g>
   </g>
   <g id="text_20">
    <!-- P-value -->
    <g transform="translate(167.627076 158.452656)scale(0.1 -0.1)">
     <use xlink:href="#Helvetica-50"/>
     <use xlink:href="#Helvetica-2d" x="66.699219"/>
     <use xlink:href="#Helvetica-76" x="100"/>
     <use xlink:href="#Helvetica-61" x="150"/>
     <use xlink:href="#Helvetica-6c" x="205.615234"/>
     <use xlink:href="#Helvetica-75" x="227.832031"/>
     <use xlink:href="#Helvetica-65" x="283.447266"/>
    </g>
   </g>
   <g id="text_21">
    <!-- - - - - - - - - - - - - - - - - -->
    <g transform="translate(157.94192 26.41075)scale(0.1 -0.1)">
     <use xlink:href="#Helvetica-2d"/>
     <use xlink:href="#Helvetica-2d" x="33.300781"/>
     <use xlink:href="#Helvetica-2d" x="66.601562"/>
     <use xlink:href="#Helvetica-2d" x="99.902344"/>
     <use xlink:href="#Helvetica-2d" x="133.203125"/>
     <use xlink:href="#Helvetica-2d" x="166.503906"/>
     <use xlink:href="#Helvetica-2d" x="199.804688"/>
     <use xlink:href="#Helvetica-2d" x="233.105469"/>
     <use xlink:href="#Helvetica-2d" x="266.40625"/>
     <use xlink:href="#Helvetica-2d" x="299.707031"/>
     <use xlink:href="#Helvetica-2d" x="333.007812"/>
     <use xlink:href="#Helvetica-2d" x="366.308594"/>
     <use xlink:href="#Helvetica-2d" x="399.609375"/>
     <use xlink:href="#Helvetica-2d" x="432.910156"/>
     <use xlink:href="#Helvetica-2d" x="466.210938"/>
     <use xlink:href="#Helvetica-2d" x="499.511719"/>
    </g>
   </g>
   <g id="text_22">
    <!-- - - - - - - - - - - - - - - - - -->
    <g transform="translate(157.94192 165.01075)scale(0.1 -0.1)">
     <use xlink:href="#Helvetica-2d"/>
     <use xlink:href="#Helvetica-2d" x="33.300781"/>
     <use xlink:href="#Helvetica-2d" x="66.601562"/>
     <use xlink:href="#Helvetica-2d" x="99.902344"/>
     <use xlink:href="#Helvetica-2d" x="133.203125"/>
     <use xlink:href="#Helvetica-2d" x="166.503906"/>
     <use xlink:href="#Helvetica-2d" x="199.804688"/>
     <use xlink:href="#Helvetica-2d" x="233.105469"/>
     <use xlink:href="#Helvetica-2d" x="266.40625"/>
     <use xlink:href="#Helvetica-2d" x="299.707031"/>
     <use xlink:href="#Helvetica-2d" x="333.007812"/>
     <use xlink:href="#Helvetica-2d" x="366.308594"/>
     <use xlink:href="#Helvetica-2d" x="399.609375"/>
     <use xlink:href="#Helvetica-2d" x="432.910156"/>
     <use xlink:href="#Helvetica-2d" x="466.210938"/>
     <use xlink:href="#Helvetica-2d" x="499.511719"/>
    </g>
   </g>
   <g id="text_23">
    <!-- 1.56e-07 -->
    <g transform="translate(164.842701 36.682656)scale(0.1 -0.1)">
     <use xlink:href="#Helvetica-31"/>
     <use xlink:href="#Helvetica-2e" x="55.615234"/>
     <use xlink:href="#Helvetica-35" x="83.398438"/>
     <use xlink:href="#Helvetica-36" x="139.013672"/>
     <use xlink:href="#Helvetica-65" x="194.628906"/>
     <use xlink:href="#Helvetica-2d" x="250.244141"/>
     <use xlink:href="#Helvetica-30" x="283.544922"/>
     <use xlink:href="#Helvetica-37" x="339.160156"/>
    </g>
   </g>
   <g id="text_24">
    <!-- 4.91e-07 -->
    <g transform="translate(164.842701 53.512656)scale(0.1 -0.1)">
     <use xlink:href="#Helvetica-34"/>
     <use xlink:href="#Helvetica-2e" x="55.615234"/>
     <use xlink:href="#Helvetica-39" x="83.398438"/>
     <use xlink:href="#Helvetica-31" x="139.013672"/>
     <use xlink:href="#Helvetica-65" x="194.628906"/>
     <use xlink:href="#Helvetica-2d" x="250.244141"/>
     <use xlink:href="#Helvetica-30" x="283.544922"/>
     <use xlink:href="#Helvetica-37" x="339.160156"/>
    </g>
   </g>
   <g id="text_25">
    <!-- 1.46e-04 -->
    <g transform="translate(164.842701 70.342656)scale(0.1 -0.1)">
     <use xlink:href="#Helvetica-31"/>
     <use xlink:href="#Helvetica-2e" x="55.615234"/>
     <use xlink:href="#Helvetica-34" x="83.398438"/>
     <use xlink:href="#Helvetica-36" x="139.013672"/>
     <use xlink:href="#Helvetica-65" x="194.628906"/>
     <use xlink:href="#Helvetica-2d" x="250.244141"/>
     <use xlink:href="#Helvetica-30" x="283.544922"/>
     <use xlink:href="#Helvetica-34" x="339.160156"/>
    </g>
   </g>
   <g id="text_26">
    <!-- 2.03e-05 -->
    <g transform="translate(164.842701 87.172656)scale(0.1 -0.1)">
     <defs>
      <path id="Helvetica-32" d="M 200 0 
Q 231 578 439 1006 
Q 647 1434 1250 1784 
L 1850 2131 
Q 2253 2366 2416 2531 
Q 2672 2791 2672 3125 
Q 2672 3516 2437 3745 
Q 2203 3975 1813 3975 
Q 1234 3975 1013 3538 
Q 894 3303 881 2888 
L 309 2888 
Q 319 3472 525 3841 
Q 891 4491 1816 4491 
Q 2584 4491 2939 4075 
Q 3294 3659 3294 3150 
Q 3294 2613 2916 2231 
Q 2697 2009 2131 1694 
L 1703 1456 
Q 1397 1288 1222 1134 
Q 909 863 828 531 
L 3272 531 
L 3272 0 
L 200 0 
z
" transform="scale(0.015625)"/>
     </defs>
     <use xlink:href="#Helvetica-32"/>
     <use xlink:href="#Helvetica-2e" x="55.615234"/>
     <use xlink:href="#Helvetica-30" x="83.398438"/>
     <use xlink:href="#Helvetica-33" x="139.013672"/>
     <use xlink:href="#Helvetica-65" x="194.628906"/>
     <use xlink:href="#Helvetica-2d" x="250.244141"/>
     <use xlink:href="#Helvetica-30" x="283.544922"/>
     <use xlink:href="#Helvetica-35" x="339.160156"/>
    </g>
   </g>
   <g id="text_27">
    <!-- 7.89e-05 -->
    <g transform="translate(164.842701 104.002656)scale(0.1 -0.1)">
     <use xlink:href="#Helvetica-37"/>
     <use xlink:href="#Helvetica-2e" x="55.615234"/>
     <use xlink:href="#Helvetica-38" x="83.398438"/>
     <use xlink:href="#Helvetica-39" x="139.013672"/>
     <use xlink:href="#Helvetica-65" x="194.628906"/>
     <use xlink:href="#Helvetica-2d" x="250.244141"/>
     <use xlink:href="#Helvetica-30" x="283.544922"/>
     <use xlink:href="#Helvetica-35" x="339.160156"/>
    </g>
   </g>
   <g id="text_28">
    <!-- 1.55e-05 -->
    <g transform="translate(164.842701 120.832656)scale(0.1 -0.1)">
     <use xlink:href="#Helvetica-31"/>
     <use xlink:href="#Helvetica-2e" x="55.615234"/>
     <use xlink:href="#Helvetica-35" x="83.398438"/>
     <use xlink:href="#Helvetica-35" x="139.013672"/>
     <use xlink:href="#Helvetica-65" x="194.628906"/>
     <use xlink:href="#Helvetica-2d" x="250.244141"/>
     <use xlink:href="#Helvetica-30" x="283.544922"/>
     <use xlink:href="#Helvetica-35" x="339.160156"/>
    </g>
   </g>
   <g id="text_29">
    <!-- 2.77e-06 -->
    <g transform="translate(164.842701 175.282656)scale(0.1 -0.1)">
     <use xlink:href="#Helvetica-32"/>
     <use xlink:href="#Helvetica-2e" x="55.615234"/>
     <use xlink:href="#Helvetica-37" x="83.398438"/>
     <use xlink:href="#Helvetica-37" x="139.013672"/>
     <use xlink:href="#Helvetica-65" x="194.628906"/>
     <use xlink:href="#Helvetica-2d" x="250.244141"/>
     <use xlink:href="#Helvetica-30" x="283.544922"/>
     <use xlink:href="#Helvetica-36" x="339.160156"/>
    </g>
   </g>
   <g id="text_30">
    <!-- 2.82e-06 -->
    <g transform="translate(164.842701 192.112656)scale(0.1 -0.1)">
     <use xlink:href="#Helvetica-32"/>
     <use xlink:href="#Helvetica-2e" x="55.615234"/>
     <use xlink:href="#Helvetica-38" x="83.398438"/>
     <use xlink:href="#Helvetica-32" x="139.013672"/>
     <use xlink:href="#Helvetica-65" x="194.628906"/>
     <use xlink:href="#Helvetica-2d" x="250.244141"/>
     <use xlink:href="#Helvetica-30" x="283.544922"/>
     <use xlink:href="#Helvetica-36" x="339.160156"/>
    </g>
   </g>
   <g id="text_31">
    <!-- 7.12e-04 -->
    <g transform="translate(164.842701 208.942656)scale(0.1 -0.1)">
     <use xlink:href="#Helvetica-37"/>
     <use xlink:href="#Helvetica-2e" x="55.615234"/>
     <use xlink:href="#Helvetica-31" x="83.398438"/>
     <use xlink:href="#Helvetica-32" x="139.013672"/>
     <use xlink:href="#Helvetica-65" x="194.628906"/>
     <use xlink:href="#Helvetica-2d" x="250.244141"/>
     <use xlink:href="#Helvetica-30" x="283.544922"/>
     <use xlink:href="#Helvetica-34" x="339.160156"/>
    </g>
   </g>
   <g id="text_32">
    <!-- 2.88e-06 -->
    <g transform="translate(164.842701 225.772656)scale(0.1 -0.1)">
     <use xlink:href="#Helvetica-32"/>
     <use xlink:href="#Helvetica-2e" x="55.615234"/>
     <use xlink:href="#Helvetica-38" x="83.398438"/>
     <use xlink:href="#Helvetica-38" x="139.013672"/>
     <use xlink:href="#Helvetica-65" x="194.628906"/>
     <use xlink:href="#Helvetica-2d" x="250.244141"/>
     <use xlink:href="#Helvetica-30" x="283.544922"/>
     <use xlink:href="#Helvetica-36" x="339.160156"/>
    </g>
   </g>
   <g id="text_33">
    <!-- 7.36e-06 -->
    <g transform="translate(164.842701 242.602656)scale(0.1 -0.1)">
     <use xlink:href="#Helvetica-37"/>
     <use xlink:href="#Helvetica-2e" x="55.615234"/>
     <use xlink:href="#Helvetica-33" x="83.398438"/>
     <use xlink:href="#Helvetica-36" x="139.013672"/>
     <use xlink:href="#Helvetica-65" x="194.628906"/>
     <use xlink:href="#Helvetica-2d" x="250.244141"/>
     <use xlink:href="#Helvetica-30" x="283.544922"/>
     <use xlink:href="#Helvetica-36" x="339.160156"/>
    </g>
   </g>
   <g id="text_34">
    <!-- 3.66e-04 -->
    <g transform="translate(164.842701 259.432656)scale(0.1 -0.1)">
     <use xlink:href="#Helvetica-33"/>
     <use xlink:href="#Helvetica-2e" x="55.615234"/>
     <use xlink:href="#Helvetica-36" x="83.398438"/>
     <use xlink:href="#Helvetica-36" x="139.013672"/>
     <use xlink:href="#Helvetica-65" x="194.628906"/>
     <use xlink:href="#Helvetica-2d" x="250.244141"/>
     <use xlink:href="#Helvetica-30" x="283.544922"/>
     <use xlink:href="#Helvetica-34" x="339.160156"/>
    </g>
   </g>
   <g id="text_35">
    <!-- AUC -->
    <g transform="translate(83.428125 9.328125)scale(0.12 -0.12)">
     <defs>
      <path id="Helvetica-41" d="M 2844 1881 
L 2147 3909 
L 1406 1881 
L 2844 1881 
z
M 1822 4591 
L 2525 4591 
L 4191 0 
L 3509 0 
L 3044 1375 
L 1228 1375 
L 731 0 
L 94 0 
L 1822 4591 
z
" transform="scale(0.015625)"/>
      <path id="Helvetica-55" d="M 1163 4591 
L 1163 1753 
Q 1163 1253 1350 922 
Q 1628 422 2288 422 
Q 3078 422 3363 963 
Q 3516 1256 3516 1753 
L 3516 4591 
L 4147 4591 
L 4147 2013 
Q 4147 1166 3919 709 
Q 3500 -122 2338 -122 
Q 1175 -122 759 709 
Q 531 1166 531 2013 
L 531 4591 
L 1163 4591 
z
M 2341 4591 
L 2341 4591 
z
" transform="scale(0.015625)"/>
      <path id="Helvetica-43" d="M 2422 4716 
Q 3294 4716 3775 4256 
Q 4256 3797 4309 3213 
L 3703 3213 
Q 3600 3656 3292 3915 
Q 2984 4175 2428 4175 
Q 1750 4175 1333 3698 
Q 916 3222 916 2238 
Q 916 1431 1292 929 
Q 1669 428 2416 428 
Q 3103 428 3463 956 
Q 3653 1234 3747 1688 
L 4353 1688 
Q 4272 963 3816 472 
Q 3269 -119 2341 -119 
Q 1541 -119 997 366 
Q 281 1006 281 2344 
Q 281 3359 819 4009 
Q 1400 4716 2422 4716 
z
M 2297 4716 
L 2297 4716 
z
" transform="scale(0.015625)"/>
     </defs>
     <use xlink:href="#Helvetica-41"/>
     <use xlink:href="#Helvetica-55" x="66.699219"/>
     <use xlink:href="#Helvetica-43" x="138.916016"/>
    </g>
   </g>
  </g>
 </g>
 <defs>
  <clipPath id="p73b50668cb">
   <rect x="12.396562" y="15.328125" width="167.4" height="277.2"/>
  </clipPath>
 </defs>
</svg>
