<?xml version="1.0" encoding="utf-8" standalone="no"?>
<!DOCTYPE svg PUBLIC "-//W3C//DTD SVG 1.1//EN"
  "http://www.w3.org/Graphics/SVG/1.1/DTD/svg11.dtd">
<svg xmlns:xlink="http://www.w3.org/1999/xlink" width="89.314016pt" height="483.808767pt" viewBox="0 0 89.314016 483.808767" xmlns="http://www.w3.org/2000/svg" version="1.1">
 <metadata>
  <rdf:RDF xmlns:dc="http://purl.org/dc/elements/1.1/" xmlns:cc="http://creativecommons.org/ns#" xmlns:rdf="http://www.w3.org/1999/02/22-rdf-syntax-ns#">
   <cc:Work>
    <dc:type rdf:resource="http://purl.org/dc/dcmitype/StillImage"/>
    <dc:date>2024-05-11T15:15:17.274694</dc:date>
    <dc:format>image/svg+xml</dc:format>
    <dc:creator>
     <cc:Agent>
      <dc:title>Matplotlib v3.5.1, https://matplotlib.org/</dc:title>
     </cc:Agent>
    </dc:creator>
   </cc:Work>
  </rdf:RDF>
 </metadata>
 <defs>
  <style type="text/css">*{stroke-linejoin: round; stroke-linecap: butt}</style>
 </defs>
 <g id="figure_1">
  <g id="patch_1">
   <path d="M 0 483.808767 
L 89.314016 483.808767 
L 89.314016 0 
L 0 0 
L 0 483.808767 
z
" style="fill: none"/>
  </g>
  <g id="axes_1">
   <g id="patch_2">
    <path d="M 0.72 483.088767 
L 88.594016 483.088767 
L 88.594016 24.726562 
L 0.72 24.726562 
z
" style="fill: #ffffff"/>
   </g>
   <g id="matplotlib.axis_1">
    <g id="xtick_1">
     <g id="line2d_1">
      <defs>
       <path id="m30a38c939e" d="M 0 0 
L 0 -2 
" style="stroke: #000000; stroke-width: 0.8"/>
      </defs>
      <g>
       <use xlink:href="#m30a38c939e" x="11.704252" y="24.726562" style="stroke: #000000; stroke-width: 0.8"/>
      </g>
     </g>
     <g id="text_1">
      <!-- 1 -->
      <g transform="translate(8.923783 20.642187)scale(0.1 -0.1)">
       <defs>
        <path id="Helvetica-31" d="M 613 3169 
L 613 3600 
Q 1222 3659 1462 3798 
Q 1703 3938 1822 4456 
L 2266 4456 
L 2266 0 
L 1666 0 
L 1666 3169 
L 613 3169 
z
" transform="scale(0.015625)"/>
       </defs>
       <use xlink:href="#Helvetica-31"/>
      </g>
     </g>
    </g>
    <g id="xtick_2">
     <g id="line2d_2">
      <g>
       <use xlink:href="#m30a38c939e" x="44.657008" y="24.726562" style="stroke: #000000; stroke-width: 0.8"/>
      </g>
     </g>
     <g id="text_2">
      <!-- 4 -->
      <g transform="translate(41.876539 20.642187)scale(0.1 -0.1)">
       <defs>
        <path id="Helvetica-34" d="M 2116 1584 
L 2116 3613 
L 681 1584 
L 2116 1584 
z
M 2125 0 
L 2125 1094 
L 163 1094 
L 163 1644 
L 2213 4488 
L 2688 4488 
L 2688 1584 
L 3347 1584 
L 3347 1094 
L 2688 1094 
L 2688 0 
L 2125 0 
z
" transform="scale(0.015625)"/>
       </defs>
       <use xlink:href="#Helvetica-34"/>
      </g>
     </g>
    </g>
    <g id="xtick_3">
     <g id="line2d_3">
      <g>
       <use xlink:href="#m30a38c939e" x="77.609764" y="24.726562" style="stroke: #000000; stroke-width: 0.8"/>
      </g>
     </g>
     <g id="text_3">
      <!-- 7 -->
      <g transform="translate(74.829295 20.642187)scale(0.1 -0.1)">
       <defs>
        <path id="Helvetica-37" d="M 3347 4400 
L 3347 3909 
Q 3131 3700 2773 3181 
Q 2416 2663 2141 2063 
Q 1869 1478 1728 997 
Q 1638 688 1494 0 
L 872 0 
Q 1084 1281 1809 2550 
Q 2238 3294 2709 3834 
L 234 3834 
L 234 4400 
L 3347 4400 
z
" transform="scale(0.015625)"/>
       </defs>
       <use xlink:href="#Helvetica-37"/>
      </g>
     </g>
    </g>
    <g id="text_4">
     <!-- -log(P) -->
     <g transform="translate(26.655133 9.46875)scale(0.12 -0.12)">
      <defs>
       <path id="Helvetica-2d" d="M 266 2072 
L 1834 2072 
L 1834 1494 
L 266 1494 
L 266 2072 
z
" transform="scale(0.015625)"/>
       <path id="Helvetica-6c" d="M 428 4591 
L 991 4591 
L 991 0 
L 428 0 
L 428 4591 
z
" transform="scale(0.015625)"/>
       <path id="Helvetica-6f" d="M 1741 363 
Q 2300 363 2508 786 
Q 2716 1209 2716 1728 
Q 2716 2197 2566 2491 
Q 2328 2953 1747 2953 
Q 1231 2953 997 2559 
Q 763 2166 763 1609 
Q 763 1075 997 719 
Q 1231 363 1741 363 
z
M 1763 3444 
Q 2409 3444 2856 3012 
Q 3303 2581 3303 1744 
Q 3303 934 2909 406 
Q 2516 -122 1688 -122 
Q 997 -122 590 345 
Q 184 813 184 1600 
Q 184 2444 612 2944 
Q 1041 3444 1763 3444 
z
M 1744 3428 
L 1744 3428 
z
" transform="scale(0.015625)"/>
       <path id="Helvetica-67" d="M 1594 3406 
Q 1988 3406 2281 3213 
Q 2441 3103 2606 2894 
L 2606 3316 
L 3125 3316 
L 3125 272 
Q 3125 -366 2938 -734 
Q 2588 -1416 1616 -1416 
Q 1075 -1416 706 -1173 
Q 338 -931 294 -416 
L 866 -416 
Q 906 -641 1028 -763 
Q 1219 -950 1628 -950 
Q 2275 -950 2475 -494 
Q 2594 -225 2584 466 
Q 2416 209 2178 84 
Q 1941 -41 1550 -41 
Q 1006 -41 598 345 
Q 191 731 191 1622 
Q 191 2463 602 2934 
Q 1013 3406 1594 3406 
z
M 2606 1688 
Q 2606 2309 2350 2609 
Q 2094 2909 1697 2909 
Q 1103 2909 884 2353 
Q 769 2056 769 1575 
Q 769 1009 998 714 
Q 1228 419 1616 419 
Q 2222 419 2469 966 
Q 2606 1275 2606 1688 
z
M 1659 3428 
L 1659 3428 
z
" transform="scale(0.015625)"/>
       <path id="Helvetica-28" d="M 1894 4666 
Q 1403 3713 1256 3263 
Q 1034 2578 1034 1681 
Q 1034 775 1288 25 
Q 1444 -438 1903 -1306 
L 1525 -1306 
Q 1069 -594 959 -397 
Q 850 -200 722 138 
Q 547 600 478 1125 
Q 444 1397 444 1644 
Q 444 2569 734 3291 
Q 919 3750 1503 4666 
L 1894 4666 
z
" transform="scale(0.015625)"/>
       <path id="Helvetica-50" d="M 547 4591 
L 2613 4591 
Q 3225 4591 3600 4245 
Q 3975 3900 3975 3275 
Q 3975 2738 3640 2339 
Q 3306 1941 2613 1941 
L 1169 1941 
L 1169 0 
L 547 0 
L 547 4591 
z
M 3347 3272 
Q 3347 3778 2972 3959 
Q 2766 4056 2406 4056 
L 1169 4056 
L 1169 2466 
L 2406 2466 
Q 2825 2466 3086 2644 
Q 3347 2822 3347 3272 
z
" transform="scale(0.015625)"/>
       <path id="Helvetica-29" d="M 222 -1306 
Q 719 -338 863 106 
Q 1081 778 1081 1681 
Q 1081 2584 828 3334 
Q 672 3797 213 4666 
L 591 4666 
Q 1072 3897 1173 3717 
Q 1275 3538 1394 3222 
Q 1544 2831 1608 2450 
Q 1672 2069 1672 1716 
Q 1672 791 1378 66 
Q 1194 -400 613 -1306 
L 222 -1306 
z
" transform="scale(0.015625)"/>
      </defs>
      <use xlink:href="#Helvetica-2d"/>
      <use xlink:href="#Helvetica-6c" x="33.300781"/>
      <use xlink:href="#Helvetica-6f" x="55.517578"/>
      <use xlink:href="#Helvetica-67" x="111.132812"/>
      <use xlink:href="#Helvetica-28" x="166.748047"/>
      <use xlink:href="#Helvetica-50" x="200.048828"/>
      <use xlink:href="#Helvetica-29" x="266.748047"/>
     </g>
    </g>
   </g>
   <g id="matplotlib.axis_2">
    <g id="ytick_1">
     <g id="line2d_4">
      <path d="M 0.72 33.214751 
L 88.594016 33.214751 
" clip-path="url(#p91951213e1)" style="fill: none; stroke-dasharray: 0.8,1.32; stroke-dashoffset: 0; stroke: #b0b0b0; stroke-width: 0.8"/>
     </g>
    </g>
    <g id="ytick_2">
     <g id="line2d_5">
      <path d="M 0.72 50.191129 
L 88.594016 50.191129 
" clip-path="url(#p91951213e1)" style="fill: none; stroke-dasharray: 0.8,1.32; stroke-dashoffset: 0; stroke: #b0b0b0; stroke-width: 0.8"/>
     </g>
    </g>
    <g id="ytick_3">
     <g id="line2d_6">
      <path d="M 0.72 67.167507 
L 88.594016 67.167507 
" clip-path="url(#p91951213e1)" style="fill: none; stroke-dasharray: 0.8,1.32; stroke-dashoffset: 0; stroke: #b0b0b0; stroke-width: 0.8"/>
     </g>
    </g>
    <g id="ytick_4">
     <g id="line2d_7">
      <path d="M 0.72 84.143885 
L 88.594016 84.143885 
" clip-path="url(#p91951213e1)" style="fill: none; stroke-dasharray: 0.8,1.32; stroke-dashoffset: 0; stroke: #b0b0b0; stroke-width: 0.8"/>
     </g>
    </g>
    <g id="ytick_5">
     <g id="line2d_8">
      <path d="M 0.72 101.120263 
L 88.594016 101.120263 
" clip-path="url(#p91951213e1)" style="fill: none; stroke-dasharray: 0.8,1.32; stroke-dashoffset: 0; stroke: #b0b0b0; stroke-width: 0.8"/>
     </g>
    </g>
    <g id="ytick_6">
     <g id="line2d_9">
      <path d="M 0.72 118.096641 
L 88.594016 118.096641 
" clip-path="url(#p91951213e1)" style="fill: none; stroke-dasharray: 0.8,1.32; stroke-dashoffset: 0; stroke: #b0b0b0; stroke-width: 0.8"/>
     </g>
    </g>
    <g id="ytick_7">
     <g id="line2d_10">
      <path d="M 0.72 135.073019 
L 88.594016 135.073019 
" clip-path="url(#p91951213e1)" style="fill: none; stroke-dasharray: 0.8,1.32; stroke-dashoffset: 0; stroke: #b0b0b0; stroke-width: 0.8"/>
     </g>
    </g>
    <g id="ytick_8">
     <g id="line2d_11">
      <path d="M 0.72 152.049397 
L 88.594016 152.049397 
" clip-path="url(#p91951213e1)" style="fill: none; stroke-dasharray: 0.8,1.32; stroke-dashoffset: 0; stroke: #b0b0b0; stroke-width: 0.8"/>
     </g>
    </g>
    <g id="ytick_9">
     <g id="line2d_12">
      <path d="M 0.72 169.025775 
L 88.594016 169.025775 
" clip-path="url(#p91951213e1)" style="fill: none; stroke-dasharray: 0.8,1.32; stroke-dashoffset: 0; stroke: #b0b0b0; stroke-width: 0.8"/>
     </g>
    </g>
    <g id="ytick_10">
     <g id="line2d_13">
      <path d="M 0.72 186.002153 
L 88.594016 186.002153 
" clip-path="url(#p91951213e1)" style="fill: none; stroke-dasharray: 0.8,1.32; stroke-dashoffset: 0; stroke: #b0b0b0; stroke-width: 0.8"/>
     </g>
    </g>
    <g id="ytick_11">
     <g id="line2d_14">
      <path d="M 0.72 202.978531 
L 88.594016 202.978531 
" clip-path="url(#p91951213e1)" style="fill: none; stroke-dasharray: 0.8,1.32; stroke-dashoffset: 0; stroke: #b0b0b0; stroke-width: 0.8"/>
     </g>
    </g>
    <g id="ytick_12">
     <g id="line2d_15">
      <path d="M 0.72 219.954909 
L 88.594016 219.954909 
" clip-path="url(#p91951213e1)" style="fill: none; stroke-dasharray: 0.8,1.32; stroke-dashoffset: 0; stroke: #b0b0b0; stroke-width: 0.8"/>
     </g>
    </g>
    <g id="ytick_13">
     <g id="line2d_16">
      <path d="M 0.72 236.931287 
L 88.594016 236.931287 
" clip-path="url(#p91951213e1)" style="fill: none; stroke-dasharray: 0.8,1.32; stroke-dashoffset: 0; stroke: #b0b0b0; stroke-width: 0.8"/>
     </g>
    </g>
    <g id="ytick_14">
     <g id="line2d_17">
      <path d="M 0.72 253.907665 
L 88.594016 253.907665 
" clip-path="url(#p91951213e1)" style="fill: none; stroke-dasharray: 0.8,1.32; stroke-dashoffset: 0; stroke: #b0b0b0; stroke-width: 0.8"/>
     </g>
    </g>
    <g id="ytick_15">
     <g id="line2d_18">
      <path d="M 0.72 270.884043 
L 88.594016 270.884043 
" clip-path="url(#p91951213e1)" style="fill: none; stroke-dasharray: 0.8,1.32; stroke-dashoffset: 0; stroke: #b0b0b0; stroke-width: 0.8"/>
     </g>
    </g>
    <g id="ytick_16">
     <g id="line2d_19">
      <path d="M 0.72 287.860421 
L 88.594016 287.860421 
" clip-path="url(#p91951213e1)" style="fill: none; stroke-dasharray: 0.8,1.32; stroke-dashoffset: 0; stroke: #b0b0b0; stroke-width: 0.8"/>
     </g>
    </g>
    <g id="ytick_17">
     <g id="line2d_20">
      <path d="M 0.72 304.836799 
L 88.594016 304.836799 
" clip-path="url(#p91951213e1)" style="fill: none; stroke-dasharray: 0.8,1.32; stroke-dashoffset: 0; stroke: #b0b0b0; stroke-width: 0.8"/>
     </g>
    </g>
    <g id="ytick_18">
     <g id="line2d_21">
      <path d="M 0.72 321.813177 
L 88.594016 321.813177 
" clip-path="url(#p91951213e1)" style="fill: none; stroke-dasharray: 0.8,1.32; stroke-dashoffset: 0; stroke: #b0b0b0; stroke-width: 0.8"/>
     </g>
    </g>
    <g id="ytick_19">
     <g id="line2d_22">
      <path d="M 0.72 338.789555 
L 88.594016 338.789555 
" clip-path="url(#p91951213e1)" style="fill: none; stroke-dasharray: 0.8,1.32; stroke-dashoffset: 0; stroke: #b0b0b0; stroke-width: 0.8"/>
     </g>
    </g>
    <g id="ytick_20">
     <g id="line2d_23">
      <path d="M 0.72 355.765933 
L 88.594016 355.765933 
" clip-path="url(#p91951213e1)" style="fill: none; stroke-dasharray: 0.8,1.32; stroke-dashoffset: 0; stroke: #b0b0b0; stroke-width: 0.8"/>
     </g>
    </g>
    <g id="ytick_21">
     <g id="line2d_24">
      <path d="M 0.72 372.742311 
L 88.594016 372.742311 
" clip-path="url(#p91951213e1)" style="fill: none; stroke-dasharray: 0.8,1.32; stroke-dashoffset: 0; stroke: #b0b0b0; stroke-width: 0.8"/>
     </g>
    </g>
    <g id="ytick_22">
     <g id="line2d_25">
      <path d="M 0.72 389.718688 
L 88.594016 389.718688 
" clip-path="url(#p91951213e1)" style="fill: none; stroke-dasharray: 0.8,1.32; stroke-dashoffset: 0; stroke: #b0b0b0; stroke-width: 0.8"/>
     </g>
    </g>
    <g id="ytick_23">
     <g id="line2d_26">
      <path d="M 0.72 406.695066 
L 88.594016 406.695066 
" clip-path="url(#p91951213e1)" style="fill: none; stroke-dasharray: 0.8,1.32; stroke-dashoffset: 0; stroke: #b0b0b0; stroke-width: 0.8"/>
     </g>
    </g>
    <g id="ytick_24">
     <g id="line2d_27">
      <path d="M 0.72 423.671444 
L 88.594016 423.671444 
" clip-path="url(#p91951213e1)" style="fill: none; stroke-dasharray: 0.8,1.32; stroke-dashoffset: 0; stroke: #b0b0b0; stroke-width: 0.8"/>
     </g>
    </g>
    <g id="ytick_25">
     <g id="line2d_28">
      <path d="M 0.72 440.647822 
L 88.594016 440.647822 
" clip-path="url(#p91951213e1)" style="fill: none; stroke-dasharray: 0.8,1.32; stroke-dashoffset: 0; stroke: #b0b0b0; stroke-width: 0.8"/>
     </g>
    </g>
    <g id="ytick_26">
     <g id="line2d_29">
      <path d="M 0.72 457.6242 
L 88.594016 457.6242 
" clip-path="url(#p91951213e1)" style="fill: none; stroke-dasharray: 0.8,1.32; stroke-dashoffset: 0; stroke: #b0b0b0; stroke-width: 0.8"/>
     </g>
    </g>
    <g id="ytick_27">
     <g id="line2d_30">
      <path d="M 0.72 474.600578 
L 88.594016 474.600578 
" clip-path="url(#p91951213e1)" style="fill: none; stroke-dasharray: 0.8,1.32; stroke-dashoffset: 0; stroke: #b0b0b0; stroke-width: 0.8"/>
     </g>
    </g>
   </g>
   <g id="patch_3">
    <path d="M 0.72 483.088767 
L 0.72 24.726563 
" style="fill: none; stroke: #000000; stroke-linejoin: miter; stroke-linecap: square"/>
   </g>
   <g id="patch_4">
    <path d="M 88.594016 483.088767 
L 88.594016 24.726563 
" style="fill: none; stroke: #000000; stroke-linejoin: miter; stroke-linecap: square"/>
   </g>
   <g id="patch_5">
    <path d="M 0.72 483.088767 
L 88.594016 483.088767 
" style="fill: none; stroke: #000000; stroke-linejoin: miter; stroke-linecap: square"/>
   </g>
   <g id="patch_6">
    <path d="M 0.72 24.726562 
L 88.594016 24.726562 
" style="fill: none; stroke: #000000; stroke-linejoin: miter; stroke-linecap: square"/>
   </g>
   <g id="PathCollection_1">
    <path d="M 27.856333 35.714751 
C 28.519341 35.714751 29.155283 35.451336 29.6241 34.982518 
C 30.092918 34.513701 30.356333 33.877759 30.356333 33.214751 
C 30.356333 32.551744 30.092918 31.915802 29.6241 31.446985 
C 29.155283 30.978167 28.519341 30.714751 27.856333 30.714751 
C 27.193326 30.714751 26.557384 30.978167 26.088566 31.446985 
C 25.619749 31.915802 25.356333 32.551744 25.356333 33.214751 
C 25.356333 33.877759 25.619749 34.513701 26.088566 34.982518 
C 26.557384 35.451336 27.193326 35.714751 27.856333 35.714751 
z
" clip-path="url(#p91951213e1)" style="fill: #808080"/>
   </g>
   <g id="PathCollection_2">
    <path d="M 19.406285 52.691129 
C 20.069293 52.691129 20.705235 52.427714 21.174052 51.958896 
C 21.642869 51.490079 21.906285 50.854137 21.906285 50.191129 
C 21.906285 49.528122 21.642869 48.89218 21.174052 48.423362 
C 20.705235 47.954545 20.069293 47.691129 19.406285 47.691129 
C 18.743277 47.691129 18.107335 47.954545 17.638518 48.423362 
C 17.169701 48.89218 16.906285 49.528122 16.906285 50.191129 
C 16.906285 50.854137 17.169701 51.490079 17.638518 51.958896 
C 18.107335 52.427714 18.743277 52.691129 19.406285 52.691129 
z
" clip-path="url(#p91951213e1)" style="fill: #808080"/>
   </g>
   <g id="PathCollection_3">
    <path d="M 22.730329 69.667507 
C 23.393337 69.667507 24.029278 69.404092 24.498096 68.935274 
C 24.966913 68.466457 25.230329 67.830515 25.230329 67.167507 
C 25.230329 66.5045 24.966913 65.868558 24.498096 65.39974 
C 24.029278 64.930923 23.393337 64.667507 22.730329 64.667507 
C 22.067321 64.667507 21.431379 64.930923 20.962562 65.39974 
C 20.493745 65.868558 20.230329 66.5045 20.230329 67.167507 
C 20.230329 67.830515 20.493745 68.466457 20.962562 68.935274 
C 21.431379 69.404092 22.067321 69.667507 22.730329 69.667507 
z
" clip-path="url(#p91951213e1)" style="fill: #808080"/>
   </g>
   <g id="PathCollection_4">
    <path d="M 41.878227 86.643885 
C 42.541235 86.643885 43.177177 86.38047 43.645994 85.911652 
C 44.114811 85.442835 44.378227 84.806893 44.378227 84.143885 
C 44.378227 83.480878 44.114811 82.844936 43.645994 82.376118 
C 43.177177 81.907301 42.541235 81.643885 41.878227 81.643885 
C 41.215219 81.643885 40.579277 81.907301 40.11046 82.376118 
C 39.641643 82.844936 39.378227 83.480878 39.378227 84.143885 
C 39.378227 84.806893 39.641643 85.442835 40.11046 85.911652 
C 40.579277 86.38047 41.215219 86.643885 41.878227 86.643885 
z
" clip-path="url(#p91951213e1)" style="fill: #808080"/>
   </g>
   <g id="PathCollection_5">
    <path d="M 25.495072 103.620263 
C 26.158079 103.620263 26.794021 103.356848 27.262839 102.88803 
C 27.731656 102.419213 27.995072 101.783271 27.995072 101.120263 
C 27.995072 100.457256 27.731656 99.821314 27.262839 99.352496 
C 26.794021 98.883679 26.158079 98.620263 25.495072 98.620263 
C 24.832064 98.620263 24.196122 98.883679 23.727305 99.352496 
C 23.258487 99.821314 22.995072 100.457256 22.995072 101.120263 
C 22.995072 101.783271 23.258487 102.419213 23.727305 102.88803 
C 24.196122 103.356848 24.832064 103.620263 25.495072 103.620263 
z
" clip-path="url(#p91951213e1)" style="fill: #808080"/>
   </g>
   <g id="PathCollection_6">
    <path d="M 21.469235 120.596641 
C 22.132243 120.596641 22.768185 120.333225 23.237002 119.864408 
C 23.70582 119.395591 23.969235 118.759649 23.969235 118.096641 
C 23.969235 117.433633 23.70582 116.797692 23.237002 116.328874 
C 22.768185 115.860057 22.132243 115.596641 21.469235 115.596641 
C 20.806228 115.596641 20.170286 115.860057 19.701469 116.328874 
C 19.232651 116.797692 18.969235 117.433633 18.969235 118.096641 
C 18.969235 118.759649 19.232651 119.395591 19.701469 119.864408 
C 20.170286 120.333225 20.806228 120.596641 21.469235 120.596641 
z
" clip-path="url(#p91951213e1)" style="fill: #808080"/>
   </g>
   <g id="PathCollection_7">
    <path d="M 18.447188 137.573019 
C 19.110195 137.573019 19.746137 137.309603 20.214955 136.840786 
C 20.683772 136.371969 20.947188 135.736027 20.947188 135.073019 
C 20.947188 134.410011 20.683772 133.77407 20.214955 133.305252 
C 19.746137 132.836435 19.110195 132.573019 18.447188 132.573019 
C 17.78418 132.573019 17.148238 132.836435 16.679421 133.305252 
C 16.210603 133.77407 15.947188 134.410011 15.947188 135.073019 
C 15.947188 135.736027 16.210603 136.371969 16.679421 136.840786 
C 17.148238 137.309603 17.78418 137.573019 18.447188 137.573019 
z
" clip-path="url(#p91951213e1)" style="fill: #808080"/>
   </g>
   <g id="PathCollection_8">
    <path d="M 31.154534 154.549397 
C 31.817542 154.549397 32.453484 154.285981 32.922301 153.817164 
C 33.391119 153.348347 33.654534 152.712405 33.654534 152.049397 
C 33.654534 151.386389 33.391119 150.750447 32.922301 150.28163 
C 32.453484 149.812813 31.817542 149.549397 31.154534 149.549397 
C 30.491527 149.549397 29.855585 149.812813 29.386767 150.28163 
C 28.91795 150.750447 28.654534 151.386389 28.654534 152.049397 
C 28.654534 152.712405 28.91795 153.348347 29.386767 153.817164 
C 29.855585 154.285981 30.491527 154.549397 31.154534 154.549397 
z
" clip-path="url(#p91951213e1)" style="fill: #808080"/>
   </g>
   <g id="PathCollection_9">
    <path d="M 39.923104 171.525775 
C 40.586111 171.525775 41.222053 171.262359 41.690871 170.793542 
C 42.159688 170.324725 42.423104 169.688783 42.423104 169.025775 
C 42.423104 168.362767 42.159688 167.726825 41.690871 167.258008 
C 41.222053 166.789191 40.586111 166.525775 39.923104 166.525775 
C 39.260096 166.525775 38.624154 166.789191 38.155337 167.258008 
C 37.686519 167.726825 37.423104 168.362767 37.423104 169.025775 
C 37.423104 169.688783 37.686519 170.324725 38.155337 170.793542 
C 38.624154 171.262359 39.260096 171.525775 39.923104 171.525775 
z
" clip-path="url(#p91951213e1)" style="fill: #808080"/>
   </g>
   <g id="PathCollection_10">
    <path d="M 32.310462 188.502153 
C 32.97347 188.502153 33.609412 188.238737 34.078229 187.76992 
C 34.547046 187.301103 34.810462 186.665161 34.810462 186.002153 
C 34.810462 185.339145 34.547046 184.703203 34.078229 184.234386 
C 33.609412 183.765569 32.97347 183.502153 32.310462 183.502153 
C 31.647454 183.502153 31.011512 183.765569 30.542695 184.234386 
C 30.073878 184.703203 29.810462 185.339145 29.810462 186.002153 
C 29.810462 186.665161 30.073878 187.301103 30.542695 187.76992 
C 31.011512 188.238737 31.647454 188.502153 32.310462 188.502153 
z
" clip-path="url(#p91951213e1)" style="fill: #808080"/>
   </g>
   <g id="PathCollection_11">
    <path d="M 38.048157 205.478531 
C 38.711164 205.478531 39.347106 205.215115 39.815923 204.746298 
C 40.284741 204.277481 40.548157 203.641539 40.548157 202.978531 
C 40.548157 202.315523 40.284741 201.679581 39.815923 201.210764 
C 39.347106 200.741947 38.711164 200.478531 38.048157 200.478531 
C 37.385149 200.478531 36.749207 200.741947 36.28039 201.210764 
C 35.811572 201.679581 35.548157 202.315523 35.548157 202.978531 
C 35.548157 203.641539 35.811572 204.277481 36.28039 204.746298 
C 36.749207 205.215115 37.385149 205.478531 38.048157 205.478531 
z
" clip-path="url(#p91951213e1)" style="fill: #808080"/>
   </g>
   <g id="PathCollection_12">
    <path d="M 16.365707 222.454909 
C 17.028714 222.454909 17.664656 222.191493 18.133473 221.722676 
C 18.602291 221.253859 18.865707 220.617917 18.865707 219.954909 
C 18.865707 219.291901 18.602291 218.655959 18.133473 218.187142 
C 17.664656 217.718325 17.028714 217.454909 16.365707 217.454909 
C 15.702699 217.454909 15.066757 217.718325 14.59794 218.187142 
C 14.129122 218.655959 13.865707 219.291901 13.865707 219.954909 
C 13.865707 220.617917 14.129122 221.253859 14.59794 221.722676 
C 15.066757 222.191493 15.702699 222.454909 16.365707 222.454909 
z
" clip-path="url(#p91951213e1)" style="fill: #808080"/>
   </g>
   <g id="PathCollection_13">
    <path d="M 62.011779 239.431287 
C 62.674787 239.431287 63.310729 239.167871 63.779546 238.699054 
C 64.248363 238.230237 64.511779 237.594295 64.511779 236.931287 
C 64.511779 236.268279 64.248363 235.632337 63.779546 235.16352 
C 63.310729 234.694703 62.674787 234.431287 62.011779 234.431287 
C 61.348771 234.431287 60.712829 234.694703 60.244012 235.16352 
C 59.775195 235.632337 59.511779 236.268279 59.511779 236.931287 
C 59.511779 237.594295 59.775195 238.230237 60.244012 238.699054 
C 60.712829 239.167871 61.348771 239.431287 62.011779 239.431287 
z
" clip-path="url(#p91951213e1)" style="fill: #808080"/>
   </g>
   <g id="PathCollection_14">
    <path d="M 26.321465 256.407665 
C 26.984473 256.407665 27.620415 256.144249 28.089232 255.675432 
C 28.55805 255.206615 28.821465 254.570673 28.821465 253.907665 
C 28.821465 253.244657 28.55805 252.608715 28.089232 252.139898 
C 27.620415 251.671081 26.984473 251.407665 26.321465 251.407665 
C 25.658458 251.407665 25.022516 251.671081 24.553698 252.139898 
C 24.084881 252.608715 23.821465 253.244657 23.821465 253.907665 
C 23.821465 254.570673 24.084881 255.206615 24.553698 255.675432 
C 25.022516 256.144249 25.658458 256.407665 26.321465 256.407665 
z
" clip-path="url(#p91951213e1)" style="fill: #808080"/>
   </g>
   <g id="PathCollection_15">
    <path d="M 37.431785 273.384043 
C 38.094792 273.384043 38.730734 273.120627 39.199551 272.65181 
C 39.668369 272.182992 39.931785 271.547051 39.931785 270.884043 
C 39.931785 270.221035 39.668369 269.585093 39.199551 269.116276 
C 38.730734 268.647459 38.094792 268.384043 37.431785 268.384043 
C 36.768777 268.384043 36.132835 268.647459 35.664018 269.116276 
C 35.1952 269.585093 34.931785 270.221035 34.931785 270.884043 
C 34.931785 271.547051 35.1952 272.182992 35.664018 272.65181 
C 36.132835 273.120627 36.768777 273.384043 37.431785 273.384043 
z
" clip-path="url(#p91951213e1)" style="fill: #808080"/>
   </g>
   <g id="PathCollection_16">
    <path d="M 18.109348 290.360421 
C 18.772355 290.360421 19.408297 290.097005 19.877115 289.628188 
C 20.345932 289.15937 20.609348 288.523429 20.609348 287.860421 
C 20.609348 287.197413 20.345932 286.561471 19.877115 286.092654 
C 19.408297 285.623837 18.772355 285.360421 18.109348 285.360421 
C 17.44634 285.360421 16.810398 285.623837 16.341581 286.092654 
C 15.872764 286.561471 15.609348 287.197413 15.609348 287.860421 
C 15.609348 288.523429 15.872764 289.15937 16.341581 289.628188 
C 16.810398 290.097005 17.44634 290.360421 18.109348 290.360421 
z
" clip-path="url(#p91951213e1)" style="fill: #808080"/>
   </g>
   <g id="PathCollection_17">
    <path d="M 46.477054 307.336799 
C 47.140062 307.336799 47.776004 307.073383 48.244821 306.604566 
C 48.713639 306.135748 48.977054 305.499806 48.977054 304.836799 
C 48.977054 304.173791 48.713639 303.537849 48.244821 303.069032 
C 47.776004 302.600214 47.140062 302.336799 46.477054 302.336799 
C 45.814047 302.336799 45.178105 302.600214 44.709287 303.069032 
C 44.24047 303.537849 43.977054 304.173791 43.977054 304.836799 
C 43.977054 305.499806 44.24047 306.135748 44.709287 306.604566 
C 45.178105 307.073383 45.814047 307.336799 46.477054 307.336799 
z
" clip-path="url(#p91951213e1)" style="fill: #808080"/>
   </g>
   <g id="PathCollection_18">
    <path d="M 40.954377 324.313177 
C 41.617385 324.313177 42.253327 324.049761 42.722144 323.580944 
C 43.190961 323.112126 43.454377 322.476184 43.454377 321.813177 
C 43.454377 321.150169 43.190961 320.514227 42.722144 320.04541 
C 42.253327 319.576592 41.617385 319.313177 40.954377 319.313177 
C 40.291369 319.313177 39.655427 319.576592 39.18661 320.04541 
C 38.717793 320.514227 38.454377 321.150169 38.454377 321.813177 
C 38.454377 322.476184 38.717793 323.112126 39.18661 323.580944 
C 39.655427 324.049761 40.291369 324.313177 40.954377 324.313177 
z
" clip-path="url(#p91951213e1)" style="fill: #808080"/>
   </g>
   <g id="PathCollection_19">
    <path d="M 73.166612 341.289555 
C 73.82962 341.289555 74.465562 341.026139 74.934379 340.557322 
C 75.403196 340.088504 75.666612 339.452562 75.666612 338.789555 
C 75.666612 338.126547 75.403196 337.490605 74.934379 337.021788 
C 74.465562 336.55297 73.82962 336.289555 73.166612 336.289555 
C 72.503604 336.289555 71.867662 336.55297 71.398845 337.021788 
C 70.930028 337.490605 70.666612 338.126547 70.666612 338.789555 
C 70.666612 339.452562 70.930028 340.088504 71.398845 340.557322 
C 71.867662 341.026139 72.503604 341.289555 73.166612 341.289555 
z
" clip-path="url(#p91951213e1)" style="fill: #808080"/>
   </g>
   <g id="PathCollection_20">
    <path d="M 16.252592 358.265933 
C 16.9156 358.265933 17.551542 358.002517 18.020359 357.5337 
C 18.489176 357.064882 18.752592 356.42894 18.752592 355.765933 
C 18.752592 355.102925 18.489176 354.466983 18.020359 353.998166 
C 17.551542 353.529348 16.9156 353.265933 16.252592 353.265933 
C 15.589584 353.265933 14.953642 353.529348 14.484825 353.998166 
C 14.016008 354.466983 13.752592 355.102925 13.752592 355.765933 
C 13.752592 356.42894 14.016008 357.064882 14.484825 357.5337 
C 14.953642 358.002517 15.589584 358.265933 16.252592 358.265933 
z
" clip-path="url(#p91951213e1)" style="fill: #808080"/>
   </g>
   <g id="PathCollection_21">
    <path d="M 34.863238 375.242311 
C 35.526245 375.242311 36.162187 374.978895 36.631005 374.510077 
C 37.099822 374.04126 37.363238 373.405318 37.363238 372.742311 
C 37.363238 372.079303 37.099822 371.443361 36.631005 370.974544 
C 36.162187 370.505726 35.526245 370.242311 34.863238 370.242311 
C 34.20023 370.242311 33.564288 370.505726 33.095471 370.974544 
C 32.626653 371.443361 32.363238 372.079303 32.363238 372.742311 
C 32.363238 373.405318 32.626653 374.04126 33.095471 374.510077 
C 33.564288 374.978895 34.20023 375.242311 34.863238 375.242311 
z
" clip-path="url(#p91951213e1)" style="fill: #808080"/>
   </g>
   <g id="PathCollection_22">
    <path d="M 19.467823 392.218688 
C 20.130831 392.218688 20.766773 391.955273 21.23559 391.486455 
C 21.704407 391.017638 21.967823 390.381696 21.967823 389.718688 
C 21.967823 389.055681 21.704407 388.419739 21.23559 387.950922 
C 20.766773 387.482104 20.130831 387.218688 19.467823 387.218688 
C 18.804815 387.218688 18.168873 387.482104 17.700056 387.950922 
C 17.231239 388.419739 16.967823 389.055681 16.967823 389.718688 
C 16.967823 390.381696 17.231239 391.017638 17.700056 391.486455 
C 18.168873 391.955273 18.804815 392.218688 19.467823 392.218688 
z
" clip-path="url(#p91951213e1)" style="fill: #808080"/>
   </g>
   <g id="PathCollection_23">
    <path d="M 22.062613 409.195066 
C 22.725621 409.195066 23.361563 408.931651 23.83038 408.462833 
C 24.299197 407.994016 24.562613 407.358074 24.562613 406.695066 
C 24.562613 406.032059 24.299197 405.396117 23.83038 404.927299 
C 23.361563 404.458482 22.725621 404.195066 22.062613 404.195066 
C 21.399605 404.195066 20.763663 404.458482 20.294846 404.927299 
C 19.826029 405.396117 19.562613 406.032059 19.562613 406.695066 
C 19.562613 407.358074 19.826029 407.994016 20.294846 408.462833 
C 20.763663 408.931651 21.399605 409.195066 22.062613 409.195066 
z
" clip-path="url(#p91951213e1)" style="fill: #808080"/>
   </g>
   <g id="PathCollection_24">
    <path d="M 31.56161 426.171444 
C 32.224618 426.171444 32.86056 425.908029 33.329377 425.439211 
C 33.798194 424.970394 34.06161 424.334452 34.06161 423.671444 
C 34.06161 423.008437 33.798194 422.372495 33.329377 421.903677 
C 32.86056 421.43486 32.224618 421.171444 31.56161 421.171444 
C 30.898602 421.171444 30.26266 421.43486 29.793843 421.903677 
C 29.325026 422.372495 29.06161 423.008437 29.06161 423.671444 
C 29.06161 424.334452 29.325026 424.970394 29.793843 425.439211 
C 30.26266 425.908029 30.898602 426.171444 31.56161 426.171444 
z
" clip-path="url(#p91951213e1)" style="fill: #808080"/>
   </g>
   <g id="PathCollection_25">
    <path d="M 21.461028 443.147822 
C 22.124036 443.147822 22.759978 442.884407 23.228795 442.415589 
C 23.697613 441.946772 23.961028 441.31083 23.961028 440.647822 
C 23.961028 439.984815 23.697613 439.348873 23.228795 438.880055 
C 22.759978 438.411238 22.124036 438.147822 21.461028 438.147822 
C 20.798021 438.147822 20.162079 438.411238 19.693262 438.880055 
C 19.224444 439.348873 18.961028 439.984815 18.961028 440.647822 
C 18.961028 441.31083 19.224444 441.946772 19.693262 442.415589 
C 20.162079 442.884407 20.798021 443.147822 21.461028 443.147822 
z
" clip-path="url(#p91951213e1)" style="fill: #808080"/>
   </g>
   <g id="PathCollection_26">
    <path d="M 16.570643 460.1242 
C 17.233651 460.1242 17.869593 459.860785 18.33841 459.391967 
C 18.807227 458.92315 19.070643 458.287208 19.070643 457.6242 
C 19.070643 456.961193 18.807227 456.325251 18.33841 455.856433 
C 17.869593 455.387616 17.233651 455.1242 16.570643 455.1242 
C 15.907635 455.1242 15.271694 455.387616 14.802876 455.856433 
C 14.334059 456.325251 14.070643 456.961193 14.070643 457.6242 
C 14.070643 458.287208 14.334059 458.92315 14.802876 459.391967 
C 15.271694 459.860785 15.907635 460.1242 16.570643 460.1242 
z
" clip-path="url(#p91951213e1)" style="fill: #808080"/>
   </g>
   <g id="PathCollection_27">
    <path d="M 31.86364 477.100578 
C 32.526648 477.100578 33.16259 476.837162 33.631407 476.368345 
C 34.100224 475.899528 34.36364 475.263586 34.36364 474.600578 
C 34.36364 473.93757 34.100224 473.301629 33.631407 472.832811 
C 33.16259 472.363994 32.526648 472.100578 31.86364 472.100578 
C 31.200632 472.100578 30.56469 472.363994 30.095873 472.832811 
C 29.627056 473.301629 29.36364 473.93757 29.36364 474.600578 
C 29.36364 475.263586 29.627056 475.899528 30.095873 476.368345 
C 30.56469 476.837162 31.200632 477.100578 31.86364 477.100578 
z
" clip-path="url(#p91951213e1)" style="fill: #808080"/>
   </g>
  </g>
 </g>
 <defs>
  <clipPath id="p91951213e1">
   <rect x="0.72" y="24.726562" width="87.874016" height="458.362205"/>
  </clipPath>
 </defs>
</svg>
