<?xml version="1.0" encoding="utf-8" standalone="no"?>
<!DOCTYPE svg PUBLIC "-//W3C//DTD SVG 1.1//EN"
  "http://www.w3.org/Graphics/SVG/1.1/DTD/svg11.dtd">
<svg xmlns:xlink="http://www.w3.org/1999/xlink" width="224.754875pt" height="210.56675pt" viewBox="0 0 224.754875 210.56675" xmlns="http://www.w3.org/2000/svg" version="1.1">
 <metadata>
  <rdf:RDF xmlns:dc="http://purl.org/dc/elements/1.1/" xmlns:cc="http://creativecommons.org/ns#" xmlns:rdf="http://www.w3.org/1999/02/22-rdf-syntax-ns#">
   <cc:Work>
    <dc:type rdf:resource="http://purl.org/dc/dcmitype/StillImage"/>
    <dc:date>2024-11-08T00:42:07.710871</dc:date>
    <dc:format>image/svg+xml</dc:format>
    <dc:creator>
     <cc:Agent>
      <dc:title>Matplotlib v3.5.1, https://matplotlib.org/</dc:title>
     </cc:Agent>
    </dc:creator>
   </cc:Work>
  </rdf:RDF>
 </metadata>
 <defs>
  <style type="text/css">*{stroke-linejoin: round; stroke-linecap: butt}</style>
 </defs>
 <g id="figure_1">
  <g id="patch_1">
   <path d="M 0 210.56675 
L 224.754875 210.56675 
L 224.754875 0 
L 0 0 
z
" style="fill: #ffffff"/>
  </g>
  <g id="axes_1">
   <g id="patch_2">
    <path d="M 44.75375 178.128 
L 223.31375 178.128 
L 223.31375 0.72 
L 44.75375 0.72 
z
" style="fill: #ffffff"/>
   </g>
   <g id="line2d_1">
    <path d="M 50.70575 146.3424 
L 51.70769 145.827562 
L 52.70963 145.570057 
L 53.71157 145.54479 
L 54.71351 145.72667 
L 56.049429 146.24803 
L 57.385349 147.033556 
L 59.055249 148.296332 
L 61.393109 150.380321 
L 65.066888 153.694848 
L 66.736788 154.932472 
L 68.072708 155.690003 
L 69.408628 156.17637 
L 70.410568 156.327411 
L 71.412508 156.267369 
L 72.414447 155.971152 
L 73.416387 155.413666 
L 74.418327 154.569816 
L 75.420267 153.423627 
L 76.756187 151.484261 
L 78.426087 148.561892 
L 81.097926 143.267107 
L 84.103746 137.413274 
L 85.773646 134.671841 
L 87.109566 132.934156 
L 88.111506 131.944287 
L 89.113445 131.232205 
L 90.115385 130.805091 
L 91.117325 130.670128 
L 92.119265 130.834497 
L 93.121205 131.305379 
L 94.123145 132.089957 
L 95.125085 133.195412 
L 96.127025 134.628925 
L 97.128964 136.397678 
L 98.464884 139.289869 
L 99.800804 142.758267 
L 101.804684 148.647087 
L 105.144483 158.604104 
L 106.814383 162.818702 
L 107.816323 164.875181 
L 108.818263 166.473031 
L 109.486223 167.241279 
L 110.154183 167.742406 
L 110.822143 167.956843 
L 111.490103 167.896787 
L 112.158063 167.585348 
L 112.826023 167.045649 
L 113.827962 165.858686 
L 114.829902 164.288192 
L 116.165822 161.732469 
L 118.169702 157.285179 
L 121.509502 149.777893 
L 122.845421 147.276479 
L 124.181341 145.240559 
L 125.517261 143.674934 
L 126.519201 142.810393 
L 127.521141 142.212108 
L 128.523081 141.880814 
L 129.525021 141.817245 
L 130.52696 142.022137 
L 131.5289 142.496224 
L 132.53084 143.240243 
L 133.53278 144.254928 
L 134.53472 145.539863 
L 135.87064 147.62249 
L 137.87452 151.278706 
L 142.216259 159.479516 
L 143.552179 161.553219 
L 144.888099 163.189144 
L 145.890039 164.051041 
L 146.891978 164.553093 
L 147.893918 164.717342 
L 148.895858 164.583979 
L 149.897798 164.193192 
L 150.899738 163.585173 
L 152.235658 162.506029 
L 153.905558 160.859625 
L 158.581277 156.005664 
L 160.585157 154.390792 
L 162.589037 153.06082 
L 165.260876 151.578225 
L 175.948235 146.180493 
L 177.284155 145.814026 
L 178.620075 145.659607 
L 179.955994 145.764138 
L 180.957934 146.040687 
L 181.959874 146.508787 
L 183.295794 147.424657 
L 184.965694 148.923675 
L 187.637534 151.743561 
L 190.309373 154.478432 
L 191.979273 155.837973 
L 193.315193 156.59444 
L 194.317133 156.916165 
L 195.319073 157.026429 
L 196.321013 156.945078 
L 197.656932 156.573059 
L 198.992852 155.943233 
L 200.662752 154.865527 
L 202.666632 153.268373 
L 209.680211 147.304264 
L 211.350111 146.311312 
L 212.686031 145.768359 
L 214.02195 145.500163 
L 215.02389 145.507803 
L 216.02583 145.716594 
L 217.02777 146.146506 
L 217.36175 146.3424 
L 217.36175 146.3424 
" clip-path="url(#p456bbadc0b)" style="fill: none; stroke: #3376a8; stroke-width: 1.5; stroke-linecap: square"/>
   </g>
   <g id="line2d_2">
    <path d="M 50.70575 147.8208 
L 51.70769 147.024765 
L 52.70963 146.522839 
L 53.71157 146.28751 
L 54.71351 146.291268 
L 55.715449 146.506601 
L 57.051369 147.075281 
L 58.387289 147.905975 
L 60.057189 149.213457 
L 63.063009 151.935289 
L 65.734848 154.244193 
L 67.404748 155.391601 
L 68.740668 156.041848 
L 69.742608 156.330592 
L 70.744548 156.418248 
L 71.746487 156.277305 
L 72.748427 155.880251 
L 73.750367 155.199576 
L 74.752307 154.207956 
L 75.754247 152.903599 
L 77.090167 150.7645 
L 78.760067 147.633081 
L 84.437726 136.519248 
L 85.773646 134.548535 
L 86.775586 133.403913 
L 87.777526 132.577927 
L 88.779465 132.056226 
L 89.781405 131.821222 
L 90.783345 131.855324 
L 91.785285 132.140941 
L 92.787225 132.660485 
L 93.789165 133.396365 
L 95.125085 134.683659 
L 96.461005 136.282585 
L 98.130904 138.655956 
L 100.468764 142.468208 
L 103.140604 146.768753 
L 104.476524 148.577791 
L 105.478463 149.675191 
L 106.480403 150.48736 
L 107.482343 150.95768 
L 108.150303 151.053353 
L 108.818263 150.955154 
L 109.486223 150.64631 
L 110.154183 150.110045 
L 110.822143 149.335131 
L 111.824083 147.771134 
L 113.160003 145.09357 
L 114.829902 141.132306 
L 118.503682 132.214845 
L 119.839602 129.653024 
L 120.841542 128.206216 
L 121.509502 127.523906 
L 122.177461 127.102375 
L 122.845421 126.960226 
L 123.513381 127.079236 
L 124.181341 127.433758 
L 124.849301 127.998144 
L 125.851241 129.182113 
L 127.187161 131.255885 
L 128.857061 134.355335 
L 132.19686 140.722184 
L 133.53278 142.763101 
L 134.53472 143.916237 
L 135.53666 144.719241 
L 136.5386 145.221166 
L 137.54054 145.473953 
L 138.542479 145.529542 
L 139.878399 145.386679 
L 144.554119 144.630538 
L 145.556059 144.760053 
L 146.557998 145.103657 
L 147.893918 145.868306 
L 149.563818 147.135222 
L 152.903618 149.737012 
L 154.239538 150.441316 
L 155.241477 150.722002 
L 156.243417 150.729304 
L 156.911377 150.555091 
L 157.579337 150.218572 
L 158.581277 149.380768 
L 159.583217 148.163392 
L 160.585157 146.615517 
L 161.921077 144.122938 
L 163.590976 140.482781 
L 166.262816 133.985503 
L 169.602616 125.961175 
L 171.272516 122.497419 
L 172.942415 119.586877 
L 174.278335 117.715424 
L 175.280275 116.607735 
L 176.282215 115.774625 
L 177.284155 115.234947 
L 178.286095 115.007555 
L 178.954055 115.038764 
L 179.622015 115.222732 
L 180.623954 115.79733 
L 181.625894 116.74706 
L 182.627834 118.072605 
L 183.963754 120.287207 
L 186.635594 125.375409 
L 188.305493 128.330837 
L 189.307433 129.787984 
L 190.309373 130.887833 
L 190.977333 131.373997 
L 191.645293 131.628503 
L 192.313253 131.622211 
L 192.981213 131.325977 
L 193.649173 130.710685 
L 194.317133 129.761502 
L 195.319073 127.763097 
L 196.321013 125.161263 
L 197.656932 120.920956 
L 199.326832 114.704129 
L 202.332652 102.304314 
L 204.670512 92.991631 
L 206.340411 87.270985 
L 207.676331 83.597742 
L 208.678271 81.520443 
L 209.346231 80.512089 
L 210.014191 79.838439 
L 210.682151 79.528203 
L 211.350111 79.610088 
L 212.018071 80.112806 
L 212.686031 81.065065 
L 213.35399 82.495573 
L 214.02195 84.433042 
L 214.68991 86.906179 
L 215.69185 91.683065 
L 216.69379 97.826695 
L 217.36175 102.7296 
L 217.36175 102.7296 
" clip-path="url(#p456bbadc0b)" style="fill: none; stroke: #32955c; stroke-width: 1.5; stroke-linecap: square"/>
   </g>
   <g id="line2d_3">
    <path d="M 50.70575 166.3008 
L 52.04167 158.592508 
L 53.37759 152.060385 
L 54.71351 146.602827 
L 56.049429 142.118225 
L 57.385349 138.504973 
L 58.721269 135.661465 
L 59.723209 133.972855 
L 60.725149 132.617207 
L 61.727089 131.551656 
L 62.729029 130.733336 
L 64.064948 129.952736 
L 65.400868 129.433846 
L 67.404748 128.923954 
L 69.742608 128.32688 
L 71.078528 127.786711 
L 72.414447 126.974817 
L 73.416387 126.126454 
L 74.418327 125.025228 
L 75.754247 123.122328 
L 77.424147 120.199744 
L 80.429966 114.269113 
L 82.433846 110.513911 
L 83.769766 108.38458 
L 84.771706 107.086698 
L 85.773646 106.112913 
L 86.775586 105.52312 
L 87.443546 105.351069 
L 88.445485 105.374058 
L 89.447425 105.666239 
L 90.783345 106.342165 
L 94.457125 108.484085 
L 95.459065 108.782855 
L 96.461005 108.814629 
L 97.128964 108.649655 
L 97.796924 108.309276 
L 98.464884 107.770876 
L 99.466824 106.581983 
L 100.468764 105.003393 
L 101.804684 102.437828 
L 103.808564 98.007179 
L 106.814383 91.383128 
L 108.150303 88.960655 
L 109.152243 87.528924 
L 110.154183 86.520779 
L 110.822143 86.119504 
L 111.490103 85.923252 
L 112.158063 85.905952 
L 113.160003 86.158473 
L 114.161942 86.666911 
L 115.831842 87.843904 
L 118.169702 89.499142 
L 119.171642 89.966651 
L 120.173582 90.161873 
L 120.841542 90.097277 
L 121.509502 89.846455 
L 122.177461 89.383325 
L 122.845421 88.692657 
L 123.847361 87.275623 
L 124.849301 85.482075 
L 126.185221 82.661951 
L 131.86288 70.013237 
L 132.86482 68.476889 
L 133.86676 67.381355 
L 134.53472 66.937029 
L 135.20268 66.716137 
L 135.87064 66.692903 
L 136.5386 66.841414 
L 137.54054 67.329517 
L 138.876459 68.339573 
L 143.218199 72.071592 
L 144.220139 72.512157 
L 144.888099 72.621052 
L 145.556059 72.551864 
L 146.224019 72.279358 
L 146.891978 71.800719 
L 147.893918 70.749707 
L 148.895858 69.376468 
L 150.565758 66.608286 
L 154.239538 60.20694 
L 155.575457 58.418337 
L 156.577397 57.46886 
L 157.245357 57.070928 
L 157.913317 56.891141 
L 158.581277 56.943356 
L 159.249237 57.206676 
L 160.251177 57.938008 
L 161.253117 58.991407 
L 162.589037 60.73835 
L 166.596796 66.261057 
L 167.598736 67.223559 
L 168.600676 67.835291 
L 169.268636 68.002931 
L 169.936596 67.946899 
L 170.604556 67.656795 
L 171.272516 67.151452 
L 172.274455 66.037576 
L 173.276395 64.562093 
L 174.612315 62.15951 
L 176.616195 57.977316 
L 179.955994 50.918805 
L 181.291914 48.573432 
L 182.293854 47.150901 
L 183.295794 46.029785 
L 184.297734 45.17222 
L 185.633654 44.371847 
L 186.969574 43.879401 
L 188.639473 43.557049 
L 193.315193 42.925439 
L 194.651113 42.434338 
L 196.321013 41.534179 
L 197.990912 40.381217 
L 200.328772 38.475893 
L 207.008371 32.776087 
L 208.678271 31.665907 
L 210.348171 30.8219 
L 211.684091 30.385466 
L 213.020011 30.200174 
L 214.02195 30.247618 
L 215.02389 30.471675 
L 216.02583 30.887495 
L 217.02777 31.510225 
L 217.36175 31.7664 
L 217.36175 31.7664 
" clip-path="url(#p456bbadc0b)" style="fill: none; stroke: #7b4f94; stroke-width: 1.5; stroke-linecap: square"/>
   </g>
   <g id="line2d_4">
    <path d="M 50.70575 141.168 
L 52.04167 147.986064 
L 53.04361 152.12046 
L 54.04555 155.473048 
L 55.047489 158.095546 
L 56.049429 160.039674 
L 57.051369 161.357149 
L 57.719329 161.912866 
L 58.387289 162.22838 
L 59.055249 162.319016 
L 59.723209 162.200098 
L 60.391169 161.88695 
L 61.393109 161.086566 
L 62.395049 159.935363 
L 63.730968 157.944093 
L 65.400868 154.894012 
L 67.738728 150.00578 
L 71.078528 142.965634 
L 72.748427 139.947194 
L 74.084347 137.991594 
L 75.086287 136.870194 
L 76.088227 136.048618 
L 77.090167 135.483747 
L 78.092107 135.131201 
L 79.428027 134.914717 
L 81.097926 134.903713 
L 84.437726 134.966283 
L 85.773646 134.731404 
L 86.775586 134.360548 
L 88.111506 133.580381 
L 89.447425 132.535129 
L 91.451305 130.628866 
L 96.794984 125.288786 
L 98.130904 124.288261 
L 99.466824 123.557986 
L 100.802744 123.108841 
L 102.138664 122.93149 
L 103.474584 123.016557 
L 104.810504 123.354665 
L 106.146423 123.936438 
L 107.482343 124.7525 
L 108.818263 125.793474 
L 110.488163 127.396596 
L 112.492043 129.677642 
L 116.499802 134.365224 
L 118.169702 135.93416 
L 119.505622 136.858904 
L 120.507562 137.303833 
L 121.509502 137.49573 
L 122.511441 137.399307 
L 123.513381 137.007379 
L 124.515321 136.351142 
L 125.851241 135.123708 
L 127.187161 133.567263 
L 128.857061 131.281666 
L 131.86288 126.690922 
L 134.53472 122.722164 
L 136.5386 120.120936 
L 138.542479 117.841752 
L 140.880339 115.539529 
L 143.218199 113.564669 
L 145.890039 111.631883 
L 148.227898 110.183886 
L 150.231778 109.181987 
L 151.901678 108.56867 
L 153.571578 108.199554 
L 154.907497 108.107019 
L 156.243417 108.216942 
L 157.579337 108.549842 
L 158.915257 109.113994 
L 163.924956 111.578422 
L 164.926896 111.76295 
L 165.928836 111.725505 
L 166.930776 111.415008 
L 167.932716 110.78038 
L 168.934656 109.77054 
L 169.936596 108.334542 
L 170.938536 106.453109 
L 172.274455 103.345522 
L 173.944355 98.709782 
L 176.282215 91.343657 
L 180.289974 78.480661 
L 181.959874 73.831728 
L 183.295794 70.652565 
L 184.631714 67.938369 
L 185.967634 65.653862 
L 187.303554 63.763766 
L 188.639473 62.2328 
L 189.975393 61.025686 
L 191.311313 60.107146 
L 192.647233 59.441901 
L 193.983153 58.994607 
L 195.653053 58.680986 
L 197.656932 58.545012 
L 202.666632 58.352969 
L 204.336532 58.018659 
L 205.672451 57.548482 
L 207.008371 56.84734 
L 208.344291 55.86838 
L 209.680211 54.564747 
L 211.016131 52.889586 
L 212.352051 50.796041 
L 213.68797 48.237259 
L 215.02389 45.166384 
L 216.35981 41.536562 
L 217.36175 38.4192 
L 217.36175 38.4192 
" clip-path="url(#p456bbadc0b)" style="fill: none; stroke: #ff9933; stroke-width: 1.5; stroke-linecap: square"/>
   </g>
   <g id="line2d_5">
    <path d="M 50.70575 150.7776 
L 53.04361 149.27283 
L 55.381469 148.029658 
L 57.719329 147.025957 
L 60.057189 146.239604 
L 62.729029 145.578673 
L 65.400868 145.139701 
L 68.406688 144.870047 
L 71.746487 144.793686 
L 76.088227 144.941094 
L 82.099866 145.166594 
L 84.771706 145.053733 
L 87.109566 144.751306 
L 89.781405 144.14774 
L 92.787225 143.219936 
L 97.462944 141.495487 
L 101.804684 139.936563 
L 104.142544 139.344351 
L 105.812443 139.11914 
L 107.482343 139.110891 
L 108.818263 139.291414 
L 110.154183 139.663783 
L 111.824083 140.396841 
L 115.497862 142.176729 
L 116.833782 142.537834 
L 117.835722 142.600435 
L 118.837662 142.433089 
L 119.839602 141.989475 
L 120.841542 141.223272 
L 121.843481 140.088159 
L 122.845421 138.545176 
L 124.181341 135.918098 
L 125.851241 131.967057 
L 129.191041 123.15785 
L 131.19492 118.223267 
L 132.53084 115.449416 
L 133.53278 113.765999 
L 134.53472 112.503426 
L 135.53666 111.674392 
L 136.5386 111.232032 
L 137.54054 111.126888 
L 138.542479 111.309504 
L 139.544419 111.730423 
L 140.880339 112.57686 
L 142.550239 113.928427 
L 145.890039 116.739888 
L 147.225958 117.594328 
L 148.561878 118.202305 
L 149.897798 118.54188 
L 150.899738 118.607226 
L 151.901678 118.499999 
L 152.903618 118.210946 
L 153.905558 117.73081 
L 154.907497 117.050337 
L 156.243417 115.815405 
L 157.579337 114.185926 
L 158.915257 112.15091 
L 160.585157 109.146161 
L 163.256996 103.754722 
L 166.262816 97.748072 
L 167.932716 94.857746 
L 169.268636 92.951876 
L 170.270576 91.826777 
L 171.272516 90.979876 
L 172.274455 90.395606 
L 173.276395 90.057306 
L 174.278335 89.948315 
L 175.280275 90.051973 
L 176.282215 90.351618 
L 177.618135 91.027218 
L 178.954055 91.982128 
L 180.623954 93.508381 
L 182.627834 95.719673 
L 185.633654 99.142928 
L 186.969574 100.362713 
L 187.971514 101.037797 
L 188.973453 101.4442 
L 189.641413 101.53779 
L 190.309373 101.469849 
L 190.977333 101.22353 
L 191.645293 100.781985 
L 192.313253 100.128368 
L 192.981213 99.245831 
L 193.983153 97.4574 
L 194.985093 95.109949 
L 195.987033 92.253725 
L 197.322952 87.746794 
L 198.992852 81.169276 
L 200.996732 72.220012 
L 204.002552 57.530379 
L 208.344291 36.284306 
L 210.348171 27.52518 
L 212.018071 21.168356 
L 213.35399 16.878723 
L 214.35593 14.209241 
L 215.35787 12.068903 
L 216.35981 10.511394 
L 217.02777 9.82336 
L 217.36175 9.5904 
L 217.36175 9.5904 
" clip-path="url(#p456bbadc0b)" style="fill: none; stroke: #c2bf41; stroke-width: 1.5; stroke-linecap: square"/>
   </g>
   <g id="line2d_6">
    <path d="M 50.70575 130.8192 
L 51.70769 134.033374 
L 52.70963 136.490739 
L 53.71157 138.238231 
L 54.37953 139.032028 
L 55.047489 139.545091 
L 55.715449 139.791326 
L 56.383409 139.784639 
L 57.051369 139.538937 
L 57.719329 139.068126 
L 58.721269 137.97025 
L 59.723209 136.444102 
L 60.725149 134.536613 
L 62.061069 131.481221 
L 63.730968 126.995449 
L 65.734848 120.921759 
L 72.748427 98.986112 
L 74.418327 94.813158 
L 75.754247 92.056253 
L 77.090167 89.802252 
L 78.426087 87.99641 
L 79.762007 86.583971 
L 81.097926 85.510179 
L 82.433846 84.720278 
L 83.769766 84.159514 
L 85.439666 83.697363 
L 87.777526 83.314311 
L 90.115385 83.140332 
L 92.453245 83.178228 
L 94.791105 83.434459 
L 97.128964 83.915489 
L 99.466824 84.621708 
L 103.140604 85.777424 
L 104.810504 86.054296 
L 106.146423 86.057798 
L 107.482343 85.806174 
L 108.484283 85.41596 
L 109.486223 84.826487 
L 110.488163 84.014077 
L 111.824083 82.59022 
L 113.493982 80.41089 
L 119.171642 72.529536 
L 120.507562 71.208996 
L 121.509502 70.499716 
L 122.511441 70.083289 
L 123.513381 69.969437 
L 124.515321 70.117495 
L 125.517261 70.48317 
L 126.853181 71.232692 
L 128.857061 72.705047 
L 131.86288 74.99542 
L 133.1988 75.774752 
L 134.20074 76.171065 
L 135.20268 76.372687 
L 136.20462 76.389798 
L 137.54054 76.153247 
L 138.876459 75.65504 
L 140.212379 74.933095 
L 141.882279 73.773803 
L 143.886159 72.103688 
L 147.225958 68.974281 
L 151.233718 65.286205 
L 153.571578 63.458729 
L 155.241477 62.406518 
L 156.911377 61.62841 
L 158.247297 61.240329 
L 159.583217 61.060725 
L 161.253117 61.04784 
L 167.264756 61.259097 
L 168.600676 61.00174 
L 169.936596 60.508037 
L 171.272516 59.742803 
L 172.608435 58.730678 
L 174.278335 57.170639 
L 176.282215 54.954621 
L 178.954055 51.606495 
L 186.969574 41.267328 
L 189.641413 38.282476 
L 191.979273 36.020672 
L 193.983153 34.404581 
L 195.987033 33.112511 
L 197.990912 32.112119 
L 199.994792 31.363851 
L 202.332652 30.756758 
L 204.670512 30.376183 
L 207.676331 30.11863 
L 217.36175 29.5488 
L 217.36175 29.5488 
" clip-path="url(#p456bbadc0b)" style="fill: none; stroke: #bb8e1d; stroke-width: 1.5; stroke-linecap: square"/>
   </g>
   <g id="line2d_7">
    <path d="M 50.70575 130.8192 
L 51.70769 133.975483 
L 52.70963 136.390219 
L 53.71157 138.108937 
L 54.37953 138.890558 
L 55.047489 139.396565 
L 55.715449 139.640448 
L 56.383409 139.635699 
L 57.051369 139.395807 
L 57.719329 138.934265 
L 58.721269 137.855866 
L 59.723209 136.354637 
L 60.725149 134.476109 
L 62.061069 131.463192 
L 63.730968 127.032043 
L 65.734848 121.017576 
L 73.082407 98.171671 
L 74.752307 94.057629 
L 76.088227 91.328011 
L 77.424147 89.077586 
L 78.760067 87.26822 
L 80.095986 85.861779 
L 81.431906 84.820129 
L 82.767826 84.105134 
L 84.103746 83.678661 
L 85.439666 83.502574 
L 86.775586 83.538665 
L 88.445485 83.81045 
L 94.457125 85.088702 
L 95.793045 85.053138 
L 97.128964 84.767112 
L 98.130904 84.350956 
L 99.132844 83.737955 
L 100.468764 82.642936 
L 102.138664 80.930148 
L 104.476524 78.144962 
L 108.150303 73.718981 
L 109.820203 72.036205 
L 111.156123 70.969226 
L 112.492043 70.167315 
L 113.827962 69.608452 
L 115.163882 69.270172 
L 116.499802 69.13001 
L 118.169702 69.199185 
L 119.839602 69.49894 
L 121.843481 70.101232 
L 124.181341 71.047479 
L 127.187161 72.518918 
L 135.87064 76.939968 
L 137.54054 77.496923 
L 138.876459 77.74162 
L 140.212379 77.751481 
L 141.214319 77.57351 
L 142.216259 77.212296 
L 143.218199 76.645921 
L 144.220139 75.852464 
L 145.222079 74.810006 
L 146.224019 73.496849 
L 147.559938 71.32677 
L 149.229838 68.051422 
L 151.233718 63.512786 
L 154.573518 55.210917 
L 157.579337 47.888746 
L 159.583217 43.568188 
L 161.253117 40.494326 
L 162.589037 38.455257 
L 163.924956 36.847559 
L 164.926896 35.95709 
L 165.928836 35.361987 
L 166.930776 35.084844 
L 167.598736 35.087884 
L 168.266696 35.248976 
L 168.934656 35.574814 
L 169.936596 36.386989 
L 170.938536 37.577147 
L 172.274455 39.617909 
L 174.278335 43.236425 
L 176.950175 48.028325 
L 178.286095 49.950271 
L 179.288035 51.016664 
L 179.955994 51.501077 
L 180.623954 51.774467 
L 181.291914 51.811279 
L 181.959874 51.586845 
L 182.627834 51.100644 
L 183.295794 50.378666 
L 184.297734 48.913432 
L 185.633654 46.389787 
L 187.303554 42.626791 
L 191.311313 33.277886 
L 192.647233 30.827571 
L 193.649173 29.435648 
L 194.651113 28.497253 
L 195.319073 28.108602 
L 195.987033 27.892155 
L 196.988972 27.857838 
L 197.990912 28.127327 
L 198.992852 28.650429 
L 200.328772 29.655655 
L 201.998672 31.239486 
L 206.006431 35.197102 
L 207.342351 36.148964 
L 208.344291 36.618703 
L 209.346231 36.823393 
L 210.014191 36.787818 
L 210.682151 36.597262 
L 211.350111 36.236856 
L 212.018071 35.691726 
L 213.020011 34.495142 
L 214.02195 32.799275 
L 215.02389 30.553933 
L 216.02583 27.708921 
L 217.02777 24.214047 
L 217.36175 22.896 
L 217.36175 22.896 
" clip-path="url(#p456bbadc0b)" style="fill: none; stroke: #cc4a33; stroke-width: 1.5; stroke-linecap: square"/>
   </g>
   <g id="matplotlib.axis_1">
    <g id="xtick_1">
     <g id="line2d_8">
      <defs>
       <path id="m26877e9838" d="M 0 0 
L 0 2 
" style="stroke: #000000; stroke-width: 1.5"/>
      </defs>
      <g>
       <use xlink:href="#m26877e9838" x="50.70575" y="178.128" style="stroke: #000000; stroke-width: 1.5"/>
      </g>
     </g>
     <g id="text_1">
      <!-- 1 -->
      <g transform="translate(47.369187 192.236125)scale(0.12 -0.12)">
       <defs>
        <path id="Helvetica-31" d="M 613 3169 
L 613 3600 
Q 1222 3659 1462 3798 
Q 1703 3938 1822 4456 
L 2266 4456 
L 2266 0 
L 1666 0 
L 1666 3169 
L 613 3169 
z
" transform="scale(0.015625)"/>
       </defs>
       <use xlink:href="#Helvetica-31"/>
      </g>
     </g>
    </g>
    <g id="xtick_2">
     <g id="line2d_9">
      <g>
       <use xlink:href="#m26877e9838" x="74.51375" y="178.128" style="stroke: #000000; stroke-width: 1.5"/>
      </g>
     </g>
     <g id="text_2">
      <!-- 3 -->
      <g transform="translate(71.177188 192.236125)scale(0.12 -0.12)">
       <defs>
        <path id="Helvetica-33" d="M 1663 -122 
Q 869 -122 511 314 
Q 153 750 153 1375 
L 741 1375 
Q 778 941 903 744 
Q 1122 391 1694 391 
Q 2138 391 2406 628 
Q 2675 866 2675 1241 
Q 2675 1703 2392 1887 
Q 2109 2072 1606 2072 
Q 1550 2072 1492 2070 
Q 1434 2069 1375 2066 
L 1375 2563 
Q 1463 2553 1522 2550 
Q 1581 2547 1650 2547 
Q 1966 2547 2169 2647 
Q 2525 2822 2525 3272 
Q 2525 3606 2287 3787 
Q 2050 3969 1734 3969 
Q 1172 3969 956 3594 
Q 838 3388 822 3006 
L 266 3006 
Q 266 3506 466 3856 
Q 809 4481 1675 4481 
Q 2359 4481 2734 4176 
Q 3109 3872 3109 3294 
Q 3109 2881 2888 2625 
Q 2750 2466 2531 2375 
Q 2884 2278 3082 2001 
Q 3281 1725 3281 1325 
Q 3281 684 2859 281 
Q 2438 -122 1663 -122 
z
" transform="scale(0.015625)"/>
       </defs>
       <use xlink:href="#Helvetica-33"/>
      </g>
     </g>
    </g>
    <g id="xtick_3">
     <g id="line2d_10">
      <g>
       <use xlink:href="#m26877e9838" x="98.32175" y="178.128" style="stroke: #000000; stroke-width: 1.5"/>
      </g>
     </g>
     <g id="text_3">
      <!-- 5 -->
      <g transform="translate(94.985187 192.236125)scale(0.12 -0.12)">
       <defs>
        <path id="Helvetica-35" d="M 791 1141 
Q 847 659 1238 475 
Q 1438 381 1700 381 
Q 2200 381 2440 700 
Q 2681 1019 2681 1406 
Q 2681 1875 2395 2131 
Q 2109 2388 1709 2388 
Q 1419 2388 1211 2275 
Q 1003 2163 856 1963 
L 369 1991 
L 709 4400 
L 3034 4400 
L 3034 3856 
L 1131 3856 
L 941 2613 
Q 1097 2731 1238 2791 
Q 1488 2894 1816 2894 
Q 2431 2894 2859 2497 
Q 3288 2100 3288 1491 
Q 3288 856 2895 371 
Q 2503 -113 1644 -113 
Q 1097 -113 676 195 
Q 256 503 206 1141 
L 791 1141 
z
" transform="scale(0.015625)"/>
       </defs>
       <use xlink:href="#Helvetica-35"/>
      </g>
     </g>
    </g>
    <g id="xtick_4">
     <g id="line2d_11">
      <g>
       <use xlink:href="#m26877e9838" x="122.12975" y="178.128" style="stroke: #000000; stroke-width: 1.5"/>
      </g>
     </g>
     <g id="text_4">
      <!-- 7 -->
      <g transform="translate(118.793188 192.236125)scale(0.12 -0.12)">
       <defs>
        <path id="Helvetica-37" d="M 3347 4400 
L 3347 3909 
Q 3131 3700 2773 3181 
Q 2416 2663 2141 2063 
Q 1869 1478 1728 997 
Q 1638 688 1494 0 
L 872 0 
Q 1084 1281 1809 2550 
Q 2238 3294 2709 3834 
L 234 3834 
L 234 4400 
L 3347 4400 
z
" transform="scale(0.015625)"/>
       </defs>
       <use xlink:href="#Helvetica-37"/>
      </g>
     </g>
    </g>
    <g id="xtick_5">
     <g id="line2d_12">
      <g>
       <use xlink:href="#m26877e9838" x="145.93775" y="178.128" style="stroke: #000000; stroke-width: 1.5"/>
      </g>
     </g>
     <g id="text_5">
      <!-- 9 -->
      <g transform="translate(142.601187 192.236125)scale(0.12 -0.12)">
       <defs>
        <path id="Helvetica-39" d="M 850 1081 
Q 875 616 1209 438 
Q 1381 344 1597 344 
Q 2000 344 2284 680 
Q 2569 1016 2688 2044 
Q 2500 1747 2223 1626 
Q 1947 1506 1628 1506 
Q 981 1506 604 1909 
Q 228 2313 228 2947 
Q 228 3556 600 4018 
Q 972 4481 1697 4481 
Q 2675 4481 3047 3600 
Q 3253 3116 3253 2388 
Q 3253 1566 3006 931 
Q 2597 -125 1619 -125 
Q 963 -125 622 219 
Q 281 563 281 1081 
L 850 1081 
z
M 1703 2000 
Q 2038 2000 2314 2220 
Q 2591 2441 2591 2991 
Q 2591 3484 2342 3726 
Q 2094 3969 1709 3969 
Q 1297 3969 1055 3692 
Q 813 3416 813 2953 
Q 813 2516 1025 2258 
Q 1238 2000 1703 2000 
z
" transform="scale(0.015625)"/>
       </defs>
       <use xlink:href="#Helvetica-39"/>
      </g>
     </g>
    </g>
    <g id="xtick_6">
     <g id="line2d_13">
      <g>
       <use xlink:href="#m26877e9838" x="169.74575" y="178.128" style="stroke: #000000; stroke-width: 1.5"/>
      </g>
     </g>
     <g id="text_6">
      <!-- 11 -->
      <g transform="translate(163.072625 192.236125)scale(0.12 -0.12)">
       <use xlink:href="#Helvetica-31"/>
       <use xlink:href="#Helvetica-31" x="55.615234"/>
      </g>
     </g>
    </g>
    <g id="xtick_7">
     <g id="line2d_14">
      <g>
       <use xlink:href="#m26877e9838" x="193.55375" y="178.128" style="stroke: #000000; stroke-width: 1.5"/>
      </g>
     </g>
     <g id="text_7">
      <!-- 13 -->
      <g transform="translate(186.880625 192.236125)scale(0.12 -0.12)">
       <use xlink:href="#Helvetica-31"/>
       <use xlink:href="#Helvetica-33" x="55.615234"/>
      </g>
     </g>
    </g>
    <g id="xtick_8">
     <g id="line2d_15">
      <g>
       <use xlink:href="#m26877e9838" x="217.36175" y="178.128" style="stroke: #000000; stroke-width: 1.5"/>
      </g>
     </g>
     <g id="text_8">
      <!-- 15 -->
      <g transform="translate(210.688625 192.236125)scale(0.12 -0.12)">
       <use xlink:href="#Helvetica-31"/>
       <use xlink:href="#Helvetica-35" x="55.615234"/>
      </g>
     </g>
    </g>
    <g id="text_9">
     <!-- Number of Features -->
     <g transform="translate(80.6825 207.3455)scale(0.12 -0.12)">
      <defs>
       <path id="Helvetica-4e" d="M 488 4591 
L 1222 4591 
L 3541 872 
L 3541 4591 
L 4131 4591 
L 4131 0 
L 3434 0 
L 1081 3716 
L 1081 0 
L 488 0 
L 488 4591 
z
M 2269 4591 
L 2269 4591 
z
" transform="scale(0.015625)"/>
       <path id="Helvetica-75" d="M 975 3347 
L 975 1125 
Q 975 869 1056 706 
Q 1206 406 1616 406 
Q 2203 406 2416 931 
Q 2531 1213 2531 1703 
L 2531 3347 
L 3094 3347 
L 3094 0 
L 2563 0 
L 2569 494 
Q 2459 303 2297 172 
Q 1975 -91 1516 -91 
Q 800 -91 541 388 
Q 400 644 400 1072 
L 400 3347 
L 975 3347 
z
M 1747 3428 
L 1747 3428 
z
" transform="scale(0.015625)"/>
       <path id="Helvetica-6d" d="M 413 3347 
L 969 3347 
L 969 2872 
Q 1169 3119 1331 3231 
Q 1609 3422 1963 3422 
Q 2363 3422 2606 3225 
Q 2744 3113 2856 2894 
Q 3044 3163 3297 3292 
Q 3550 3422 3866 3422 
Q 4541 3422 4784 2934 
Q 4916 2672 4916 2228 
L 4916 0 
L 4331 0 
L 4331 2325 
Q 4331 2659 4164 2784 
Q 3997 2909 3756 2909 
Q 3425 2909 3186 2687 
Q 2947 2466 2947 1947 
L 2947 0 
L 2375 0 
L 2375 2184 
Q 2375 2525 2294 2681 
Q 2166 2916 1816 2916 
Q 1497 2916 1236 2669 
Q 975 2422 975 1775 
L 975 0 
L 413 0 
L 413 3347 
z
" transform="scale(0.015625)"/>
       <path id="Helvetica-62" d="M 369 4606 
L 916 4606 
L 916 2941 
Q 1100 3181 1356 3307 
Q 1613 3434 1913 3434 
Q 2538 3434 2927 3004 
Q 3316 2575 3316 1738 
Q 3316 944 2931 419 
Q 2547 -106 1866 -106 
Q 1484 -106 1222 78 
Q 1066 188 888 428 
L 888 0 
L 369 0 
L 369 4606 
z
M 1831 391 
Q 2288 391 2514 753 
Q 2741 1116 2741 1709 
Q 2741 2238 2514 2584 
Q 2288 2931 1847 2931 
Q 1463 2931 1173 2647 
Q 884 2363 884 1709 
Q 884 1238 1003 944 
Q 1225 391 1831 391 
z
" transform="scale(0.015625)"/>
       <path id="Helvetica-65" d="M 1806 3422 
Q 2163 3422 2497 3255 
Q 2831 3088 3006 2822 
Q 3175 2569 3231 2231 
Q 3281 2000 3281 1494 
L 828 1494 
Q 844 984 1069 676 
Q 1294 369 1766 369 
Q 2206 369 2469 659 
Q 2619 828 2681 1050 
L 3234 1050 
Q 3213 866 3089 639 
Q 2966 413 2813 269 
Q 2556 19 2178 -69 
Q 1975 -119 1719 -119 
Q 1094 -119 659 336 
Q 225 791 225 1609 
Q 225 2416 662 2919 
Q 1100 3422 1806 3422 
z
M 2703 1941 
Q 2669 2306 2544 2525 
Q 2313 2931 1772 2931 
Q 1384 2931 1121 2651 
Q 859 2372 844 1941 
L 2703 1941 
z
M 1753 3428 
L 1753 3428 
z
" transform="scale(0.015625)"/>
       <path id="Helvetica-72" d="M 428 3347 
L 963 3347 
L 963 2769 
Q 1028 2938 1284 3180 
Q 1541 3422 1875 3422 
Q 1891 3422 1928 3419 
Q 1966 3416 2056 3406 
L 2056 2813 
Q 2006 2822 1964 2825 
Q 1922 2828 1872 2828 
Q 1447 2828 1219 2554 
Q 991 2281 991 1925 
L 991 0 
L 428 0 
L 428 3347 
z
" transform="scale(0.015625)"/>
       <path id="Helvetica-20" transform="scale(0.015625)"/>
       <path id="Helvetica-6f" d="M 1741 363 
Q 2300 363 2508 786 
Q 2716 1209 2716 1728 
Q 2716 2197 2566 2491 
Q 2328 2953 1747 2953 
Q 1231 2953 997 2559 
Q 763 2166 763 1609 
Q 763 1075 997 719 
Q 1231 363 1741 363 
z
M 1763 3444 
Q 2409 3444 2856 3012 
Q 3303 2581 3303 1744 
Q 3303 934 2909 406 
Q 2516 -122 1688 -122 
Q 997 -122 590 345 
Q 184 813 184 1600 
Q 184 2444 612 2944 
Q 1041 3444 1763 3444 
z
M 1744 3428 
L 1744 3428 
z
" transform="scale(0.015625)"/>
       <path id="Helvetica-66" d="M 553 3856 
Q 566 4206 675 4369 
Q 872 4656 1434 4656 
Q 1488 4656 1544 4653 
Q 1600 4650 1672 4644 
L 1672 4131 
Q 1584 4138 1545 4139 
Q 1506 4141 1472 4141 
Q 1216 4141 1166 4008 
Q 1116 3875 1116 3331 
L 1672 3331 
L 1672 2888 
L 1109 2888 
L 1109 0 
L 553 0 
L 553 2888 
L 88 2888 
L 88 3331 
L 553 3331 
L 553 3856 
z
" transform="scale(0.015625)"/>
       <path id="Helvetica-46" d="M 547 4591 
L 3731 4591 
L 3731 4028 
L 1169 4028 
L 1169 2634 
L 3422 2634 
L 3422 2088 
L 1169 2088 
L 1169 0 
L 547 0 
L 547 4591 
z
" transform="scale(0.015625)"/>
       <path id="Helvetica-61" d="M 844 891 
Q 844 647 1022 506 
Q 1200 366 1444 366 
Q 1741 366 2019 503 
Q 2488 731 2488 1250 
L 2488 1703 
Q 2384 1638 2221 1594 
Q 2059 1550 1903 1531 
L 1563 1488 
Q 1256 1447 1103 1359 
Q 844 1213 844 891 
z
M 2206 2028 
Q 2400 2053 2466 2191 
Q 2503 2266 2503 2406 
Q 2503 2694 2298 2823 
Q 2094 2953 1713 2953 
Q 1272 2953 1088 2716 
Q 984 2584 953 2325 
L 428 2325 
Q 444 2944 830 3186 
Q 1216 3428 1725 3428 
Q 2316 3428 2684 3203 
Q 3050 2978 3050 2503 
L 3050 575 
Q 3050 488 3086 434 
Q 3122 381 3238 381 
Q 3275 381 3322 386 
Q 3369 391 3422 400 
L 3422 -16 
Q 3291 -53 3222 -62 
Q 3153 -72 3034 -72 
Q 2744 -72 2613 134 
Q 2544 244 2516 444 
Q 2344 219 2022 53 
Q 1700 -113 1313 -113 
Q 847 -113 551 170 
Q 256 453 256 878 
Q 256 1344 547 1600 
Q 838 1856 1309 1916 
L 2206 2028 
z
M 1741 3428 
L 1741 3428 
z
" transform="scale(0.015625)"/>
       <path id="Helvetica-74" d="M 525 4281 
L 1094 4281 
L 1094 3347 
L 1628 3347 
L 1628 2888 
L 1094 2888 
L 1094 703 
Q 1094 528 1213 469 
Q 1278 434 1431 434 
Q 1472 434 1519 436 
Q 1566 438 1628 444 
L 1628 0 
Q 1531 -28 1426 -40 
Q 1322 -53 1200 -53 
Q 806 -53 665 148 
Q 525 350 525 672 
L 525 2888 
L 72 2888 
L 72 3347 
L 525 3347 
L 525 4281 
z
" transform="scale(0.015625)"/>
       <path id="Helvetica-73" d="M 747 1050 
Q 772 769 888 619 
Q 1100 347 1625 347 
Q 1938 347 2175 483 
Q 2413 619 2413 903 
Q 2413 1119 2222 1231 
Q 2100 1300 1741 1391 
L 1294 1503 
Q 866 1609 663 1741 
Q 300 1969 300 2372 
Q 300 2847 642 3140 
Q 984 3434 1563 3434 
Q 2319 3434 2653 2991 
Q 2863 2709 2856 2384 
L 2325 2384 
Q 2309 2575 2191 2731 
Q 1997 2953 1519 2953 
Q 1200 2953 1036 2831 
Q 872 2709 872 2509 
Q 872 2291 1088 2159 
Q 1213 2081 1456 2022 
L 1828 1931 
Q 2434 1784 2641 1647 
Q 2969 1431 2969 969 
Q 2969 522 2630 197 
Q 2291 -128 1597 -128 
Q 850 -128 539 211 
Q 228 550 206 1050 
L 747 1050 
z
M 1578 3428 
L 1578 3428 
z
" transform="scale(0.015625)"/>
      </defs>
      <use xlink:href="#Helvetica-4e"/>
      <use xlink:href="#Helvetica-75" x="72.216797"/>
      <use xlink:href="#Helvetica-6d" x="127.832031"/>
      <use xlink:href="#Helvetica-62" x="211.132812"/>
      <use xlink:href="#Helvetica-65" x="266.748047"/>
      <use xlink:href="#Helvetica-72" x="322.363281"/>
      <use xlink:href="#Helvetica-20" x="355.664062"/>
      <use xlink:href="#Helvetica-6f" x="383.447266"/>
      <use xlink:href="#Helvetica-66" x="439.0625"/>
      <use xlink:href="#Helvetica-20" x="466.845703"/>
      <use xlink:href="#Helvetica-46" x="494.628906"/>
      <use xlink:href="#Helvetica-65" x="555.712891"/>
      <use xlink:href="#Helvetica-61" x="611.328125"/>
      <use xlink:href="#Helvetica-74" x="666.943359"/>
      <use xlink:href="#Helvetica-75" x="694.726562"/>
      <use xlink:href="#Helvetica-72" x="750.341797"/>
      <use xlink:href="#Helvetica-65" x="783.642578"/>
      <use xlink:href="#Helvetica-73" x="839.257812"/>
     </g>
    </g>
   </g>
   <g id="matplotlib.axis_2">
    <g id="ytick_1">
     <g id="line2d_16">
      <defs>
       <path id="m7124cd5837" d="M 0 0 
L -2 0 
" style="stroke: #000000; stroke-width: 1.5"/>
      </defs>
      <g>
       <use xlink:href="#m7124cd5837" x="44.75375" y="148.56" style="stroke: #000000; stroke-width: 1.5"/>
      </g>
     </g>
     <g id="text_10">
      <!-- 0.64 -->
      <g transform="translate(15.900625 152.864063)scale(0.12 -0.12)">
       <defs>
        <path id="Helvetica-30" d="M 1731 4475 
Q 2600 4475 2988 3759 
Q 3288 3206 3288 2244 
Q 3288 1331 3016 734 
Q 2622 -122 1728 -122 
Q 922 -122 528 578 
Q 200 1163 200 2147 
Q 200 2909 397 3456 
Q 766 4475 1731 4475 
z
M 1725 391 
Q 2163 391 2422 778 
Q 2681 1166 2681 2222 
Q 2681 2984 2493 3476 
Q 2306 3969 1766 3969 
Q 1269 3969 1039 3501 
Q 809 3034 809 2125 
Q 809 1441 956 1025 
Q 1181 391 1725 391 
z
" transform="scale(0.015625)"/>
        <path id="Helvetica-2e" d="M 547 681 
L 1200 681 
L 1200 0 
L 547 0 
L 547 681 
z
" transform="scale(0.015625)"/>
        <path id="Helvetica-36" d="M 1872 4494 
Q 2622 4494 2917 4105 
Q 3213 3716 3213 3303 
L 2656 3303 
Q 2606 3569 2497 3719 
Q 2294 4000 1881 4000 
Q 1409 4000 1131 3564 
Q 853 3128 822 2316 
Q 1016 2600 1309 2741 
Q 1578 2866 1909 2866 
Q 2472 2866 2890 2506 
Q 3309 2147 3309 1434 
Q 3309 825 2912 354 
Q 2516 -116 1781 -116 
Q 1153 -116 697 361 
Q 241 838 241 1966 
Q 241 2800 444 3381 
Q 834 4494 1872 4494 
z
M 1831 384 
Q 2275 384 2495 682 
Q 2716 981 2716 1388 
Q 2716 1731 2519 2042 
Q 2322 2353 1803 2353 
Q 1441 2353 1167 2112 
Q 894 1872 894 1388 
Q 894 963 1142 673 
Q 1391 384 1831 384 
z
" transform="scale(0.015625)"/>
        <path id="Helvetica-34" d="M 2116 1584 
L 2116 3613 
L 681 1584 
L 2116 1584 
z
M 2125 0 
L 2125 1094 
L 163 1094 
L 163 1644 
L 2213 4488 
L 2688 4488 
L 2688 1584 
L 3347 1584 
L 3347 1094 
L 2688 1094 
L 2688 0 
L 2125 0 
z
" transform="scale(0.015625)"/>
       </defs>
       <use xlink:href="#Helvetica-30"/>
       <use xlink:href="#Helvetica-2e" x="55.615234"/>
       <use xlink:href="#Helvetica-36" x="83.398438"/>
       <use xlink:href="#Helvetica-34" x="139.013672"/>
      </g>
     </g>
    </g>
    <g id="ytick_2">
     <g id="line2d_17">
      <g>
       <use xlink:href="#m7124cd5837" x="44.75375" y="89.424" style="stroke: #000000; stroke-width: 1.5"/>
      </g>
     </g>
     <g id="text_11">
      <!-- 0.68 -->
      <g transform="translate(15.900625 93.728063)scale(0.12 -0.12)">
       <defs>
        <path id="Helvetica-38" d="M 1741 2600 
Q 2113 2600 2322 2808 
Q 2531 3016 2531 3303 
Q 2531 3553 2331 3762 
Q 2131 3972 1722 3972 
Q 1316 3972 1134 3762 
Q 953 3553 953 3272 
Q 953 2956 1187 2778 
Q 1422 2600 1741 2600 
z
M 1775 384 
Q 2166 384 2423 595 
Q 2681 806 2681 1225 
Q 2681 1659 2415 1884 
Q 2150 2109 1734 2109 
Q 1331 2109 1076 1879 
Q 822 1650 822 1244 
Q 822 894 1055 639 
Q 1288 384 1775 384 
z
M 975 2384 
Q 741 2484 609 2619 
Q 363 2869 363 3269 
Q 363 3769 725 4128 
Q 1088 4488 1753 4488 
Q 2397 4488 2762 4148 
Q 3128 3809 3128 3356 
Q 3128 2938 2916 2678 
Q 2797 2531 2547 2391 
Q 2825 2263 2984 2097 
Q 3281 1784 3281 1284 
Q 3281 694 2884 283 
Q 2488 -128 1763 -128 
Q 1109 -128 657 226 
Q 206 581 206 1256 
Q 206 1653 400 1942 
Q 594 2231 975 2384 
z
" transform="scale(0.015625)"/>
       </defs>
       <use xlink:href="#Helvetica-30"/>
       <use xlink:href="#Helvetica-2e" x="55.615234"/>
       <use xlink:href="#Helvetica-36" x="83.398438"/>
       <use xlink:href="#Helvetica-38" x="139.013672"/>
      </g>
     </g>
    </g>
    <g id="ytick_3">
     <g id="line2d_18">
      <g>
       <use xlink:href="#m7124cd5837" x="44.75375" y="30.288" style="stroke: #000000; stroke-width: 1.5"/>
      </g>
     </g>
     <g id="text_12">
      <!-- 0.72 -->
      <g transform="translate(15.900625 34.592063)scale(0.12 -0.12)">
       <defs>
        <path id="Helvetica-32" d="M 200 0 
Q 231 578 439 1006 
Q 647 1434 1250 1784 
L 1850 2131 
Q 2253 2366 2416 2531 
Q 2672 2791 2672 3125 
Q 2672 3516 2437 3745 
Q 2203 3975 1813 3975 
Q 1234 3975 1013 3538 
Q 894 3303 881 2888 
L 309 2888 
Q 319 3472 525 3841 
Q 891 4491 1816 4491 
Q 2584 4491 2939 4075 
Q 3294 3659 3294 3150 
Q 3294 2613 2916 2231 
Q 2697 2009 2131 1694 
L 1703 1456 
Q 1397 1288 1222 1134 
Q 909 863 828 531 
L 3272 531 
L 3272 0 
L 200 0 
z
" transform="scale(0.015625)"/>
       </defs>
       <use xlink:href="#Helvetica-30"/>
       <use xlink:href="#Helvetica-2e" x="55.615234"/>
       <use xlink:href="#Helvetica-37" x="83.398438"/>
       <use xlink:href="#Helvetica-32" x="139.013672"/>
      </g>
     </g>
    </g>
    <g id="text_13">
     <!-- Accuracy -->
     <g transform="translate(9.328125 114.097125)rotate(-90)scale(0.12 -0.12)">
      <defs>
       <path id="Helvetica-41" d="M 2844 1881 
L 2147 3909 
L 1406 1881 
L 2844 1881 
z
M 1822 4591 
L 2525 4591 
L 4191 0 
L 3509 0 
L 3044 1375 
L 1228 1375 
L 731 0 
L 94 0 
L 1822 4591 
z
" transform="scale(0.015625)"/>
       <path id="Helvetica-63" d="M 1703 3444 
Q 2269 3444 2623 3169 
Q 2978 2894 3050 2222 
L 2503 2222 
Q 2453 2531 2275 2736 
Q 2097 2941 1703 2941 
Q 1166 2941 934 2416 
Q 784 2075 784 1575 
Q 784 1072 996 728 
Q 1209 384 1666 384 
Q 2016 384 2220 598 
Q 2425 813 2503 1184 
L 3050 1184 
Q 2956 519 2581 211 
Q 2206 -97 1622 -97 
Q 966 -97 575 383 
Q 184 863 184 1581 
Q 184 2463 612 2953 
Q 1041 3444 1703 3444 
z
M 1616 3428 
L 1616 3428 
z
" transform="scale(0.015625)"/>
       <path id="Helvetica-79" d="M 2503 3347 
L 3125 3347 
Q 3006 3025 2597 1878 
Q 2291 1016 2084 472 
Q 1597 -809 1397 -1090 
Q 1197 -1372 709 -1372 
Q 591 -1372 527 -1362 
Q 463 -1353 369 -1328 
L 369 -816 
Q 516 -856 581 -865 
Q 647 -875 697 -875 
Q 853 -875 926 -823 
Q 1000 -772 1050 -697 
Q 1066 -672 1162 -440 
Q 1259 -209 1303 -97 
L 66 3347 
L 703 3347 
L 1600 622 
L 2503 3347 
z
M 1597 3428 
L 1597 3428 
z
" transform="scale(0.015625)"/>
      </defs>
      <use xlink:href="#Helvetica-41"/>
      <use xlink:href="#Helvetica-63" x="66.699219"/>
      <use xlink:href="#Helvetica-63" x="116.699219"/>
      <use xlink:href="#Helvetica-75" x="166.699219"/>
      <use xlink:href="#Helvetica-72" x="222.314453"/>
      <use xlink:href="#Helvetica-61" x="255.615234"/>
      <use xlink:href="#Helvetica-63" x="311.230469"/>
      <use xlink:href="#Helvetica-79" x="361.230469"/>
     </g>
    </g>
   </g>
   <g id="patch_3">
    <path d="M 44.75375 178.128 
L 44.75375 0.72 
" style="fill: none; stroke: #000000; stroke-width: 1.5; stroke-linejoin: miter; stroke-linecap: square"/>
   </g>
   <g id="patch_4">
    <path d="M 223.31375 178.128 
L 223.31375 0.72 
" style="fill: none; stroke: #000000; stroke-width: 1.5; stroke-linejoin: miter; stroke-linecap: square"/>
   </g>
   <g id="patch_5">
    <path d="M 44.75375 178.128 
L 223.31375 178.128 
" style="fill: none; stroke: #000000; stroke-width: 1.5; stroke-linejoin: miter; stroke-linecap: square"/>
   </g>
   <g id="patch_6">
    <path d="M 44.75375 0.72 
L 223.31375 0.72 
" style="fill: none; stroke: #000000; stroke-width: 1.5; stroke-linejoin: miter; stroke-linecap: square"/>
   </g>
  </g>
 </g>
 <defs>
  <clipPath id="p456bbadc0b">
   <rect x="44.75375" y="0.72" width="178.56" height="177.408"/>
  </clipPath>
 </defs>
</svg>
