<?xml version="1.0" encoding="utf-8" standalone="no"?>
<!DOCTYPE svg PUBLIC "-//W3C//DTD SVG 1.1//EN"
  "http://www.w3.org/Graphics/SVG/1.1/DTD/svg11.dtd">
<svg xmlns:xlink="http://www.w3.org/1999/xlink" width="89.314016pt" height="483.808767pt" viewBox="0 0 89.314016 483.808767" xmlns="http://www.w3.org/2000/svg" version="1.1">
 <metadata>
  <rdf:RDF xmlns:dc="http://purl.org/dc/elements/1.1/" xmlns:cc="http://creativecommons.org/ns#" xmlns:rdf="http://www.w3.org/1999/02/22-rdf-syntax-ns#">
   <cc:Work>
    <dc:type rdf:resource="http://purl.org/dc/dcmitype/StillImage"/>
    <dc:date>2024-10-19T09:47:42.271355</dc:date>
    <dc:format>image/svg+xml</dc:format>
    <dc:creator>
     <cc:Agent>
      <dc:title>Matplotlib v3.5.1, https://matplotlib.org/</dc:title>
     </cc:Agent>
    </dc:creator>
   </cc:Work>
  </rdf:RDF>
 </metadata>
 <defs>
  <style type="text/css">*{stroke-linejoin: round; stroke-linecap: butt}</style>
 </defs>
 <g id="figure_1">
  <g id="patch_1">
   <path d="M 0 483.808767 
L 89.314016 483.808767 
L 89.314016 0 
L 0 0 
L 0 483.808767 
z
" style="fill: none"/>
  </g>
  <g id="axes_1">
   <g id="patch_2">
    <path d="M 0.72 483.088767 
L 88.594016 483.088767 
L 88.594016 24.726562 
L 0.72 24.726562 
z
" style="fill: #ffffff"/>
   </g>
   <g id="matplotlib.axis_1">
    <g id="xtick_1">
     <g id="line2d_1">
      <defs>
       <path id="m567c0df338" d="M 0 0 
L 0 -2 
" style="stroke: #000000; stroke-width: 0.8"/>
      </defs>
      <g>
       <use xlink:href="#m567c0df338" x="21.532267" y="24.726562" style="stroke: #000000; stroke-width: 0.8"/>
      </g>
     </g>
     <g id="text_1">
      <!-- 1 -->
      <g transform="translate(18.751798 20.642187)scale(0.1 -0.1)">
       <defs>
        <path id="Helvetica-31" d="M 613 3169 
L 613 3600 
Q 1222 3659 1462 3798 
Q 1703 3938 1822 4456 
L 2266 4456 
L 2266 0 
L 1666 0 
L 1666 3169 
L 613 3169 
z
" transform="scale(0.015625)"/>
       </defs>
       <use xlink:href="#Helvetica-31"/>
      </g>
     </g>
    </g>
    <g id="xtick_2">
     <g id="line2d_2">
      <g>
       <use xlink:href="#m567c0df338" x="44.657008" y="24.726562" style="stroke: #000000; stroke-width: 0.8"/>
      </g>
     </g>
     <g id="text_2">
      <!-- 2 -->
      <g transform="translate(41.876539 20.642187)scale(0.1 -0.1)">
       <defs>
        <path id="Helvetica-32" d="M 200 0 
Q 231 578 439 1006 
Q 647 1434 1250 1784 
L 1850 2131 
Q 2253 2366 2416 2531 
Q 2672 2791 2672 3125 
Q 2672 3516 2437 3745 
Q 2203 3975 1813 3975 
Q 1234 3975 1013 3538 
Q 894 3303 881 2888 
L 309 2888 
Q 319 3472 525 3841 
Q 891 4491 1816 4491 
Q 2584 4491 2939 4075 
Q 3294 3659 3294 3150 
Q 3294 2613 2916 2231 
Q 2697 2009 2131 1694 
L 1703 1456 
Q 1397 1288 1222 1134 
Q 909 863 828 531 
L 3272 531 
L 3272 0 
L 200 0 
z
" transform="scale(0.015625)"/>
       </defs>
       <use xlink:href="#Helvetica-32"/>
      </g>
     </g>
    </g>
    <g id="xtick_3">
     <g id="line2d_3">
      <g>
       <use xlink:href="#m567c0df338" x="67.781749" y="24.726562" style="stroke: #000000; stroke-width: 0.8"/>
      </g>
     </g>
     <g id="text_3">
      <!-- 3 -->
      <g transform="translate(65.00128 20.642187)scale(0.1 -0.1)">
       <defs>
        <path id="Helvetica-33" d="M 1663 -122 
Q 869 -122 511 314 
Q 153 750 153 1375 
L 741 1375 
Q 778 941 903 744 
Q 1122 391 1694 391 
Q 2138 391 2406 628 
Q 2675 866 2675 1241 
Q 2675 1703 2392 1887 
Q 2109 2072 1606 2072 
Q 1550 2072 1492 2070 
Q 1434 2069 1375 2066 
L 1375 2563 
Q 1463 2553 1522 2550 
Q 1581 2547 1650 2547 
Q 1966 2547 2169 2647 
Q 2525 2822 2525 3272 
Q 2525 3606 2287 3787 
Q 2050 3969 1734 3969 
Q 1172 3969 956 3594 
Q 838 3388 822 3006 
L 266 3006 
Q 266 3506 466 3856 
Q 809 4481 1675 4481 
Q 2359 4481 2734 4176 
Q 3109 3872 3109 3294 
Q 3109 2881 2888 2625 
Q 2750 2466 2531 2375 
Q 2884 2278 3082 2001 
Q 3281 1725 3281 1325 
Q 3281 684 2859 281 
Q 2438 -122 1663 -122 
z
" transform="scale(0.015625)"/>
       </defs>
       <use xlink:href="#Helvetica-33"/>
      </g>
     </g>
    </g>
    <g id="text_4">
     <!-- -log(P) -->
     <g transform="translate(26.655133 9.46875)scale(0.12 -0.12)">
      <defs>
       <path id="Helvetica-2d" d="M 266 2072 
L 1834 2072 
L 1834 1494 
L 266 1494 
L 266 2072 
z
" transform="scale(0.015625)"/>
       <path id="Helvetica-6c" d="M 428 4591 
L 991 4591 
L 991 0 
L 428 0 
L 428 4591 
z
" transform="scale(0.015625)"/>
       <path id="Helvetica-6f" d="M 1741 363 
Q 2300 363 2508 786 
Q 2716 1209 2716 1728 
Q 2716 2197 2566 2491 
Q 2328 2953 1747 2953 
Q 1231 2953 997 2559 
Q 763 2166 763 1609 
Q 763 1075 997 719 
Q 1231 363 1741 363 
z
M 1763 3444 
Q 2409 3444 2856 3012 
Q 3303 2581 3303 1744 
Q 3303 934 2909 406 
Q 2516 -122 1688 -122 
Q 997 -122 590 345 
Q 184 813 184 1600 
Q 184 2444 612 2944 
Q 1041 3444 1763 3444 
z
M 1744 3428 
L 1744 3428 
z
" transform="scale(0.015625)"/>
       <path id="Helvetica-67" d="M 1594 3406 
Q 1988 3406 2281 3213 
Q 2441 3103 2606 2894 
L 2606 3316 
L 3125 3316 
L 3125 272 
Q 3125 -366 2938 -734 
Q 2588 -1416 1616 -1416 
Q 1075 -1416 706 -1173 
Q 338 -931 294 -416 
L 866 -416 
Q 906 -641 1028 -763 
Q 1219 -950 1628 -950 
Q 2275 -950 2475 -494 
Q 2594 -225 2584 466 
Q 2416 209 2178 84 
Q 1941 -41 1550 -41 
Q 1006 -41 598 345 
Q 191 731 191 1622 
Q 191 2463 602 2934 
Q 1013 3406 1594 3406 
z
M 2606 1688 
Q 2606 2309 2350 2609 
Q 2094 2909 1697 2909 
Q 1103 2909 884 2353 
Q 769 2056 769 1575 
Q 769 1009 998 714 
Q 1228 419 1616 419 
Q 2222 419 2469 966 
Q 2606 1275 2606 1688 
z
M 1659 3428 
L 1659 3428 
z
" transform="scale(0.015625)"/>
       <path id="Helvetica-28" d="M 1894 4666 
Q 1403 3713 1256 3263 
Q 1034 2578 1034 1681 
Q 1034 775 1288 25 
Q 1444 -438 1903 -1306 
L 1525 -1306 
Q 1069 -594 959 -397 
Q 850 -200 722 138 
Q 547 600 478 1125 
Q 444 1397 444 1644 
Q 444 2569 734 3291 
Q 919 3750 1503 4666 
L 1894 4666 
z
" transform="scale(0.015625)"/>
       <path id="Helvetica-50" d="M 547 4591 
L 2613 4591 
Q 3225 4591 3600 4245 
Q 3975 3900 3975 3275 
Q 3975 2738 3640 2339 
Q 3306 1941 2613 1941 
L 1169 1941 
L 1169 0 
L 547 0 
L 547 4591 
z
M 3347 3272 
Q 3347 3778 2972 3959 
Q 2766 4056 2406 4056 
L 1169 4056 
L 1169 2466 
L 2406 2466 
Q 2825 2466 3086 2644 
Q 3347 2822 3347 3272 
z
" transform="scale(0.015625)"/>
       <path id="Helvetica-29" d="M 222 -1306 
Q 719 -338 863 106 
Q 1081 778 1081 1681 
Q 1081 2584 828 3334 
Q 672 3797 213 4666 
L 591 4666 
Q 1072 3897 1173 3717 
Q 1275 3538 1394 3222 
Q 1544 2831 1608 2450 
Q 1672 2069 1672 1716 
Q 1672 791 1378 66 
Q 1194 -400 613 -1306 
L 222 -1306 
z
" transform="scale(0.015625)"/>
      </defs>
      <use xlink:href="#Helvetica-2d"/>
      <use xlink:href="#Helvetica-6c" x="33.300781"/>
      <use xlink:href="#Helvetica-6f" x="55.517578"/>
      <use xlink:href="#Helvetica-67" x="111.132812"/>
      <use xlink:href="#Helvetica-28" x="166.748047"/>
      <use xlink:href="#Helvetica-50" x="200.048828"/>
      <use xlink:href="#Helvetica-29" x="266.748047"/>
     </g>
    </g>
   </g>
   <g id="matplotlib.axis_2">
    <g id="ytick_1">
     <g id="line2d_4">
      <path d="M 0.72 33.214751 
L 88.594016 33.214751 
" clip-path="url(#pb7a269c8cf)" style="fill: none; stroke-dasharray: 0.8,1.32; stroke-dashoffset: 0; stroke: #b0b0b0; stroke-width: 0.8"/>
     </g>
    </g>
    <g id="ytick_2">
     <g id="line2d_5">
      <path d="M 0.72 50.191129 
L 88.594016 50.191129 
" clip-path="url(#pb7a269c8cf)" style="fill: none; stroke-dasharray: 0.8,1.32; stroke-dashoffset: 0; stroke: #b0b0b0; stroke-width: 0.8"/>
     </g>
    </g>
    <g id="ytick_3">
     <g id="line2d_6">
      <path d="M 0.72 67.167507 
L 88.594016 67.167507 
" clip-path="url(#pb7a269c8cf)" style="fill: none; stroke-dasharray: 0.8,1.32; stroke-dashoffset: 0; stroke: #b0b0b0; stroke-width: 0.8"/>
     </g>
    </g>
    <g id="ytick_4">
     <g id="line2d_7">
      <path d="M 0.72 84.143885 
L 88.594016 84.143885 
" clip-path="url(#pb7a269c8cf)" style="fill: none; stroke-dasharray: 0.8,1.32; stroke-dashoffset: 0; stroke: #b0b0b0; stroke-width: 0.8"/>
     </g>
    </g>
    <g id="ytick_5">
     <g id="line2d_8">
      <path d="M 0.72 101.120263 
L 88.594016 101.120263 
" clip-path="url(#pb7a269c8cf)" style="fill: none; stroke-dasharray: 0.8,1.32; stroke-dashoffset: 0; stroke: #b0b0b0; stroke-width: 0.8"/>
     </g>
    </g>
    <g id="ytick_6">
     <g id="line2d_9">
      <path d="M 0.72 118.096641 
L 88.594016 118.096641 
" clip-path="url(#pb7a269c8cf)" style="fill: none; stroke-dasharray: 0.8,1.32; stroke-dashoffset: 0; stroke: #b0b0b0; stroke-width: 0.8"/>
     </g>
    </g>
    <g id="ytick_7">
     <g id="line2d_10">
      <path d="M 0.72 135.073019 
L 88.594016 135.073019 
" clip-path="url(#pb7a269c8cf)" style="fill: none; stroke-dasharray: 0.8,1.32; stroke-dashoffset: 0; stroke: #b0b0b0; stroke-width: 0.8"/>
     </g>
    </g>
    <g id="ytick_8">
     <g id="line2d_11">
      <path d="M 0.72 152.049397 
L 88.594016 152.049397 
" clip-path="url(#pb7a269c8cf)" style="fill: none; stroke-dasharray: 0.8,1.32; stroke-dashoffset: 0; stroke: #b0b0b0; stroke-width: 0.8"/>
     </g>
    </g>
    <g id="ytick_9">
     <g id="line2d_12">
      <path d="M 0.72 169.025775 
L 88.594016 169.025775 
" clip-path="url(#pb7a269c8cf)" style="fill: none; stroke-dasharray: 0.8,1.32; stroke-dashoffset: 0; stroke: #b0b0b0; stroke-width: 0.8"/>
     </g>
    </g>
    <g id="ytick_10">
     <g id="line2d_13">
      <path d="M 0.72 186.002153 
L 88.594016 186.002153 
" clip-path="url(#pb7a269c8cf)" style="fill: none; stroke-dasharray: 0.8,1.32; stroke-dashoffset: 0; stroke: #b0b0b0; stroke-width: 0.8"/>
     </g>
    </g>
    <g id="ytick_11">
     <g id="line2d_14">
      <path d="M 0.72 202.978531 
L 88.594016 202.978531 
" clip-path="url(#pb7a269c8cf)" style="fill: none; stroke-dasharray: 0.8,1.32; stroke-dashoffset: 0; stroke: #b0b0b0; stroke-width: 0.8"/>
     </g>
    </g>
    <g id="ytick_12">
     <g id="line2d_15">
      <path d="M 0.72 219.954909 
L 88.594016 219.954909 
" clip-path="url(#pb7a269c8cf)" style="fill: none; stroke-dasharray: 0.8,1.32; stroke-dashoffset: 0; stroke: #b0b0b0; stroke-width: 0.8"/>
     </g>
    </g>
    <g id="ytick_13">
     <g id="line2d_16">
      <path d="M 0.72 236.931287 
L 88.594016 236.931287 
" clip-path="url(#pb7a269c8cf)" style="fill: none; stroke-dasharray: 0.8,1.32; stroke-dashoffset: 0; stroke: #b0b0b0; stroke-width: 0.8"/>
     </g>
    </g>
    <g id="ytick_14">
     <g id="line2d_17">
      <path d="M 0.72 253.907665 
L 88.594016 253.907665 
" clip-path="url(#pb7a269c8cf)" style="fill: none; stroke-dasharray: 0.8,1.32; stroke-dashoffset: 0; stroke: #b0b0b0; stroke-width: 0.8"/>
     </g>
    </g>
    <g id="ytick_15">
     <g id="line2d_18">
      <path d="M 0.72 270.884043 
L 88.594016 270.884043 
" clip-path="url(#pb7a269c8cf)" style="fill: none; stroke-dasharray: 0.8,1.32; stroke-dashoffset: 0; stroke: #b0b0b0; stroke-width: 0.8"/>
     </g>
    </g>
    <g id="ytick_16">
     <g id="line2d_19">
      <path d="M 0.72 287.860421 
L 88.594016 287.860421 
" clip-path="url(#pb7a269c8cf)" style="fill: none; stroke-dasharray: 0.8,1.32; stroke-dashoffset: 0; stroke: #b0b0b0; stroke-width: 0.8"/>
     </g>
    </g>
    <g id="ytick_17">
     <g id="line2d_20">
      <path d="M 0.72 304.836799 
L 88.594016 304.836799 
" clip-path="url(#pb7a269c8cf)" style="fill: none; stroke-dasharray: 0.8,1.32; stroke-dashoffset: 0; stroke: #b0b0b0; stroke-width: 0.8"/>
     </g>
    </g>
    <g id="ytick_18">
     <g id="line2d_21">
      <path d="M 0.72 321.813177 
L 88.594016 321.813177 
" clip-path="url(#pb7a269c8cf)" style="fill: none; stroke-dasharray: 0.8,1.32; stroke-dashoffset: 0; stroke: #b0b0b0; stroke-width: 0.8"/>
     </g>
    </g>
    <g id="ytick_19">
     <g id="line2d_22">
      <path d="M 0.72 338.789555 
L 88.594016 338.789555 
" clip-path="url(#pb7a269c8cf)" style="fill: none; stroke-dasharray: 0.8,1.32; stroke-dashoffset: 0; stroke: #b0b0b0; stroke-width: 0.8"/>
     </g>
    </g>
    <g id="ytick_20">
     <g id="line2d_23">
      <path d="M 0.72 355.765933 
L 88.594016 355.765933 
" clip-path="url(#pb7a269c8cf)" style="fill: none; stroke-dasharray: 0.8,1.32; stroke-dashoffset: 0; stroke: #b0b0b0; stroke-width: 0.8"/>
     </g>
    </g>
    <g id="ytick_21">
     <g id="line2d_24">
      <path d="M 0.72 372.742311 
L 88.594016 372.742311 
" clip-path="url(#pb7a269c8cf)" style="fill: none; stroke-dasharray: 0.8,1.32; stroke-dashoffset: 0; stroke: #b0b0b0; stroke-width: 0.8"/>
     </g>
    </g>
    <g id="ytick_22">
     <g id="line2d_25">
      <path d="M 0.72 389.718688 
L 88.594016 389.718688 
" clip-path="url(#pb7a269c8cf)" style="fill: none; stroke-dasharray: 0.8,1.32; stroke-dashoffset: 0; stroke: #b0b0b0; stroke-width: 0.8"/>
     </g>
    </g>
    <g id="ytick_23">
     <g id="line2d_26">
      <path d="M 0.72 406.695066 
L 88.594016 406.695066 
" clip-path="url(#pb7a269c8cf)" style="fill: none; stroke-dasharray: 0.8,1.32; stroke-dashoffset: 0; stroke: #b0b0b0; stroke-width: 0.8"/>
     </g>
    </g>
    <g id="ytick_24">
     <g id="line2d_27">
      <path d="M 0.72 423.671444 
L 88.594016 423.671444 
" clip-path="url(#pb7a269c8cf)" style="fill: none; stroke-dasharray: 0.8,1.32; stroke-dashoffset: 0; stroke: #b0b0b0; stroke-width: 0.8"/>
     </g>
    </g>
    <g id="ytick_25">
     <g id="line2d_28">
      <path d="M 0.72 440.647822 
L 88.594016 440.647822 
" clip-path="url(#pb7a269c8cf)" style="fill: none; stroke-dasharray: 0.8,1.32; stroke-dashoffset: 0; stroke: #b0b0b0; stroke-width: 0.8"/>
     </g>
    </g>
    <g id="ytick_26">
     <g id="line2d_29">
      <path d="M 0.72 457.6242 
L 88.594016 457.6242 
" clip-path="url(#pb7a269c8cf)" style="fill: none; stroke-dasharray: 0.8,1.32; stroke-dashoffset: 0; stroke: #b0b0b0; stroke-width: 0.8"/>
     </g>
    </g>
    <g id="ytick_27">
     <g id="line2d_30">
      <path d="M 0.72 474.600578 
L 88.594016 474.600578 
" clip-path="url(#pb7a269c8cf)" style="fill: none; stroke-dasharray: 0.8,1.32; stroke-dashoffset: 0; stroke: #b0b0b0; stroke-width: 0.8"/>
     </g>
    </g>
   </g>
   <g id="patch_3">
    <path d="M 0.72 483.088767 
L 0.72 24.726563 
" style="fill: none; stroke: #000000; stroke-linejoin: miter; stroke-linecap: square"/>
   </g>
   <g id="patch_4">
    <path d="M 88.594016 483.088767 
L 88.594016 24.726563 
" style="fill: none; stroke: #000000; stroke-linejoin: miter; stroke-linecap: square"/>
   </g>
   <g id="patch_5">
    <path d="M 0.72 483.088767 
L 88.594016 483.088767 
" style="fill: none; stroke: #000000; stroke-linejoin: miter; stroke-linecap: square"/>
   </g>
   <g id="patch_6">
    <path d="M 0.72 24.726562 
L 88.594016 24.726562 
" style="fill: none; stroke: #000000; stroke-linejoin: miter; stroke-linecap: square"/>
   </g>
   <g id="PathCollection_1">
    <path d="M 24.128516 35.714751 
C 24.791524 35.714751 25.427466 35.451336 25.896283 34.982518 
C 26.3651 34.513701 26.628516 33.877759 26.628516 33.214751 
C 26.628516 32.551744 26.3651 31.915802 25.896283 31.446985 
C 25.427466 30.978167 24.791524 30.714751 24.128516 30.714751 
C 23.465508 30.714751 22.829567 30.978167 22.360749 31.446985 
C 21.891932 31.915802 21.628516 32.551744 21.628516 33.214751 
C 21.628516 33.877759 21.891932 34.513701 22.360749 34.982518 
C 22.829567 35.451336 23.465508 35.714751 24.128516 35.714751 
z
" clip-path="url(#pb7a269c8cf)" style="fill: #808080"/>
   </g>
   <g id="PathCollection_2">
    <path d="M 13.844291 52.691129 
C 14.507299 52.691129 15.143241 52.427714 15.612058 51.958896 
C 16.080875 51.490079 16.344291 50.854137 16.344291 50.191129 
C 16.344291 49.528122 16.080875 48.89218 15.612058 48.423362 
C 15.143241 47.954545 14.507299 47.691129 13.844291 47.691129 
C 13.181283 47.691129 12.545341 47.954545 12.076524 48.423362 
C 11.607707 48.89218 11.344291 49.528122 11.344291 50.191129 
C 11.344291 50.854137 11.607707 51.490079 12.076524 51.958896 
C 12.545341 52.427714 13.181283 52.691129 13.844291 52.691129 
z
" clip-path="url(#pb7a269c8cf)" style="fill: #808080"/>
   </g>
   <g id="PathCollection_3">
    <path d="M 17.882163 69.667507 
C 18.54517 69.667507 19.181112 69.404092 19.649929 68.935274 
C 20.118747 68.466457 20.382163 67.830515 20.382163 67.167507 
C 20.382163 66.5045 20.118747 65.868558 19.649929 65.39974 
C 19.181112 64.930923 18.54517 64.667507 17.882163 64.667507 
C 17.219155 64.667507 16.583213 64.930923 16.114396 65.39974 
C 15.645578 65.868558 15.382163 66.5045 15.382163 67.167507 
C 15.382163 67.830515 15.645578 68.466457 16.114396 68.935274 
C 16.583213 69.404092 17.219155 69.667507 17.882163 69.667507 
z
" clip-path="url(#pb7a269c8cf)" style="fill: #808080"/>
   </g>
   <g id="PathCollection_4">
    <path d="M 40.113293 86.643885 
C 40.776301 86.643885 41.412243 86.38047 41.88106 85.911652 
C 42.349877 85.442835 42.613293 84.806893 42.613293 84.143885 
C 42.613293 83.480878 42.349877 82.844936 41.88106 82.376118 
C 41.412243 81.907301 40.776301 81.643885 40.113293 81.643885 
C 39.450286 81.643885 38.814344 81.907301 38.345526 82.376118 
C 37.876709 82.844936 37.613293 83.480878 37.613293 84.143885 
C 37.613293 84.806893 37.876709 85.442835 38.345526 85.911652 
C 38.814344 86.38047 39.450286 86.643885 40.113293 86.643885 
z
" clip-path="url(#pb7a269c8cf)" style="fill: #808080"/>
   </g>
   <g id="PathCollection_5">
    <path d="M 21.259254 103.620263 
C 21.922262 103.620263 22.558204 103.356848 23.027021 102.88803 
C 23.495838 102.419213 23.759254 101.783271 23.759254 101.120263 
C 23.759254 100.457256 23.495838 99.821314 23.027021 99.352496 
C 22.558204 98.883679 21.922262 98.620263 21.259254 98.620263 
C 20.596246 98.620263 19.960304 98.883679 19.491487 99.352496 
C 19.02267 99.821314 18.759254 100.457256 18.759254 101.120263 
C 18.759254 101.783271 19.02267 102.419213 19.491487 102.88803 
C 19.960304 103.356848 20.596246 103.620263 21.259254 103.620263 
z
" clip-path="url(#pb7a269c8cf)" style="fill: #808080"/>
   </g>
   <g id="PathCollection_6">
    <path d="M 16.33841 120.596641 
C 17.001417 120.596641 17.637359 120.333225 18.106176 119.864408 
C 18.574994 119.395591 18.83841 118.759649 18.83841 118.096641 
C 18.83841 117.433633 18.574994 116.797692 18.106176 116.328874 
C 17.637359 115.860057 17.001417 115.596641 16.33841 115.596641 
C 15.675402 115.596641 15.03946 115.860057 14.570643 116.328874 
C 14.101825 116.797692 13.83841 117.433633 13.83841 118.096641 
C 13.83841 118.759649 14.101825 119.395591 14.570643 119.864408 
C 15.03946 120.333225 15.675402 120.596641 16.33841 120.596641 
z
" clip-path="url(#pb7a269c8cf)" style="fill: #808080"/>
   </g>
   <g id="PathCollection_7">
    <path d="M 12.694176 137.573019 
C 13.357183 137.573019 13.993125 137.309603 14.461942 136.840786 
C 14.93076 136.371969 15.194176 135.736027 15.194176 135.073019 
C 15.194176 134.410011 14.93076 133.77407 14.461942 133.305252 
C 13.993125 132.836435 13.357183 132.573019 12.694176 132.573019 
C 12.031168 132.573019 11.395226 132.836435 10.926409 133.305252 
C 10.457591 133.77407 10.194176 134.410011 10.194176 135.073019 
C 10.194176 135.736027 10.457591 136.371969 10.926409 136.840786 
C 11.395226 137.309603 12.031168 137.573019 12.694176 137.573019 
z
" clip-path="url(#pb7a269c8cf)" style="fill: #808080"/>
   </g>
   <g id="PathCollection_8">
    <path d="M 28.089813 154.549397 
C 28.752821 154.549397 29.388763 154.285981 29.85758 153.817164 
C 30.326397 153.348347 30.589813 152.712405 30.589813 152.049397 
C 30.589813 151.386389 30.326397 150.750447 29.85758 150.28163 
C 29.388763 149.812813 28.752821 149.549397 28.089813 149.549397 
C 27.426805 149.549397 26.790863 149.812813 26.322046 150.28163 
C 25.853229 150.750447 25.589813 151.386389 25.589813 152.049397 
C 25.589813 152.712405 25.853229 153.348347 26.322046 153.817164 
C 26.790863 154.285981 27.426805 154.549397 28.089813 154.549397 
z
" clip-path="url(#pb7a269c8cf)" style="fill: #808080"/>
   </g>
   <g id="PathCollection_9">
    <path d="M 38.11414 171.525775 
C 38.777148 171.525775 39.41309 171.262359 39.881907 170.793542 
C 40.350724 170.324725 40.61414 169.688783 40.61414 169.025775 
C 40.61414 168.362767 40.350724 167.726825 39.881907 167.258008 
C 39.41309 166.789191 38.777148 166.525775 38.11414 166.525775 
C 37.451132 166.525775 36.81519 166.789191 36.346373 167.258008 
C 35.877556 167.726825 35.61414 168.362767 35.61414 169.025775 
C 35.61414 169.688783 35.877556 170.324725 36.346373 170.793542 
C 36.81519 171.262359 37.451132 171.525775 38.11414 171.525775 
z
" clip-path="url(#pb7a269c8cf)" style="fill: #808080"/>
   </g>
   <g id="PathCollection_10">
    <path d="M 29.46393 188.502153 
C 30.126938 188.502153 30.76288 188.238737 31.231697 187.76992 
C 31.700514 187.301103 31.96393 186.665161 31.96393 186.002153 
C 31.96393 185.339145 31.700514 184.703203 31.231697 184.234386 
C 30.76288 183.765569 30.126938 183.502153 29.46393 183.502153 
C 28.800922 183.502153 28.16498 183.765569 27.696163 184.234386 
C 27.227346 184.703203 26.96393 185.339145 26.96393 186.002153 
C 26.96393 186.665161 27.227346 187.301103 27.696163 187.76992 
C 28.16498 188.238737 28.800922 188.502153 29.46393 188.502153 
z
" clip-path="url(#pb7a269c8cf)" style="fill: #808080"/>
   </g>
   <g id="PathCollection_11">
    <path d="M 36.09556 205.478531 
C 36.758567 205.478531 37.394509 205.215115 37.863327 204.746298 
C 38.332144 204.277481 38.59556 203.641539 38.59556 202.978531 
C 38.59556 202.315523 38.332144 201.679581 37.863327 201.210764 
C 37.394509 200.741947 36.758567 200.478531 36.09556 200.478531 
C 35.432552 200.478531 34.79661 200.741947 34.327793 201.210764 
C 33.858975 201.679581 33.59556 202.315523 33.59556 202.978531 
C 33.59556 203.641539 33.858975 204.277481 34.327793 204.746298 
C 34.79661 205.215115 35.432552 205.478531 36.09556 205.478531 
z
" clip-path="url(#pb7a269c8cf)" style="fill: #808080"/>
   </g>
   <g id="PathCollection_12">
    <path d="M 10.241096 222.454909 
C 10.904104 222.454909 11.540045 222.191493 12.008863 221.722676 
C 12.47768 221.253859 12.741096 220.617917 12.741096 219.954909 
C 12.741096 219.291901 12.47768 218.655959 12.008863 218.187142 
C 11.540045 217.718325 10.904104 217.454909 10.241096 217.454909 
C 9.578088 217.454909 8.942146 217.718325 8.473329 218.187142 
C 8.004512 218.655959 7.741096 219.291901 7.741096 219.954909 
C 7.741096 220.617917 8.004512 221.253859 8.473329 221.722676 
C 8.942146 222.191493 9.578088 222.454909 10.241096 222.454909 
z
" clip-path="url(#pb7a269c8cf)" style="fill: #808080"/>
   </g>
   <g id="PathCollection_13">
    <path d="M 58.55346 239.431287 
C 59.216468 239.431287 59.85241 239.167871 60.321227 238.699054 
C 60.790044 238.230237 61.05346 237.594295 61.05346 236.931287 
C 61.05346 236.268279 60.790044 235.632337 60.321227 235.16352 
C 59.85241 234.694703 59.216468 234.431287 58.55346 234.431287 
C 57.890452 234.431287 57.25451 234.694703 56.785693 235.16352 
C 56.316876 235.632337 56.05346 236.268279 56.05346 236.931287 
C 56.05346 237.594295 56.316876 238.230237 56.785693 238.699054 
C 57.25451 239.167871 57.890452 239.431287 58.55346 239.431287 
z
" clip-path="url(#pb7a269c8cf)" style="fill: #808080"/>
   </g>
   <g id="PathCollection_14">
    <path d="M 22.28665 256.407665 
C 22.949658 256.407665 23.5856 256.144249 24.054417 255.675432 
C 24.523235 255.206615 24.78665 254.570673 24.78665 253.907665 
C 24.78665 253.244657 24.523235 252.608715 24.054417 252.139898 
C 23.5856 251.671081 22.949658 251.407665 22.28665 251.407665 
C 21.623643 251.407665 20.987701 251.671081 20.518883 252.139898 
C 20.050066 252.608715 19.78665 253.244657 19.78665 253.907665 
C 19.78665 254.570673 20.050066 255.206615 20.518883 255.675432 
C 20.987701 256.144249 21.623643 256.407665 22.28665 256.407665 
z
" clip-path="url(#pb7a269c8cf)" style="fill: #808080"/>
   </g>
   <g id="PathCollection_15">
    <path d="M 35.42941 273.384043 
C 36.092418 273.384043 36.72836 273.120627 37.197177 272.65181 
C 37.665995 272.182992 37.92941 271.547051 37.92941 270.884043 
C 37.92941 270.221035 37.665995 269.585093 37.197177 269.116276 
C 36.72836 268.647459 36.092418 268.384043 35.42941 268.384043 
C 34.766403 268.384043 34.130461 268.647459 33.661643 269.116276 
C 33.192826 269.585093 32.92941 270.221035 32.92941 270.884043 
C 32.92941 271.547051 33.192826 272.182992 33.661643 272.65181 
C 34.130461 273.120627 34.766403 273.384043 35.42941 273.384043 
z
" clip-path="url(#pb7a269c8cf)" style="fill: #808080"/>
   </g>
   <g id="PathCollection_16">
    <path d="M 12.294959 290.360421 
C 12.957967 290.360421 13.593909 290.097005 14.062726 289.628188 
C 14.531544 289.15937 14.794959 288.523429 14.794959 287.860421 
C 14.794959 287.197413 14.531544 286.561471 14.062726 286.092654 
C 13.593909 285.623837 12.957967 285.360421 12.294959 285.360421 
C 11.631952 285.360421 10.99601 285.623837 10.527192 286.092654 
C 10.058375 286.561471 9.794959 287.197413 9.794959 287.860421 
C 9.794959 288.523429 10.058375 289.15937 10.527192 289.628188 
C 10.99601 290.097005 11.631952 290.360421 12.294959 290.360421 
z
" clip-path="url(#pb7a269c8cf)" style="fill: #808080"/>
   </g>
   <g id="PathCollection_17">
    <path d="M 44.284251 307.336799 
C 44.947258 307.336799 45.5832 307.073383 46.052018 306.604566 
C 46.520835 306.135748 46.784251 305.499806 46.784251 304.836799 
C 46.784251 304.173791 46.520835 303.537849 46.052018 303.069032 
C 45.5832 302.600214 44.947258 302.336799 44.284251 302.336799 
C 43.621243 302.336799 42.985301 302.600214 42.516484 303.069032 
C 42.047666 303.537849 41.784251 304.173791 41.784251 304.836799 
C 41.784251 305.499806 42.047666 306.135748 42.516484 306.604566 
C 42.985301 307.073383 43.621243 307.336799 44.284251 307.336799 
z
" clip-path="url(#pb7a269c8cf)" style="fill: #808080"/>
   </g>
   <g id="PathCollection_18">
    <path d="M 39.194174 324.313177 
C 39.857182 324.313177 40.493124 324.049761 40.961941 323.580944 
C 41.430758 323.112126 41.694174 322.476184 41.694174 321.813177 
C 41.694174 321.150169 41.430758 320.514227 40.961941 320.04541 
C 40.493124 319.576592 39.857182 319.313177 39.194174 319.313177 
C 38.531166 319.313177 37.895224 319.576592 37.426407 320.04541 
C 36.95759 320.514227 36.694174 321.150169 36.694174 321.813177 
C 36.694174 322.476184 36.95759 323.112126 37.426407 323.580944 
C 37.895224 324.049761 38.531166 324.313177 39.194174 324.313177 
z
" clip-path="url(#pb7a269c8cf)" style="fill: #808080"/>
   </g>
   <g id="PathCollection_19">
    <path d="M 71.968219 341.289555 
C 72.631227 341.289555 73.267169 341.026139 73.735986 340.557322 
C 74.204804 340.088504 74.468219 339.452562 74.468219 338.789555 
C 74.468219 338.126547 74.204804 337.490605 73.735986 337.021788 
C 73.267169 336.55297 72.631227 336.289555 71.968219 336.289555 
C 71.305212 336.289555 70.66927 336.55297 70.200452 337.021788 
C 69.731635 337.490605 69.468219 338.126547 69.468219 338.789555 
C 69.468219 339.452562 69.731635 340.088504 70.200452 340.557322 
C 70.66927 341.026139 71.305212 341.289555 71.968219 341.289555 
z
" clip-path="url(#pb7a269c8cf)" style="fill: #808080"/>
   </g>
   <g id="PathCollection_20">
    <path d="M 10.107642 358.265933 
C 10.77065 358.265933 11.406592 358.002517 11.875409 357.5337 
C 12.344226 357.064882 12.607642 356.42894 12.607642 355.765933 
C 12.607642 355.102925 12.344226 354.466983 11.875409 353.998166 
C 11.406592 353.529348 10.77065 353.265933 10.107642 353.265933 
C 9.444634 353.265933 8.808692 353.529348 8.339875 353.998166 
C 7.871058 354.466983 7.607642 355.102925 7.607642 355.765933 
C 7.607642 356.42894 7.871058 357.064882 8.339875 357.5337 
C 8.808692 358.002517 9.444634 358.265933 10.107642 358.265933 
z
" clip-path="url(#pb7a269c8cf)" style="fill: #808080"/>
   </g>
   <g id="PathCollection_21">
    <path d="M 32.514433 375.242311 
C 33.177441 375.242311 33.813383 374.978895 34.2822 374.510077 
C 34.751018 374.04126 35.014433 373.405318 35.014433 372.742311 
C 35.014433 372.079303 34.751018 371.443361 34.2822 370.974544 
C 33.813383 370.505726 33.177441 370.242311 32.514433 370.242311 
C 31.851426 370.242311 31.215484 370.505726 30.746666 370.974544 
C 30.277849 371.443361 30.014433 372.079303 30.014433 372.742311 
C 30.014433 373.405318 30.277849 374.04126 30.746666 374.510077 
C 31.215484 374.978895 31.851426 375.242311 32.514433 375.242311 
z
" clip-path="url(#pb7a269c8cf)" style="fill: #808080"/>
   </g>
   <g id="PathCollection_22">
    <path d="M 13.920963 392.218688 
C 14.58397 392.218688 15.219912 391.955273 15.68873 391.486455 
C 16.157547 391.017638 16.420963 390.381696 16.420963 389.718688 
C 16.420963 389.055681 16.157547 388.419739 15.68873 387.950922 
C 15.219912 387.482104 14.58397 387.218688 13.920963 387.218688 
C 13.257955 387.218688 12.622013 387.482104 12.153196 387.950922 
C 11.684378 388.419739 11.420963 389.055681 11.420963 389.718688 
C 11.420963 390.381696 11.684378 391.017638 12.153196 391.486455 
C 12.622013 391.955273 13.257955 392.218688 13.920963 392.218688 
z
" clip-path="url(#pb7a269c8cf)" style="fill: #808080"/>
   </g>
   <g id="PathCollection_23">
    <path d="M 17.057717 409.195066 
C 17.720725 409.195066 18.356667 408.931651 18.825484 408.462833 
C 19.294301 407.994016 19.557717 407.358074 19.557717 406.695066 
C 19.557717 406.032059 19.294301 405.396117 18.825484 404.927299 
C 18.356667 404.458482 17.720725 404.195066 17.057717 404.195066 
C 16.39471 404.195066 15.758768 404.458482 15.28995 404.927299 
C 14.821133 405.396117 14.557717 406.032059 14.557717 406.695066 
C 14.557717 407.358074 14.821133 407.994016 15.28995 408.462833 
C 15.758768 408.931651 16.39471 409.195066 17.057717 409.195066 
z
" clip-path="url(#pb7a269c8cf)" style="fill: #808080"/>
   </g>
   <g id="PathCollection_24">
    <path d="M 28.567677 426.171444 
C 29.230685 426.171444 29.866627 425.908029 30.335444 425.439211 
C 30.804261 424.970394 31.067677 424.334452 31.067677 423.671444 
C 31.067677 423.008437 30.804261 422.372495 30.335444 421.903677 
C 29.866627 421.43486 29.230685 421.171444 28.567677 421.171444 
C 27.904669 421.171444 27.268727 421.43486 26.79991 421.903677 
C 26.331093 422.372495 26.067677 423.008437 26.067677 423.671444 
C 26.067677 424.334452 26.331093 424.970394 26.79991 425.439211 
C 27.268727 425.908029 27.904669 426.171444 28.567677 426.171444 
z
" clip-path="url(#pb7a269c8cf)" style="fill: #808080"/>
   </g>
   <g id="PathCollection_25">
    <path d="M 16.329239 443.147822 
C 16.992246 443.147822 17.628188 442.884407 18.097006 442.415589 
C 18.565823 441.946772 18.829239 441.31083 18.829239 440.647822 
C 18.829239 439.984815 18.565823 439.348873 18.097006 438.880055 
C 17.628188 438.411238 16.992246 438.147822 16.329239 438.147822 
C 15.666231 438.147822 15.030289 438.411238 14.561472 438.880055 
C 14.092654 439.348873 13.829239 439.984815 13.829239 440.647822 
C 13.829239 441.31083 14.092654 441.946772 14.561472 442.415589 
C 15.030289 442.884407 15.666231 443.147822 16.329239 443.147822 
z
" clip-path="url(#pb7a269c8cf)" style="fill: #808080"/>
   </g>
   <g id="PathCollection_26">
    <path d="M 10.482462 460.1242 
C 11.145469 460.1242 11.781411 459.860785 12.250229 459.391967 
C 12.719046 458.92315 12.982462 458.287208 12.982462 457.6242 
C 12.982462 456.961193 12.719046 456.325251 12.250229 455.856433 
C 11.781411 455.387616 11.145469 455.1242 10.482462 455.1242 
C 9.819454 455.1242 9.183512 455.387616 8.714695 455.856433 
C 8.245877 456.325251 7.982462 456.961193 7.982462 457.6242 
C 7.982462 458.287208 8.245877 458.92315 8.714695 459.391967 
C 9.183512 459.860785 9.819454 460.1242 10.482462 460.1242 
z
" clip-path="url(#pb7a269c8cf)" style="fill: #808080"/>
   </g>
   <g id="PathCollection_27">
    <path d="M 28.930003 477.100578 
C 29.593011 477.100578 30.228953 476.837162 30.69777 476.368345 
C 31.166587 475.899528 31.430003 475.263586 31.430003 474.600578 
C 31.430003 473.93757 31.166587 473.301629 30.69777 472.832811 
C 30.228953 472.363994 29.593011 472.100578 28.930003 472.100578 
C 28.266995 472.100578 27.631053 472.363994 27.162236 472.832811 
C 26.693419 473.301629 26.430003 473.93757 26.430003 474.600578 
C 26.430003 475.263586 26.693419 475.899528 27.162236 476.368345 
C 27.631053 476.837162 28.266995 477.100578 28.930003 477.100578 
z
" clip-path="url(#pb7a269c8cf)" style="fill: #808080"/>
   </g>
  </g>
 </g>
 <defs>
  <clipPath id="pb7a269c8cf">
   <rect x="0.72" y="24.726562" width="87.874016" height="458.362205"/>
  </clipPath>
 </defs>
</svg>
