<?xml version="1.0" encoding="utf-8" standalone="no"?>
<!DOCTYPE svg PUBLIC "-//W3C//DTD SVG 1.1//EN"
  "http://www.w3.org/Graphics/SVG/1.1/DTD/svg11.dtd">
<svg xmlns:xlink="http://www.w3.org/1999/xlink" width="259.226875pt" height="221.682875pt" viewBox="0 0 259.226875 221.682875" xmlns="http://www.w3.org/2000/svg" version="1.1">
 <metadata>
  <rdf:RDF xmlns:dc="http://purl.org/dc/elements/1.1/" xmlns:cc="http://creativecommons.org/ns#" xmlns:rdf="http://www.w3.org/1999/02/22-rdf-syntax-ns#">
   <cc:Work>
    <dc:type rdf:resource="http://purl.org/dc/dcmitype/StillImage"/>
    <dc:date>2024-05-11T14:41:13.044316</dc:date>
    <dc:format>image/svg+xml</dc:format>
    <dc:creator>
     <cc:Agent>
      <dc:title>Matplotlib v3.5.1, https://matplotlib.org/</dc:title>
     </cc:Agent>
    </dc:creator>
   </cc:Work>
  </rdf:RDF>
 </metadata>
 <defs>
  <style type="text/css">*{stroke-linejoin: round; stroke-linecap: butt}</style>
 </defs>
 <g id="figure_1">
  <g id="patch_1">
   <path d="M -0 221.682875 
L 259.226875 221.682875 
L 259.226875 0 
L -0 0 
L -0 221.682875 
z
" style="fill: none"/>
  </g>
  <g id="axes_1">
   <g id="patch_2">
    <path d="M 102.266875 189.216 
L 258.506875 189.216 
L 258.506875 0.72 
L 102.266875 0.72 
z
" style="fill: #ffffff"/>
   </g>
   <g id="patch_3">
    <path d="M 102.266875 7.969846 
L 198.478936 7.969846 
L 198.478936 36.969231 
L 102.266875 36.969231 
z
" clip-path="url(#p476ee293cd)" style="fill: #a68986"/>
   </g>
   <g id="patch_4">
    <path d="M 102.266875 44.219077 
L 191.903216 44.219077 
L 191.903216 73.218462 
L 102.266875 73.218462 
z
" clip-path="url(#p476ee293cd)" style="fill: #e4ae8d"/>
   </g>
   <g id="patch_5">
    <path d="M 102.266875 80.468308 
L 249.369614 80.468308 
L 249.369614 109.467692 
L 102.266875 109.467692 
z
" clip-path="url(#p476ee293cd)" style="fill: #e4ae8d"/>
   </g>
   <g id="patch_6">
    <path d="M 102.266875 116.717538 
L 210.33123 116.717538 
L 210.33123 145.716923 
L 102.266875 145.716923 
z
" clip-path="url(#p476ee293cd)" style="fill: #f5d7b9"/>
   </g>
   <g id="patch_7">
    <path d="M 102.266875 152.966769 
L 225.65932 152.966769 
L 225.65932 181.966154 
L 102.266875 181.966154 
z
" clip-path="url(#p476ee293cd)" style="fill: #f5d7b9"/>
   </g>
   <g id="matplotlib.axis_1">
    <g id="xtick_1">
     <g id="line2d_1">
      <defs>
       <path id="m2158f2ca37" d="M 0 0 
L 0 2 
" style="stroke: #000000; stroke-width: 0.8"/>
      </defs>
      <g>
       <use xlink:href="#m2158f2ca37" x="102.266875" y="189.216" style="stroke: #000000; stroke-width: 0.8"/>
      </g>
     </g>
     <g id="text_1">
      <!-- 0 -->
      <g transform="translate(98.930312 203.324125)scale(0.12 -0.12)">
       <defs>
        <path id="Helvetica-30" d="M 1731 4475 
Q 2600 4475 2988 3759 
Q 3288 3206 3288 2244 
Q 3288 1331 3016 734 
Q 2622 -122 1728 -122 
Q 922 -122 528 578 
Q 200 1163 200 2147 
Q 200 2909 397 3456 
Q 766 4475 1731 4475 
z
M 1725 391 
Q 2163 391 2422 778 
Q 2681 1166 2681 2222 
Q 2681 2984 2493 3476 
Q 2306 3969 1766 3969 
Q 1269 3969 1039 3501 
Q 809 3034 809 2125 
Q 809 1441 956 1025 
Q 1181 391 1725 391 
z
" transform="scale(0.015625)"/>
       </defs>
       <use xlink:href="#Helvetica-30"/>
      </g>
     </g>
    </g>
    <g id="xtick_2">
     <g id="line2d_2">
      <g>
       <use xlink:href="#m2158f2ca37" x="143.544275" y="189.216" style="stroke: #000000; stroke-width: 0.8"/>
      </g>
     </g>
     <g id="text_2">
      <!-- 100 -->
      <g transform="translate(133.534588 203.324125)scale(0.12 -0.12)">
       <defs>
        <path id="Helvetica-31" d="M 613 3169 
L 613 3600 
Q 1222 3659 1462 3798 
Q 1703 3938 1822 4456 
L 2266 4456 
L 2266 0 
L 1666 0 
L 1666 3169 
L 613 3169 
z
" transform="scale(0.015625)"/>
       </defs>
       <use xlink:href="#Helvetica-31"/>
       <use xlink:href="#Helvetica-30" x="55.615234"/>
       <use xlink:href="#Helvetica-30" x="111.230469"/>
      </g>
     </g>
    </g>
    <g id="xtick_3">
     <g id="line2d_3">
      <g>
       <use xlink:href="#m2158f2ca37" x="184.821676" y="189.216" style="stroke: #000000; stroke-width: 0.8"/>
      </g>
     </g>
     <g id="text_3">
      <!-- 200 -->
      <g transform="translate(174.811988 203.324125)scale(0.12 -0.12)">
       <defs>
        <path id="Helvetica-32" d="M 200 0 
Q 231 578 439 1006 
Q 647 1434 1250 1784 
L 1850 2131 
Q 2253 2366 2416 2531 
Q 2672 2791 2672 3125 
Q 2672 3516 2437 3745 
Q 2203 3975 1813 3975 
Q 1234 3975 1013 3538 
Q 894 3303 881 2888 
L 309 2888 
Q 319 3472 525 3841 
Q 891 4491 1816 4491 
Q 2584 4491 2939 4075 
Q 3294 3659 3294 3150 
Q 3294 2613 2916 2231 
Q 2697 2009 2131 1694 
L 1703 1456 
Q 1397 1288 1222 1134 
Q 909 863 828 531 
L 3272 531 
L 3272 0 
L 200 0 
z
" transform="scale(0.015625)"/>
       </defs>
       <use xlink:href="#Helvetica-32"/>
       <use xlink:href="#Helvetica-30" x="55.615234"/>
       <use xlink:href="#Helvetica-30" x="111.230469"/>
      </g>
     </g>
    </g>
    <g id="xtick_4">
     <g id="line2d_4">
      <g>
       <use xlink:href="#m2158f2ca37" x="226.099076" y="189.216" style="stroke: #000000; stroke-width: 0.8"/>
      </g>
     </g>
     <g id="text_4">
      <!-- 300 -->
      <g transform="translate(216.089389 203.324125)scale(0.12 -0.12)">
       <defs>
        <path id="Helvetica-33" d="M 1663 -122 
Q 869 -122 511 314 
Q 153 750 153 1375 
L 741 1375 
Q 778 941 903 744 
Q 1122 391 1694 391 
Q 2138 391 2406 628 
Q 2675 866 2675 1241 
Q 2675 1703 2392 1887 
Q 2109 2072 1606 2072 
Q 1550 2072 1492 2070 
Q 1434 2069 1375 2066 
L 1375 2563 
Q 1463 2553 1522 2550 
Q 1581 2547 1650 2547 
Q 1966 2547 2169 2647 
Q 2525 2822 2525 3272 
Q 2525 3606 2287 3787 
Q 2050 3969 1734 3969 
Q 1172 3969 956 3594 
Q 838 3388 822 3006 
L 266 3006 
Q 266 3506 466 3856 
Q 809 4481 1675 4481 
Q 2359 4481 2734 4176 
Q 3109 3872 3109 3294 
Q 3109 2881 2888 2625 
Q 2750 2466 2531 2375 
Q 2884 2278 3082 2001 
Q 3281 1725 3281 1325 
Q 3281 684 2859 281 
Q 2438 -122 1663 -122 
z
" transform="scale(0.015625)"/>
       </defs>
       <use xlink:href="#Helvetica-33"/>
       <use xlink:href="#Helvetica-30" x="55.615234"/>
       <use xlink:href="#Helvetica-30" x="111.230469"/>
      </g>
     </g>
    </g>
    <g id="text_5">
     <!-- Distance between samples -->
     <g transform="translate(108.686875 218.461625)scale(0.12 -0.12)">
      <defs>
       <path id="Helvetica-44" d="M 2250 531 
Q 2566 531 2769 597 
Q 3131 719 3363 1066 
Q 3547 1344 3628 1778 
Q 3675 2038 3675 2259 
Q 3675 3113 3336 3584 
Q 2997 4056 2244 4056 
L 1141 4056 
L 1141 531 
L 2250 531 
z
M 516 4591 
L 2375 4591 
Q 3322 4591 3844 3919 
Q 4309 3313 4309 2366 
Q 4309 1634 4034 1044 
Q 3550 0 2369 0 
L 516 0 
L 516 4591 
z
" transform="scale(0.015625)"/>
       <path id="Helvetica-69" d="M 413 3331 
L 984 3331 
L 984 0 
L 413 0 
L 413 3331 
z
M 413 4591 
L 984 4591 
L 984 3953 
L 413 3953 
L 413 4591 
z
" transform="scale(0.015625)"/>
       <path id="Helvetica-73" d="M 747 1050 
Q 772 769 888 619 
Q 1100 347 1625 347 
Q 1938 347 2175 483 
Q 2413 619 2413 903 
Q 2413 1119 2222 1231 
Q 2100 1300 1741 1391 
L 1294 1503 
Q 866 1609 663 1741 
Q 300 1969 300 2372 
Q 300 2847 642 3140 
Q 984 3434 1563 3434 
Q 2319 3434 2653 2991 
Q 2863 2709 2856 2384 
L 2325 2384 
Q 2309 2575 2191 2731 
Q 1997 2953 1519 2953 
Q 1200 2953 1036 2831 
Q 872 2709 872 2509 
Q 872 2291 1088 2159 
Q 1213 2081 1456 2022 
L 1828 1931 
Q 2434 1784 2641 1647 
Q 2969 1431 2969 969 
Q 2969 522 2630 197 
Q 2291 -128 1597 -128 
Q 850 -128 539 211 
Q 228 550 206 1050 
L 747 1050 
z
M 1578 3428 
L 1578 3428 
z
" transform="scale(0.015625)"/>
       <path id="Helvetica-74" d="M 525 4281 
L 1094 4281 
L 1094 3347 
L 1628 3347 
L 1628 2888 
L 1094 2888 
L 1094 703 
Q 1094 528 1213 469 
Q 1278 434 1431 434 
Q 1472 434 1519 436 
Q 1566 438 1628 444 
L 1628 0 
Q 1531 -28 1426 -40 
Q 1322 -53 1200 -53 
Q 806 -53 665 148 
Q 525 350 525 672 
L 525 2888 
L 72 2888 
L 72 3347 
L 525 3347 
L 525 4281 
z
" transform="scale(0.015625)"/>
       <path id="Helvetica-61" d="M 844 891 
Q 844 647 1022 506 
Q 1200 366 1444 366 
Q 1741 366 2019 503 
Q 2488 731 2488 1250 
L 2488 1703 
Q 2384 1638 2221 1594 
Q 2059 1550 1903 1531 
L 1563 1488 
Q 1256 1447 1103 1359 
Q 844 1213 844 891 
z
M 2206 2028 
Q 2400 2053 2466 2191 
Q 2503 2266 2503 2406 
Q 2503 2694 2298 2823 
Q 2094 2953 1713 2953 
Q 1272 2953 1088 2716 
Q 984 2584 953 2325 
L 428 2325 
Q 444 2944 830 3186 
Q 1216 3428 1725 3428 
Q 2316 3428 2684 3203 
Q 3050 2978 3050 2503 
L 3050 575 
Q 3050 488 3086 434 
Q 3122 381 3238 381 
Q 3275 381 3322 386 
Q 3369 391 3422 400 
L 3422 -16 
Q 3291 -53 3222 -62 
Q 3153 -72 3034 -72 
Q 2744 -72 2613 134 
Q 2544 244 2516 444 
Q 2344 219 2022 53 
Q 1700 -113 1313 -113 
Q 847 -113 551 170 
Q 256 453 256 878 
Q 256 1344 547 1600 
Q 838 1856 1309 1916 
L 2206 2028 
z
M 1741 3428 
L 1741 3428 
z
" transform="scale(0.015625)"/>
       <path id="Helvetica-6e" d="M 413 3347 
L 947 3347 
L 947 2872 
Q 1184 3166 1450 3294 
Q 1716 3422 2041 3422 
Q 2753 3422 3003 2925 
Q 3141 2653 3141 2147 
L 3141 0 
L 2569 0 
L 2569 2109 
Q 2569 2416 2478 2603 
Q 2328 2916 1934 2916 
Q 1734 2916 1606 2875 
Q 1375 2806 1200 2600 
Q 1059 2434 1017 2257 
Q 975 2081 975 1753 
L 975 0 
L 413 0 
L 413 3347 
z
M 1734 3428 
L 1734 3428 
z
" transform="scale(0.015625)"/>
       <path id="Helvetica-63" d="M 1703 3444 
Q 2269 3444 2623 3169 
Q 2978 2894 3050 2222 
L 2503 2222 
Q 2453 2531 2275 2736 
Q 2097 2941 1703 2941 
Q 1166 2941 934 2416 
Q 784 2075 784 1575 
Q 784 1072 996 728 
Q 1209 384 1666 384 
Q 2016 384 2220 598 
Q 2425 813 2503 1184 
L 3050 1184 
Q 2956 519 2581 211 
Q 2206 -97 1622 -97 
Q 966 -97 575 383 
Q 184 863 184 1581 
Q 184 2463 612 2953 
Q 1041 3444 1703 3444 
z
M 1616 3428 
L 1616 3428 
z
" transform="scale(0.015625)"/>
       <path id="Helvetica-65" d="M 1806 3422 
Q 2163 3422 2497 3255 
Q 2831 3088 3006 2822 
Q 3175 2569 3231 2231 
Q 3281 2000 3281 1494 
L 828 1494 
Q 844 984 1069 676 
Q 1294 369 1766 369 
Q 2206 369 2469 659 
Q 2619 828 2681 1050 
L 3234 1050 
Q 3213 866 3089 639 
Q 2966 413 2813 269 
Q 2556 19 2178 -69 
Q 1975 -119 1719 -119 
Q 1094 -119 659 336 
Q 225 791 225 1609 
Q 225 2416 662 2919 
Q 1100 3422 1806 3422 
z
M 2703 1941 
Q 2669 2306 2544 2525 
Q 2313 2931 1772 2931 
Q 1384 2931 1121 2651 
Q 859 2372 844 1941 
L 2703 1941 
z
M 1753 3428 
L 1753 3428 
z
" transform="scale(0.015625)"/>
       <path id="Helvetica-20" transform="scale(0.015625)"/>
       <path id="Helvetica-62" d="M 369 4606 
L 916 4606 
L 916 2941 
Q 1100 3181 1356 3307 
Q 1613 3434 1913 3434 
Q 2538 3434 2927 3004 
Q 3316 2575 3316 1738 
Q 3316 944 2931 419 
Q 2547 -106 1866 -106 
Q 1484 -106 1222 78 
Q 1066 188 888 428 
L 888 0 
L 369 0 
L 369 4606 
z
M 1831 391 
Q 2288 391 2514 753 
Q 2741 1116 2741 1709 
Q 2741 2238 2514 2584 
Q 2288 2931 1847 2931 
Q 1463 2931 1173 2647 
Q 884 2363 884 1709 
Q 884 1238 1003 944 
Q 1225 391 1831 391 
z
" transform="scale(0.015625)"/>
       <path id="Helvetica-77" d="M 672 3347 
L 1316 709 
L 1969 3347 
L 2600 3347 
L 3256 725 
L 3941 3347 
L 4503 3347 
L 3531 0 
L 2947 0 
L 2266 2591 
L 1606 0 
L 1022 0 
L 56 3347 
L 672 3347 
z
" transform="scale(0.015625)"/>
       <path id="Helvetica-6d" d="M 413 3347 
L 969 3347 
L 969 2872 
Q 1169 3119 1331 3231 
Q 1609 3422 1963 3422 
Q 2363 3422 2606 3225 
Q 2744 3113 2856 2894 
Q 3044 3163 3297 3292 
Q 3550 3422 3866 3422 
Q 4541 3422 4784 2934 
Q 4916 2672 4916 2228 
L 4916 0 
L 4331 0 
L 4331 2325 
Q 4331 2659 4164 2784 
Q 3997 2909 3756 2909 
Q 3425 2909 3186 2687 
Q 2947 2466 2947 1947 
L 2947 0 
L 2375 0 
L 2375 2184 
Q 2375 2525 2294 2681 
Q 2166 2916 1816 2916 
Q 1497 2916 1236 2669 
Q 975 2422 975 1775 
L 975 0 
L 413 0 
L 413 3347 
z
" transform="scale(0.015625)"/>
       <path id="Helvetica-70" d="M 1825 378 
Q 2219 378 2480 708 
Q 2741 1038 2741 1694 
Q 2741 2094 2625 2381 
Q 2406 2934 1825 2934 
Q 1241 2934 1025 2350 
Q 909 2038 909 1556 
Q 909 1169 1025 897 
Q 1244 378 1825 378 
z
M 369 3331 
L 916 3331 
L 916 2888 
Q 1084 3116 1284 3241 
Q 1569 3428 1953 3428 
Q 2522 3428 2919 2992 
Q 3316 2556 3316 1747 
Q 3316 653 2744 184 
Q 2381 -113 1900 -113 
Q 1522 -113 1266 53 
Q 1116 147 931 375 
L 931 -1334 
L 369 -1334 
L 369 3331 
z
" transform="scale(0.015625)"/>
       <path id="Helvetica-6c" d="M 428 4591 
L 991 4591 
L 991 0 
L 428 0 
L 428 4591 
z
" transform="scale(0.015625)"/>
      </defs>
      <use xlink:href="#Helvetica-44"/>
      <use xlink:href="#Helvetica-69" x="72.216797"/>
      <use xlink:href="#Helvetica-73" x="94.433594"/>
      <use xlink:href="#Helvetica-74" x="144.433594"/>
      <use xlink:href="#Helvetica-61" x="172.216797"/>
      <use xlink:href="#Helvetica-6e" x="227.832031"/>
      <use xlink:href="#Helvetica-63" x="283.447266"/>
      <use xlink:href="#Helvetica-65" x="333.447266"/>
      <use xlink:href="#Helvetica-20" x="389.0625"/>
      <use xlink:href="#Helvetica-62" x="416.845703"/>
      <use xlink:href="#Helvetica-65" x="472.460938"/>
      <use xlink:href="#Helvetica-74" x="528.076172"/>
      <use xlink:href="#Helvetica-77" x="555.859375"/>
      <use xlink:href="#Helvetica-65" x="628.076172"/>
      <use xlink:href="#Helvetica-65" x="683.691406"/>
      <use xlink:href="#Helvetica-6e" x="739.306641"/>
      <use xlink:href="#Helvetica-20" x="794.921875"/>
      <use xlink:href="#Helvetica-73" x="822.705078"/>
      <use xlink:href="#Helvetica-61" x="872.705078"/>
      <use xlink:href="#Helvetica-6d" x="928.320312"/>
      <use xlink:href="#Helvetica-70" x="1011.621094"/>
      <use xlink:href="#Helvetica-6c" x="1067.236328"/>
      <use xlink:href="#Helvetica-65" x="1089.453125"/>
      <use xlink:href="#Helvetica-73" x="1145.068359"/>
     </g>
    </g>
   </g>
   <g id="matplotlib.axis_2">
    <g id="ytick_1">
     <g id="line2d_5">
      <defs>
       <path id="m764a95f5b0" d="M 0 0 
L -2 0 
" style="stroke: #000000; stroke-width: 0.8"/>
      </defs>
      <g>
       <use xlink:href="#m764a95f5b0" x="102.266875" y="22.469538" style="stroke: #000000; stroke-width: 0.8"/>
      </g>
     </g>
     <g id="text_6">
      <!-- Paired- -->
      <g transform="translate(58.085625 21.218913)scale(0.12 -0.12)">
       <defs>
        <path id="Helvetica-50" d="M 547 4591 
L 2613 4591 
Q 3225 4591 3600 4245 
Q 3975 3900 3975 3275 
Q 3975 2738 3640 2339 
Q 3306 1941 2613 1941 
L 1169 1941 
L 1169 0 
L 547 0 
L 547 4591 
z
M 3347 3272 
Q 3347 3778 2972 3959 
Q 2766 4056 2406 4056 
L 1169 4056 
L 1169 2466 
L 2406 2466 
Q 2825 2466 3086 2644 
Q 3347 2822 3347 3272 
z
" transform="scale(0.015625)"/>
        <path id="Helvetica-72" d="M 428 3347 
L 963 3347 
L 963 2769 
Q 1028 2938 1284 3180 
Q 1541 3422 1875 3422 
Q 1891 3422 1928 3419 
Q 1966 3416 2056 3406 
L 2056 2813 
Q 2006 2822 1964 2825 
Q 1922 2828 1872 2828 
Q 1447 2828 1219 2554 
Q 991 2281 991 1925 
L 991 0 
L 428 0 
L 428 3347 
z
" transform="scale(0.015625)"/>
        <path id="Helvetica-64" d="M 769 1634 
Q 769 1097 997 734 
Q 1225 372 1728 372 
Q 2119 372 2370 708 
Q 2622 1044 2622 1672 
Q 2622 2306 2362 2611 
Q 2103 2916 1722 2916 
Q 1297 2916 1033 2591 
Q 769 2266 769 1634 
z
M 1616 3406 
Q 2000 3406 2259 3244 
Q 2409 3150 2600 2916 
L 2600 4606 
L 3141 4606 
L 3141 0 
L 2634 0 
L 2634 466 
Q 2438 156 2169 18 
Q 1900 -119 1553 -119 
Q 994 -119 584 351 
Q 175 822 175 1603 
Q 175 2334 548 2870 
Q 922 3406 1616 3406 
z
" transform="scale(0.015625)"/>
        <path id="Helvetica-2d" d="M 266 2072 
L 1834 2072 
L 1834 1494 
L 266 1494 
L 266 2072 
z
" transform="scale(0.015625)"/>
       </defs>
       <use xlink:href="#Helvetica-50"/>
       <use xlink:href="#Helvetica-61" x="66.699219"/>
       <use xlink:href="#Helvetica-69" x="122.314453"/>
       <use xlink:href="#Helvetica-72" x="144.53125"/>
       <use xlink:href="#Helvetica-65" x="177.832031"/>
       <use xlink:href="#Helvetica-64" x="233.447266"/>
       <use xlink:href="#Helvetica-2d" x="289.0625"/>
      </g>
      <!-- cancer-normal -->
      <g transform="translate(20.079375 34.049913)scale(0.12 -0.12)">
       <defs>
        <path id="Helvetica-6f" d="M 1741 363 
Q 2300 363 2508 786 
Q 2716 1209 2716 1728 
Q 2716 2197 2566 2491 
Q 2328 2953 1747 2953 
Q 1231 2953 997 2559 
Q 763 2166 763 1609 
Q 763 1075 997 719 
Q 1231 363 1741 363 
z
M 1763 3444 
Q 2409 3444 2856 3012 
Q 3303 2581 3303 1744 
Q 3303 934 2909 406 
Q 2516 -122 1688 -122 
Q 997 -122 590 345 
Q 184 813 184 1600 
Q 184 2444 612 2944 
Q 1041 3444 1763 3444 
z
M 1744 3428 
L 1744 3428 
z
" transform="scale(0.015625)"/>
       </defs>
       <use xlink:href="#Helvetica-63"/>
       <use xlink:href="#Helvetica-61" x="50"/>
       <use xlink:href="#Helvetica-6e" x="105.615234"/>
       <use xlink:href="#Helvetica-63" x="161.230469"/>
       <use xlink:href="#Helvetica-65" x="211.230469"/>
       <use xlink:href="#Helvetica-72" x="266.845703"/>
       <use xlink:href="#Helvetica-2d" x="300.146484"/>
       <use xlink:href="#Helvetica-6e" x="333.447266"/>
       <use xlink:href="#Helvetica-6f" x="389.0625"/>
       <use xlink:href="#Helvetica-72" x="444.677734"/>
       <use xlink:href="#Helvetica-6d" x="477.978516"/>
       <use xlink:href="#Helvetica-61" x="561.279297"/>
       <use xlink:href="#Helvetica-6c" x="616.894531"/>
      </g>
     </g>
    </g>
    <g id="ytick_2">
     <g id="line2d_6">
      <g>
       <use xlink:href="#m764a95f5b0" x="102.266875" y="58.718769" style="stroke: #000000; stroke-width: 0.8"/>
      </g>
     </g>
     <g id="text_7">
      <!-- Paired, Cancer -->
      <g transform="translate(16.7325 57.468144)scale(0.12 -0.12)">
       <defs>
        <path id="Helvetica-2c" d="M 531 -653 
Q 747 -616 834 -350 
Q 881 -209 881 -78 
Q 881 -56 879 -39 
Q 878 -22 872 0 
L 531 0 
L 531 681 
L 1200 681 
L 1200 50 
Q 1200 -322 1050 -603 
Q 900 -884 531 -950 
L 531 -653 
z
" transform="scale(0.015625)"/>
        <path id="Helvetica-43" d="M 2422 4716 
Q 3294 4716 3775 4256 
Q 4256 3797 4309 3213 
L 3703 3213 
Q 3600 3656 3292 3915 
Q 2984 4175 2428 4175 
Q 1750 4175 1333 3698 
Q 916 3222 916 2238 
Q 916 1431 1292 929 
Q 1669 428 2416 428 
Q 3103 428 3463 956 
Q 3653 1234 3747 1688 
L 4353 1688 
Q 4272 963 3816 472 
Q 3269 -119 2341 -119 
Q 1541 -119 997 366 
Q 281 1006 281 2344 
Q 281 3359 819 4009 
Q 1400 4716 2422 4716 
z
M 2297 4716 
L 2297 4716 
z
" transform="scale(0.015625)"/>
       </defs>
       <use xlink:href="#Helvetica-50"/>
       <use xlink:href="#Helvetica-61" x="66.699219"/>
       <use xlink:href="#Helvetica-69" x="122.314453"/>
       <use xlink:href="#Helvetica-72" x="144.53125"/>
       <use xlink:href="#Helvetica-65" x="177.832031"/>
       <use xlink:href="#Helvetica-64" x="233.447266"/>
       <use xlink:href="#Helvetica-2c" x="289.0625"/>
       <use xlink:href="#Helvetica-20" x="316.845703"/>
       <use xlink:href="#Helvetica-43" x="344.628906"/>
       <use xlink:href="#Helvetica-61" x="416.845703"/>
       <use xlink:href="#Helvetica-6e" x="472.460938"/>
       <use xlink:href="#Helvetica-63" x="528.076172"/>
       <use xlink:href="#Helvetica-65" x="578.076172"/>
       <use xlink:href="#Helvetica-72" x="633.691406"/>
      </g>
      <!-- Paired, Normal -->
      <g transform="translate(16.74375 70.299144)scale(0.12 -0.12)">
       <defs>
        <path id="Helvetica-4e" d="M 488 4591 
L 1222 4591 
L 3541 872 
L 3541 4591 
L 4131 4591 
L 4131 0 
L 3434 0 
L 1081 3716 
L 1081 0 
L 488 0 
L 488 4591 
z
M 2269 4591 
L 2269 4591 
z
" transform="scale(0.015625)"/>
       </defs>
       <use xlink:href="#Helvetica-50"/>
       <use xlink:href="#Helvetica-61" x="66.699219"/>
       <use xlink:href="#Helvetica-69" x="122.314453"/>
       <use xlink:href="#Helvetica-72" x="144.53125"/>
       <use xlink:href="#Helvetica-65" x="177.832031"/>
       <use xlink:href="#Helvetica-64" x="233.447266"/>
       <use xlink:href="#Helvetica-2c" x="289.0625"/>
       <use xlink:href="#Helvetica-20" x="316.845703"/>
       <use xlink:href="#Helvetica-4e" x="344.628906"/>
       <use xlink:href="#Helvetica-6f" x="416.845703"/>
       <use xlink:href="#Helvetica-72" x="472.460938"/>
       <use xlink:href="#Helvetica-6d" x="505.761719"/>
       <use xlink:href="#Helvetica-61" x="589.0625"/>
       <use xlink:href="#Helvetica-6c" x="644.677734"/>
      </g>
     </g>
    </g>
    <g id="ytick_3">
     <g id="line2d_7">
      <g>
       <use xlink:href="#m764a95f5b0" x="102.266875" y="94.968" style="stroke: #000000; stroke-width: 0.8"/>
      </g>
     </g>
     <g id="text_8">
      <!-- Individual, Cancer -->
      <g transform="translate(0.72 93.717375)scale(0.12 -0.12)">
       <defs>
        <path id="Helvetica-49" d="M 628 4591 
L 1256 4591 
L 1256 0 
L 628 0 
L 628 4591 
z
" transform="scale(0.015625)"/>
        <path id="Helvetica-76" d="M 688 3347 
L 1581 622 
L 2516 3347 
L 3131 3347 
L 1869 0 
L 1269 0 
L 34 3347 
L 688 3347 
z
" transform="scale(0.015625)"/>
        <path id="Helvetica-75" d="M 975 3347 
L 975 1125 
Q 975 869 1056 706 
Q 1206 406 1616 406 
Q 2203 406 2416 931 
Q 2531 1213 2531 1703 
L 2531 3347 
L 3094 3347 
L 3094 0 
L 2563 0 
L 2569 494 
Q 2459 303 2297 172 
Q 1975 -91 1516 -91 
Q 800 -91 541 388 
Q 400 644 400 1072 
L 400 3347 
L 975 3347 
z
M 1747 3428 
L 1747 3428 
z
" transform="scale(0.015625)"/>
       </defs>
       <use xlink:href="#Helvetica-49"/>
       <use xlink:href="#Helvetica-6e" x="27.783203"/>
       <use xlink:href="#Helvetica-64" x="83.398438"/>
       <use xlink:href="#Helvetica-69" x="139.013672"/>
       <use xlink:href="#Helvetica-76" x="161.230469"/>
       <use xlink:href="#Helvetica-69" x="211.230469"/>
       <use xlink:href="#Helvetica-64" x="233.447266"/>
       <use xlink:href="#Helvetica-75" x="289.0625"/>
       <use xlink:href="#Helvetica-61" x="344.677734"/>
       <use xlink:href="#Helvetica-6c" x="400.292969"/>
       <use xlink:href="#Helvetica-2c" x="422.509766"/>
       <use xlink:href="#Helvetica-20" x="450.292969"/>
       <use xlink:href="#Helvetica-43" x="478.076172"/>
       <use xlink:href="#Helvetica-61" x="550.292969"/>
       <use xlink:href="#Helvetica-6e" x="605.908203"/>
       <use xlink:href="#Helvetica-63" x="661.523438"/>
       <use xlink:href="#Helvetica-65" x="711.523438"/>
       <use xlink:href="#Helvetica-72" x="767.138672"/>
      </g>
      <!-- Individual, Normal -->
      <g transform="translate(0.73125 106.548375)scale(0.12 -0.12)">
       <use xlink:href="#Helvetica-49"/>
       <use xlink:href="#Helvetica-6e" x="27.783203"/>
       <use xlink:href="#Helvetica-64" x="83.398438"/>
       <use xlink:href="#Helvetica-69" x="139.013672"/>
       <use xlink:href="#Helvetica-76" x="161.230469"/>
       <use xlink:href="#Helvetica-69" x="211.230469"/>
       <use xlink:href="#Helvetica-64" x="233.447266"/>
       <use xlink:href="#Helvetica-75" x="289.0625"/>
       <use xlink:href="#Helvetica-61" x="344.677734"/>
       <use xlink:href="#Helvetica-6c" x="400.292969"/>
       <use xlink:href="#Helvetica-2c" x="422.509766"/>
       <use xlink:href="#Helvetica-20" x="450.292969"/>
       <use xlink:href="#Helvetica-4e" x="478.076172"/>
       <use xlink:href="#Helvetica-6f" x="550.292969"/>
       <use xlink:href="#Helvetica-72" x="605.908203"/>
       <use xlink:href="#Helvetica-6d" x="639.208984"/>
       <use xlink:href="#Helvetica-61" x="722.509766"/>
       <use xlink:href="#Helvetica-6c" x="778.125"/>
      </g>
     </g>
    </g>
    <g id="ytick_4">
     <g id="line2d_8">
      <g>
       <use xlink:href="#m764a95f5b0" x="102.266875" y="131.217231" style="stroke: #000000; stroke-width: 0.8"/>
      </g>
     </g>
     <g id="text_9">
      <!-- Paired, Cancer -->
      <g transform="translate(16.7325 129.966606)scale(0.12 -0.12)">
       <use xlink:href="#Helvetica-50"/>
       <use xlink:href="#Helvetica-61" x="66.699219"/>
       <use xlink:href="#Helvetica-69" x="122.314453"/>
       <use xlink:href="#Helvetica-72" x="144.53125"/>
       <use xlink:href="#Helvetica-65" x="177.832031"/>
       <use xlink:href="#Helvetica-64" x="233.447266"/>
       <use xlink:href="#Helvetica-2c" x="289.0625"/>
       <use xlink:href="#Helvetica-20" x="316.845703"/>
       <use xlink:href="#Helvetica-43" x="344.628906"/>
       <use xlink:href="#Helvetica-61" x="416.845703"/>
       <use xlink:href="#Helvetica-6e" x="472.460938"/>
       <use xlink:href="#Helvetica-63" x="528.076172"/>
       <use xlink:href="#Helvetica-65" x="578.076172"/>
       <use xlink:href="#Helvetica-72" x="633.691406"/>
      </g>
      <!-- Individual, Cancer -->
      <g transform="translate(0.72 142.797606)scale(0.12 -0.12)">
       <use xlink:href="#Helvetica-49"/>
       <use xlink:href="#Helvetica-6e" x="27.783203"/>
       <use xlink:href="#Helvetica-64" x="83.398438"/>
       <use xlink:href="#Helvetica-69" x="139.013672"/>
       <use xlink:href="#Helvetica-76" x="161.230469"/>
       <use xlink:href="#Helvetica-69" x="211.230469"/>
       <use xlink:href="#Helvetica-64" x="233.447266"/>
       <use xlink:href="#Helvetica-75" x="289.0625"/>
       <use xlink:href="#Helvetica-61" x="344.677734"/>
       <use xlink:href="#Helvetica-6c" x="400.292969"/>
       <use xlink:href="#Helvetica-2c" x="422.509766"/>
       <use xlink:href="#Helvetica-20" x="450.292969"/>
       <use xlink:href="#Helvetica-43" x="478.076172"/>
       <use xlink:href="#Helvetica-61" x="550.292969"/>
       <use xlink:href="#Helvetica-6e" x="605.908203"/>
       <use xlink:href="#Helvetica-63" x="661.523438"/>
       <use xlink:href="#Helvetica-65" x="711.523438"/>
       <use xlink:href="#Helvetica-72" x="767.138672"/>
      </g>
     </g>
    </g>
    <g id="ytick_5">
     <g id="line2d_9">
      <g>
       <use xlink:href="#m764a95f5b0" x="102.266875" y="167.466462" style="stroke: #000000; stroke-width: 0.8"/>
      </g>
     </g>
     <g id="text_10">
      <!-- Paired, Normal -->
      <g transform="translate(16.74375 166.215837)scale(0.12 -0.12)">
       <use xlink:href="#Helvetica-50"/>
       <use xlink:href="#Helvetica-61" x="66.699219"/>
       <use xlink:href="#Helvetica-69" x="122.314453"/>
       <use xlink:href="#Helvetica-72" x="144.53125"/>
       <use xlink:href="#Helvetica-65" x="177.832031"/>
       <use xlink:href="#Helvetica-64" x="233.447266"/>
       <use xlink:href="#Helvetica-2c" x="289.0625"/>
       <use xlink:href="#Helvetica-20" x="316.845703"/>
       <use xlink:href="#Helvetica-4e" x="344.628906"/>
       <use xlink:href="#Helvetica-6f" x="416.845703"/>
       <use xlink:href="#Helvetica-72" x="472.460938"/>
       <use xlink:href="#Helvetica-6d" x="505.761719"/>
       <use xlink:href="#Helvetica-61" x="589.0625"/>
       <use xlink:href="#Helvetica-6c" x="644.677734"/>
      </g>
      <!-- Individual, Normal -->
      <g transform="translate(0.73125 179.046837)scale(0.12 -0.12)">
       <use xlink:href="#Helvetica-49"/>
       <use xlink:href="#Helvetica-6e" x="27.783203"/>
       <use xlink:href="#Helvetica-64" x="83.398438"/>
       <use xlink:href="#Helvetica-69" x="139.013672"/>
       <use xlink:href="#Helvetica-76" x="161.230469"/>
       <use xlink:href="#Helvetica-69" x="211.230469"/>
       <use xlink:href="#Helvetica-64" x="233.447266"/>
       <use xlink:href="#Helvetica-75" x="289.0625"/>
       <use xlink:href="#Helvetica-61" x="344.677734"/>
       <use xlink:href="#Helvetica-6c" x="400.292969"/>
       <use xlink:href="#Helvetica-2c" x="422.509766"/>
       <use xlink:href="#Helvetica-20" x="450.292969"/>
       <use xlink:href="#Helvetica-4e" x="478.076172"/>
       <use xlink:href="#Helvetica-6f" x="550.292969"/>
       <use xlink:href="#Helvetica-72" x="605.908203"/>
       <use xlink:href="#Helvetica-6d" x="639.208984"/>
       <use xlink:href="#Helvetica-61" x="722.509766"/>
       <use xlink:href="#Helvetica-6c" x="778.125"/>
      </g>
     </g>
    </g>
   </g>
   <g id="line2d_10">
    <path d="M 188.200696 22.469538 
L 208.757176 22.469538 
" clip-path="url(#p476ee293cd)" style="fill: none; stroke: #424242; stroke-width: 2.7; stroke-linecap: square"/>
   </g>
   <g id="line2d_11">
    <path d="M 190.289253 58.718769 
L 193.51718 58.718769 
" clip-path="url(#p476ee293cd)" style="fill: none; stroke: #424242; stroke-width: 2.7; stroke-linecap: square"/>
   </g>
   <g id="line2d_12">
    <path d="M 247.672352 94.968 
L 251.066875 94.968 
" clip-path="url(#p476ee293cd)" style="fill: none; stroke: #424242; stroke-width: 2.7; stroke-linecap: square"/>
   </g>
   <g id="line2d_13">
    <path d="M 209.844476 131.217231 
L 210.817984 131.217231 
" clip-path="url(#p476ee293cd)" style="fill: none; stroke: #424242; stroke-width: 2.7; stroke-linecap: square"/>
   </g>
   <g id="line2d_14">
    <path d="M 220.332847 167.466462 
L 230.985792 167.466462 
" clip-path="url(#p476ee293cd)" style="fill: none; stroke: #424242; stroke-width: 2.7; stroke-linecap: square"/>
   </g>
   <g id="patch_8">
    <path d="M 102.266875 189.216 
L 102.266875 0.72 
" style="fill: none; stroke: #000000; stroke-width: 1.5; stroke-linejoin: miter; stroke-linecap: square"/>
   </g>
   <g id="patch_9">
    <path d="M 258.506875 189.216 
L 258.506875 0.72 
" style="fill: none; stroke: #000000; stroke-width: 1.5; stroke-linejoin: miter; stroke-linecap: square"/>
   </g>
   <g id="patch_10">
    <path d="M 102.266875 189.216 
L 258.506875 189.216 
" style="fill: none; stroke: #000000; stroke-width: 1.5; stroke-linejoin: miter; stroke-linecap: square"/>
   </g>
   <g id="patch_11">
    <path d="M 102.266875 0.72 
L 258.506875 0.72 
" style="fill: none; stroke: #000000; stroke-width: 1.5; stroke-linejoin: miter; stroke-linecap: square"/>
   </g>
  </g>
 </g>
 <defs>
  <clipPath id="p476ee293cd">
   <rect x="102.266875" y="0.72" width="156.24" height="188.496"/>
  </clipPath>
 </defs>
</svg>
