<?xml version="1.0" encoding="utf-8" standalone="no"?>
<!DOCTYPE svg PUBLIC "-//W3C//DTD SVG 1.1//EN"
  "http://www.w3.org/Graphics/SVG/1.1/DTD/svg11.dtd">
<svg xmlns:xlink="http://www.w3.org/1999/xlink" width="257.59625pt" height="188.655125pt" viewBox="0 0 257.59625 188.655125" xmlns="http://www.w3.org/2000/svg" version="1.1">
 <metadata>
  <rdf:RDF xmlns:dc="http://purl.org/dc/elements/1.1/" xmlns:cc="http://creativecommons.org/ns#" xmlns:rdf="http://www.w3.org/1999/02/22-rdf-syntax-ns#">
   <cc:Work>
    <dc:type rdf:resource="http://purl.org/dc/dcmitype/StillImage"/>
    <dc:date>2024-05-11T14:32:23.205503</dc:date>
    <dc:format>image/svg+xml</dc:format>
    <dc:creator>
     <cc:Agent>
      <dc:title>Matplotlib v3.5.1, https://matplotlib.org/</dc:title>
     </cc:Agent>
    </dc:creator>
   </cc:Work>
  </rdf:RDF>
 </metadata>
 <defs>
  <style type="text/css">*{stroke-linejoin: round; stroke-linecap: butt}</style>
 </defs>
 <g id="figure_1">
  <g id="patch_1">
   <path d="M 0 188.655125 
L 257.59625 188.655125 
L 257.59625 0 
L 0 0 
L 0 188.655125 
z
" style="fill: none"/>
  </g>
  <g id="axes_1">
   <g id="patch_2">
    <path d="M 44.83625 155.952 
L 256.87625 155.952 
L 256.87625 0.72 
L 44.83625 0.72 
z
" style="fill: #ffffff"/>
   </g>
   <g id="patch_3">
    <path d="M 54.474432 155.952 
L 62.50625 155.952 
L 62.50625 138.099416 
L 54.474432 138.099416 
z
" clip-path="url(#p6d170ea538)" style="fill: #8594b7; fill-opacity: 0.5; stroke: #000000; stroke-width: 1.5; stroke-linejoin: miter"/>
   </g>
   <g id="patch_4">
    <path d="M 62.50625 155.952 
L 70.538068 155.952 
L 70.538068 128.484902 
L 62.50625 128.484902 
z
" clip-path="url(#p6d170ea538)" style="fill: #8594b7; fill-opacity: 0.5; stroke: #000000; stroke-width: 1.5; stroke-linejoin: miter"/>
   </g>
   <g id="patch_5">
    <path d="M 70.538068 155.952 
L 78.569886 155.952 
L 78.569886 114.314597 
L 70.538068 114.314597 
z
" clip-path="url(#p6d170ea538)" style="fill: #8594b7; fill-opacity: 0.5; stroke: #000000; stroke-width: 1.5; stroke-linejoin: miter"/>
   </g>
   <g id="patch_6">
    <path d="M 78.569886 155.952 
L 86.601705 155.952 
L 86.601705 94.073825 
L 78.569886 94.073825 
z
" clip-path="url(#p6d170ea538)" style="fill: #8594b7; fill-opacity: 0.5; stroke: #000000; stroke-width: 1.5; stroke-linejoin: miter"/>
   </g>
   <g id="patch_7">
    <path d="M 86.601705 155.952 
L 94.633523 155.952 
L 94.633523 61.61565 
L 86.601705 61.61565 
z
" clip-path="url(#p6d170ea538)" style="fill: #8594b7; fill-opacity: 0.5; stroke: #000000; stroke-width: 1.5; stroke-linejoin: miter"/>
   </g>
   <g id="patch_8">
    <path d="M 94.633523 155.952 
L 102.665341 155.952 
L 102.665341 22.201731 
L 94.633523 22.201731 
z
" clip-path="url(#p6d170ea538)" style="fill: #8594b7; fill-opacity: 0.5; stroke: #000000; stroke-width: 1.5; stroke-linejoin: miter"/>
   </g>
   <g id="patch_9">
    <path d="M 102.665341 155.952 
L 110.697159 155.952 
L 110.697159 9.628453 
L 102.665341 9.628453 
z
" clip-path="url(#p6d170ea538)" style="fill: #8594b7; fill-opacity: 0.5; stroke: #000000; stroke-width: 1.5; stroke-linejoin: miter"/>
   </g>
   <g id="patch_10">
    <path d="M 110.697159 155.952 
L 118.728977 155.952 
L 118.728977 31.186846 
L 110.697159 31.186846 
z
" clip-path="url(#p6d170ea538)" style="fill: #8594b7; fill-opacity: 0.5; stroke: #000000; stroke-width: 1.5; stroke-linejoin: miter"/>
   </g>
   <g id="patch_11">
    <path d="M 118.728977 155.952 
L 126.760795 155.952 
L 126.760795 74.72127 
L 118.728977 74.72127 
z
" clip-path="url(#p6d170ea538)" style="fill: #8594b7; fill-opacity: 0.5; stroke: #000000; stroke-width: 1.5; stroke-linejoin: miter"/>
   </g>
   <g id="patch_12">
    <path d="M 126.760795 155.952 
L 134.792614 155.952 
L 134.792614 85.047534 
L 126.760795 85.047534 
z
" clip-path="url(#p6d170ea538)" style="fill: #8594b7; fill-opacity: 0.5; stroke: #000000; stroke-width: 1.5; stroke-linejoin: miter"/>
   </g>
   <g id="patch_13">
    <path d="M 134.792614 155.952 
L 142.824432 155.952 
L 142.824432 78.882952 
L 134.792614 78.882952 
z
" clip-path="url(#p6d170ea538)" style="fill: #8594b7; fill-opacity: 0.5; stroke: #000000; stroke-width: 1.5; stroke-linejoin: miter"/>
   </g>
   <g id="patch_14">
    <path d="M 142.824432 155.952 
L 150.85625 155.952 
L 150.85625 103.238347 
L 142.824432 103.238347 
z
" clip-path="url(#p6d170ea538)" style="fill: #8594b7; fill-opacity: 0.5; stroke: #000000; stroke-width: 1.5; stroke-linejoin: miter"/>
   </g>
   <g id="patch_15">
    <path d="M 150.85625 155.952 
L 158.888068 155.952 
L 158.888068 96.953179 
L 150.85625 96.953179 
z
" clip-path="url(#p6d170ea538)" style="fill: #8594b7; fill-opacity: 0.5; stroke: #000000; stroke-width: 1.5; stroke-linejoin: miter"/>
   </g>
   <g id="patch_16">
    <path d="M 158.888068 155.952 
L 166.919886 155.952 
L 166.919886 105.573595 
L 158.888068 105.573595 
z
" clip-path="url(#p6d170ea538)" style="fill: #8594b7; fill-opacity: 0.5; stroke: #000000; stroke-width: 1.5; stroke-linejoin: miter"/>
   </g>
   <g id="patch_17">
    <path d="M 166.919886 155.952 
L 174.951705 155.952 
L 174.951705 122.158558 
L 166.919886 122.158558 
z
" clip-path="url(#p6d170ea538)" style="fill: #8594b7; fill-opacity: 0.5; stroke: #000000; stroke-width: 1.5; stroke-linejoin: miter"/>
   </g>
   <g id="patch_18">
    <path d="M 174.951705 155.952 
L 182.983523 155.952 
L 182.983523 139.475859 
L 174.951705 139.475859 
z
" clip-path="url(#p6d170ea538)" style="fill: #8594b7; fill-opacity: 0.5; stroke: #000000; stroke-width: 1.5; stroke-linejoin: miter"/>
   </g>
   <g id="patch_19">
    <path d="M 182.983523 155.952 
L 191.015341 155.952 
L 191.015341 149.699184 
L 182.983523 149.699184 
z
" clip-path="url(#p6d170ea538)" style="fill: #8594b7; fill-opacity: 0.5; stroke: #000000; stroke-width: 1.5; stroke-linejoin: miter"/>
   </g>
   <g id="patch_20">
    <path d="M 191.015341 155.952 
L 199.047159 155.952 
L 199.047159 153.79322 
L 191.015341 153.79322 
z
" clip-path="url(#p6d170ea538)" style="fill: #8594b7; fill-opacity: 0.5; stroke: #000000; stroke-width: 1.5; stroke-linejoin: miter"/>
   </g>
   <g id="patch_21">
    <path d="M 199.047159 155.952 
L 207.078977 155.952 
L 207.078977 155.360835 
L 199.047159 155.360835 
z
" clip-path="url(#p6d170ea538)" style="fill: #8594b7; fill-opacity: 0.5; stroke: #000000; stroke-width: 1.5; stroke-linejoin: miter"/>
   </g>
   <g id="patch_22">
    <path d="M 207.078977 155.952 
L 215.110795 155.952 
L 215.110795 155.816709 
L 207.078977 155.816709 
z
" clip-path="url(#p6d170ea538)" style="fill: #8594b7; fill-opacity: 0.5; stroke: #000000; stroke-width: 1.5; stroke-linejoin: miter"/>
   </g>
   <g id="patch_23">
    <path d="M 215.110795 155.952 
L 223.142614 155.952 
L 223.142614 155.89906 
L 215.110795 155.89906 
z
" clip-path="url(#p6d170ea538)" style="fill: #8594b7; fill-opacity: 0.5; stroke: #000000; stroke-width: 1.5; stroke-linejoin: miter"/>
   </g>
   <g id="patch_24">
    <path d="M 223.142614 155.952 
L 231.174432 155.952 
L 231.174432 155.952 
L 223.142614 155.952 
z
" clip-path="url(#p6d170ea538)" style="fill: #8594b7; fill-opacity: 0.5; stroke: #000000; stroke-width: 1.5; stroke-linejoin: miter"/>
   </g>
   <g id="patch_25">
    <path d="M 231.174432 155.952 
L 239.20625 155.952 
L 239.20625 155.949059 
L 231.174432 155.949059 
z
" clip-path="url(#p6d170ea538)" style="fill: #8594b7; fill-opacity: 0.5; stroke: #000000; stroke-width: 1.5; stroke-linejoin: miter"/>
   </g>
   <g id="patch_26">
    <path d="M 239.20625 155.952 
L 247.238068 155.952 
L 247.238068 155.946118 
L 239.20625 155.946118 
z
" clip-path="url(#p6d170ea538)" style="fill: #8594b7; fill-opacity: 0.5; stroke: #000000; stroke-width: 1.5; stroke-linejoin: miter"/>
   </g>
   <g id="matplotlib.axis_1">
    <g id="xtick_1">
     <g id="line2d_1">
      <defs>
       <path id="mc793aae29e" d="M 0 0 
L 0 2 
" style="stroke: #000000; stroke-width: 0.8"/>
      </defs>
      <g>
       <use xlink:href="#mc793aae29e" x="73.187765" y="155.952" style="stroke: #000000; stroke-width: 0.8"/>
      </g>
     </g>
     <g id="text_1">
      <!-- $\mathdefault{10^{1}}$ -->
      <g transform="translate(63.947765 170.060125)scale(0.12 -0.12)">
       <defs>
        <path id="Helvetica-31" d="M 613 3169 
L 613 3600 
Q 1222 3659 1462 3798 
Q 1703 3938 1822 4456 
L 2266 4456 
L 2266 0 
L 1666 0 
L 1666 3169 
L 613 3169 
z
" transform="scale(0.015625)"/>
        <path id="Helvetica-30" d="M 1731 4475 
Q 2600 4475 2988 3759 
Q 3288 3206 3288 2244 
Q 3288 1331 3016 734 
Q 2622 -122 1728 -122 
Q 922 -122 528 578 
Q 200 1163 200 2147 
Q 200 2909 397 3456 
Q 766 4475 1731 4475 
z
M 1725 391 
Q 2163 391 2422 778 
Q 2681 1166 2681 2222 
Q 2681 2984 2493 3476 
Q 2306 3969 1766 3969 
Q 1269 3969 1039 3501 
Q 809 3034 809 2125 
Q 809 1441 956 1025 
Q 1181 391 1725 391 
z
" transform="scale(0.015625)"/>
       </defs>
       <use xlink:href="#Helvetica-31" transform="translate(0 0.654688)"/>
       <use xlink:href="#Helvetica-30" transform="translate(55.615234 0.654688)"/>
       <use xlink:href="#Helvetica-31" transform="translate(112.145664 37.2625)scale(0.7)"/>
      </g>
     </g>
    </g>
    <g id="xtick_2">
     <g id="line2d_2">
      <g>
       <use xlink:href="#mc793aae29e" x="126.73322" y="155.952" style="stroke: #000000; stroke-width: 0.8"/>
      </g>
     </g>
     <g id="text_2">
      <!-- $\mathdefault{10^{3}}$ -->
      <g transform="translate(117.49322 170.060125)scale(0.12 -0.12)">
       <defs>
        <path id="Helvetica-33" d="M 1663 -122 
Q 869 -122 511 314 
Q 153 750 153 1375 
L 741 1375 
Q 778 941 903 744 
Q 1122 391 1694 391 
Q 2138 391 2406 628 
Q 2675 866 2675 1241 
Q 2675 1703 2392 1887 
Q 2109 2072 1606 2072 
Q 1550 2072 1492 2070 
Q 1434 2069 1375 2066 
L 1375 2563 
Q 1463 2553 1522 2550 
Q 1581 2547 1650 2547 
Q 1966 2547 2169 2647 
Q 2525 2822 2525 3272 
Q 2525 3606 2287 3787 
Q 2050 3969 1734 3969 
Q 1172 3969 956 3594 
Q 838 3388 822 3006 
L 266 3006 
Q 266 3506 466 3856 
Q 809 4481 1675 4481 
Q 2359 4481 2734 4176 
Q 3109 3872 3109 3294 
Q 3109 2881 2888 2625 
Q 2750 2466 2531 2375 
Q 2884 2278 3082 2001 
Q 3281 1725 3281 1325 
Q 3281 684 2859 281 
Q 2438 -122 1663 -122 
z
" transform="scale(0.015625)"/>
       </defs>
       <use xlink:href="#Helvetica-31" transform="translate(0 0.38125)"/>
       <use xlink:href="#Helvetica-30" transform="translate(55.615234 0.38125)"/>
       <use xlink:href="#Helvetica-33" transform="translate(112.145664 36.989063)scale(0.7)"/>
      </g>
     </g>
    </g>
    <g id="xtick_3">
     <g id="line2d_3">
      <g>
       <use xlink:href="#mc793aae29e" x="180.278674" y="155.952" style="stroke: #000000; stroke-width: 0.8"/>
      </g>
     </g>
     <g id="text_3">
      <!-- $\mathdefault{10^{5}}$ -->
      <g transform="translate(171.038674 170.060125)scale(0.12 -0.12)">
       <defs>
        <path id="Helvetica-35" d="M 791 1141 
Q 847 659 1238 475 
Q 1438 381 1700 381 
Q 2200 381 2440 700 
Q 2681 1019 2681 1406 
Q 2681 1875 2395 2131 
Q 2109 2388 1709 2388 
Q 1419 2388 1211 2275 
Q 1003 2163 856 1963 
L 369 1991 
L 709 4400 
L 3034 4400 
L 3034 3856 
L 1131 3856 
L 941 2613 
Q 1097 2731 1238 2791 
Q 1488 2894 1816 2894 
Q 2431 2894 2859 2497 
Q 3288 2100 3288 1491 
Q 3288 856 2895 371 
Q 2503 -113 1644 -113 
Q 1097 -113 676 195 
Q 256 503 206 1141 
L 791 1141 
z
" transform="scale(0.015625)"/>
       </defs>
       <use xlink:href="#Helvetica-31" transform="translate(0 0.267188)"/>
       <use xlink:href="#Helvetica-30" transform="translate(55.615234 0.267188)"/>
       <use xlink:href="#Helvetica-35" transform="translate(112.145664 36.875)scale(0.7)"/>
      </g>
     </g>
    </g>
    <g id="xtick_4">
     <g id="line2d_4">
      <g>
       <use xlink:href="#mc793aae29e" x="233.824129" y="155.952" style="stroke: #000000; stroke-width: 0.8"/>
      </g>
     </g>
     <g id="text_4">
      <!-- $\mathdefault{10^{7}}$ -->
      <g transform="translate(224.584129 170.060125)scale(0.12 -0.12)">
       <defs>
        <path id="Helvetica-37" d="M 3347 4400 
L 3347 3909 
Q 3131 3700 2773 3181 
Q 2416 2663 2141 2063 
Q 1869 1478 1728 997 
Q 1638 688 1494 0 
L 872 0 
Q 1084 1281 1809 2550 
Q 2238 3294 2709 3834 
L 234 3834 
L 234 4400 
L 3347 4400 
z
" transform="scale(0.015625)"/>
       </defs>
       <use xlink:href="#Helvetica-31" transform="translate(0 0.267188)"/>
       <use xlink:href="#Helvetica-30" transform="translate(55.615234 0.267188)"/>
       <use xlink:href="#Helvetica-37" transform="translate(112.145664 36.875)scale(0.7)"/>
      </g>
     </g>
    </g>
    <g id="text_5">
     <!-- Distance between adjacent CpG sites -->
     <g transform="translate(50.807187 185.403875)scale(0.12 -0.12)">
      <defs>
       <path id="Helvetica-44" d="M 2250 531 
Q 2566 531 2769 597 
Q 3131 719 3363 1066 
Q 3547 1344 3628 1778 
Q 3675 2038 3675 2259 
Q 3675 3113 3336 3584 
Q 2997 4056 2244 4056 
L 1141 4056 
L 1141 531 
L 2250 531 
z
M 516 4591 
L 2375 4591 
Q 3322 4591 3844 3919 
Q 4309 3313 4309 2366 
Q 4309 1634 4034 1044 
Q 3550 0 2369 0 
L 516 0 
L 516 4591 
z
" transform="scale(0.015625)"/>
       <path id="Helvetica-69" d="M 413 3331 
L 984 3331 
L 984 0 
L 413 0 
L 413 3331 
z
M 413 4591 
L 984 4591 
L 984 3953 
L 413 3953 
L 413 4591 
z
" transform="scale(0.015625)"/>
       <path id="Helvetica-73" d="M 747 1050 
Q 772 769 888 619 
Q 1100 347 1625 347 
Q 1938 347 2175 483 
Q 2413 619 2413 903 
Q 2413 1119 2222 1231 
Q 2100 1300 1741 1391 
L 1294 1503 
Q 866 1609 663 1741 
Q 300 1969 300 2372 
Q 300 2847 642 3140 
Q 984 3434 1563 3434 
Q 2319 3434 2653 2991 
Q 2863 2709 2856 2384 
L 2325 2384 
Q 2309 2575 2191 2731 
Q 1997 2953 1519 2953 
Q 1200 2953 1036 2831 
Q 872 2709 872 2509 
Q 872 2291 1088 2159 
Q 1213 2081 1456 2022 
L 1828 1931 
Q 2434 1784 2641 1647 
Q 2969 1431 2969 969 
Q 2969 522 2630 197 
Q 2291 -128 1597 -128 
Q 850 -128 539 211 
Q 228 550 206 1050 
L 747 1050 
z
M 1578 3428 
L 1578 3428 
z
" transform="scale(0.015625)"/>
       <path id="Helvetica-74" d="M 525 4281 
L 1094 4281 
L 1094 3347 
L 1628 3347 
L 1628 2888 
L 1094 2888 
L 1094 703 
Q 1094 528 1213 469 
Q 1278 434 1431 434 
Q 1472 434 1519 436 
Q 1566 438 1628 444 
L 1628 0 
Q 1531 -28 1426 -40 
Q 1322 -53 1200 -53 
Q 806 -53 665 148 
Q 525 350 525 672 
L 525 2888 
L 72 2888 
L 72 3347 
L 525 3347 
L 525 4281 
z
" transform="scale(0.015625)"/>
       <path id="Helvetica-61" d="M 844 891 
Q 844 647 1022 506 
Q 1200 366 1444 366 
Q 1741 366 2019 503 
Q 2488 731 2488 1250 
L 2488 1703 
Q 2384 1638 2221 1594 
Q 2059 1550 1903 1531 
L 1563 1488 
Q 1256 1447 1103 1359 
Q 844 1213 844 891 
z
M 2206 2028 
Q 2400 2053 2466 2191 
Q 2503 2266 2503 2406 
Q 2503 2694 2298 2823 
Q 2094 2953 1713 2953 
Q 1272 2953 1088 2716 
Q 984 2584 953 2325 
L 428 2325 
Q 444 2944 830 3186 
Q 1216 3428 1725 3428 
Q 2316 3428 2684 3203 
Q 3050 2978 3050 2503 
L 3050 575 
Q 3050 488 3086 434 
Q 3122 381 3238 381 
Q 3275 381 3322 386 
Q 3369 391 3422 400 
L 3422 -16 
Q 3291 -53 3222 -62 
Q 3153 -72 3034 -72 
Q 2744 -72 2613 134 
Q 2544 244 2516 444 
Q 2344 219 2022 53 
Q 1700 -113 1313 -113 
Q 847 -113 551 170 
Q 256 453 256 878 
Q 256 1344 547 1600 
Q 838 1856 1309 1916 
L 2206 2028 
z
M 1741 3428 
L 1741 3428 
z
" transform="scale(0.015625)"/>
       <path id="Helvetica-6e" d="M 413 3347 
L 947 3347 
L 947 2872 
Q 1184 3166 1450 3294 
Q 1716 3422 2041 3422 
Q 2753 3422 3003 2925 
Q 3141 2653 3141 2147 
L 3141 0 
L 2569 0 
L 2569 2109 
Q 2569 2416 2478 2603 
Q 2328 2916 1934 2916 
Q 1734 2916 1606 2875 
Q 1375 2806 1200 2600 
Q 1059 2434 1017 2257 
Q 975 2081 975 1753 
L 975 0 
L 413 0 
L 413 3347 
z
M 1734 3428 
L 1734 3428 
z
" transform="scale(0.015625)"/>
       <path id="Helvetica-63" d="M 1703 3444 
Q 2269 3444 2623 3169 
Q 2978 2894 3050 2222 
L 2503 2222 
Q 2453 2531 2275 2736 
Q 2097 2941 1703 2941 
Q 1166 2941 934 2416 
Q 784 2075 784 1575 
Q 784 1072 996 728 
Q 1209 384 1666 384 
Q 2016 384 2220 598 
Q 2425 813 2503 1184 
L 3050 1184 
Q 2956 519 2581 211 
Q 2206 -97 1622 -97 
Q 966 -97 575 383 
Q 184 863 184 1581 
Q 184 2463 612 2953 
Q 1041 3444 1703 3444 
z
M 1616 3428 
L 1616 3428 
z
" transform="scale(0.015625)"/>
       <path id="Helvetica-65" d="M 1806 3422 
Q 2163 3422 2497 3255 
Q 2831 3088 3006 2822 
Q 3175 2569 3231 2231 
Q 3281 2000 3281 1494 
L 828 1494 
Q 844 984 1069 676 
Q 1294 369 1766 369 
Q 2206 369 2469 659 
Q 2619 828 2681 1050 
L 3234 1050 
Q 3213 866 3089 639 
Q 2966 413 2813 269 
Q 2556 19 2178 -69 
Q 1975 -119 1719 -119 
Q 1094 -119 659 336 
Q 225 791 225 1609 
Q 225 2416 662 2919 
Q 1100 3422 1806 3422 
z
M 2703 1941 
Q 2669 2306 2544 2525 
Q 2313 2931 1772 2931 
Q 1384 2931 1121 2651 
Q 859 2372 844 1941 
L 2703 1941 
z
M 1753 3428 
L 1753 3428 
z
" transform="scale(0.015625)"/>
       <path id="Helvetica-20" transform="scale(0.015625)"/>
       <path id="Helvetica-62" d="M 369 4606 
L 916 4606 
L 916 2941 
Q 1100 3181 1356 3307 
Q 1613 3434 1913 3434 
Q 2538 3434 2927 3004 
Q 3316 2575 3316 1738 
Q 3316 944 2931 419 
Q 2547 -106 1866 -106 
Q 1484 -106 1222 78 
Q 1066 188 888 428 
L 888 0 
L 369 0 
L 369 4606 
z
M 1831 391 
Q 2288 391 2514 753 
Q 2741 1116 2741 1709 
Q 2741 2238 2514 2584 
Q 2288 2931 1847 2931 
Q 1463 2931 1173 2647 
Q 884 2363 884 1709 
Q 884 1238 1003 944 
Q 1225 391 1831 391 
z
" transform="scale(0.015625)"/>
       <path id="Helvetica-77" d="M 672 3347 
L 1316 709 
L 1969 3347 
L 2600 3347 
L 3256 725 
L 3941 3347 
L 4503 3347 
L 3531 0 
L 2947 0 
L 2266 2591 
L 1606 0 
L 1022 0 
L 56 3347 
L 672 3347 
z
" transform="scale(0.015625)"/>
       <path id="Helvetica-64" d="M 769 1634 
Q 769 1097 997 734 
Q 1225 372 1728 372 
Q 2119 372 2370 708 
Q 2622 1044 2622 1672 
Q 2622 2306 2362 2611 
Q 2103 2916 1722 2916 
Q 1297 2916 1033 2591 
Q 769 2266 769 1634 
z
M 1616 3406 
Q 2000 3406 2259 3244 
Q 2409 3150 2600 2916 
L 2600 4606 
L 3141 4606 
L 3141 0 
L 2634 0 
L 2634 466 
Q 2438 156 2169 18 
Q 1900 -119 1553 -119 
Q 994 -119 584 351 
Q 175 822 175 1603 
Q 175 2334 548 2870 
Q 922 3406 1616 3406 
z
" transform="scale(0.015625)"/>
       <path id="Helvetica-6a" d="M 975 3941 
L 413 3941 
L 413 4591 
L 975 4591 
L 975 3941 
z
M -119 -847 
Q 259 -834 336 -779 
Q 413 -725 413 -438 
L 413 3331 
L 975 3331 
L 975 -497 
Q 975 -863 856 -1044 
Q 659 -1350 109 -1350 
Q 69 -1350 23 -1347 
Q -22 -1344 -119 -1334 
L -119 -847 
z
" transform="scale(0.015625)"/>
       <path id="Helvetica-43" d="M 2422 4716 
Q 3294 4716 3775 4256 
Q 4256 3797 4309 3213 
L 3703 3213 
Q 3600 3656 3292 3915 
Q 2984 4175 2428 4175 
Q 1750 4175 1333 3698 
Q 916 3222 916 2238 
Q 916 1431 1292 929 
Q 1669 428 2416 428 
Q 3103 428 3463 956 
Q 3653 1234 3747 1688 
L 4353 1688 
Q 4272 963 3816 472 
Q 3269 -119 2341 -119 
Q 1541 -119 997 366 
Q 281 1006 281 2344 
Q 281 3359 819 4009 
Q 1400 4716 2422 4716 
z
M 2297 4716 
L 2297 4716 
z
" transform="scale(0.015625)"/>
       <path id="Helvetica-70" d="M 1825 378 
Q 2219 378 2480 708 
Q 2741 1038 2741 1694 
Q 2741 2094 2625 2381 
Q 2406 2934 1825 2934 
Q 1241 2934 1025 2350 
Q 909 2038 909 1556 
Q 909 1169 1025 897 
Q 1244 378 1825 378 
z
M 369 3331 
L 916 3331 
L 916 2888 
Q 1084 3116 1284 3241 
Q 1569 3428 1953 3428 
Q 2522 3428 2919 2992 
Q 3316 2556 3316 1747 
Q 3316 653 2744 184 
Q 2381 -113 1900 -113 
Q 1522 -113 1266 53 
Q 1116 147 931 375 
L 931 -1334 
L 369 -1334 
L 369 3331 
z
" transform="scale(0.015625)"/>
       <path id="Helvetica-47" d="M 2472 4709 
Q 3119 4709 3591 4459 
Q 4275 4100 4428 3200 
L 3813 3200 
Q 3700 3703 3347 3933 
Q 2994 4163 2456 4163 
Q 1819 4163 1383 3684 
Q 947 3206 947 2259 
Q 947 1441 1306 927 
Q 1666 413 2478 413 
Q 3100 413 3508 773 
Q 3916 1134 3925 1941 
L 2488 1941 
L 2488 2456 
L 4503 2456 
L 4503 0 
L 4103 0 
L 3953 591 
Q 3638 244 3394 109 
Q 2984 -122 2353 -122 
Q 1538 -122 950 406 
Q 309 1069 309 2225 
Q 309 3378 934 4059 
Q 1528 4709 2472 4709 
z
M 2369 4716 
L 2369 4716 
z
" transform="scale(0.015625)"/>
      </defs>
      <use xlink:href="#Helvetica-44"/>
      <use xlink:href="#Helvetica-69" x="72.216797"/>
      <use xlink:href="#Helvetica-73" x="94.433594"/>
      <use xlink:href="#Helvetica-74" x="144.433594"/>
      <use xlink:href="#Helvetica-61" x="172.216797"/>
      <use xlink:href="#Helvetica-6e" x="227.832031"/>
      <use xlink:href="#Helvetica-63" x="283.447266"/>
      <use xlink:href="#Helvetica-65" x="333.447266"/>
      <use xlink:href="#Helvetica-20" x="389.0625"/>
      <use xlink:href="#Helvetica-62" x="416.845703"/>
      <use xlink:href="#Helvetica-65" x="472.460938"/>
      <use xlink:href="#Helvetica-74" x="528.076172"/>
      <use xlink:href="#Helvetica-77" x="555.859375"/>
      <use xlink:href="#Helvetica-65" x="628.076172"/>
      <use xlink:href="#Helvetica-65" x="683.691406"/>
      <use xlink:href="#Helvetica-6e" x="739.306641"/>
      <use xlink:href="#Helvetica-20" x="794.921875"/>
      <use xlink:href="#Helvetica-61" x="822.705078"/>
      <use xlink:href="#Helvetica-64" x="878.320312"/>
      <use xlink:href="#Helvetica-6a" x="933.935547"/>
      <use xlink:href="#Helvetica-61" x="956.152344"/>
      <use xlink:href="#Helvetica-63" x="1011.767578"/>
      <use xlink:href="#Helvetica-65" x="1061.767578"/>
      <use xlink:href="#Helvetica-6e" x="1117.382812"/>
      <use xlink:href="#Helvetica-74" x="1172.998047"/>
      <use xlink:href="#Helvetica-20" x="1200.78125"/>
      <use xlink:href="#Helvetica-43" x="1228.564453"/>
      <use xlink:href="#Helvetica-70" x="1300.78125"/>
      <use xlink:href="#Helvetica-47" x="1356.396484"/>
      <use xlink:href="#Helvetica-20" x="1434.179688"/>
      <use xlink:href="#Helvetica-73" x="1461.962891"/>
      <use xlink:href="#Helvetica-69" x="1511.962891"/>
      <use xlink:href="#Helvetica-74" x="1534.179688"/>
      <use xlink:href="#Helvetica-65" x="1561.962891"/>
      <use xlink:href="#Helvetica-73" x="1617.578125"/>
     </g>
    </g>
   </g>
   <g id="matplotlib.axis_2">
    <g id="ytick_1">
     <g id="line2d_5">
      <defs>
       <path id="md78326ae26" d="M 0 0 
L -2 0 
" style="stroke: #000000; stroke-width: 0.8"/>
      </defs>
      <g>
       <use xlink:href="#md78326ae26" x="44.83625" y="155.952" style="stroke: #000000; stroke-width: 0.8"/>
      </g>
     </g>
     <g id="text_6">
      <!-- 0.0 -->
      <g transform="translate(22.65625 160.256062)scale(0.12 -0.12)">
       <defs>
        <path id="Helvetica-2e" d="M 547 681 
L 1200 681 
L 1200 0 
L 547 0 
L 547 681 
z
" transform="scale(0.015625)"/>
       </defs>
       <use xlink:href="#Helvetica-30"/>
       <use xlink:href="#Helvetica-2e" x="55.615234"/>
       <use xlink:href="#Helvetica-30" x="83.398438"/>
      </g>
     </g>
    </g>
    <g id="ytick_2">
     <g id="line2d_6">
      <g>
       <use xlink:href="#md78326ae26" x="44.83625" y="128.482622" style="stroke: #000000; stroke-width: 0.8"/>
      </g>
     </g>
     <g id="text_7">
      <!-- 2.5 -->
      <g transform="translate(22.65625 132.786685)scale(0.12 -0.12)">
       <defs>
        <path id="Helvetica-32" d="M 200 0 
Q 231 578 439 1006 
Q 647 1434 1250 1784 
L 1850 2131 
Q 2253 2366 2416 2531 
Q 2672 2791 2672 3125 
Q 2672 3516 2437 3745 
Q 2203 3975 1813 3975 
Q 1234 3975 1013 3538 
Q 894 3303 881 2888 
L 309 2888 
Q 319 3472 525 3841 
Q 891 4491 1816 4491 
Q 2584 4491 2939 4075 
Q 3294 3659 3294 3150 
Q 3294 2613 2916 2231 
Q 2697 2009 2131 1694 
L 1703 1456 
Q 1397 1288 1222 1134 
Q 909 863 828 531 
L 3272 531 
L 3272 0 
L 200 0 
z
" transform="scale(0.015625)"/>
       </defs>
       <use xlink:href="#Helvetica-32"/>
       <use xlink:href="#Helvetica-2e" x="55.615234"/>
       <use xlink:href="#Helvetica-35" x="83.398438"/>
      </g>
     </g>
    </g>
    <g id="ytick_3">
     <g id="line2d_7">
      <g>
       <use xlink:href="#md78326ae26" x="44.83625" y="101.013245" style="stroke: #000000; stroke-width: 0.8"/>
      </g>
     </g>
     <g id="text_8">
      <!-- 5.0 -->
      <g transform="translate(22.65625 105.317307)scale(0.12 -0.12)">
       <use xlink:href="#Helvetica-35"/>
       <use xlink:href="#Helvetica-2e" x="55.615234"/>
       <use xlink:href="#Helvetica-30" x="83.398438"/>
      </g>
     </g>
    </g>
    <g id="ytick_4">
     <g id="line2d_8">
      <g>
       <use xlink:href="#md78326ae26" x="44.83625" y="73.543867" style="stroke: #000000; stroke-width: 0.8"/>
      </g>
     </g>
     <g id="text_9">
      <!-- 7.5 -->
      <g transform="translate(22.65625 77.84793)scale(0.12 -0.12)">
       <use xlink:href="#Helvetica-37"/>
       <use xlink:href="#Helvetica-2e" x="55.615234"/>
       <use xlink:href="#Helvetica-35" x="83.398438"/>
      </g>
     </g>
    </g>
    <g id="ytick_5">
     <g id="line2d_9">
      <g>
       <use xlink:href="#md78326ae26" x="44.83625" y="46.07449" style="stroke: #000000; stroke-width: 0.8"/>
      </g>
     </g>
     <g id="text_10">
      <!-- 10.0 -->
      <g transform="translate(15.983125 50.378552)scale(0.12 -0.12)">
       <use xlink:href="#Helvetica-31"/>
       <use xlink:href="#Helvetica-30" x="55.615234"/>
       <use xlink:href="#Helvetica-2e" x="111.230469"/>
       <use xlink:href="#Helvetica-30" x="139.013672"/>
      </g>
     </g>
    </g>
    <g id="ytick_6">
     <g id="line2d_10">
      <g>
       <use xlink:href="#md78326ae26" x="44.83625" y="18.605112" style="stroke: #000000; stroke-width: 0.8"/>
      </g>
     </g>
     <g id="text_11">
      <!-- 12.5 -->
      <g transform="translate(15.983125 22.909175)scale(0.12 -0.12)">
       <use xlink:href="#Helvetica-31"/>
       <use xlink:href="#Helvetica-32" x="55.615234"/>
       <use xlink:href="#Helvetica-2e" x="111.230469"/>
       <use xlink:href="#Helvetica-35" x="139.013672"/>
      </g>
     </g>
    </g>
    <g id="text_12">
     <!-- Percentage -->
     <g transform="translate(9.328125 109.02225)rotate(-90)scale(0.12 -0.12)">
      <defs>
       <path id="Helvetica-50" d="M 547 4591 
L 2613 4591 
Q 3225 4591 3600 4245 
Q 3975 3900 3975 3275 
Q 3975 2738 3640 2339 
Q 3306 1941 2613 1941 
L 1169 1941 
L 1169 0 
L 547 0 
L 547 4591 
z
M 3347 3272 
Q 3347 3778 2972 3959 
Q 2766 4056 2406 4056 
L 1169 4056 
L 1169 2466 
L 2406 2466 
Q 2825 2466 3086 2644 
Q 3347 2822 3347 3272 
z
" transform="scale(0.015625)"/>
       <path id="Helvetica-72" d="M 428 3347 
L 963 3347 
L 963 2769 
Q 1028 2938 1284 3180 
Q 1541 3422 1875 3422 
Q 1891 3422 1928 3419 
Q 1966 3416 2056 3406 
L 2056 2813 
Q 2006 2822 1964 2825 
Q 1922 2828 1872 2828 
Q 1447 2828 1219 2554 
Q 991 2281 991 1925 
L 991 0 
L 428 0 
L 428 3347 
z
" transform="scale(0.015625)"/>
       <path id="Helvetica-67" d="M 1594 3406 
Q 1988 3406 2281 3213 
Q 2441 3103 2606 2894 
L 2606 3316 
L 3125 3316 
L 3125 272 
Q 3125 -366 2938 -734 
Q 2588 -1416 1616 -1416 
Q 1075 -1416 706 -1173 
Q 338 -931 294 -416 
L 866 -416 
Q 906 -641 1028 -763 
Q 1219 -950 1628 -950 
Q 2275 -950 2475 -494 
Q 2594 -225 2584 466 
Q 2416 209 2178 84 
Q 1941 -41 1550 -41 
Q 1006 -41 598 345 
Q 191 731 191 1622 
Q 191 2463 602 2934 
Q 1013 3406 1594 3406 
z
M 2606 1688 
Q 2606 2309 2350 2609 
Q 2094 2909 1697 2909 
Q 1103 2909 884 2353 
Q 769 2056 769 1575 
Q 769 1009 998 714 
Q 1228 419 1616 419 
Q 2222 419 2469 966 
Q 2606 1275 2606 1688 
z
M 1659 3428 
L 1659 3428 
z
" transform="scale(0.015625)"/>
      </defs>
      <use xlink:href="#Helvetica-50"/>
      <use xlink:href="#Helvetica-65" x="66.699219"/>
      <use xlink:href="#Helvetica-72" x="122.314453"/>
      <use xlink:href="#Helvetica-63" x="155.615234"/>
      <use xlink:href="#Helvetica-65" x="205.615234"/>
      <use xlink:href="#Helvetica-6e" x="261.230469"/>
      <use xlink:href="#Helvetica-74" x="316.845703"/>
      <use xlink:href="#Helvetica-61" x="344.628906"/>
      <use xlink:href="#Helvetica-67" x="400.244141"/>
      <use xlink:href="#Helvetica-65" x="455.859375"/>
     </g>
    </g>
   </g>
   <g id="line2d_11">
    <path d="M 54.474432 140.347116 
L 55.419896 140.060921 
L 56.36536 140.681924 
L 57.310823 141.040315 
L 58.256287 140.628626 
L 60.147215 138.972237 
L 61.092679 138.274702 
L 62.038143 137.390657 
L 62.983607 136.063263 
L 63.92907 134.253669 
L 66.765462 127.753453 
L 67.710926 126.049665 
L 69.601854 123.590321 
L 70.547317 122.404492 
L 71.492781 121.007076 
L 73.383709 117.538436 
L 77.165564 109.626746 
L 79.056492 104.943416 
L 82.838347 94.400533 
L 85.674739 86.021844 
L 87.565667 79.920598 
L 88.511131 76.250541 
L 89.456594 71.676933 
L 90.402058 65.946876 
L 94.183914 39.601327 
L 95.129378 34.941938 
L 96.074841 31.170572 
L 97.965769 24.881969 
L 100.802161 15.869455 
L 101.747625 13.265941 
L 102.693088 11.143732 
L 103.638552 9.571822 
L 104.584016 8.559015 
L 105.52948 8.112 
L 106.474944 8.256459 
L 107.420408 9.012213 
L 108.365872 10.362597 
L 109.311335 12.251353 
L 110.256799 14.607062 
L 111.202263 17.376791 
L 112.147727 20.548652 
L 113.093191 24.14698 
L 114.984119 32.700813 
L 116.875046 42.8256 
L 121.602366 69.617013 
L 122.547829 73.971043 
L 123.493293 77.729465 
L 124.438757 80.856014 
L 125.384221 83.323268 
L 126.329685 85.126699 
L 127.275149 86.297145 
L 128.220613 86.88498 
L 129.166076 86.920942 
L 130.11154 86.386065 
L 131.057004 85.232846 
L 132.002468 83.477239 
L 133.893396 79.148039 
L 134.83886 77.454363 
L 135.784323 76.563047 
L 136.729787 76.543886 
L 137.675251 77.317814 
L 138.620715 78.886533 
L 139.566179 81.442642 
L 140.511643 85.209518 
L 143.348034 100.199306 
L 144.293498 103.279624 
L 145.238962 104.211743 
L 146.184426 103.27642 
L 149.020817 97.550138 
L 149.966281 96.591103 
L 150.911745 96.180186 
L 151.857209 96.090283 
L 152.802673 96.161125 
L 153.748137 96.353233 
L 154.693601 96.704132 
L 155.639064 97.252139 
L 156.584528 97.989644 
L 158.475456 99.839179 
L 160.366384 101.979619 
L 162.257311 104.482857 
L 164.148239 107.528752 
L 166.039167 111.152244 
L 167.930094 115.22619 
L 177.384733 136.588763 
L 179.275661 140.087038 
L 181.166588 143.018222 
L 183.057516 145.549266 
L 184.948444 147.785631 
L 186.839372 149.574339 
L 188.730299 150.936316 
L 190.621227 152.037389 
L 192.512155 152.93296 
L 194.403082 153.637525 
L 197.239474 154.445761 
L 200.075866 155.021473 
L 202.912257 155.346933 
L 208.58504 155.696063 
L 214.257823 155.912612 
L 227.494317 155.949007 
L 242.621739 155.944553 
L 242.621739 155.944553 
" clip-path="url(#p6d170ea538)" style="fill: none; stroke: #8594b7; stroke-width: 2; stroke-linecap: square"/>
   </g>
   <g id="patch_27">
    <path d="M 44.83625 155.952 
L 44.83625 0.72 
" style="fill: none; stroke: #000000; stroke-width: 1.5; stroke-linejoin: miter; stroke-linecap: square"/>
   </g>
   <g id="patch_28">
    <path d="M 256.87625 155.952 
L 256.87625 0.72 
" style="fill: none; stroke: #000000; stroke-width: 1.5; stroke-linejoin: miter; stroke-linecap: square"/>
   </g>
   <g id="patch_29">
    <path d="M 44.83625 155.952 
L 256.87625 155.952 
" style="fill: none; stroke: #000000; stroke-width: 1.5; stroke-linejoin: miter; stroke-linecap: square"/>
   </g>
   <g id="patch_30">
    <path d="M 44.83625 0.72 
L 256.87625 0.72 
" style="fill: none; stroke: #000000; stroke-width: 1.5; stroke-linejoin: miter; stroke-linecap: square"/>
   </g>
  </g>
 </g>
 <defs>
  <clipPath id="p6d170ea538">
   <rect x="44.83625" y="0.72" width="212.04" height="155.232"/>
  </clipPath>
 </defs>
</svg>
