<?xml version="1.0" encoding="utf-8" standalone="no"?>
<!DOCTYPE svg PUBLIC "-//W3C//DTD SVG 1.1//EN"
  "http://www.w3.org/Graphics/SVG/1.1/DTD/svg11.dtd">
<svg xmlns:xlink="http://www.w3.org/1999/xlink" width="130.308pt" height="193.4335pt" viewBox="0 0 130.308 193.4335" xmlns="http://www.w3.org/2000/svg" version="1.1">
 <metadata>
  <rdf:RDF xmlns:dc="http://purl.org/dc/elements/1.1/" xmlns:cc="http://creativecommons.org/ns#" xmlns:rdf="http://www.w3.org/1999/02/22-rdf-syntax-ns#">
   <cc:Work>
    <dc:type rdf:resource="http://purl.org/dc/dcmitype/StillImage"/>
    <dc:date>2024-05-11T14:32:14.974578</dc:date>
    <dc:format>image/svg+xml</dc:format>
    <dc:creator>
     <cc:Agent>
      <dc:title>Matplotlib v3.5.1, https://matplotlib.org/</dc:title>
     </cc:Agent>
    </dc:creator>
   </cc:Work>
  </rdf:RDF>
 </metadata>
 <defs>
  <style type="text/css">*{stroke-linejoin: round; stroke-linecap: butt}</style>
 </defs>
 <g id="figure_1">
  <g id="patch_1">
   <path d="M 0 193.4335 
L 130.308 193.4335 
L 130.308 0 
L 0 0 
z
" style="fill: #ffffff"/>
  </g>
  <g id="axes_1">
   <g id="patch_2">
    <path d="M 9.06 176.104125 
L 129.588 176.104125 
L 129.588 15.328125 
L 9.06 15.328125 
L 9.06 176.104125 
z
" style="fill: none"/>
   </g>
   <g id="patch_3">
    <path d="M -24.42 23.366925 
L 54.753129 23.366925 
L 54.753129 39.444525 
L -24.42 39.444525 
z
" clip-path="url(#pe23c11bf19)" style="fill: #b9ccdd"/>
   </g>
   <g id="patch_4">
    <path d="M -24.42 103.754925 
L 62.010813 103.754925 
L 62.010813 119.832525 
L -24.42 119.832525 
z
" clip-path="url(#pe23c11bf19)" style="fill: #b9ccdd"/>
   </g>
   <g id="patch_5">
    <path d="M -24.42 39.444525 
L 54.753129 39.444525 
L 54.753129 55.522125 
L -24.42 55.522125 
z
" clip-path="url(#pe23c11bf19)" style="fill: #cfe6ca"/>
   </g>
   <g id="patch_6">
    <path d="M -24.42 119.832525 
L 62.010813 119.832525 
L 62.010813 135.910125 
L -24.42 135.910125 
z
" clip-path="url(#pe23c11bf19)" style="fill: #cfe6ca"/>
   </g>
   <g id="patch_7">
    <path d="M -24.42 55.522125 
L 54.753129 55.522125 
L 54.753129 71.599725 
L -24.42 71.599725 
z
" clip-path="url(#pe23c11bf19)" style="fill: #dccee1"/>
   </g>
   <g id="patch_8">
    <path d="M -24.42 135.910125 
L 54.753129 135.910125 
L 54.753129 151.987725 
L -24.42 151.987725 
z
" clip-path="url(#pe23c11bf19)" style="fill: #dccee1"/>
   </g>
   <g id="patch_9">
    <path d="M -24.42 71.599725 
L 67.358148 71.599725 
L 67.358148 87.677325 
L -24.42 87.677325 
z
" clip-path="url(#pe23c11bf19)" style="fill: #f1bcb8"/>
   </g>
   <g id="patch_10">
    <path d="M -24.42 151.987725 
L 119.119621 151.987725 
L 119.119621 168.065325 
L -24.42 168.065325 
z
" clip-path="url(#pe23c11bf19)" style="fill: #f1bcb8"/>
   </g>
   <g id="matplotlib.axis_1">
    <g id="xtick_1">
     <g id="line2d_1">
      <defs>
       <path id="mdcb991c00a" d="M 0 0 
L 0 2 
" style="stroke: #000000; stroke-width: 1.5"/>
      </defs>
      <g>
       <use xlink:href="#mdcb991c00a" x="9.06" y="176.104125" style="stroke: #000000; stroke-width: 1.5"/>
      </g>
     </g>
     <g id="text_1">
      <!-- 0.2 -->
      <g transform="translate(0.72 190.21225)scale(0.12 -0.12)">
       <defs>
        <path id="Helvetica-30" d="M 1731 4475 
Q 2600 4475 2988 3759 
Q 3288 3206 3288 2244 
Q 3288 1331 3016 734 
Q 2622 -122 1728 -122 
Q 922 -122 528 578 
Q 200 1163 200 2147 
Q 200 2909 397 3456 
Q 766 4475 1731 4475 
z
M 1725 391 
Q 2163 391 2422 778 
Q 2681 1166 2681 2222 
Q 2681 2984 2493 3476 
Q 2306 3969 1766 3969 
Q 1269 3969 1039 3501 
Q 809 3034 809 2125 
Q 809 1441 956 1025 
Q 1181 391 1725 391 
z
" transform="scale(0.015625)"/>
        <path id="Helvetica-2e" d="M 547 681 
L 1200 681 
L 1200 0 
L 547 0 
L 547 681 
z
" transform="scale(0.015625)"/>
        <path id="Helvetica-32" d="M 200 0 
Q 231 578 439 1006 
Q 647 1434 1250 1784 
L 1850 2131 
Q 2253 2366 2416 2531 
Q 2672 2791 2672 3125 
Q 2672 3516 2437 3745 
Q 2203 3975 1813 3975 
Q 1234 3975 1013 3538 
Q 894 3303 881 2888 
L 309 2888 
Q 319 3472 525 3841 
Q 891 4491 1816 4491 
Q 2584 4491 2939 4075 
Q 3294 3659 3294 3150 
Q 3294 2613 2916 2231 
Q 2697 2009 2131 1694 
L 1703 1456 
Q 1397 1288 1222 1134 
Q 909 863 828 531 
L 3272 531 
L 3272 0 
L 200 0 
z
" transform="scale(0.015625)"/>
       </defs>
       <use xlink:href="#Helvetica-30"/>
       <use xlink:href="#Helvetica-2e" x="55.615234"/>
       <use xlink:href="#Helvetica-32" x="83.398438"/>
      </g>
     </g>
    </g>
    <g id="xtick_2">
     <g id="line2d_2">
      <g>
       <use xlink:href="#mdcb991c00a" x="59.28" y="176.104125" style="stroke: #000000; stroke-width: 1.5"/>
      </g>
     </g>
     <g id="text_2">
      <!-- 0.5 -->
      <g transform="translate(50.94 190.21225)scale(0.12 -0.12)">
       <defs>
        <path id="Helvetica-35" d="M 791 1141 
Q 847 659 1238 475 
Q 1438 381 1700 381 
Q 2200 381 2440 700 
Q 2681 1019 2681 1406 
Q 2681 1875 2395 2131 
Q 2109 2388 1709 2388 
Q 1419 2388 1211 2275 
Q 1003 2163 856 1963 
L 369 1991 
L 709 4400 
L 3034 4400 
L 3034 3856 
L 1131 3856 
L 941 2613 
Q 1097 2731 1238 2791 
Q 1488 2894 1816 2894 
Q 2431 2894 2859 2497 
Q 3288 2100 3288 1491 
Q 3288 856 2895 371 
Q 2503 -113 1644 -113 
Q 1097 -113 676 195 
Q 256 503 206 1141 
L 791 1141 
z
" transform="scale(0.015625)"/>
       </defs>
       <use xlink:href="#Helvetica-30"/>
       <use xlink:href="#Helvetica-2e" x="55.615234"/>
       <use xlink:href="#Helvetica-35" x="83.398438"/>
      </g>
     </g>
    </g>
    <g id="xtick_3">
     <g id="line2d_3">
      <g>
       <use xlink:href="#mdcb991c00a" x="109.5" y="176.104125" style="stroke: #000000; stroke-width: 1.5"/>
      </g>
     </g>
     <g id="text_3">
      <!-- 0.8 -->
      <g transform="translate(101.16 190.21225)scale(0.12 -0.12)">
       <defs>
        <path id="Helvetica-38" d="M 1741 2600 
Q 2113 2600 2322 2808 
Q 2531 3016 2531 3303 
Q 2531 3553 2331 3762 
Q 2131 3972 1722 3972 
Q 1316 3972 1134 3762 
Q 953 3553 953 3272 
Q 953 2956 1187 2778 
Q 1422 2600 1741 2600 
z
M 1775 384 
Q 2166 384 2423 595 
Q 2681 806 2681 1225 
Q 2681 1659 2415 1884 
Q 2150 2109 1734 2109 
Q 1331 2109 1076 1879 
Q 822 1650 822 1244 
Q 822 894 1055 639 
Q 1288 384 1775 384 
z
M 975 2384 
Q 741 2484 609 2619 
Q 363 2869 363 3269 
Q 363 3769 725 4128 
Q 1088 4488 1753 4488 
Q 2397 4488 2762 4148 
Q 3128 3809 3128 3356 
Q 3128 2938 2916 2678 
Q 2797 2531 2547 2391 
Q 2825 2263 2984 2097 
Q 3281 1784 3281 1284 
Q 3281 694 2884 283 
Q 2488 -128 1763 -128 
Q 1109 -128 657 226 
Q 206 581 206 1256 
Q 206 1653 400 1942 
Q 594 2231 975 2384 
z
" transform="scale(0.015625)"/>
       </defs>
       <use xlink:href="#Helvetica-30"/>
       <use xlink:href="#Helvetica-2e" x="55.615234"/>
       <use xlink:href="#Helvetica-38" x="83.398438"/>
      </g>
     </g>
    </g>
   </g>
   <g id="matplotlib.axis_2">
    <g id="ytick_1">
     <g id="line2d_4">
      <defs>
       <path id="m175f30874d" d="M 0 0 
L -2 0 
" style="stroke: #000000; stroke-width: 1.5"/>
      </defs>
      <g>
       <use xlink:href="#m175f30874d" x="9.06" y="55.522125" style="stroke: #000000; stroke-width: 1.5"/>
      </g>
     </g>
    </g>
    <g id="ytick_2">
     <g id="line2d_5">
      <g>
       <use xlink:href="#m175f30874d" x="9.06" y="135.910125" style="stroke: #000000; stroke-width: 1.5"/>
      </g>
     </g>
    </g>
   </g>
   <g id="line2d_6">
    <path d="M 53.879282 31.405725 
L 55.526304 31.405725 
" clip-path="url(#pe23c11bf19)" style="fill: none; stroke: #424242; stroke-width: 2.7; stroke-linecap: square"/>
   </g>
   <g id="line2d_7">
    <path d="M 55.948772 111.793725 
L 68.542776 111.793725 
" clip-path="url(#pe23c11bf19)" style="fill: none; stroke: #424242; stroke-width: 2.7; stroke-linecap: square"/>
   </g>
   <g id="line2d_8">
    <path d="M 53.932867 47.483325 
L 55.522072 47.483325 
" clip-path="url(#pe23c11bf19)" style="fill: none; stroke: #424242; stroke-width: 2.7; stroke-linecap: square"/>
   </g>
   <g id="line2d_9">
    <path d="M 56.051389 127.871325 
L 68.002155 127.871325 
" clip-path="url(#pe23c11bf19)" style="fill: none; stroke: #424242; stroke-width: 2.7; stroke-linecap: square"/>
   </g>
   <g id="line2d_10">
    <path d="M 53.979559 63.560925 
L 55.607366 63.560925 
" clip-path="url(#pe23c11bf19)" style="fill: none; stroke: #424242; stroke-width: 2.7; stroke-linecap: square"/>
   </g>
   <g id="line2d_11">
    <path d="M 53.920791 143.948925 
L 55.567899 143.948925 
" clip-path="url(#pe23c11bf19)" style="fill: none; stroke: #424242; stroke-width: 2.7; stroke-linecap: square"/>
   </g>
   <g id="line2d_12">
    <path d="M 63.349638 79.638525 
L 70.926588 79.638525 
" clip-path="url(#pe23c11bf19)" style="fill: none; stroke: #424242; stroke-width: 2.7; stroke-linecap: square"/>
   </g>
   <g id="line2d_13">
    <path d="M 112.442561 160.026525 
L 126.578505 160.026525 
" clip-path="url(#pe23c11bf19)" style="fill: none; stroke: #424242; stroke-width: 2.7; stroke-linecap: square"/>
   </g>
   <g id="patch_11">
    <path d="M 9.06 176.104125 
L 9.06 15.328125 
" style="fill: none; stroke: #000000; stroke-width: 1.5; stroke-linejoin: miter; stroke-linecap: square"/>
   </g>
   <g id="patch_12">
    <path d="M 9.06 176.104125 
L 129.588 176.104125 
" style="fill: none; stroke: #000000; stroke-width: 1.5; stroke-linejoin: miter; stroke-linecap: square"/>
   </g>
   <g id="text_4">
    <!-- 0.473 -->
    <g transform="translate(18.753129 33.950256)scale(0.1 -0.1)">
     <defs>
      <path id="Helvetica-34" d="M 2116 1584 
L 2116 3613 
L 681 1584 
L 2116 1584 
z
M 2125 0 
L 2125 1094 
L 163 1094 
L 163 1644 
L 2213 4488 
L 2688 4488 
L 2688 1584 
L 3347 1584 
L 3347 1094 
L 2688 1094 
L 2688 0 
L 2125 0 
z
" transform="scale(0.015625)"/>
      <path id="Helvetica-37" d="M 3347 4400 
L 3347 3909 
Q 3131 3700 2773 3181 
Q 2416 2663 2141 2063 
Q 1869 1478 1728 997 
Q 1638 688 1494 0 
L 872 0 
Q 1084 1281 1809 2550 
Q 2238 3294 2709 3834 
L 234 3834 
L 234 4400 
L 3347 4400 
z
" transform="scale(0.015625)"/>
      <path id="Helvetica-33" d="M 1663 -122 
Q 869 -122 511 314 
Q 153 750 153 1375 
L 741 1375 
Q 778 941 903 744 
Q 1122 391 1694 391 
Q 2138 391 2406 628 
Q 2675 866 2675 1241 
Q 2675 1703 2392 1887 
Q 2109 2072 1606 2072 
Q 1550 2072 1492 2070 
Q 1434 2069 1375 2066 
L 1375 2563 
Q 1463 2553 1522 2550 
Q 1581 2547 1650 2547 
Q 1966 2547 2169 2647 
Q 2525 2822 2525 3272 
Q 2525 3606 2287 3787 
Q 2050 3969 1734 3969 
Q 1172 3969 956 3594 
Q 838 3388 822 3006 
L 266 3006 
Q 266 3506 466 3856 
Q 809 4481 1675 4481 
Q 2359 4481 2734 4176 
Q 3109 3872 3109 3294 
Q 3109 2881 2888 2625 
Q 2750 2466 2531 2375 
Q 2884 2278 3082 2001 
Q 3281 1725 3281 1325 
Q 3281 684 2859 281 
Q 2438 -122 1663 -122 
z
" transform="scale(0.015625)"/>
     </defs>
     <use xlink:href="#Helvetica-30"/>
     <use xlink:href="#Helvetica-2e" x="55.615234"/>
     <use xlink:href="#Helvetica-34" x="83.398438"/>
     <use xlink:href="#Helvetica-37" x="139.013672"/>
     <use xlink:href="#Helvetica-33" x="194.628906"/>
    </g>
   </g>
   <g id="text_5">
    <!-- 0.516 -->
    <g transform="translate(26.010813 114.338256)scale(0.1 -0.1)">
     <defs>
      <path id="Helvetica-31" d="M 613 3169 
L 613 3600 
Q 1222 3659 1462 3798 
Q 1703 3938 1822 4456 
L 2266 4456 
L 2266 0 
L 1666 0 
L 1666 3169 
L 613 3169 
z
" transform="scale(0.015625)"/>
      <path id="Helvetica-36" d="M 1872 4494 
Q 2622 4494 2917 4105 
Q 3213 3716 3213 3303 
L 2656 3303 
Q 2606 3569 2497 3719 
Q 2294 4000 1881 4000 
Q 1409 4000 1131 3564 
Q 853 3128 822 2316 
Q 1016 2600 1309 2741 
Q 1578 2866 1909 2866 
Q 2472 2866 2890 2506 
Q 3309 2147 3309 1434 
Q 3309 825 2912 354 
Q 2516 -116 1781 -116 
Q 1153 -116 697 361 
Q 241 838 241 1966 
Q 241 2800 444 3381 
Q 834 4494 1872 4494 
z
M 1831 384 
Q 2275 384 2495 682 
Q 2716 981 2716 1388 
Q 2716 1731 2519 2042 
Q 2322 2353 1803 2353 
Q 1441 2353 1167 2112 
Q 894 1872 894 1388 
Q 894 963 1142 673 
Q 1391 384 1831 384 
z
" transform="scale(0.015625)"/>
     </defs>
     <use xlink:href="#Helvetica-30"/>
     <use xlink:href="#Helvetica-2e" x="55.615234"/>
     <use xlink:href="#Helvetica-35" x="83.398438"/>
     <use xlink:href="#Helvetica-31" x="139.013672"/>
     <use xlink:href="#Helvetica-36" x="194.628906"/>
    </g>
   </g>
   <g id="text_6">
    <!-- 0.473 -->
    <g transform="translate(18.753129 50.027856)scale(0.1 -0.1)">
     <use xlink:href="#Helvetica-30"/>
     <use xlink:href="#Helvetica-2e" x="55.615234"/>
     <use xlink:href="#Helvetica-34" x="83.398438"/>
     <use xlink:href="#Helvetica-37" x="139.013672"/>
     <use xlink:href="#Helvetica-33" x="194.628906"/>
    </g>
   </g>
   <g id="text_7">
    <!-- 0.516 -->
    <g transform="translate(26.010813 130.415856)scale(0.1 -0.1)">
     <use xlink:href="#Helvetica-30"/>
     <use xlink:href="#Helvetica-2e" x="55.615234"/>
     <use xlink:href="#Helvetica-35" x="83.398438"/>
     <use xlink:href="#Helvetica-31" x="139.013672"/>
     <use xlink:href="#Helvetica-36" x="194.628906"/>
    </g>
   </g>
   <g id="text_8">
    <!-- 0.473 -->
    <g transform="translate(18.753129 66.105456)scale(0.1 -0.1)">
     <use xlink:href="#Helvetica-30"/>
     <use xlink:href="#Helvetica-2e" x="55.615234"/>
     <use xlink:href="#Helvetica-34" x="83.398438"/>
     <use xlink:href="#Helvetica-37" x="139.013672"/>
     <use xlink:href="#Helvetica-33" x="194.628906"/>
    </g>
   </g>
   <g id="text_9">
    <!-- 0.473 -->
    <g transform="translate(18.753129 146.493456)scale(0.1 -0.1)">
     <use xlink:href="#Helvetica-30"/>
     <use xlink:href="#Helvetica-2e" x="55.615234"/>
     <use xlink:href="#Helvetica-34" x="83.398438"/>
     <use xlink:href="#Helvetica-37" x="139.013672"/>
     <use xlink:href="#Helvetica-33" x="194.628906"/>
    </g>
   </g>
   <g id="text_10">
    <!-- 0.548 -->
    <g transform="translate(31.358148 82.183056)scale(0.1 -0.1)">
     <use xlink:href="#Helvetica-30"/>
     <use xlink:href="#Helvetica-2e" x="55.615234"/>
     <use xlink:href="#Helvetica-35" x="83.398438"/>
     <use xlink:href="#Helvetica-34" x="139.013672"/>
     <use xlink:href="#Helvetica-38" x="194.628906"/>
    </g>
   </g>
   <g id="text_11">
    <!-- 0.857 -->
    <g transform="translate(83.119621 162.571056)scale(0.1 -0.1)">
     <use xlink:href="#Helvetica-30"/>
     <use xlink:href="#Helvetica-2e" x="55.615234"/>
     <use xlink:href="#Helvetica-38" x="83.398438"/>
     <use xlink:href="#Helvetica-35" x="139.013672"/>
     <use xlink:href="#Helvetica-37" x="194.628906"/>
    </g>
   </g>
   <g id="text_12">
    <!-- P-value -->
    <g transform="translate(79.155656 17.872656)scale(0.1 -0.1)">
     <defs>
      <path id="Helvetica-50" d="M 547 4591 
L 2613 4591 
Q 3225 4591 3600 4245 
Q 3975 3900 3975 3275 
Q 3975 2738 3640 2339 
Q 3306 1941 2613 1941 
L 1169 1941 
L 1169 0 
L 547 0 
L 547 4591 
z
M 3347 3272 
Q 3347 3778 2972 3959 
Q 2766 4056 2406 4056 
L 1169 4056 
L 1169 2466 
L 2406 2466 
Q 2825 2466 3086 2644 
Q 3347 2822 3347 3272 
z
" transform="scale(0.015625)"/>
      <path id="Helvetica-2d" d="M 266 2072 
L 1834 2072 
L 1834 1494 
L 266 1494 
L 266 2072 
z
" transform="scale(0.015625)"/>
      <path id="Helvetica-76" d="M 688 3347 
L 1581 622 
L 2516 3347 
L 3131 3347 
L 1869 0 
L 1269 0 
L 34 3347 
L 688 3347 
z
" transform="scale(0.015625)"/>
      <path id="Helvetica-61" d="M 844 891 
Q 844 647 1022 506 
Q 1200 366 1444 366 
Q 1741 366 2019 503 
Q 2488 731 2488 1250 
L 2488 1703 
Q 2384 1638 2221 1594 
Q 2059 1550 1903 1531 
L 1563 1488 
Q 1256 1447 1103 1359 
Q 844 1213 844 891 
z
M 2206 2028 
Q 2400 2053 2466 2191 
Q 2503 2266 2503 2406 
Q 2503 2694 2298 2823 
Q 2094 2953 1713 2953 
Q 1272 2953 1088 2716 
Q 984 2584 953 2325 
L 428 2325 
Q 444 2944 830 3186 
Q 1216 3428 1725 3428 
Q 2316 3428 2684 3203 
Q 3050 2978 3050 2503 
L 3050 575 
Q 3050 488 3086 434 
Q 3122 381 3238 381 
Q 3275 381 3322 386 
Q 3369 391 3422 400 
L 3422 -16 
Q 3291 -53 3222 -62 
Q 3153 -72 3034 -72 
Q 2744 -72 2613 134 
Q 2544 244 2516 444 
Q 2344 219 2022 53 
Q 1700 -113 1313 -113 
Q 847 -113 551 170 
Q 256 453 256 878 
Q 256 1344 547 1600 
Q 838 1856 1309 1916 
L 2206 2028 
z
M 1741 3428 
L 1741 3428 
z
" transform="scale(0.015625)"/>
      <path id="Helvetica-6c" d="M 428 4591 
L 991 4591 
L 991 0 
L 428 0 
L 428 4591 
z
" transform="scale(0.015625)"/>
      <path id="Helvetica-75" d="M 975 3347 
L 975 1125 
Q 975 869 1056 706 
Q 1206 406 1616 406 
Q 2203 406 2416 931 
Q 2531 1213 2531 1703 
L 2531 3347 
L 3094 3347 
L 3094 0 
L 2563 0 
L 2569 494 
Q 2459 303 2297 172 
Q 1975 -91 1516 -91 
Q 800 -91 541 388 
Q 400 644 400 1072 
L 400 3347 
L 975 3347 
z
M 1747 3428 
L 1747 3428 
z
" transform="scale(0.015625)"/>
      <path id="Helvetica-65" d="M 1806 3422 
Q 2163 3422 2497 3255 
Q 2831 3088 3006 2822 
Q 3175 2569 3231 2231 
Q 3281 2000 3281 1494 
L 828 1494 
Q 844 984 1069 676 
Q 1294 369 1766 369 
Q 2206 369 2469 659 
Q 2619 828 2681 1050 
L 3234 1050 
Q 3213 866 3089 639 
Q 2966 413 2813 269 
Q 2556 19 2178 -69 
Q 1975 -119 1719 -119 
Q 1094 -119 659 336 
Q 225 791 225 1609 
Q 225 2416 662 2919 
Q 1100 3422 1806 3422 
z
M 2703 1941 
Q 2669 2306 2544 2525 
Q 2313 2931 1772 2931 
Q 1384 2931 1121 2651 
Q 859 2372 844 1941 
L 2703 1941 
z
M 1753 3428 
L 1753 3428 
z
" transform="scale(0.015625)"/>
     </defs>
     <use xlink:href="#Helvetica-50"/>
     <use xlink:href="#Helvetica-2d" x="66.699219"/>
     <use xlink:href="#Helvetica-76" x="100"/>
     <use xlink:href="#Helvetica-61" x="150"/>
     <use xlink:href="#Helvetica-6c" x="205.615234"/>
     <use xlink:href="#Helvetica-75" x="227.832031"/>
     <use xlink:href="#Helvetica-65" x="283.447266"/>
    </g>
   </g>
   <g id="text_13">
    <!-- P-value -->
    <g transform="translate(79.155656 98.260656)scale(0.1 -0.1)">
     <use xlink:href="#Helvetica-50"/>
     <use xlink:href="#Helvetica-2d" x="66.699219"/>
     <use xlink:href="#Helvetica-76" x="100"/>
     <use xlink:href="#Helvetica-61" x="150"/>
     <use xlink:href="#Helvetica-6c" x="205.615234"/>
     <use xlink:href="#Helvetica-75" x="227.832031"/>
     <use xlink:href="#Helvetica-65" x="283.447266"/>
    </g>
   </g>
   <g id="text_14">
    <!-- - - - - - - - - - - - - - - - - -->
    <g transform="translate(69.4705 22.89031)scale(0.1 -0.1)">
     <use xlink:href="#Helvetica-2d"/>
     <use xlink:href="#Helvetica-2d" x="33.300781"/>
     <use xlink:href="#Helvetica-2d" x="66.601562"/>
     <use xlink:href="#Helvetica-2d" x="99.902344"/>
     <use xlink:href="#Helvetica-2d" x="133.203125"/>
     <use xlink:href="#Helvetica-2d" x="166.503906"/>
     <use xlink:href="#Helvetica-2d" x="199.804688"/>
     <use xlink:href="#Helvetica-2d" x="233.105469"/>
     <use xlink:href="#Helvetica-2d" x="266.40625"/>
     <use xlink:href="#Helvetica-2d" x="299.707031"/>
     <use xlink:href="#Helvetica-2d" x="333.007812"/>
     <use xlink:href="#Helvetica-2d" x="366.308594"/>
     <use xlink:href="#Helvetica-2d" x="399.609375"/>
     <use xlink:href="#Helvetica-2d" x="432.910156"/>
     <use xlink:href="#Helvetica-2d" x="466.210938"/>
     <use xlink:href="#Helvetica-2d" x="499.511719"/>
    </g>
   </g>
   <g id="text_15">
    <!-- - - - - - - - - - - - - - - - - -->
    <g transform="translate(69.4705 103.27831)scale(0.1 -0.1)">
     <use xlink:href="#Helvetica-2d"/>
     <use xlink:href="#Helvetica-2d" x="33.300781"/>
     <use xlink:href="#Helvetica-2d" x="66.601562"/>
     <use xlink:href="#Helvetica-2d" x="99.902344"/>
     <use xlink:href="#Helvetica-2d" x="133.203125"/>
     <use xlink:href="#Helvetica-2d" x="166.503906"/>
     <use xlink:href="#Helvetica-2d" x="199.804688"/>
     <use xlink:href="#Helvetica-2d" x="233.105469"/>
     <use xlink:href="#Helvetica-2d" x="266.40625"/>
     <use xlink:href="#Helvetica-2d" x="299.707031"/>
     <use xlink:href="#Helvetica-2d" x="333.007812"/>
     <use xlink:href="#Helvetica-2d" x="366.308594"/>
     <use xlink:href="#Helvetica-2d" x="399.609375"/>
     <use xlink:href="#Helvetica-2d" x="432.910156"/>
     <use xlink:href="#Helvetica-2d" x="466.210938"/>
     <use xlink:href="#Helvetica-2d" x="499.511719"/>
    </g>
   </g>
   <g id="text_16">
    <!-- 1.54e-04 -->
    <g transform="translate(76.371281 33.950256)scale(0.1 -0.1)">
     <use xlink:href="#Helvetica-31"/>
     <use xlink:href="#Helvetica-2e" x="55.615234"/>
     <use xlink:href="#Helvetica-35" x="83.398438"/>
     <use xlink:href="#Helvetica-34" x="139.013672"/>
     <use xlink:href="#Helvetica-65" x="194.628906"/>
     <use xlink:href="#Helvetica-2d" x="250.244141"/>
     <use xlink:href="#Helvetica-30" x="283.544922"/>
     <use xlink:href="#Helvetica-34" x="339.160156"/>
    </g>
   </g>
   <g id="text_17">
    <!-- 1.21e-08 -->
    <g transform="translate(76.371281 114.338256)scale(0.1 -0.1)">
     <use xlink:href="#Helvetica-31"/>
     <use xlink:href="#Helvetica-2e" x="55.615234"/>
     <use xlink:href="#Helvetica-32" x="83.398438"/>
     <use xlink:href="#Helvetica-31" x="139.013672"/>
     <use xlink:href="#Helvetica-65" x="194.628906"/>
     <use xlink:href="#Helvetica-2d" x="250.244141"/>
     <use xlink:href="#Helvetica-30" x="283.544922"/>
     <use xlink:href="#Helvetica-38" x="339.160156"/>
    </g>
   </g>
   <g id="text_18">
    <!-- 1.54e-04 -->
    <g transform="translate(76.371281 50.027856)scale(0.1 -0.1)">
     <use xlink:href="#Helvetica-31"/>
     <use xlink:href="#Helvetica-2e" x="55.615234"/>
     <use xlink:href="#Helvetica-35" x="83.398438"/>
     <use xlink:href="#Helvetica-34" x="139.013672"/>
     <use xlink:href="#Helvetica-65" x="194.628906"/>
     <use xlink:href="#Helvetica-2d" x="250.244141"/>
     <use xlink:href="#Helvetica-30" x="283.544922"/>
     <use xlink:href="#Helvetica-34" x="339.160156"/>
    </g>
   </g>
   <g id="text_19">
    <!-- 1.21e-08 -->
    <g transform="translate(76.371281 130.415856)scale(0.1 -0.1)">
     <use xlink:href="#Helvetica-31"/>
     <use xlink:href="#Helvetica-2e" x="55.615234"/>
     <use xlink:href="#Helvetica-32" x="83.398438"/>
     <use xlink:href="#Helvetica-31" x="139.013672"/>
     <use xlink:href="#Helvetica-65" x="194.628906"/>
     <use xlink:href="#Helvetica-2d" x="250.244141"/>
     <use xlink:href="#Helvetica-30" x="283.544922"/>
     <use xlink:href="#Helvetica-38" x="339.160156"/>
    </g>
   </g>
   <g id="text_20">
    <!-- 1.54e-04 -->
    <g transform="translate(76.371281 66.105456)scale(0.1 -0.1)">
     <use xlink:href="#Helvetica-31"/>
     <use xlink:href="#Helvetica-2e" x="55.615234"/>
     <use xlink:href="#Helvetica-35" x="83.398438"/>
     <use xlink:href="#Helvetica-34" x="139.013672"/>
     <use xlink:href="#Helvetica-65" x="194.628906"/>
     <use xlink:href="#Helvetica-2d" x="250.244141"/>
     <use xlink:href="#Helvetica-30" x="283.544922"/>
     <use xlink:href="#Helvetica-34" x="339.160156"/>
    </g>
   </g>
   <g id="text_21">
    <!-- 2.01e-08 -->
    <g transform="translate(76.371281 146.493456)scale(0.1 -0.1)">
     <use xlink:href="#Helvetica-32"/>
     <use xlink:href="#Helvetica-2e" x="55.615234"/>
     <use xlink:href="#Helvetica-30" x="83.398438"/>
     <use xlink:href="#Helvetica-31" x="139.013672"/>
     <use xlink:href="#Helvetica-65" x="194.628906"/>
     <use xlink:href="#Helvetica-2d" x="250.244141"/>
     <use xlink:href="#Helvetica-30" x="283.544922"/>
     <use xlink:href="#Helvetica-38" x="339.160156"/>
    </g>
   </g>
   <g id="text_22">
    <!-- F1-score -->
    <g transform="translate(45.654 9.328125)scale(0.12 -0.12)">
     <defs>
      <path id="Helvetica-46" d="M 547 4591 
L 3731 4591 
L 3731 4028 
L 1169 4028 
L 1169 2634 
L 3422 2634 
L 3422 2088 
L 1169 2088 
L 1169 0 
L 547 0 
L 547 4591 
z
" transform="scale(0.015625)"/>
      <path id="Helvetica-73" d="M 747 1050 
Q 772 769 888 619 
Q 1100 347 1625 347 
Q 1938 347 2175 483 
Q 2413 619 2413 903 
Q 2413 1119 2222 1231 
Q 2100 1300 1741 1391 
L 1294 1503 
Q 866 1609 663 1741 
Q 300 1969 300 2372 
Q 300 2847 642 3140 
Q 984 3434 1563 3434 
Q 2319 3434 2653 2991 
Q 2863 2709 2856 2384 
L 2325 2384 
Q 2309 2575 2191 2731 
Q 1997 2953 1519 2953 
Q 1200 2953 1036 2831 
Q 872 2709 872 2509 
Q 872 2291 1088 2159 
Q 1213 2081 1456 2022 
L 1828 1931 
Q 2434 1784 2641 1647 
Q 2969 1431 2969 969 
Q 2969 522 2630 197 
Q 2291 -128 1597 -128 
Q 850 -128 539 211 
Q 228 550 206 1050 
L 747 1050 
z
M 1578 3428 
L 1578 3428 
z
" transform="scale(0.015625)"/>
      <path id="Helvetica-63" d="M 1703 3444 
Q 2269 3444 2623 3169 
Q 2978 2894 3050 2222 
L 2503 2222 
Q 2453 2531 2275 2736 
Q 2097 2941 1703 2941 
Q 1166 2941 934 2416 
Q 784 2075 784 1575 
Q 784 1072 996 728 
Q 1209 384 1666 384 
Q 2016 384 2220 598 
Q 2425 813 2503 1184 
L 3050 1184 
Q 2956 519 2581 211 
Q 2206 -97 1622 -97 
Q 966 -97 575 383 
Q 184 863 184 1581 
Q 184 2463 612 2953 
Q 1041 3444 1703 3444 
z
M 1616 3428 
L 1616 3428 
z
" transform="scale(0.015625)"/>
      <path id="Helvetica-6f" d="M 1741 363 
Q 2300 363 2508 786 
Q 2716 1209 2716 1728 
Q 2716 2197 2566 2491 
Q 2328 2953 1747 2953 
Q 1231 2953 997 2559 
Q 763 2166 763 1609 
Q 763 1075 997 719 
Q 1231 363 1741 363 
z
M 1763 3444 
Q 2409 3444 2856 3012 
Q 3303 2581 3303 1744 
Q 3303 934 2909 406 
Q 2516 -122 1688 -122 
Q 997 -122 590 345 
Q 184 813 184 1600 
Q 184 2444 612 2944 
Q 1041 3444 1763 3444 
z
M 1744 3428 
L 1744 3428 
z
" transform="scale(0.015625)"/>
      <path id="Helvetica-72" d="M 428 3347 
L 963 3347 
L 963 2769 
Q 1028 2938 1284 3180 
Q 1541 3422 1875 3422 
Q 1891 3422 1928 3419 
Q 1966 3416 2056 3406 
L 2056 2813 
Q 2006 2822 1964 2825 
Q 1922 2828 1872 2828 
Q 1447 2828 1219 2554 
Q 991 2281 991 1925 
L 991 0 
L 428 0 
L 428 3347 
z
" transform="scale(0.015625)"/>
     </defs>
     <use xlink:href="#Helvetica-46"/>
     <use xlink:href="#Helvetica-31" x="61.083984"/>
     <use xlink:href="#Helvetica-2d" x="116.699219"/>
     <use xlink:href="#Helvetica-73" x="150"/>
     <use xlink:href="#Helvetica-63" x="200"/>
     <use xlink:href="#Helvetica-6f" x="250"/>
     <use xlink:href="#Helvetica-72" x="305.615234"/>
     <use xlink:href="#Helvetica-65" x="338.916016"/>
    </g>
   </g>
  </g>
 </g>
 <defs>
  <clipPath id="pe23c11bf19">
   <rect x="9.06" y="15.328125" width="120.528" height="160.776"/>
  </clipPath>
 </defs>
</svg>
