<?xml version="1.0" encoding="utf-8" standalone="no"?>
<!DOCTYPE svg PUBLIC "-//W3C//DTD SVG 1.1//EN"
  "http://www.w3.org/Graphics/SVG/1.1/DTD/svg11.dtd">
<svg xmlns:xlink="http://www.w3.org/1999/xlink" width="202.841875pt" height="220.525897pt" viewBox="0 0 202.841875 220.525897" xmlns="http://www.w3.org/2000/svg" version="1.1">
 <metadata>
  <rdf:RDF xmlns:dc="http://purl.org/dc/elements/1.1/" xmlns:cc="http://creativecommons.org/ns#" xmlns:rdf="http://www.w3.org/1999/02/22-rdf-syntax-ns#">
   <cc:Work>
    <dc:type rdf:resource="http://purl.org/dc/dcmitype/StillImage"/>
    <dc:date>2024-10-19T02:25:03.097289</dc:date>
    <dc:format>image/svg+xml</dc:format>
    <dc:creator>
     <cc:Agent>
      <dc:title>Matplotlib v3.5.1, https://matplotlib.org/</dc:title>
     </cc:Agent>
    </dc:creator>
   </cc:Work>
  </rdf:RDF>
 </metadata>
 <defs>
  <style type="text/css">*{stroke-linejoin: round; stroke-linecap: butt}</style>
 </defs>
 <g id="figure_1">
  <g id="patch_1">
   <path d="M 0 220.525897 
L 202.841875 220.525897 
L 202.841875 0 
L 0 0 
L 0 220.525897 
z
" style="fill: none"/>
  </g>
  <g id="axes_1">
   <g id="patch_2">
    <path d="M 23.561875 99.489035 
L 202.121875 99.489035 
L 202.121875 0.72 
L 23.561875 0.72 
z
" style="fill: #ffffff"/>
   </g>
   <g id="PathCollection_1">
    <defs>
     <path id="C0_0_9a3dabae38" d="M 0 3 
C 0.795609 3 1.55874 2.683901 2.12132 2.12132 
C 2.683901 1.55874 3 0.795609 3 -0 
C 3 -0.795609 2.683901 -1.55874 2.12132 -2.12132 
C 1.55874 -2.683901 0.795609 -3 0 -3 
C -0.795609 -3 -1.55874 -2.683901 -2.12132 -2.12132 
C -2.683901 -1.55874 -3 -0.795609 -3 0 
C -3 0.795609 -2.683901 1.55874 -2.12132 2.12132 
C -1.55874 2.683901 -0.795609 3 0 3 
z
"/>
    </defs>
    <g clip-path="url(#pba9e16505c)">
     <use xlink:href="#C0_0_9a3dabae38" x="46.595325" y="38.967797" style="fill: #e6a8a5; stroke: #ffffff; stroke-width: 0.48"/>
    </g>
    <g clip-path="url(#pba9e16505c)">
     <use xlink:href="#C0_0_9a3dabae38" x="50.566636" y="23.63794" style="fill: #e6a8a5; stroke: #ffffff; stroke-width: 0.48"/>
    </g>
    <g clip-path="url(#pba9e16505c)">
     <use xlink:href="#C0_0_9a3dabae38" x="46.053295" y="28.866298" style="fill: #e6a8a5; stroke: #ffffff; stroke-width: 0.48"/>
    </g>
    <g clip-path="url(#pba9e16505c)">
     <use xlink:href="#C0_0_9a3dabae38" x="104.68395" y="62.501121" style="fill: #e6a8a5; stroke: #ffffff; stroke-width: 0.48"/>
    </g>
    <g clip-path="url(#pba9e16505c)">
     <use xlink:href="#C0_0_9a3dabae38" x="106.256776" y="64.833029" style="fill: #e6a8a5; stroke: #ffffff; stroke-width: 0.48"/>
    </g>
    <g clip-path="url(#pba9e16505c)">
     <use xlink:href="#C0_0_9a3dabae38" x="52.621513" y="55.319247" style="fill: #e6a8a5; stroke: #ffffff; stroke-width: 0.48"/>
    </g>
    <g clip-path="url(#pba9e16505c)">
     <use xlink:href="#C0_0_9a3dabae38" x="100.961042" y="46.100087" style="fill: #e6a8a5; stroke: #ffffff; stroke-width: 0.48"/>
    </g>
    <g clip-path="url(#pba9e16505c)">
     <use xlink:href="#C0_0_9a3dabae38" x="180.498508" y="43.714304" style="fill: #e6a8a5; stroke: #ffffff; stroke-width: 0.48"/>
    </g>
    <g clip-path="url(#pba9e16505c)">
     <use xlink:href="#C0_0_9a3dabae38" x="86.847776" y="41.100262" style="fill: #e6a8a5; stroke: #ffffff; stroke-width: 0.48"/>
    </g>
    <g clip-path="url(#pba9e16505c)">
     <use xlink:href="#C0_0_9a3dabae38" x="72.611343" y="30.853636" style="fill: #e6a8a5; stroke: #ffffff; stroke-width: 0.48"/>
    </g>
    <g clip-path="url(#pba9e16505c)">
     <use xlink:href="#C0_0_9a3dabae38" x="195.778795" y="75.464046" style="fill: #e6a8a5; stroke: #ffffff; stroke-width: 0.48"/>
    </g>
    <g clip-path="url(#pba9e16505c)">
     <use xlink:href="#C0_0_9a3dabae38" x="179.08658" y="46.452487" style="fill: #e6a8a5; stroke: #ffffff; stroke-width: 0.48"/>
    </g>
    <g clip-path="url(#pba9e16505c)">
     <use xlink:href="#C0_0_9a3dabae38" x="60.434605" y="34.246173" style="fill: #e6a8a5; stroke: #ffffff; stroke-width: 0.48"/>
    </g>
    <g clip-path="url(#pba9e16505c)">
     <use xlink:href="#C0_0_9a3dabae38" x="65.649388" y="24.453595" style="fill: #e6a8a5; stroke: #ffffff; stroke-width: 0.48"/>
    </g>
    <g clip-path="url(#pba9e16505c)">
     <use xlink:href="#C0_0_9a3dabae38" x="74.26445" y="51.000831" style="fill: #e6a8a5; stroke: #ffffff; stroke-width: 0.48"/>
    </g>
    <g clip-path="url(#pba9e16505c)">
     <use xlink:href="#C0_0_9a3dabae38" x="106.5428" y="52.176053" style="fill: #e6a8a5; stroke: #ffffff; stroke-width: 0.48"/>
    </g>
    <g clip-path="url(#pba9e16505c)">
     <use xlink:href="#C0_0_9a3dabae38" x="65.609894" y="37.131848" style="fill: #e6a8a5; stroke: #ffffff; stroke-width: 0.48"/>
    </g>
    <g clip-path="url(#pba9e16505c)">
     <use xlink:href="#C0_0_9a3dabae38" x="54.928856" y="47.898981" style="fill: #e6a8a5; stroke: #ffffff; stroke-width: 0.48"/>
    </g>
    <g clip-path="url(#pba9e16505c)">
     <use xlink:href="#C0_0_9a3dabae38" x="75.8092" y="47.362918" style="fill: #e6a8a5; stroke: #ffffff; stroke-width: 0.48"/>
    </g>
    <g clip-path="url(#pba9e16505c)">
     <use xlink:href="#C0_0_9a3dabae38" x="57.239226" y="20.662556" style="fill: #e6a8a5; stroke: #ffffff; stroke-width: 0.48"/>
    </g>
    <g clip-path="url(#pba9e16505c)">
     <use xlink:href="#C0_0_9a3dabae38" x="85.87147" y="38.8884" style="fill: #e6a8a5; stroke: #ffffff; stroke-width: 0.48"/>
    </g>
    <g clip-path="url(#pba9e16505c)">
     <use xlink:href="#C0_0_9a3dabae38" x="119.671288" y="24.794295" style="fill: #e6a8a5; stroke: #ffffff; stroke-width: 0.48"/>
    </g>
    <g clip-path="url(#pba9e16505c)">
     <use xlink:href="#C0_0_9a3dabae38" x="60.04383" y="54.761434" style="fill: #e6a8a5; stroke: #ffffff; stroke-width: 0.48"/>
    </g>
    <g clip-path="url(#pba9e16505c)">
     <use xlink:href="#C0_0_9a3dabae38" x="154.638645" y="44.764678" style="fill: #e6a8a5; stroke: #ffffff; stroke-width: 0.48"/>
    </g>
    <g clip-path="url(#pba9e16505c)">
     <use xlink:href="#C0_0_9a3dabae38" x="98.397024" y="60.103515" style="fill: #e6a8a5; stroke: #ffffff; stroke-width: 0.48"/>
    </g>
    <g clip-path="url(#pba9e16505c)">
     <use xlink:href="#C0_0_9a3dabae38" x="55.210253" y="43.245882" style="fill: #e6a8a5; stroke: #ffffff; stroke-width: 0.48"/>
    </g>
    <g clip-path="url(#pba9e16505c)">
     <use xlink:href="#C0_0_9a3dabae38" x="141.958461" y="34.044844" style="fill: #e6a8a5; stroke: #ffffff; stroke-width: 0.48"/>
    </g>
    <g clip-path="url(#pba9e16505c)">
     <use xlink:href="#C0_0_9a3dabae38" x="195.228511" y="70.171082" style="fill: #e6a8a5; stroke: #ffffff; stroke-width: 0.48"/>
    </g>
    <g clip-path="url(#pba9e16505c)">
     <use xlink:href="#C0_0_9a3dabae38" x="101.916426" y="54.26856" style="fill: #e6a8a5; stroke: #ffffff; stroke-width: 0.48"/>
    </g>
    <g clip-path="url(#pba9e16505c)">
     <use xlink:href="#C0_0_9a3dabae38" x="44.547844" y="70.74904" style="fill: #cbcbcb; stroke: #ffffff; stroke-width: 0.48"/>
    </g>
    <g clip-path="url(#pba9e16505c)">
     <use xlink:href="#C0_0_9a3dabae38" x="50.987211" y="74.09528" style="fill: #cbcbcb; stroke: #ffffff; stroke-width: 0.48"/>
    </g>
    <g clip-path="url(#pba9e16505c)">
     <use xlink:href="#C0_0_9a3dabae38" x="55.09081" y="69.622038" style="fill: #cbcbcb; stroke: #ffffff; stroke-width: 0.48"/>
    </g>
    <g clip-path="url(#pba9e16505c)">
     <use xlink:href="#C0_0_9a3dabae38" x="54.440362" y="68.157818" style="fill: #cbcbcb; stroke: #ffffff; stroke-width: 0.48"/>
    </g>
    <g clip-path="url(#pba9e16505c)">
     <use xlink:href="#C0_0_9a3dabae38" x="58.971088" y="77.357763" style="fill: #cbcbcb; stroke: #ffffff; stroke-width: 0.48"/>
    </g>
    <g clip-path="url(#pba9e16505c)">
     <use xlink:href="#C0_0_9a3dabae38" x="40.951993" y="71.848139" style="fill: #cbcbcb; stroke: #ffffff; stroke-width: 0.48"/>
    </g>
    <g clip-path="url(#pba9e16505c)">
     <use xlink:href="#C0_0_9a3dabae38" x="57.546862" y="73.895736" style="fill: #cbcbcb; stroke: #ffffff; stroke-width: 0.48"/>
    </g>
    <g clip-path="url(#pba9e16505c)">
     <use xlink:href="#C0_0_9a3dabae38" x="49.823307" y="68.559129" style="fill: #cbcbcb; stroke: #ffffff; stroke-width: 0.48"/>
    </g>
    <g clip-path="url(#pba9e16505c)">
     <use xlink:href="#C0_0_9a3dabae38" x="40.316069" y="69.52106" style="fill: #cbcbcb; stroke: #ffffff; stroke-width: 0.48"/>
    </g>
    <g clip-path="url(#pba9e16505c)">
     <use xlink:href="#C0_0_9a3dabae38" x="49.653021" y="74.0601" style="fill: #cbcbcb; stroke: #ffffff; stroke-width: 0.48"/>
    </g>
    <g clip-path="url(#pba9e16505c)">
     <use xlink:href="#C0_0_9a3dabae38" x="39.960739" y="71.042277" style="fill: #cbcbcb; stroke: #ffffff; stroke-width: 0.48"/>
    </g>
    <g clip-path="url(#pba9e16505c)">
     <use xlink:href="#C0_0_9a3dabae38" x="51.88192" y="72.616103" style="fill: #cbcbcb; stroke: #ffffff; stroke-width: 0.48"/>
    </g>
    <g clip-path="url(#pba9e16505c)">
     <use xlink:href="#C0_0_9a3dabae38" x="51.875259" y="71.578916" style="fill: #cbcbcb; stroke: #ffffff; stroke-width: 0.48"/>
    </g>
    <g clip-path="url(#pba9e16505c)">
     <use xlink:href="#C0_0_9a3dabae38" x="43.318982" y="72.127553" style="fill: #cbcbcb; stroke: #ffffff; stroke-width: 0.48"/>
    </g>
    <g clip-path="url(#pba9e16505c)">
     <use xlink:href="#C0_0_9a3dabae38" x="66.516897" y="68.785643" style="fill: #cbcbcb; stroke: #ffffff; stroke-width: 0.48"/>
    </g>
    <g clip-path="url(#pba9e16505c)">
     <use xlink:href="#C0_0_9a3dabae38" x="56.211921" y="72.625254" style="fill: #cbcbcb; stroke: #ffffff; stroke-width: 0.48"/>
    </g>
    <g clip-path="url(#pba9e16505c)">
     <use xlink:href="#C0_0_9a3dabae38" x="54.828029" y="69.333767" style="fill: #cbcbcb; stroke: #ffffff; stroke-width: 0.48"/>
    </g>
    <g clip-path="url(#pba9e16505c)">
     <use xlink:href="#C0_0_9a3dabae38" x="64.978371" y="73.791082" style="fill: #cbcbcb; stroke: #ffffff; stroke-width: 0.48"/>
    </g>
    <g clip-path="url(#pba9e16505c)">
     <use xlink:href="#C0_0_9a3dabae38" x="45.464908" y="67.082538" style="fill: #cbcbcb; stroke: #ffffff; stroke-width: 0.48"/>
    </g>
    <g clip-path="url(#pba9e16505c)">
     <use xlink:href="#C0_0_9a3dabae38" x="54.471446" y="65.562924" style="fill: #cbcbcb; stroke: #ffffff; stroke-width: 0.48"/>
    </g>
    <g clip-path="url(#pba9e16505c)">
     <use xlink:href="#C0_0_9a3dabae38" x="40.619392" y="67.800273" style="fill: #cbcbcb; stroke: #ffffff; stroke-width: 0.48"/>
    </g>
    <g clip-path="url(#pba9e16505c)">
     <use xlink:href="#C0_0_9a3dabae38" x="51.200469" y="73.042961" style="fill: #cbcbcb; stroke: #ffffff; stroke-width: 0.48"/>
    </g>
    <g clip-path="url(#pba9e16505c)">
     <use xlink:href="#C0_0_9a3dabae38" x="53.873476" y="71.507401" style="fill: #cbcbcb; stroke: #ffffff; stroke-width: 0.48"/>
    </g>
    <g clip-path="url(#pba9e16505c)">
     <use xlink:href="#C0_0_9a3dabae38" x="52.513498" y="66.925275" style="fill: #cbcbcb; stroke: #ffffff; stroke-width: 0.48"/>
    </g>
    <g clip-path="url(#pba9e16505c)">
     <use xlink:href="#C0_0_9a3dabae38" x="49.257456" y="70.257214" style="fill: #cbcbcb; stroke: #ffffff; stroke-width: 0.48"/>
    </g>
    <g clip-path="url(#pba9e16505c)">
     <use xlink:href="#C0_0_9a3dabae38" x="43.450027" y="68.572487" style="fill: #cbcbcb; stroke: #ffffff; stroke-width: 0.48"/>
    </g>
    <g clip-path="url(#pba9e16505c)">
     <use xlink:href="#C0_0_9a3dabae38" x="56.164811" y="67.726993" style="fill: #cbcbcb; stroke: #ffffff; stroke-width: 0.48"/>
    </g>
    <g clip-path="url(#pba9e16505c)">
     <use xlink:href="#C0_0_9a3dabae38" x="44.899794" y="67.985997" style="fill: #cbcbcb; stroke: #ffffff; stroke-width: 0.48"/>
    </g>
    <g clip-path="url(#pba9e16505c)">
     <use xlink:href="#C0_0_9a3dabae38" x="48.584644" y="70.208002" style="fill: #cbcbcb; stroke: #ffffff; stroke-width: 0.48"/>
    </g>
   </g>
   <g id="PathCollection_2"/>
   <g id="PathCollection_3"/>
   <g id="matplotlib.axis_1">
    <g id="xtick_1">
     <g id="line2d_1">
      <defs>
       <path id="m655d97bd21" d="M 0 0 
L 0 2 
" style="stroke: #000000; stroke-width: 0.8"/>
      </defs>
      <g>
       <use xlink:href="#m655d97bd21" x="44.91144" y="99.489035" style="stroke: #000000; stroke-width: 0.8"/>
      </g>
     </g>
    </g>
    <g id="xtick_2">
     <g id="line2d_2">
      <g>
       <use xlink:href="#m655d97bd21" x="93.433179" y="99.489035" style="stroke: #000000; stroke-width: 0.8"/>
      </g>
     </g>
    </g>
    <g id="xtick_3">
     <g id="line2d_3">
      <g>
       <use xlink:href="#m655d97bd21" x="141.954918" y="99.489035" style="stroke: #000000; stroke-width: 0.8"/>
      </g>
     </g>
    </g>
    <g id="xtick_4">
     <g id="line2d_4">
      <g>
       <use xlink:href="#m655d97bd21" x="190.476658" y="99.489035" style="stroke: #000000; stroke-width: 0.8"/>
      </g>
     </g>
    </g>
   </g>
   <g id="matplotlib.axis_2">
    <g id="ytick_1">
     <g id="line2d_5">
      <defs>
       <path id="m3ccbb51636" d="M 0 0 
L -2 0 
" style="stroke: #000000; stroke-width: 0.8"/>
      </defs>
      <g>
       <use xlink:href="#m3ccbb51636" x="23.561875" y="90.08246" style="stroke: #000000; stroke-width: 0.8"/>
      </g>
     </g>
     <g id="text_1">
      <!-- -50 -->
      <g transform="translate(0.72 94.386523)scale(0.12 -0.12)">
       <defs>
        <path id="Helvetica-2d" d="M 266 2072 
L 1834 2072 
L 1834 1494 
L 266 1494 
L 266 2072 
z
" transform="scale(0.015625)"/>
        <path id="Helvetica-35" d="M 791 1141 
Q 847 659 1238 475 
Q 1438 381 1700 381 
Q 2200 381 2440 700 
Q 2681 1019 2681 1406 
Q 2681 1875 2395 2131 
Q 2109 2388 1709 2388 
Q 1419 2388 1211 2275 
Q 1003 2163 856 1963 
L 369 1991 
L 709 4400 
L 3034 4400 
L 3034 3856 
L 1131 3856 
L 941 2613 
Q 1097 2731 1238 2791 
Q 1488 2894 1816 2894 
Q 2431 2894 2859 2497 
Q 3288 2100 3288 1491 
Q 3288 856 2895 371 
Q 2503 -113 1644 -113 
Q 1097 -113 676 195 
Q 256 503 206 1141 
L 791 1141 
z
" transform="scale(0.015625)"/>
        <path id="Helvetica-30" d="M 1731 4475 
Q 2600 4475 2988 3759 
Q 3288 3206 3288 2244 
Q 3288 1331 3016 734 
Q 2622 -122 1728 -122 
Q 922 -122 528 578 
Q 200 1163 200 2147 
Q 200 2909 397 3456 
Q 766 4475 1731 4475 
z
M 1725 391 
Q 2163 391 2422 778 
Q 2681 1166 2681 2222 
Q 2681 2984 2493 3476 
Q 2306 3969 1766 3969 
Q 1269 3969 1039 3501 
Q 809 3034 809 2125 
Q 809 1441 956 1025 
Q 1181 391 1725 391 
z
" transform="scale(0.015625)"/>
       </defs>
       <use xlink:href="#Helvetica-2d"/>
       <use xlink:href="#Helvetica-35" x="33.300781"/>
       <use xlink:href="#Helvetica-30" x="88.916016"/>
      </g>
     </g>
    </g>
    <g id="ytick_2">
     <g id="line2d_6">
      <g>
       <use xlink:href="#m3ccbb51636" x="23.561875" y="43.049586" style="stroke: #000000; stroke-width: 0.8"/>
      </g>
     </g>
     <g id="text_2">
      <!-- 0 -->
      <g transform="translate(11.38875 47.353649)scale(0.12 -0.12)">
       <use xlink:href="#Helvetica-30"/>
      </g>
     </g>
    </g>
   </g>
   <g id="patch_3">
    <path d="M 23.561875 99.489035 
L 23.561875 0.72 
" style="fill: none; stroke: #000000; stroke-width: 1.5; stroke-linejoin: miter; stroke-linecap: square"/>
   </g>
   <g id="patch_4">
    <path d="M 202.121875 99.489035 
L 202.121875 0.72 
" style="fill: none; stroke: #000000; stroke-width: 1.5; stroke-linejoin: miter; stroke-linecap: square"/>
   </g>
   <g id="patch_5">
    <path d="M 23.561875 99.489035 
L 202.121875 99.489035 
" style="fill: none; stroke: #000000; stroke-width: 1.5; stroke-linejoin: miter; stroke-linecap: square"/>
   </g>
   <g id="patch_6">
    <path d="M 23.561875 0.72 
L 202.121875 0.72 
" style="fill: none; stroke: #000000; stroke-width: 1.5; stroke-linejoin: miter; stroke-linecap: square"/>
   </g>
   <g id="text_3">
    <!-- Start -->
    <g transform="translate(102.283281 12.831889)scale(0.1 -0.1)">
     <defs>
      <path id="Helvetica-53" d="M 894 1481 
Q 916 1091 1078 847 
Q 1388 391 2169 391 
Q 2519 391 2806 491 
Q 3363 684 3363 1184 
Q 3363 1559 3128 1719 
Q 2891 1875 2384 1991 
L 1763 2131 
Q 1153 2269 900 2434 
Q 463 2722 463 3294 
Q 463 3913 891 4309 
Q 1319 4706 2103 4706 
Q 2825 4706 3329 4357 
Q 3834 4009 3834 3244 
L 3250 3244 
Q 3203 3613 3050 3809 
Q 2766 4169 2084 4169 
Q 1534 4169 1293 3937 
Q 1053 3706 1053 3400 
Q 1053 3063 1334 2906 
Q 1519 2806 2169 2656 
L 2813 2509 
Q 3278 2403 3531 2219 
Q 3969 1897 3969 1284 
Q 3969 522 3414 194 
Q 2859 -134 2125 -134 
Q 1269 -134 784 303 
Q 300 738 309 1481 
L 894 1481 
z
M 2150 4716 
L 2150 4716 
z
" transform="scale(0.015625)"/>
      <path id="Helvetica-74" d="M 525 4281 
L 1094 4281 
L 1094 3347 
L 1628 3347 
L 1628 2888 
L 1094 2888 
L 1094 703 
Q 1094 528 1213 469 
Q 1278 434 1431 434 
Q 1472 434 1519 436 
Q 1566 438 1628 444 
L 1628 0 
Q 1531 -28 1426 -40 
Q 1322 -53 1200 -53 
Q 806 -53 665 148 
Q 525 350 525 672 
L 525 2888 
L 72 2888 
L 72 3347 
L 525 3347 
L 525 4281 
z
" transform="scale(0.015625)"/>
      <path id="Helvetica-61" d="M 844 891 
Q 844 647 1022 506 
Q 1200 366 1444 366 
Q 1741 366 2019 503 
Q 2488 731 2488 1250 
L 2488 1703 
Q 2384 1638 2221 1594 
Q 2059 1550 1903 1531 
L 1563 1488 
Q 1256 1447 1103 1359 
Q 844 1213 844 891 
z
M 2206 2028 
Q 2400 2053 2466 2191 
Q 2503 2266 2503 2406 
Q 2503 2694 2298 2823 
Q 2094 2953 1713 2953 
Q 1272 2953 1088 2716 
Q 984 2584 953 2325 
L 428 2325 
Q 444 2944 830 3186 
Q 1216 3428 1725 3428 
Q 2316 3428 2684 3203 
Q 3050 2978 3050 2503 
L 3050 575 
Q 3050 488 3086 434 
Q 3122 381 3238 381 
Q 3275 381 3322 386 
Q 3369 391 3422 400 
L 3422 -16 
Q 3291 -53 3222 -62 
Q 3153 -72 3034 -72 
Q 2744 -72 2613 134 
Q 2544 244 2516 444 
Q 2344 219 2022 53 
Q 1700 -113 1313 -113 
Q 847 -113 551 170 
Q 256 453 256 878 
Q 256 1344 547 1600 
Q 838 1856 1309 1916 
L 2206 2028 
z
M 1741 3428 
L 1741 3428 
z
" transform="scale(0.015625)"/>
      <path id="Helvetica-72" d="M 428 3347 
L 963 3347 
L 963 2769 
Q 1028 2938 1284 3180 
Q 1541 3422 1875 3422 
Q 1891 3422 1928 3419 
Q 1966 3416 2056 3406 
L 2056 2813 
Q 2006 2822 1964 2825 
Q 1922 2828 1872 2828 
Q 1447 2828 1219 2554 
Q 991 2281 991 1925 
L 991 0 
L 428 0 
L 428 3347 
z
" transform="scale(0.015625)"/>
     </defs>
     <use xlink:href="#Helvetica-53"/>
     <use xlink:href="#Helvetica-74" x="66.699219"/>
     <use xlink:href="#Helvetica-61" x="94.482422"/>
     <use xlink:href="#Helvetica-72" x="150.097656"/>
     <use xlink:href="#Helvetica-74" x="183.398438"/>
    </g>
   </g>
   <g id="legend_1">
    <g id="patch_7">
     <path d="M 107.426563 94.489035 
L 195.121875 94.489035 
Q 197.121875 94.489035 197.121875 92.489035 
L 197.121875 62.97341 
Q 197.121875 60.97341 195.121875 60.97341 
L 107.426563 60.97341 
Q 105.426563 60.97341 105.426563 62.97341 
L 105.426563 92.489035 
Q 105.426563 94.489035 107.426563 94.489035 
z
" style="fill: #ffffff; opacity: 0.8; stroke: #cccccc; stroke-linejoin: miter"/>
    </g>
    <g id="PathCollection_4">
     <defs>
      <path id="m93ec70d24d" d="M 0 3 
C 0.795609 3 1.55874 2.683901 2.12132 2.12132 
C 2.683901 1.55874 3 0.795609 3 0 
C 3 -0.795609 2.683901 -1.55874 2.12132 -2.12132 
C 1.55874 -2.683901 0.795609 -3 0 -3 
C -0.795609 -3 -1.55874 -2.683901 -2.12132 -2.12132 
C -2.683901 -1.55874 -3 -0.795609 -3 0 
C -3 0.795609 -2.683901 1.55874 -2.12132 2.12132 
C -1.55874 2.683901 -0.795609 3 0 3 
z
" style="stroke: #e6a8a5"/>
     </defs>
     <g>
      <use xlink:href="#m93ec70d24d" x="115.426563" y="70.521847" style="fill: #e6a8a5; stroke: #e6a8a5"/>
     </g>
    </g>
    <g id="text_4">
     <!-- Paired, Cancer -->
     <g transform="translate(125.426563 73.146847)scale(0.1 -0.1)">
      <defs>
       <path id="Helvetica-50" d="M 547 4591 
L 2613 4591 
Q 3225 4591 3600 4245 
Q 3975 3900 3975 3275 
Q 3975 2738 3640 2339 
Q 3306 1941 2613 1941 
L 1169 1941 
L 1169 0 
L 547 0 
L 547 4591 
z
M 3347 3272 
Q 3347 3778 2972 3959 
Q 2766 4056 2406 4056 
L 1169 4056 
L 1169 2466 
L 2406 2466 
Q 2825 2466 3086 2644 
Q 3347 2822 3347 3272 
z
" transform="scale(0.015625)"/>
       <path id="Helvetica-69" d="M 413 3331 
L 984 3331 
L 984 0 
L 413 0 
L 413 3331 
z
M 413 4591 
L 984 4591 
L 984 3953 
L 413 3953 
L 413 4591 
z
" transform="scale(0.015625)"/>
       <path id="Helvetica-65" d="M 1806 3422 
Q 2163 3422 2497 3255 
Q 2831 3088 3006 2822 
Q 3175 2569 3231 2231 
Q 3281 2000 3281 1494 
L 828 1494 
Q 844 984 1069 676 
Q 1294 369 1766 369 
Q 2206 369 2469 659 
Q 2619 828 2681 1050 
L 3234 1050 
Q 3213 866 3089 639 
Q 2966 413 2813 269 
Q 2556 19 2178 -69 
Q 1975 -119 1719 -119 
Q 1094 -119 659 336 
Q 225 791 225 1609 
Q 225 2416 662 2919 
Q 1100 3422 1806 3422 
z
M 2703 1941 
Q 2669 2306 2544 2525 
Q 2313 2931 1772 2931 
Q 1384 2931 1121 2651 
Q 859 2372 844 1941 
L 2703 1941 
z
M 1753 3428 
L 1753 3428 
z
" transform="scale(0.015625)"/>
       <path id="Helvetica-64" d="M 769 1634 
Q 769 1097 997 734 
Q 1225 372 1728 372 
Q 2119 372 2370 708 
Q 2622 1044 2622 1672 
Q 2622 2306 2362 2611 
Q 2103 2916 1722 2916 
Q 1297 2916 1033 2591 
Q 769 2266 769 1634 
z
M 1616 3406 
Q 2000 3406 2259 3244 
Q 2409 3150 2600 2916 
L 2600 4606 
L 3141 4606 
L 3141 0 
L 2634 0 
L 2634 466 
Q 2438 156 2169 18 
Q 1900 -119 1553 -119 
Q 994 -119 584 351 
Q 175 822 175 1603 
Q 175 2334 548 2870 
Q 922 3406 1616 3406 
z
" transform="scale(0.015625)"/>
       <path id="Helvetica-2c" d="M 531 -653 
Q 747 -616 834 -350 
Q 881 -209 881 -78 
Q 881 -56 879 -39 
Q 878 -22 872 0 
L 531 0 
L 531 681 
L 1200 681 
L 1200 50 
Q 1200 -322 1050 -603 
Q 900 -884 531 -950 
L 531 -653 
z
" transform="scale(0.015625)"/>
       <path id="Helvetica-20" transform="scale(0.015625)"/>
       <path id="Helvetica-43" d="M 2422 4716 
Q 3294 4716 3775 4256 
Q 4256 3797 4309 3213 
L 3703 3213 
Q 3600 3656 3292 3915 
Q 2984 4175 2428 4175 
Q 1750 4175 1333 3698 
Q 916 3222 916 2238 
Q 916 1431 1292 929 
Q 1669 428 2416 428 
Q 3103 428 3463 956 
Q 3653 1234 3747 1688 
L 4353 1688 
Q 4272 963 3816 472 
Q 3269 -119 2341 -119 
Q 1541 -119 997 366 
Q 281 1006 281 2344 
Q 281 3359 819 4009 
Q 1400 4716 2422 4716 
z
M 2297 4716 
L 2297 4716 
z
" transform="scale(0.015625)"/>
       <path id="Helvetica-6e" d="M 413 3347 
L 947 3347 
L 947 2872 
Q 1184 3166 1450 3294 
Q 1716 3422 2041 3422 
Q 2753 3422 3003 2925 
Q 3141 2653 3141 2147 
L 3141 0 
L 2569 0 
L 2569 2109 
Q 2569 2416 2478 2603 
Q 2328 2916 1934 2916 
Q 1734 2916 1606 2875 
Q 1375 2806 1200 2600 
Q 1059 2434 1017 2257 
Q 975 2081 975 1753 
L 975 0 
L 413 0 
L 413 3347 
z
M 1734 3428 
L 1734 3428 
z
" transform="scale(0.015625)"/>
       <path id="Helvetica-63" d="M 1703 3444 
Q 2269 3444 2623 3169 
Q 2978 2894 3050 2222 
L 2503 2222 
Q 2453 2531 2275 2736 
Q 2097 2941 1703 2941 
Q 1166 2941 934 2416 
Q 784 2075 784 1575 
Q 784 1072 996 728 
Q 1209 384 1666 384 
Q 2016 384 2220 598 
Q 2425 813 2503 1184 
L 3050 1184 
Q 2956 519 2581 211 
Q 2206 -97 1622 -97 
Q 966 -97 575 383 
Q 184 863 184 1581 
Q 184 2463 612 2953 
Q 1041 3444 1703 3444 
z
M 1616 3428 
L 1616 3428 
z
" transform="scale(0.015625)"/>
      </defs>
      <use xlink:href="#Helvetica-50"/>
      <use xlink:href="#Helvetica-61" x="66.699219"/>
      <use xlink:href="#Helvetica-69" x="122.314453"/>
      <use xlink:href="#Helvetica-72" x="144.53125"/>
      <use xlink:href="#Helvetica-65" x="177.832031"/>
      <use xlink:href="#Helvetica-64" x="233.447266"/>
      <use xlink:href="#Helvetica-2c" x="289.0625"/>
      <use xlink:href="#Helvetica-20" x="316.845703"/>
      <use xlink:href="#Helvetica-43" x="344.628906"/>
      <use xlink:href="#Helvetica-61" x="416.845703"/>
      <use xlink:href="#Helvetica-6e" x="472.460938"/>
      <use xlink:href="#Helvetica-63" x="528.076172"/>
      <use xlink:href="#Helvetica-65" x="578.076172"/>
      <use xlink:href="#Helvetica-72" x="633.691406"/>
     </g>
    </g>
    <g id="PathCollection_5">
     <defs>
      <path id="m565f171f1f" d="M 0 3 
C 0.795609 3 1.55874 2.683901 2.12132 2.12132 
C 2.683901 1.55874 3 0.795609 3 0 
C 3 -0.795609 2.683901 -1.55874 2.12132 -2.12132 
C 1.55874 -2.683901 0.795609 -3 0 -3 
C -0.795609 -3 -1.55874 -2.683901 -2.12132 -2.12132 
C -2.683901 -1.55874 -3 -0.795609 -3 0 
C -3 0.795609 -2.683901 1.55874 -2.12132 2.12132 
C -1.55874 2.683901 -0.795609 3 0 3 
z
" style="stroke: #cbcbcb"/>
     </defs>
     <g>
      <use xlink:href="#m565f171f1f" x="115.426563" y="84.77966" style="fill: #cbcbcb; stroke: #cbcbcb"/>
     </g>
    </g>
    <g id="text_5">
     <!-- Paired, Normal -->
     <g transform="translate(125.426563 87.40466)scale(0.1 -0.1)">
      <defs>
       <path id="Helvetica-4e" d="M 488 4591 
L 1222 4591 
L 3541 872 
L 3541 4591 
L 4131 4591 
L 4131 0 
L 3434 0 
L 1081 3716 
L 1081 0 
L 488 0 
L 488 4591 
z
M 2269 4591 
L 2269 4591 
z
" transform="scale(0.015625)"/>
       <path id="Helvetica-6f" d="M 1741 363 
Q 2300 363 2508 786 
Q 2716 1209 2716 1728 
Q 2716 2197 2566 2491 
Q 2328 2953 1747 2953 
Q 1231 2953 997 2559 
Q 763 2166 763 1609 
Q 763 1075 997 719 
Q 1231 363 1741 363 
z
M 1763 3444 
Q 2409 3444 2856 3012 
Q 3303 2581 3303 1744 
Q 3303 934 2909 406 
Q 2516 -122 1688 -122 
Q 997 -122 590 345 
Q 184 813 184 1600 
Q 184 2444 612 2944 
Q 1041 3444 1763 3444 
z
M 1744 3428 
L 1744 3428 
z
" transform="scale(0.015625)"/>
       <path id="Helvetica-6d" d="M 413 3347 
L 969 3347 
L 969 2872 
Q 1169 3119 1331 3231 
Q 1609 3422 1963 3422 
Q 2363 3422 2606 3225 
Q 2744 3113 2856 2894 
Q 3044 3163 3297 3292 
Q 3550 3422 3866 3422 
Q 4541 3422 4784 2934 
Q 4916 2672 4916 2228 
L 4916 0 
L 4331 0 
L 4331 2325 
Q 4331 2659 4164 2784 
Q 3997 2909 3756 2909 
Q 3425 2909 3186 2687 
Q 2947 2466 2947 1947 
L 2947 0 
L 2375 0 
L 2375 2184 
Q 2375 2525 2294 2681 
Q 2166 2916 1816 2916 
Q 1497 2916 1236 2669 
Q 975 2422 975 1775 
L 975 0 
L 413 0 
L 413 3347 
z
" transform="scale(0.015625)"/>
       <path id="Helvetica-6c" d="M 428 4591 
L 991 4591 
L 991 0 
L 428 0 
L 428 4591 
z
" transform="scale(0.015625)"/>
      </defs>
      <use xlink:href="#Helvetica-50"/>
      <use xlink:href="#Helvetica-61" x="66.699219"/>
      <use xlink:href="#Helvetica-69" x="122.314453"/>
      <use xlink:href="#Helvetica-72" x="144.53125"/>
      <use xlink:href="#Helvetica-65" x="177.832031"/>
      <use xlink:href="#Helvetica-64" x="233.447266"/>
      <use xlink:href="#Helvetica-2c" x="289.0625"/>
      <use xlink:href="#Helvetica-20" x="316.845703"/>
      <use xlink:href="#Helvetica-4e" x="344.628906"/>
      <use xlink:href="#Helvetica-6f" x="416.845703"/>
      <use xlink:href="#Helvetica-72" x="472.460938"/>
      <use xlink:href="#Helvetica-6d" x="505.761719"/>
      <use xlink:href="#Helvetica-61" x="589.0625"/>
      <use xlink:href="#Helvetica-6c" x="644.677734"/>
     </g>
    </g>
   </g>
  </g>
  <g id="axes_2">
   <g id="patch_8">
    <path d="M 23.561875 203.196522 
L 202.121875 203.196522 
L 202.121875 104.427487 
L 23.561875 104.427487 
z
" style="fill: #ffffff"/>
   </g>
   <g id="PathCollection_6">
    <defs>
     <path id="C1_0_760a490754" d="M 0 3 
C 0.795609 3 1.55874 2.683901 2.12132 2.12132 
C 2.683901 1.55874 3 0.795609 3 -0 
C 3 -0.795609 2.683901 -1.55874 2.12132 -2.12132 
C 1.55874 -2.683901 0.795609 -3 0 -3 
C -0.795609 -3 -1.55874 -2.683901 -2.12132 -2.12132 
C -2.683901 -1.55874 -3 -0.795609 -3 0 
C -3 0.795609 -2.683901 1.55874 -2.12132 2.12132 
C -1.55874 2.683901 -0.795609 3 0 3 
z
"/>
    </defs>
    <g clip-path="url(#pc92b34dcee)">
     <use xlink:href="#C1_0_760a490754" x="39.974716" y="136.212713" style="fill: #e6a8a5; stroke: #ffffff; stroke-width: 0.48"/>
    </g>
    <g clip-path="url(#pc92b34dcee)">
     <use xlink:href="#C1_0_760a490754" x="40.688539" y="156.090028" style="fill: #e6a8a5; stroke: #ffffff; stroke-width: 0.48"/>
    </g>
    <g clip-path="url(#pc92b34dcee)">
     <use xlink:href="#C1_0_760a490754" x="42.314933" y="118.137173" style="fill: #e6a8a5; stroke: #ffffff; stroke-width: 0.48"/>
    </g>
    <g clip-path="url(#pc92b34dcee)">
     <use xlink:href="#C1_0_760a490754" x="115.033544" y="165.944488" style="fill: #e6a8a5; stroke: #ffffff; stroke-width: 0.48"/>
    </g>
    <g clip-path="url(#pc92b34dcee)">
     <use xlink:href="#C1_0_760a490754" x="115.969742" y="172.522922" style="fill: #e6a8a5; stroke: #ffffff; stroke-width: 0.48"/>
    </g>
    <g clip-path="url(#pc92b34dcee)">
     <use xlink:href="#C1_0_760a490754" x="43.985207" y="169.062556" style="fill: #e6a8a5; stroke: #ffffff; stroke-width: 0.48"/>
    </g>
    <g clip-path="url(#pc92b34dcee)">
     <use xlink:href="#C1_0_760a490754" x="108.084403" y="157.612863" style="fill: #e6a8a5; stroke: #ffffff; stroke-width: 0.48"/>
    </g>
    <g clip-path="url(#pc92b34dcee)">
     <use xlink:href="#C1_0_760a490754" x="146.24906" y="134.544812" style="fill: #e6a8a5; stroke: #ffffff; stroke-width: 0.48"/>
    </g>
    <g clip-path="url(#pc92b34dcee)">
     <use xlink:href="#C1_0_760a490754" x="100.101211" y="138.788681" style="fill: #e6a8a5; stroke: #ffffff; stroke-width: 0.48"/>
    </g>
    <g clip-path="url(#pc92b34dcee)">
     <use xlink:href="#C1_0_760a490754" x="56.33274" y="145.198141" style="fill: #e6a8a5; stroke: #ffffff; stroke-width: 0.48"/>
    </g>
    <g clip-path="url(#pc92b34dcee)">
     <use xlink:href="#C1_0_760a490754" x="166.795778" y="175.933012" style="fill: #e6a8a5; stroke: #ffffff; stroke-width: 0.48"/>
    </g>
    <g clip-path="url(#pc92b34dcee)">
     <use xlink:href="#C1_0_760a490754" x="142.403681" y="142.419049" style="fill: #e6a8a5; stroke: #ffffff; stroke-width: 0.48"/>
    </g>
    <g clip-path="url(#pc92b34dcee)">
     <use xlink:href="#C1_0_760a490754" x="62.807388" y="163.488298" style="fill: #e6a8a5; stroke: #ffffff; stroke-width: 0.48"/>
    </g>
    <g clip-path="url(#pc92b34dcee)">
     <use xlink:href="#C1_0_760a490754" x="82.035787" y="113.927954" style="fill: #e6a8a5; stroke: #ffffff; stroke-width: 0.48"/>
    </g>
    <g clip-path="url(#pc92b34dcee)">
     <use xlink:href="#C1_0_760a490754" x="73.71045" y="146.256222" style="fill: #e6a8a5; stroke: #ffffff; stroke-width: 0.48"/>
    </g>
    <g clip-path="url(#pc92b34dcee)">
     <use xlink:href="#C1_0_760a490754" x="107.935024" y="150.480063" style="fill: #e6a8a5; stroke: #ffffff; stroke-width: 0.48"/>
    </g>
    <g clip-path="url(#pc92b34dcee)">
     <use xlink:href="#C1_0_760a490754" x="50.87744" y="139.944028" style="fill: #e6a8a5; stroke: #ffffff; stroke-width: 0.48"/>
    </g>
    <g clip-path="url(#pc92b34dcee)">
     <use xlink:href="#C1_0_760a490754" x="49.586264" y="140.025183" style="fill: #e6a8a5; stroke: #ffffff; stroke-width: 0.48"/>
    </g>
    <g clip-path="url(#pc92b34dcee)">
     <use xlink:href="#C1_0_760a490754" x="74.53325" y="157.255857" style="fill: #e6a8a5; stroke: #ffffff; stroke-width: 0.48"/>
    </g>
    <g clip-path="url(#pc92b34dcee)">
     <use xlink:href="#C1_0_760a490754" x="68.200651" y="147.154532" style="fill: #e6a8a5; stroke: #ffffff; stroke-width: 0.48"/>
    </g>
    <g clip-path="url(#pc92b34dcee)">
     <use xlink:href="#C1_0_760a490754" x="110.274343" y="159.555323" style="fill: #e6a8a5; stroke: #ffffff; stroke-width: 0.48"/>
    </g>
    <g clip-path="url(#pc92b34dcee)">
     <use xlink:href="#C1_0_760a490754" x="123.051794" y="112.050991" style="fill: #e6a8a5; stroke: #ffffff; stroke-width: 0.48"/>
    </g>
    <g clip-path="url(#pc92b34dcee)">
     <use xlink:href="#C1_0_760a490754" x="70.071344" y="169.14541" style="fill: #e6a8a5; stroke: #ffffff; stroke-width: 0.48"/>
    </g>
    <g clip-path="url(#pc92b34dcee)">
     <use xlink:href="#C1_0_760a490754" x="152.587939" y="135.054991" style="fill: #e6a8a5; stroke: #ffffff; stroke-width: 0.48"/>
    </g>
    <g clip-path="url(#pc92b34dcee)">
     <use xlink:href="#C1_0_760a490754" x="109.454701" y="190.407223" style="fill: #e6a8a5; stroke: #ffffff; stroke-width: 0.48"/>
    </g>
    <g clip-path="url(#pc92b34dcee)">
     <use xlink:href="#C1_0_760a490754" x="48.754146" y="136.661288" style="fill: #e6a8a5; stroke: #ffffff; stroke-width: 0.48"/>
    </g>
    <g clip-path="url(#pc92b34dcee)">
     <use xlink:href="#C1_0_760a490754" x="140.291127" y="139.944352" style="fill: #e6a8a5; stroke: #ffffff; stroke-width: 0.48"/>
    </g>
    <g clip-path="url(#pc92b34dcee)">
     <use xlink:href="#C1_0_760a490754" x="151.958403" y="157.480517" style="fill: #e6a8a5; stroke: #ffffff; stroke-width: 0.48"/>
    </g>
    <g clip-path="url(#pc92b34dcee)">
     <use xlink:href="#C1_0_760a490754" x="102.785262" y="160.355037" style="fill: #e6a8a5; stroke: #ffffff; stroke-width: 0.48"/>
    </g>
    <g clip-path="url(#pc92b34dcee)">
     <use xlink:href="#C1_0_760a490754" x="34.611323" y="191.130397" style="fill: #cbcbcb; stroke: #ffffff; stroke-width: 0.48"/>
    </g>
    <g clip-path="url(#pc92b34dcee)">
     <use xlink:href="#C1_0_760a490754" x="42.160013" y="196.286574" style="fill: #cbcbcb; stroke: #ffffff; stroke-width: 0.48"/>
    </g>
    <g clip-path="url(#pc92b34dcee)">
     <use xlink:href="#C1_0_760a490754" x="44.703409" y="186.570986" style="fill: #cbcbcb; stroke: #ffffff; stroke-width: 0.48"/>
    </g>
    <g clip-path="url(#pc92b34dcee)">
     <use xlink:href="#C1_0_760a490754" x="47.611727" y="184.14441" style="fill: #cbcbcb; stroke: #ffffff; stroke-width: 0.48"/>
    </g>
    <g clip-path="url(#pc92b34dcee)">
     <use xlink:href="#C1_0_760a490754" x="50.349328" y="198.708582" style="fill: #cbcbcb; stroke: #ffffff; stroke-width: 0.48"/>
    </g>
    <g clip-path="url(#pc92b34dcee)">
     <use xlink:href="#C1_0_760a490754" x="34.605095" y="191.689106" style="fill: #cbcbcb; stroke: #ffffff; stroke-width: 0.48"/>
    </g>
    <g clip-path="url(#pc92b34dcee)">
     <use xlink:href="#C1_0_760a490754" x="46.905784" y="193.430843" style="fill: #cbcbcb; stroke: #ffffff; stroke-width: 0.48"/>
    </g>
    <g clip-path="url(#pc92b34dcee)">
     <use xlink:href="#C1_0_760a490754" x="41.518098" y="185.675102" style="fill: #cbcbcb; stroke: #ffffff; stroke-width: 0.48"/>
    </g>
    <g clip-path="url(#pc92b34dcee)">
     <use xlink:href="#C1_0_760a490754" x="33.339581" y="191.567165" style="fill: #cbcbcb; stroke: #ffffff; stroke-width: 0.48"/>
    </g>
    <g clip-path="url(#pc92b34dcee)">
     <use xlink:href="#C1_0_760a490754" x="40.29908" y="195.050449" style="fill: #cbcbcb; stroke: #ffffff; stroke-width: 0.48"/>
    </g>
    <g clip-path="url(#pc92b34dcee)">
     <use xlink:href="#C1_0_760a490754" x="29.861706" y="190.562307" style="fill: #cbcbcb; stroke: #ffffff; stroke-width: 0.48"/>
    </g>
    <g clip-path="url(#pc92b34dcee)">
     <use xlink:href="#C1_0_760a490754" x="44.965861" y="190.355183" style="fill: #cbcbcb; stroke: #ffffff; stroke-width: 0.48"/>
    </g>
    <g clip-path="url(#pc92b34dcee)">
     <use xlink:href="#C1_0_760a490754" x="44.010439" y="187.159042" style="fill: #cbcbcb; stroke: #ffffff; stroke-width: 0.48"/>
    </g>
    <g clip-path="url(#pc92b34dcee)">
     <use xlink:href="#C1_0_760a490754" x="34.308815" y="193.460438" style="fill: #cbcbcb; stroke: #ffffff; stroke-width: 0.48"/>
    </g>
    <g clip-path="url(#pc92b34dcee)">
     <use xlink:href="#C1_0_760a490754" x="56.82566" y="179.757412" style="fill: #cbcbcb; stroke: #ffffff; stroke-width: 0.48"/>
    </g>
    <g clip-path="url(#pc92b34dcee)">
     <use xlink:href="#C1_0_760a490754" x="45.846907" y="189.086624" style="fill: #cbcbcb; stroke: #ffffff; stroke-width: 0.48"/>
    </g>
    <g clip-path="url(#pc92b34dcee)">
     <use xlink:href="#C1_0_760a490754" x="41.931884" y="182.923393" style="fill: #cbcbcb; stroke: #ffffff; stroke-width: 0.48"/>
    </g>
    <g clip-path="url(#pc92b34dcee)">
     <use xlink:href="#C1_0_760a490754" x="53.615963" y="186.098057" style="fill: #cbcbcb; stroke: #ffffff; stroke-width: 0.48"/>
    </g>
    <g clip-path="url(#pc92b34dcee)">
     <use xlink:href="#C1_0_760a490754" x="36.177402" y="186.420989" style="fill: #cbcbcb; stroke: #ffffff; stroke-width: 0.48"/>
    </g>
    <g clip-path="url(#pc92b34dcee)">
     <use xlink:href="#C1_0_760a490754" x="45.120036" y="181.710411" style="fill: #cbcbcb; stroke: #ffffff; stroke-width: 0.48"/>
    </g>
    <g clip-path="url(#pc92b34dcee)">
     <use xlink:href="#C1_0_760a490754" x="31.382211" y="183.450557" style="fill: #cbcbcb; stroke: #ffffff; stroke-width: 0.48"/>
    </g>
    <g clip-path="url(#pc92b34dcee)">
     <use xlink:href="#C1_0_760a490754" x="42.066843" y="190.95948" style="fill: #cbcbcb; stroke: #ffffff; stroke-width: 0.48"/>
    </g>
    <g clip-path="url(#pc92b34dcee)">
     <use xlink:href="#C1_0_760a490754" x="46.982828" y="190.732651" style="fill: #cbcbcb; stroke: #ffffff; stroke-width: 0.48"/>
    </g>
    <g clip-path="url(#pc92b34dcee)">
     <use xlink:href="#C1_0_760a490754" x="42.880435" y="180.423504" style="fill: #cbcbcb; stroke: #ffffff; stroke-width: 0.48"/>
    </g>
    <g clip-path="url(#pc92b34dcee)">
     <use xlink:href="#C1_0_760a490754" x="39.209204" y="186.143376" style="fill: #cbcbcb; stroke: #ffffff; stroke-width: 0.48"/>
    </g>
    <g clip-path="url(#pc92b34dcee)">
     <use xlink:href="#C1_0_760a490754" x="34.132546" y="185.562819" style="fill: #cbcbcb; stroke: #ffffff; stroke-width: 0.48"/>
    </g>
    <g clip-path="url(#pc92b34dcee)">
     <use xlink:href="#C1_0_760a490754" x="45.015738" y="182.133346" style="fill: #cbcbcb; stroke: #ffffff; stroke-width: 0.48"/>
    </g>
    <g clip-path="url(#pc92b34dcee)">
     <use xlink:href="#C1_0_760a490754" x="38.047179" y="183.405694" style="fill: #cbcbcb; stroke: #ffffff; stroke-width: 0.48"/>
    </g>
    <g clip-path="url(#pc92b34dcee)">
     <use xlink:href="#C1_0_760a490754" x="40.446729" y="191.388985" style="fill: #cbcbcb; stroke: #ffffff; stroke-width: 0.48"/>
    </g>
   </g>
   <g id="PathCollection_7"/>
   <g id="PathCollection_8"/>
   <g id="matplotlib.axis_3">
    <g id="xtick_5">
     <g id="line2d_7">
      <g>
       <use xlink:href="#m655d97bd21" x="44.91144" y="203.196522" style="stroke: #000000; stroke-width: 0.8"/>
      </g>
     </g>
     <g id="text_6">
      <!-- -50 -->
      <g transform="translate(36.240503 217.304647)scale(0.12 -0.12)">
       <use xlink:href="#Helvetica-2d"/>
       <use xlink:href="#Helvetica-35" x="33.300781"/>
       <use xlink:href="#Helvetica-30" x="88.916016"/>
      </g>
     </g>
    </g>
    <g id="xtick_6">
     <g id="line2d_8">
      <g>
       <use xlink:href="#m655d97bd21" x="93.433179" y="203.196522" style="stroke: #000000; stroke-width: 0.8"/>
      </g>
     </g>
     <g id="text_7">
      <!-- 0 -->
      <g transform="translate(90.096617 217.304647)scale(0.12 -0.12)">
       <use xlink:href="#Helvetica-30"/>
      </g>
     </g>
    </g>
    <g id="xtick_7">
     <g id="line2d_9">
      <g>
       <use xlink:href="#m655d97bd21" x="141.954918" y="203.196522" style="stroke: #000000; stroke-width: 0.8"/>
      </g>
     </g>
     <g id="text_8">
      <!-- 50 -->
      <g transform="translate(135.281793 217.304647)scale(0.12 -0.12)">
       <use xlink:href="#Helvetica-35"/>
       <use xlink:href="#Helvetica-30" x="55.615234"/>
      </g>
     </g>
    </g>
    <g id="xtick_8">
     <g id="line2d_10">
      <g>
       <use xlink:href="#m655d97bd21" x="190.476658" y="203.196522" style="stroke: #000000; stroke-width: 0.8"/>
      </g>
     </g>
     <g id="text_9">
      <!-- 100 -->
      <g transform="translate(180.46697 217.304647)scale(0.12 -0.12)">
       <defs>
        <path id="Helvetica-31" d="M 613 3169 
L 613 3600 
Q 1222 3659 1462 3798 
Q 1703 3938 1822 4456 
L 2266 4456 
L 2266 0 
L 1666 0 
L 1666 3169 
L 613 3169 
z
" transform="scale(0.015625)"/>
       </defs>
       <use xlink:href="#Helvetica-31"/>
       <use xlink:href="#Helvetica-30" x="55.615234"/>
       <use xlink:href="#Helvetica-30" x="111.230469"/>
      </g>
     </g>
    </g>
   </g>
   <g id="matplotlib.axis_4">
    <g id="ytick_3">
     <g id="line2d_11">
      <g>
       <use xlink:href="#m3ccbb51636" x="23.561875" y="193.789947" style="stroke: #000000; stroke-width: 0.8"/>
      </g>
     </g>
     <g id="text_10">
      <!-- -50 -->
      <g transform="translate(0.72 198.094009)scale(0.12 -0.12)">
       <use xlink:href="#Helvetica-2d"/>
       <use xlink:href="#Helvetica-35" x="33.300781"/>
       <use xlink:href="#Helvetica-30" x="88.916016"/>
      </g>
     </g>
    </g>
    <g id="ytick_4">
     <g id="line2d_12">
      <g>
       <use xlink:href="#m3ccbb51636" x="23.561875" y="146.757073" style="stroke: #000000; stroke-width: 0.8"/>
      </g>
     </g>
     <g id="text_11">
      <!-- 0 -->
      <g transform="translate(11.38875 151.061136)scale(0.12 -0.12)">
       <use xlink:href="#Helvetica-30"/>
      </g>
     </g>
    </g>
   </g>
   <g id="patch_9">
    <path d="M 23.561875 203.196522 
L 23.561875 104.427487 
" style="fill: none; stroke: #000000; stroke-width: 1.5; stroke-linejoin: miter; stroke-linecap: square"/>
   </g>
   <g id="patch_10">
    <path d="M 202.121875 203.196522 
L 202.121875 104.427487 
" style="fill: none; stroke: #000000; stroke-width: 1.5; stroke-linejoin: miter; stroke-linecap: square"/>
   </g>
   <g id="patch_11">
    <path d="M 23.561875 203.196522 
L 202.121875 203.196522 
" style="fill: none; stroke: #000000; stroke-width: 1.5; stroke-linejoin: miter; stroke-linecap: square"/>
   </g>
   <g id="patch_12">
    <path d="M 23.561875 104.427487 
L 202.121875 104.427487 
" style="fill: none; stroke: #000000; stroke-width: 1.5; stroke-linejoin: miter; stroke-linecap: square"/>
   </g>
   <g id="text_12">
    <!-- End -->
    <g transform="translate(103.945781 116.539376)scale(0.1 -0.1)">
     <defs>
      <path id="Helvetica-45" d="M 547 4591 
L 3894 4591 
L 3894 4028 
L 1153 4028 
L 1153 2634 
L 3688 2634 
L 3688 2103 
L 1153 2103 
L 1153 547 
L 3941 547 
L 3941 0 
L 547 0 
L 547 4591 
z
M 2244 4591 
L 2244 4591 
z
" transform="scale(0.015625)"/>
     </defs>
     <use xlink:href="#Helvetica-45"/>
     <use xlink:href="#Helvetica-6e" x="66.699219"/>
     <use xlink:href="#Helvetica-64" x="122.314453"/>
    </g>
   </g>
  </g>
 </g>
 <defs>
  <clipPath id="pba9e16505c">
   <rect x="23.561875" y="0.72" width="178.56" height="98.769035"/>
  </clipPath>
  <clipPath id="pc92b34dcee">
   <rect x="23.561875" y="104.427487" width="178.56" height="98.769035"/>
  </clipPath>
 </defs>
</svg>
