<?xml version="1.0" encoding="utf-8" standalone="no"?>
<!DOCTYPE svg PUBLIC "-//W3C//DTD SVG 1.1//EN"
  "http://www.w3.org/Graphics/SVG/1.1/DTD/svg11.dtd">
<svg xmlns:xlink="http://www.w3.org/1999/xlink" width="191.681875pt" height="243.070551pt" viewBox="0 0 191.681875 243.070551" xmlns="http://www.w3.org/2000/svg" version="1.1">
 <metadata>
  <rdf:RDF xmlns:dc="http://purl.org/dc/elements/1.1/" xmlns:cc="http://creativecommons.org/ns#" xmlns:rdf="http://www.w3.org/1999/02/22-rdf-syntax-ns#">
   <cc:Work>
    <dc:type rdf:resource="http://purl.org/dc/dcmitype/StillImage"/>
    <dc:date>2024-05-11T14:32:14.010676</dc:date>
    <dc:format>image/svg+xml</dc:format>
    <dc:creator>
     <cc:Agent>
      <dc:title>Matplotlib v3.5.1, https://matplotlib.org/</dc:title>
     </cc:Agent>
    </dc:creator>
   </cc:Work>
  </rdf:RDF>
 </metadata>
 <defs>
  <style type="text/css">*{stroke-linejoin: round; stroke-linecap: butt}</style>
 </defs>
 <g id="figure_1">
  <g id="patch_1">
   <path d="M 0 243.070551 
L 191.681875 243.070551 
L 191.681875 -0 
L 0 -0 
L 0 243.070551 
z
" style="fill: none"/>
  </g>
  <g id="axes_1">
   <g id="patch_2">
    <path d="M 23.561875 110.486428 
L 190.961875 110.486428 
L 190.961875 0.72 
L 23.561875 0.72 
z
" style="fill: #ffffff"/>
   </g>
   <g id="PathCollection_1">
    <defs>
     <path id="C0_0_27527194f5" d="M 0 3 
C 0.795609 3 1.55874 2.683901 2.12132 2.12132 
C 2.683901 1.55874 3 0.795609 3 -0 
C 3 -0.795609 2.683901 -1.55874 2.12132 -2.12132 
C 1.55874 -2.683901 0.795609 -3 0 -3 
C -0.795609 -3 -1.55874 -2.683901 -2.12132 -2.12132 
C -2.683901 -1.55874 -3 -0.795609 -3 0 
C -3 0.795609 -2.683901 1.55874 -2.12132 2.12132 
C -1.55874 2.683901 -0.795609 3 0 3 
z
"/>
    </defs>
    <g clip-path="url(#p1e280f76eb)">
     <use xlink:href="#C0_0_27527194f5" x="35.672297" y="37.973328" style="fill: #e6a8a5; stroke: #ffffff; stroke-width: 0.48"/>
    </g>
    <g clip-path="url(#p1e280f76eb)">
     <use xlink:href="#C0_0_27527194f5" x="47.912323" y="45.082453" style="fill: #e6a8a5; stroke: #ffffff; stroke-width: 0.48"/>
    </g>
    <g clip-path="url(#p1e280f76eb)">
     <use xlink:href="#C0_0_27527194f5" x="37.431614" y="31.173504" style="fill: #e6a8a5; stroke: #ffffff; stroke-width: 0.48"/>
    </g>
    <g clip-path="url(#p1e280f76eb)">
     <use xlink:href="#C0_0_27527194f5" x="115.204711" y="44.566984" style="fill: #e6a8a5; stroke: #ffffff; stroke-width: 0.48"/>
    </g>
    <g clip-path="url(#p1e280f76eb)">
     <use xlink:href="#C0_0_27527194f5" x="109.639036" y="70.08968" style="fill: #e6a8a5; stroke: #ffffff; stroke-width: 0.48"/>
    </g>
    <g clip-path="url(#p1e280f76eb)">
     <use xlink:href="#C0_0_27527194f5" x="38.871012" y="67.255535" style="fill: #e6a8a5; stroke: #ffffff; stroke-width: 0.48"/>
    </g>
    <g clip-path="url(#p1e280f76eb)">
     <use xlink:href="#C0_0_27527194f5" x="97.986409" y="33.474343" style="fill: #e6a8a5; stroke: #ffffff; stroke-width: 0.48"/>
    </g>
    <g clip-path="url(#p1e280f76eb)">
     <use xlink:href="#C0_0_27527194f5" x="142.490852" y="43.610487" style="fill: #e6a8a5; stroke: #ffffff; stroke-width: 0.48"/>
    </g>
    <g clip-path="url(#p1e280f76eb)">
     <use xlink:href="#C0_0_27527194f5" x="81.583227" y="73.029812" style="fill: #e6a8a5; stroke: #ffffff; stroke-width: 0.48"/>
    </g>
    <g clip-path="url(#p1e280f76eb)">
     <use xlink:href="#C0_0_27527194f5" x="58.384932" y="60.43012" style="fill: #e6a8a5; stroke: #ffffff; stroke-width: 0.48"/>
    </g>
    <g clip-path="url(#p1e280f76eb)">
     <use xlink:href="#C0_0_27527194f5" x="136.8923" y="47.882244" style="fill: #e6a8a5; stroke: #ffffff; stroke-width: 0.48"/>
    </g>
    <g clip-path="url(#p1e280f76eb)">
     <use xlink:href="#C0_0_27527194f5" x="141.665029" y="43.510402" style="fill: #e6a8a5; stroke: #ffffff; stroke-width: 0.48"/>
    </g>
    <g clip-path="url(#p1e280f76eb)">
     <use xlink:href="#C0_0_27527194f5" x="56.360985" y="54.229994" style="fill: #e6a8a5; stroke: #ffffff; stroke-width: 0.48"/>
    </g>
    <g clip-path="url(#p1e280f76eb)">
     <use xlink:href="#C0_0_27527194f5" x="49.010677" y="24.201493" style="fill: #e6a8a5; stroke: #ffffff; stroke-width: 0.48"/>
    </g>
    <g clip-path="url(#p1e280f76eb)">
     <use xlink:href="#C0_0_27527194f5" x="77.6079" y="41.004281" style="fill: #e6a8a5; stroke: #ffffff; stroke-width: 0.48"/>
    </g>
    <g clip-path="url(#p1e280f76eb)">
     <use xlink:href="#C0_0_27527194f5" x="115.75034" y="42.744576" style="fill: #e6a8a5; stroke: #ffffff; stroke-width: 0.48"/>
    </g>
    <g clip-path="url(#p1e280f76eb)">
     <use xlink:href="#C0_0_27527194f5" x="75.159315" y="49.557343" style="fill: #e6a8a5; stroke: #ffffff; stroke-width: 0.48"/>
    </g>
    <g clip-path="url(#p1e280f76eb)">
     <use xlink:href="#C0_0_27527194f5" x="42.146506" y="43.569866" style="fill: #e6a8a5; stroke: #ffffff; stroke-width: 0.48"/>
    </g>
    <g clip-path="url(#p1e280f76eb)">
     <use xlink:href="#C0_0_27527194f5" x="73.350429" y="42.061698" style="fill: #e6a8a5; stroke: #ffffff; stroke-width: 0.48"/>
    </g>
    <g clip-path="url(#p1e280f76eb)">
     <use xlink:href="#C0_0_27527194f5" x="48.663143" y="47.212611" style="fill: #e6a8a5; stroke: #ffffff; stroke-width: 0.48"/>
    </g>
    <g clip-path="url(#p1e280f76eb)">
     <use xlink:href="#C0_0_27527194f5" x="78.168775" y="53.713018" style="fill: #e6a8a5; stroke: #ffffff; stroke-width: 0.48"/>
    </g>
    <g clip-path="url(#p1e280f76eb)">
     <use xlink:href="#C0_0_27527194f5" x="111.885249" y="38.91139" style="fill: #e6a8a5; stroke: #ffffff; stroke-width: 0.48"/>
    </g>
    <g clip-path="url(#p1e280f76eb)">
     <use xlink:href="#C0_0_27527194f5" x="47.4107" y="58.706485" style="fill: #e6a8a5; stroke: #ffffff; stroke-width: 0.48"/>
    </g>
    <g clip-path="url(#p1e280f76eb)">
     <use xlink:href="#C0_0_27527194f5" x="129.095011" y="36.502482" style="fill: #e6a8a5; stroke: #ffffff; stroke-width: 0.48"/>
    </g>
    <g clip-path="url(#p1e280f76eb)">
     <use xlink:href="#C0_0_27527194f5" x="90.542927" y="64.689611" style="fill: #e6a8a5; stroke: #ffffff; stroke-width: 0.48"/>
    </g>
    <g clip-path="url(#p1e280f76eb)">
     <use xlink:href="#C0_0_27527194f5" x="41.151645" y="45.028397" style="fill: #e6a8a5; stroke: #ffffff; stroke-width: 0.48"/>
    </g>
    <g clip-path="url(#p1e280f76eb)">
     <use xlink:href="#C0_0_27527194f5" x="113.674065" y="52.38251" style="fill: #e6a8a5; stroke: #ffffff; stroke-width: 0.48"/>
    </g>
    <g clip-path="url(#p1e280f76eb)">
     <use xlink:href="#C0_0_27527194f5" x="139.706458" y="45.832232" style="fill: #e6a8a5; stroke: #ffffff; stroke-width: 0.48"/>
    </g>
    <g clip-path="url(#p1e280f76eb)">
     <use xlink:href="#C0_0_27527194f5" x="99.846805" y="44.976666" style="fill: #e6a8a5; stroke: #ffffff; stroke-width: 0.48"/>
    </g>
    <g clip-path="url(#p1e280f76eb)">
     <use xlink:href="#C0_0_27527194f5" x="35.719928" y="77.106539" style="fill: #cbcbcb; stroke: #ffffff; stroke-width: 0.48"/>
    </g>
    <g clip-path="url(#p1e280f76eb)">
     <use xlink:href="#C0_0_27527194f5" x="38.022695" y="75.509788" style="fill: #cbcbcb; stroke: #ffffff; stroke-width: 0.48"/>
    </g>
    <g clip-path="url(#p1e280f76eb)">
     <use xlink:href="#C0_0_27527194f5" x="39.888439" y="72.494854" style="fill: #cbcbcb; stroke: #ffffff; stroke-width: 0.48"/>
    </g>
    <g clip-path="url(#p1e280f76eb)">
     <use xlink:href="#C0_0_27527194f5" x="39.769729" y="71.285196" style="fill: #cbcbcb; stroke: #ffffff; stroke-width: 0.48"/>
    </g>
    <g clip-path="url(#p1e280f76eb)">
     <use xlink:href="#C0_0_27527194f5" x="40.672785" y="76.89598" style="fill: #cbcbcb; stroke: #ffffff; stroke-width: 0.48"/>
    </g>
    <g clip-path="url(#p1e280f76eb)">
     <use xlink:href="#C0_0_27527194f5" x="31.474214" y="77.75338" style="fill: #cbcbcb; stroke: #ffffff; stroke-width: 0.48"/>
    </g>
    <g clip-path="url(#p1e280f76eb)">
     <use xlink:href="#C0_0_27527194f5" x="39.649854" y="74.728018" style="fill: #cbcbcb; stroke: #ffffff; stroke-width: 0.48"/>
    </g>
    <g clip-path="url(#p1e280f76eb)">
     <use xlink:href="#C0_0_27527194f5" x="39.866042" y="72.499897" style="fill: #cbcbcb; stroke: #ffffff; stroke-width: 0.48"/>
    </g>
    <g clip-path="url(#p1e280f76eb)">
     <use xlink:href="#C0_0_27527194f5" x="30.576098" y="78.973246" style="fill: #cbcbcb; stroke: #ffffff; stroke-width: 0.48"/>
    </g>
    <g clip-path="url(#p1e280f76eb)">
     <use xlink:href="#C0_0_27527194f5" x="38.490418" y="75.185986" style="fill: #cbcbcb; stroke: #ffffff; stroke-width: 0.48"/>
    </g>
    <g clip-path="url(#p1e280f76eb)">
     <use xlink:href="#C0_0_27527194f5" x="33.866326" y="78.287428" style="fill: #cbcbcb; stroke: #ffffff; stroke-width: 0.48"/>
    </g>
    <g clip-path="url(#p1e280f76eb)">
     <use xlink:href="#C0_0_27527194f5" x="39.146127" y="73.73075" style="fill: #cbcbcb; stroke: #ffffff; stroke-width: 0.48"/>
    </g>
    <g clip-path="url(#p1e280f76eb)">
     <use xlink:href="#C0_0_27527194f5" x="39.851214" y="73.668269" style="fill: #cbcbcb; stroke: #ffffff; stroke-width: 0.48"/>
    </g>
    <g clip-path="url(#p1e280f76eb)">
     <use xlink:href="#C0_0_27527194f5" x="30.852678" y="76.571312" style="fill: #cbcbcb; stroke: #ffffff; stroke-width: 0.48"/>
    </g>
    <g clip-path="url(#p1e280f76eb)">
     <use xlink:href="#C0_0_27527194f5" x="44.829088" y="70.951162" style="fill: #cbcbcb; stroke: #ffffff; stroke-width: 0.48"/>
    </g>
    <g clip-path="url(#p1e280f76eb)">
     <use xlink:href="#C0_0_27527194f5" x="40.708301" y="74.398253" style="fill: #cbcbcb; stroke: #ffffff; stroke-width: 0.48"/>
    </g>
    <g clip-path="url(#p1e280f76eb)">
     <use xlink:href="#C0_0_27527194f5" x="39.326958" y="75.330642" style="fill: #cbcbcb; stroke: #ffffff; stroke-width: 0.48"/>
    </g>
    <g clip-path="url(#p1e280f76eb)">
     <use xlink:href="#C0_0_27527194f5" x="43.554144" y="73.098288" style="fill: #cbcbcb; stroke: #ffffff; stroke-width: 0.48"/>
    </g>
    <g clip-path="url(#p1e280f76eb)">
     <use xlink:href="#C0_0_27527194f5" x="37.33794" y="72.064986" style="fill: #cbcbcb; stroke: #ffffff; stroke-width: 0.48"/>
    </g>
    <g clip-path="url(#p1e280f76eb)">
     <use xlink:href="#C0_0_27527194f5" x="36.576846" y="70.322546" style="fill: #cbcbcb; stroke: #ffffff; stroke-width: 0.48"/>
    </g>
    <g clip-path="url(#p1e280f76eb)">
     <use xlink:href="#C0_0_27527194f5" x="35.479333" y="75.502706" style="fill: #cbcbcb; stroke: #ffffff; stroke-width: 0.48"/>
    </g>
    <g clip-path="url(#p1e280f76eb)">
     <use xlink:href="#C0_0_27527194f5" x="38.505716" y="78.231874" style="fill: #cbcbcb; stroke: #ffffff; stroke-width: 0.48"/>
    </g>
    <g clip-path="url(#p1e280f76eb)">
     <use xlink:href="#C0_0_27527194f5" x="38.677992" y="73.789563" style="fill: #cbcbcb; stroke: #ffffff; stroke-width: 0.48"/>
    </g>
    <g clip-path="url(#p1e280f76eb)">
     <use xlink:href="#C0_0_27527194f5" x="39.345233" y="72.600655" style="fill: #cbcbcb; stroke: #ffffff; stroke-width: 0.48"/>
    </g>
    <g clip-path="url(#p1e280f76eb)">
     <use xlink:href="#C0_0_27527194f5" x="37.957889" y="74.292748" style="fill: #cbcbcb; stroke: #ffffff; stroke-width: 0.48"/>
    </g>
    <g clip-path="url(#p1e280f76eb)">
     <use xlink:href="#C0_0_27527194f5" x="36.273802" y="74.797577" style="fill: #cbcbcb; stroke: #ffffff; stroke-width: 0.48"/>
    </g>
    <g clip-path="url(#p1e280f76eb)">
     <use xlink:href="#C0_0_27527194f5" x="35.654295" y="72.327264" style="fill: #cbcbcb; stroke: #ffffff; stroke-width: 0.48"/>
    </g>
    <g clip-path="url(#p1e280f76eb)">
     <use xlink:href="#C0_0_27527194f5" x="36.070086" y="73.743344" style="fill: #cbcbcb; stroke: #ffffff; stroke-width: 0.48"/>
    </g>
    <g clip-path="url(#p1e280f76eb)">
     <use xlink:href="#C0_0_27527194f5" x="37.247769" y="75.441773" style="fill: #cbcbcb; stroke: #ffffff; stroke-width: 0.48"/>
    </g>
   </g>
   <g id="PathCollection_2"/>
   <g id="PathCollection_3"/>
   <g id="matplotlib.axis_1">
    <g id="xtick_1">
     <g id="line2d_1">
      <defs>
       <path id="mbcbaa0daa2" d="M 0 0 
L 0 2 
" style="stroke: #000000; stroke-width: 0.8"/>
      </defs>
      <g>
       <use xlink:href="#mbcbaa0daa2" x="28.485404" y="110.486428" style="stroke: #000000; stroke-width: 0.8"/>
      </g>
     </g>
    </g>
    <g id="xtick_2">
     <g id="line2d_2">
      <g>
       <use xlink:href="#mbcbaa0daa2" x="77.720699" y="110.486428" style="stroke: #000000; stroke-width: 0.8"/>
      </g>
     </g>
    </g>
    <g id="xtick_3">
     <g id="line2d_3">
      <g>
       <use xlink:href="#mbcbaa0daa2" x="126.955993" y="110.486428" style="stroke: #000000; stroke-width: 0.8"/>
      </g>
     </g>
    </g>
    <g id="xtick_4">
     <g id="line2d_4">
      <g>
       <use xlink:href="#mbcbaa0daa2" x="176.191287" y="110.486428" style="stroke: #000000; stroke-width: 0.8"/>
      </g>
     </g>
    </g>
   </g>
   <g id="matplotlib.axis_2">
    <g id="ytick_1">
     <g id="line2d_5">
      <defs>
       <path id="me08f09ffba" d="M 0 0 
L -2 0 
" style="stroke: #000000; stroke-width: 0.8"/>
      </defs>
      <g>
       <use xlink:href="#me08f09ffba" x="23.561875" y="67.534347" style="stroke: #000000; stroke-width: 0.8"/>
      </g>
     </g>
     <g id="text_1">
      <!-- -10 -->
      <g transform="translate(0.72 71.83841)scale(0.12 -0.12)">
       <defs>
        <path id="Helvetica-2d" d="M 266 2072 
L 1834 2072 
L 1834 1494 
L 266 1494 
L 266 2072 
z
" transform="scale(0.015625)"/>
        <path id="Helvetica-31" d="M 613 3169 
L 613 3600 
Q 1222 3659 1462 3798 
Q 1703 3938 1822 4456 
L 2266 4456 
L 2266 0 
L 1666 0 
L 1666 3169 
L 613 3169 
z
" transform="scale(0.015625)"/>
        <path id="Helvetica-30" d="M 1731 4475 
Q 2600 4475 2988 3759 
Q 3288 3206 3288 2244 
Q 3288 1331 3016 734 
Q 2622 -122 1728 -122 
Q 922 -122 528 578 
Q 200 1163 200 2147 
Q 200 2909 397 3456 
Q 766 4475 1731 4475 
z
M 1725 391 
Q 2163 391 2422 778 
Q 2681 1166 2681 2222 
Q 2681 2984 2493 3476 
Q 2306 3969 1766 3969 
Q 1269 3969 1039 3501 
Q 809 3034 809 2125 
Q 809 1441 956 1025 
Q 1181 391 1725 391 
z
" transform="scale(0.015625)"/>
       </defs>
       <use xlink:href="#Helvetica-2d"/>
       <use xlink:href="#Helvetica-31" x="33.300781"/>
       <use xlink:href="#Helvetica-30" x="88.916016"/>
      </g>
     </g>
    </g>
    <g id="ytick_2">
     <g id="line2d_6">
      <g>
       <use xlink:href="#me08f09ffba" x="23.561875" y="19.809813" style="stroke: #000000; stroke-width: 0.8"/>
      </g>
     </g>
     <g id="text_2">
      <!-- 0 -->
      <g transform="translate(11.38875 24.113876)scale(0.12 -0.12)">
       <use xlink:href="#Helvetica-30"/>
      </g>
     </g>
    </g>
   </g>
   <g id="patch_3">
    <path d="M 23.561875 110.486428 
L 23.561875 0.72 
" style="fill: none; stroke: #000000; stroke-width: 1.5; stroke-linejoin: miter; stroke-linecap: square"/>
   </g>
   <g id="patch_4">
    <path d="M 190.961875 110.486428 
L 190.961875 0.72 
" style="fill: none; stroke: #000000; stroke-width: 1.5; stroke-linejoin: miter; stroke-linecap: square"/>
   </g>
   <g id="patch_5">
    <path d="M 23.561875 110.486428 
L 190.961875 110.486428 
" style="fill: none; stroke: #000000; stroke-width: 1.5; stroke-linejoin: miter; stroke-linecap: square"/>
   </g>
   <g id="patch_6">
    <path d="M 23.561875 0.72 
L 190.961875 0.72 
" style="fill: none; stroke: #000000; stroke-width: 1.5; stroke-linejoin: miter; stroke-linecap: square"/>
   </g>
   <g id="text_3">
    <!-- Start -->
    <g transform="translate(96.703281 11.7114)scale(0.1 -0.1)">
     <defs>
      <path id="Helvetica-53" d="M 894 1481 
Q 916 1091 1078 847 
Q 1388 391 2169 391 
Q 2519 391 2806 491 
Q 3363 684 3363 1184 
Q 3363 1559 3128 1719 
Q 2891 1875 2384 1991 
L 1763 2131 
Q 1153 2269 900 2434 
Q 463 2722 463 3294 
Q 463 3913 891 4309 
Q 1319 4706 2103 4706 
Q 2825 4706 3329 4357 
Q 3834 4009 3834 3244 
L 3250 3244 
Q 3203 3613 3050 3809 
Q 2766 4169 2084 4169 
Q 1534 4169 1293 3937 
Q 1053 3706 1053 3400 
Q 1053 3063 1334 2906 
Q 1519 2806 2169 2656 
L 2813 2509 
Q 3278 2403 3531 2219 
Q 3969 1897 3969 1284 
Q 3969 522 3414 194 
Q 2859 -134 2125 -134 
Q 1269 -134 784 303 
Q 300 738 309 1481 
L 894 1481 
z
M 2150 4716 
L 2150 4716 
z
" transform="scale(0.015625)"/>
      <path id="Helvetica-74" d="M 525 4281 
L 1094 4281 
L 1094 3347 
L 1628 3347 
L 1628 2888 
L 1094 2888 
L 1094 703 
Q 1094 528 1213 469 
Q 1278 434 1431 434 
Q 1472 434 1519 436 
Q 1566 438 1628 444 
L 1628 0 
Q 1531 -28 1426 -40 
Q 1322 -53 1200 -53 
Q 806 -53 665 148 
Q 525 350 525 672 
L 525 2888 
L 72 2888 
L 72 3347 
L 525 3347 
L 525 4281 
z
" transform="scale(0.015625)"/>
      <path id="Helvetica-61" d="M 844 891 
Q 844 647 1022 506 
Q 1200 366 1444 366 
Q 1741 366 2019 503 
Q 2488 731 2488 1250 
L 2488 1703 
Q 2384 1638 2221 1594 
Q 2059 1550 1903 1531 
L 1563 1488 
Q 1256 1447 1103 1359 
Q 844 1213 844 891 
z
M 2206 2028 
Q 2400 2053 2466 2191 
Q 2503 2266 2503 2406 
Q 2503 2694 2298 2823 
Q 2094 2953 1713 2953 
Q 1272 2953 1088 2716 
Q 984 2584 953 2325 
L 428 2325 
Q 444 2944 830 3186 
Q 1216 3428 1725 3428 
Q 2316 3428 2684 3203 
Q 3050 2978 3050 2503 
L 3050 575 
Q 3050 488 3086 434 
Q 3122 381 3238 381 
Q 3275 381 3322 386 
Q 3369 391 3422 400 
L 3422 -16 
Q 3291 -53 3222 -62 
Q 3153 -72 3034 -72 
Q 2744 -72 2613 134 
Q 2544 244 2516 444 
Q 2344 219 2022 53 
Q 1700 -113 1313 -113 
Q 847 -113 551 170 
Q 256 453 256 878 
Q 256 1344 547 1600 
Q 838 1856 1309 1916 
L 2206 2028 
z
M 1741 3428 
L 1741 3428 
z
" transform="scale(0.015625)"/>
      <path id="Helvetica-72" d="M 428 3347 
L 963 3347 
L 963 2769 
Q 1028 2938 1284 3180 
Q 1541 3422 1875 3422 
Q 1891 3422 1928 3419 
Q 1966 3416 2056 3406 
L 2056 2813 
Q 2006 2822 1964 2825 
Q 1922 2828 1872 2828 
Q 1447 2828 1219 2554 
Q 991 2281 991 1925 
L 991 0 
L 428 0 
L 428 3347 
z
" transform="scale(0.015625)"/>
     </defs>
     <use xlink:href="#Helvetica-53"/>
     <use xlink:href="#Helvetica-74" x="66.699219"/>
     <use xlink:href="#Helvetica-61" x="94.482422"/>
     <use xlink:href="#Helvetica-72" x="150.097656"/>
     <use xlink:href="#Helvetica-74" x="183.398438"/>
    </g>
   </g>
   <g id="legend_1">
    <g id="patch_7">
     <path d="M 96.266562 105.486428 
L 183.961875 105.486428 
Q 185.961875 105.486428 185.961875 103.486428 
L 185.961875 73.970803 
Q 185.961875 71.970803 183.961875 71.970803 
L 96.266562 71.970803 
Q 94.266562 71.970803 94.266562 73.970803 
L 94.266562 103.486428 
Q 94.266562 105.486428 96.266562 105.486428 
z
" style="fill: #ffffff; opacity: 0.8; stroke: #cccccc; stroke-linejoin: miter"/>
    </g>
    <g id="PathCollection_4">
     <defs>
      <path id="mfaf8923eda" d="M 0 3 
C 0.795609 3 1.55874 2.683901 2.12132 2.12132 
C 2.683901 1.55874 3 0.795609 3 0 
C 3 -0.795609 2.683901 -1.55874 2.12132 -2.12132 
C 1.55874 -2.683901 0.795609 -3 0 -3 
C -0.795609 -3 -1.55874 -2.683901 -2.12132 -2.12132 
C -2.683901 -1.55874 -3 -0.795609 -3 0 
C -3 0.795609 -2.683901 1.55874 -2.12132 2.12132 
C -1.55874 2.683901 -0.795609 3 0 3 
z
" style="stroke: #e6a8a5"/>
     </defs>
     <g>
      <use xlink:href="#mfaf8923eda" x="104.266562" y="81.51924" style="fill: #e6a8a5; stroke: #e6a8a5"/>
     </g>
    </g>
    <g id="text_4">
     <!-- Paired, Cancer -->
     <g transform="translate(114.266562 84.14424)scale(0.1 -0.1)">
      <defs>
       <path id="Helvetica-50" d="M 547 4591 
L 2613 4591 
Q 3225 4591 3600 4245 
Q 3975 3900 3975 3275 
Q 3975 2738 3640 2339 
Q 3306 1941 2613 1941 
L 1169 1941 
L 1169 0 
L 547 0 
L 547 4591 
z
M 3347 3272 
Q 3347 3778 2972 3959 
Q 2766 4056 2406 4056 
L 1169 4056 
L 1169 2466 
L 2406 2466 
Q 2825 2466 3086 2644 
Q 3347 2822 3347 3272 
z
" transform="scale(0.015625)"/>
       <path id="Helvetica-69" d="M 413 3331 
L 984 3331 
L 984 0 
L 413 0 
L 413 3331 
z
M 413 4591 
L 984 4591 
L 984 3953 
L 413 3953 
L 413 4591 
z
" transform="scale(0.015625)"/>
       <path id="Helvetica-65" d="M 1806 3422 
Q 2163 3422 2497 3255 
Q 2831 3088 3006 2822 
Q 3175 2569 3231 2231 
Q 3281 2000 3281 1494 
L 828 1494 
Q 844 984 1069 676 
Q 1294 369 1766 369 
Q 2206 369 2469 659 
Q 2619 828 2681 1050 
L 3234 1050 
Q 3213 866 3089 639 
Q 2966 413 2813 269 
Q 2556 19 2178 -69 
Q 1975 -119 1719 -119 
Q 1094 -119 659 336 
Q 225 791 225 1609 
Q 225 2416 662 2919 
Q 1100 3422 1806 3422 
z
M 2703 1941 
Q 2669 2306 2544 2525 
Q 2313 2931 1772 2931 
Q 1384 2931 1121 2651 
Q 859 2372 844 1941 
L 2703 1941 
z
M 1753 3428 
L 1753 3428 
z
" transform="scale(0.015625)"/>
       <path id="Helvetica-64" d="M 769 1634 
Q 769 1097 997 734 
Q 1225 372 1728 372 
Q 2119 372 2370 708 
Q 2622 1044 2622 1672 
Q 2622 2306 2362 2611 
Q 2103 2916 1722 2916 
Q 1297 2916 1033 2591 
Q 769 2266 769 1634 
z
M 1616 3406 
Q 2000 3406 2259 3244 
Q 2409 3150 2600 2916 
L 2600 4606 
L 3141 4606 
L 3141 0 
L 2634 0 
L 2634 466 
Q 2438 156 2169 18 
Q 1900 -119 1553 -119 
Q 994 -119 584 351 
Q 175 822 175 1603 
Q 175 2334 548 2870 
Q 922 3406 1616 3406 
z
" transform="scale(0.015625)"/>
       <path id="Helvetica-2c" d="M 531 -653 
Q 747 -616 834 -350 
Q 881 -209 881 -78 
Q 881 -56 879 -39 
Q 878 -22 872 0 
L 531 0 
L 531 681 
L 1200 681 
L 1200 50 
Q 1200 -322 1050 -603 
Q 900 -884 531 -950 
L 531 -653 
z
" transform="scale(0.015625)"/>
       <path id="Helvetica-20" transform="scale(0.015625)"/>
       <path id="Helvetica-43" d="M 2422 4716 
Q 3294 4716 3775 4256 
Q 4256 3797 4309 3213 
L 3703 3213 
Q 3600 3656 3292 3915 
Q 2984 4175 2428 4175 
Q 1750 4175 1333 3698 
Q 916 3222 916 2238 
Q 916 1431 1292 929 
Q 1669 428 2416 428 
Q 3103 428 3463 956 
Q 3653 1234 3747 1688 
L 4353 1688 
Q 4272 963 3816 472 
Q 3269 -119 2341 -119 
Q 1541 -119 997 366 
Q 281 1006 281 2344 
Q 281 3359 819 4009 
Q 1400 4716 2422 4716 
z
M 2297 4716 
L 2297 4716 
z
" transform="scale(0.015625)"/>
       <path id="Helvetica-6e" d="M 413 3347 
L 947 3347 
L 947 2872 
Q 1184 3166 1450 3294 
Q 1716 3422 2041 3422 
Q 2753 3422 3003 2925 
Q 3141 2653 3141 2147 
L 3141 0 
L 2569 0 
L 2569 2109 
Q 2569 2416 2478 2603 
Q 2328 2916 1934 2916 
Q 1734 2916 1606 2875 
Q 1375 2806 1200 2600 
Q 1059 2434 1017 2257 
Q 975 2081 975 1753 
L 975 0 
L 413 0 
L 413 3347 
z
M 1734 3428 
L 1734 3428 
z
" transform="scale(0.015625)"/>
       <path id="Helvetica-63" d="M 1703 3444 
Q 2269 3444 2623 3169 
Q 2978 2894 3050 2222 
L 2503 2222 
Q 2453 2531 2275 2736 
Q 2097 2941 1703 2941 
Q 1166 2941 934 2416 
Q 784 2075 784 1575 
Q 784 1072 996 728 
Q 1209 384 1666 384 
Q 2016 384 2220 598 
Q 2425 813 2503 1184 
L 3050 1184 
Q 2956 519 2581 211 
Q 2206 -97 1622 -97 
Q 966 -97 575 383 
Q 184 863 184 1581 
Q 184 2463 612 2953 
Q 1041 3444 1703 3444 
z
M 1616 3428 
L 1616 3428 
z
" transform="scale(0.015625)"/>
      </defs>
      <use xlink:href="#Helvetica-50"/>
      <use xlink:href="#Helvetica-61" x="66.699219"/>
      <use xlink:href="#Helvetica-69" x="122.314453"/>
      <use xlink:href="#Helvetica-72" x="144.53125"/>
      <use xlink:href="#Helvetica-65" x="177.832031"/>
      <use xlink:href="#Helvetica-64" x="233.447266"/>
      <use xlink:href="#Helvetica-2c" x="289.0625"/>
      <use xlink:href="#Helvetica-20" x="316.845703"/>
      <use xlink:href="#Helvetica-43" x="344.628906"/>
      <use xlink:href="#Helvetica-61" x="416.845703"/>
      <use xlink:href="#Helvetica-6e" x="472.460938"/>
      <use xlink:href="#Helvetica-63" x="528.076172"/>
      <use xlink:href="#Helvetica-65" x="578.076172"/>
      <use xlink:href="#Helvetica-72" x="633.691406"/>
     </g>
    </g>
    <g id="PathCollection_5">
     <defs>
      <path id="mdb59989350" d="M 0 3 
C 0.795609 3 1.55874 2.683901 2.12132 2.12132 
C 2.683901 1.55874 3 0.795609 3 0 
C 3 -0.795609 2.683901 -1.55874 2.12132 -2.12132 
C 1.55874 -2.683901 0.795609 -3 0 -3 
C -0.795609 -3 -1.55874 -2.683901 -2.12132 -2.12132 
C -2.683901 -1.55874 -3 -0.795609 -3 0 
C -3 0.795609 -2.683901 1.55874 -2.12132 2.12132 
C -1.55874 2.683901 -0.795609 3 0 3 
z
" style="stroke: #cbcbcb"/>
     </defs>
     <g>
      <use xlink:href="#mdb59989350" x="104.266562" y="95.777053" style="fill: #cbcbcb; stroke: #cbcbcb"/>
     </g>
    </g>
    <g id="text_5">
     <!-- Paired, Normal -->
     <g transform="translate(114.266562 98.402053)scale(0.1 -0.1)">
      <defs>
       <path id="Helvetica-4e" d="M 488 4591 
L 1222 4591 
L 3541 872 
L 3541 4591 
L 4131 4591 
L 4131 0 
L 3434 0 
L 1081 3716 
L 1081 0 
L 488 0 
L 488 4591 
z
M 2269 4591 
L 2269 4591 
z
" transform="scale(0.015625)"/>
       <path id="Helvetica-6f" d="M 1741 363 
Q 2300 363 2508 786 
Q 2716 1209 2716 1728 
Q 2716 2197 2566 2491 
Q 2328 2953 1747 2953 
Q 1231 2953 997 2559 
Q 763 2166 763 1609 
Q 763 1075 997 719 
Q 1231 363 1741 363 
z
M 1763 3444 
Q 2409 3444 2856 3012 
Q 3303 2581 3303 1744 
Q 3303 934 2909 406 
Q 2516 -122 1688 -122 
Q 997 -122 590 345 
Q 184 813 184 1600 
Q 184 2444 612 2944 
Q 1041 3444 1763 3444 
z
M 1744 3428 
L 1744 3428 
z
" transform="scale(0.015625)"/>
       <path id="Helvetica-6d" d="M 413 3347 
L 969 3347 
L 969 2872 
Q 1169 3119 1331 3231 
Q 1609 3422 1963 3422 
Q 2363 3422 2606 3225 
Q 2744 3113 2856 2894 
Q 3044 3163 3297 3292 
Q 3550 3422 3866 3422 
Q 4541 3422 4784 2934 
Q 4916 2672 4916 2228 
L 4916 0 
L 4331 0 
L 4331 2325 
Q 4331 2659 4164 2784 
Q 3997 2909 3756 2909 
Q 3425 2909 3186 2687 
Q 2947 2466 2947 1947 
L 2947 0 
L 2375 0 
L 2375 2184 
Q 2375 2525 2294 2681 
Q 2166 2916 1816 2916 
Q 1497 2916 1236 2669 
Q 975 2422 975 1775 
L 975 0 
L 413 0 
L 413 3347 
z
" transform="scale(0.015625)"/>
       <path id="Helvetica-6c" d="M 428 4591 
L 991 4591 
L 991 0 
L 428 0 
L 428 4591 
z
" transform="scale(0.015625)"/>
      </defs>
      <use xlink:href="#Helvetica-50"/>
      <use xlink:href="#Helvetica-61" x="66.699219"/>
      <use xlink:href="#Helvetica-69" x="122.314453"/>
      <use xlink:href="#Helvetica-72" x="144.53125"/>
      <use xlink:href="#Helvetica-65" x="177.832031"/>
      <use xlink:href="#Helvetica-64" x="233.447266"/>
      <use xlink:href="#Helvetica-2c" x="289.0625"/>
      <use xlink:href="#Helvetica-20" x="316.845703"/>
      <use xlink:href="#Helvetica-4e" x="344.628906"/>
      <use xlink:href="#Helvetica-6f" x="416.845703"/>
      <use xlink:href="#Helvetica-72" x="472.460938"/>
      <use xlink:href="#Helvetica-6d" x="505.761719"/>
      <use xlink:href="#Helvetica-61" x="589.0625"/>
      <use xlink:href="#Helvetica-6c" x="644.677734"/>
     </g>
    </g>
   </g>
  </g>
  <g id="axes_2">
   <g id="patch_8">
    <path d="M 23.561875 225.741176 
L 190.961875 225.741176 
L 190.961875 115.974749 
L 23.561875 115.974749 
z
" style="fill: #ffffff"/>
   </g>
   <g id="PathCollection_6">
    <defs>
     <path id="C1_0_c4b69a3de4" d="M 0 3 
C 0.795609 3 1.55874 2.683901 2.12132 2.12132 
C 2.683901 1.55874 3 0.795609 3 -0 
C 3 -0.795609 2.683901 -1.55874 2.12132 -2.12132 
C 1.55874 -2.683901 0.795609 -3 0 -3 
C -0.795609 -3 -1.55874 -2.683901 -2.12132 -2.12132 
C -2.683901 -1.55874 -3 -0.795609 -3 0 
C -3 0.795609 -2.683901 1.55874 -2.12132 2.12132 
C -1.55874 2.683901 -0.795609 3 0 3 
z
"/>
    </defs>
    <g clip-path="url(#p465b60ec63)">
     <use xlink:href="#C1_0_c4b69a3de4" x="53.057895" y="126.18267" style="fill: #e6a8a5; stroke: #ffffff; stroke-width: 0.48"/>
    </g>
    <g clip-path="url(#p465b60ec63)">
     <use xlink:href="#C1_0_c4b69a3de4" x="79.27683" y="121.879905" style="fill: #e6a8a5; stroke: #ffffff; stroke-width: 0.48"/>
    </g>
    <g clip-path="url(#p465b60ec63)">
     <use xlink:href="#C1_0_c4b69a3de4" x="44.678064" y="131.793881" style="fill: #e6a8a5; stroke: #ffffff; stroke-width: 0.48"/>
    </g>
    <g clip-path="url(#p465b60ec63)">
     <use xlink:href="#C1_0_c4b69a3de4" x="153.665018" y="147.166014" style="fill: #e6a8a5; stroke: #ffffff; stroke-width: 0.48"/>
    </g>
    <g clip-path="url(#p465b60ec63)">
     <use xlink:href="#C1_0_c4b69a3de4" x="151.511047" y="199.538333" style="fill: #e6a8a5; stroke: #ffffff; stroke-width: 0.48"/>
    </g>
    <g clip-path="url(#p465b60ec63)">
     <use xlink:href="#C1_0_c4b69a3de4" x="56.778288" y="199.136179" style="fill: #e6a8a5; stroke: #ffffff; stroke-width: 0.48"/>
    </g>
    <g clip-path="url(#p465b60ec63)">
     <use xlink:href="#C1_0_c4b69a3de4" x="144.345595" y="144.625074" style="fill: #e6a8a5; stroke: #ffffff; stroke-width: 0.48"/>
    </g>
    <g clip-path="url(#p465b60ec63)">
     <use xlink:href="#C1_0_c4b69a3de4" x="181.584177" y="144.916121" style="fill: #e6a8a5; stroke: #ffffff; stroke-width: 0.48"/>
    </g>
    <g clip-path="url(#p465b60ec63)">
     <use xlink:href="#C1_0_c4b69a3de4" x="115.339509" y="156.974409" style="fill: #e6a8a5; stroke: #ffffff; stroke-width: 0.48"/>
    </g>
    <g clip-path="url(#p465b60ec63)">
     <use xlink:href="#C1_0_c4b69a3de4" x="79.442663" y="158.535016" style="fill: #e6a8a5; stroke: #ffffff; stroke-width: 0.48"/>
    </g>
    <g clip-path="url(#p465b60ec63)">
     <use xlink:href="#C1_0_c4b69a3de4" x="185.132069" y="149.760791" style="fill: #e6a8a5; stroke: #ffffff; stroke-width: 0.48"/>
    </g>
    <g clip-path="url(#p465b60ec63)">
     <use xlink:href="#C1_0_c4b69a3de4" x="178.185766" y="140.266688" style="fill: #e6a8a5; stroke: #ffffff; stroke-width: 0.48"/>
    </g>
    <g clip-path="url(#p465b60ec63)">
     <use xlink:href="#C1_0_c4b69a3de4" x="77.35737" y="164.517734" style="fill: #e6a8a5; stroke: #ffffff; stroke-width: 0.48"/>
    </g>
    <g clip-path="url(#p465b60ec63)">
     <use xlink:href="#C1_0_c4b69a3de4" x="46.037911" y="168.238342" style="fill: #e6a8a5; stroke: #ffffff; stroke-width: 0.48"/>
    </g>
    <g clip-path="url(#p465b60ec63)">
     <use xlink:href="#C1_0_c4b69a3de4" x="89.558855" y="142.860713" style="fill: #e6a8a5; stroke: #ffffff; stroke-width: 0.48"/>
    </g>
    <g clip-path="url(#p465b60ec63)">
     <use xlink:href="#C1_0_c4b69a3de4" x="144.956872" y="157.693903" style="fill: #e6a8a5; stroke: #ffffff; stroke-width: 0.48"/>
    </g>
    <g clip-path="url(#p465b60ec63)">
     <use xlink:href="#C1_0_c4b69a3de4" x="73.692637" y="122.105554" style="fill: #e6a8a5; stroke: #ffffff; stroke-width: 0.48"/>
    </g>
    <g clip-path="url(#p465b60ec63)">
     <use xlink:href="#C1_0_c4b69a3de4" x="71.661675" y="127.589059" style="fill: #e6a8a5; stroke: #ffffff; stroke-width: 0.48"/>
    </g>
    <g clip-path="url(#p465b60ec63)">
     <use xlink:href="#C1_0_c4b69a3de4" x="93.351307" y="153.35402" style="fill: #e6a8a5; stroke: #ffffff; stroke-width: 0.48"/>
    </g>
    <g clip-path="url(#p465b60ec63)">
     <use xlink:href="#C1_0_c4b69a3de4" x="66.661633" y="173.986176" style="fill: #e6a8a5; stroke: #ffffff; stroke-width: 0.48"/>
    </g>
    <g clip-path="url(#p465b60ec63)">
     <use xlink:href="#C1_0_c4b69a3de4" x="127.998546" y="185.643913" style="fill: #e6a8a5; stroke: #ffffff; stroke-width: 0.48"/>
    </g>
    <g clip-path="url(#p465b60ec63)">
     <use xlink:href="#C1_0_c4b69a3de4" x="159.379594" y="150.907928" style="fill: #e6a8a5; stroke: #ffffff; stroke-width: 0.48"/>
    </g>
    <g clip-path="url(#p465b60ec63)">
     <use xlink:href="#C1_0_c4b69a3de4" x="82.196038" y="186.983412" style="fill: #e6a8a5; stroke: #ffffff; stroke-width: 0.48"/>
    </g>
    <g clip-path="url(#p465b60ec63)">
     <use xlink:href="#C1_0_c4b69a3de4" x="178.111531" y="145.776655" style="fill: #e6a8a5; stroke: #ffffff; stroke-width: 0.48"/>
    </g>
    <g clip-path="url(#p465b60ec63)">
     <use xlink:href="#C1_0_c4b69a3de4" x="121.307231" y="188.168401" style="fill: #e6a8a5; stroke: #ffffff; stroke-width: 0.48"/>
    </g>
    <g clip-path="url(#p465b60ec63)">
     <use xlink:href="#C1_0_c4b69a3de4" x="71.788578" y="130.967524" style="fill: #e6a8a5; stroke: #ffffff; stroke-width: 0.48"/>
    </g>
    <g clip-path="url(#p465b60ec63)">
     <use xlink:href="#C1_0_c4b69a3de4" x="156.926525" y="157.063591" style="fill: #e6a8a5; stroke: #ffffff; stroke-width: 0.48"/>
    </g>
    <g clip-path="url(#p465b60ec63)">
     <use xlink:href="#C1_0_c4b69a3de4" x="181.122268" y="143.449766" style="fill: #e6a8a5; stroke: #ffffff; stroke-width: 0.48"/>
    </g>
    <g clip-path="url(#p465b60ec63)">
     <use xlink:href="#C1_0_c4b69a3de4" x="143.033875" y="165.314053" style="fill: #e6a8a5; stroke: #ffffff; stroke-width: 0.48"/>
    </g>
    <g clip-path="url(#p465b60ec63)">
     <use xlink:href="#C1_0_c4b69a3de4" x="53.028943" y="214.119199" style="fill: #cbcbcb; stroke: #ffffff; stroke-width: 0.48"/>
    </g>
    <g clip-path="url(#p465b60ec63)">
     <use xlink:href="#C1_0_c4b69a3de4" x="55.199093" y="218.116264" style="fill: #cbcbcb; stroke: #ffffff; stroke-width: 0.48"/>
    </g>
    <g clip-path="url(#p465b60ec63)">
     <use xlink:href="#C1_0_c4b69a3de4" x="58.009522" y="208.714962" style="fill: #cbcbcb; stroke: #ffffff; stroke-width: 0.48"/>
    </g>
    <g clip-path="url(#p465b60ec63)">
     <use xlink:href="#C1_0_c4b69a3de4" x="57.781314" y="206.183451" style="fill: #cbcbcb; stroke: #ffffff; stroke-width: 0.48"/>
    </g>
    <g clip-path="url(#p465b60ec63)">
     <use xlink:href="#C1_0_c4b69a3de4" x="61.792205" y="218.418429" style="fill: #cbcbcb; stroke: #ffffff; stroke-width: 0.48"/>
    </g>
    <g clip-path="url(#p465b60ec63)">
     <use xlink:href="#C1_0_c4b69a3de4" x="48.396067" y="216.892692" style="fill: #cbcbcb; stroke: #ffffff; stroke-width: 0.48"/>
    </g>
    <g clip-path="url(#p465b60ec63)">
     <use xlink:href="#C1_0_c4b69a3de4" x="59.448554" y="213.452479" style="fill: #cbcbcb; stroke: #ffffff; stroke-width: 0.48"/>
    </g>
    <g clip-path="url(#p465b60ec63)">
     <use xlink:href="#C1_0_c4b69a3de4" x="56.590649" y="207.50819" style="fill: #cbcbcb; stroke: #ffffff; stroke-width: 0.48"/>
    </g>
    <g clip-path="url(#p465b60ec63)">
     <use xlink:href="#C1_0_c4b69a3de4" x="46.550447" y="213.922708" style="fill: #cbcbcb; stroke: #ffffff; stroke-width: 0.48"/>
    </g>
    <g clip-path="url(#p465b60ec63)">
     <use xlink:href="#C1_0_c4b69a3de4" x="57.317329" y="214.217299" style="fill: #cbcbcb; stroke: #ffffff; stroke-width: 0.48"/>
    </g>
    <g clip-path="url(#p465b60ec63)">
     <use xlink:href="#C1_0_c4b69a3de4" x="51.026191" y="213.051831" style="fill: #cbcbcb; stroke: #ffffff; stroke-width: 0.48"/>
    </g>
    <g clip-path="url(#p465b60ec63)">
     <use xlink:href="#C1_0_c4b69a3de4" x="58.335574" y="211.378667" style="fill: #cbcbcb; stroke: #ffffff; stroke-width: 0.48"/>
    </g>
    <g clip-path="url(#p465b60ec63)">
     <use xlink:href="#C1_0_c4b69a3de4" x="60.078274" y="209.529128" style="fill: #cbcbcb; stroke: #ffffff; stroke-width: 0.48"/>
    </g>
    <g clip-path="url(#p465b60ec63)">
     <use xlink:href="#C1_0_c4b69a3de4" x="48.114753" y="219.695815" style="fill: #cbcbcb; stroke: #ffffff; stroke-width: 0.48"/>
    </g>
    <g clip-path="url(#p465b60ec63)">
     <use xlink:href="#C1_0_c4b69a3de4" x="64.334576" y="206.832758" style="fill: #cbcbcb; stroke: #ffffff; stroke-width: 0.48"/>
    </g>
    <g clip-path="url(#p465b60ec63)">
     <use xlink:href="#C1_0_c4b69a3de4" x="60.883162" y="210.410951" style="fill: #cbcbcb; stroke: #ffffff; stroke-width: 0.48"/>
    </g>
    <g clip-path="url(#p465b60ec63)">
     <use xlink:href="#C1_0_c4b69a3de4" x="61.420898" y="212.327754" style="fill: #cbcbcb; stroke: #ffffff; stroke-width: 0.48"/>
    </g>
    <g clip-path="url(#p465b60ec63)">
     <use xlink:href="#C1_0_c4b69a3de4" x="63.803225" y="209.239283" style="fill: #cbcbcb; stroke: #ffffff; stroke-width: 0.48"/>
    </g>
    <g clip-path="url(#p465b60ec63)">
     <use xlink:href="#C1_0_c4b69a3de4" x="52.788818" y="207.438413" style="fill: #cbcbcb; stroke: #ffffff; stroke-width: 0.48"/>
    </g>
    <g clip-path="url(#p465b60ec63)">
     <use xlink:href="#C1_0_c4b69a3de4" x="57.362594" y="203.466449" style="fill: #cbcbcb; stroke: #ffffff; stroke-width: 0.48"/>
    </g>
    <g clip-path="url(#p465b60ec63)">
     <use xlink:href="#C1_0_c4b69a3de4" x="52.698253" y="210.741926" style="fill: #cbcbcb; stroke: #ffffff; stroke-width: 0.48"/>
    </g>
    <g clip-path="url(#p465b60ec63)">
     <use xlink:href="#C1_0_c4b69a3de4" x="58.925862" y="216.35727" style="fill: #cbcbcb; stroke: #ffffff; stroke-width: 0.48"/>
    </g>
    <g clip-path="url(#p465b60ec63)">
     <use xlink:href="#C1_0_c4b69a3de4" x="57.793818" y="211.548651" style="fill: #cbcbcb; stroke: #ffffff; stroke-width: 0.48"/>
    </g>
    <g clip-path="url(#p465b60ec63)">
     <use xlink:href="#C1_0_c4b69a3de4" x="57.67709" y="208.146787" style="fill: #cbcbcb; stroke: #ffffff; stroke-width: 0.48"/>
    </g>
    <g clip-path="url(#p465b60ec63)">
     <use xlink:href="#C1_0_c4b69a3de4" x="55.961966" y="211.166591" style="fill: #cbcbcb; stroke: #ffffff; stroke-width: 0.48"/>
    </g>
    <g clip-path="url(#p465b60ec63)">
     <use xlink:href="#C1_0_c4b69a3de4" x="53.048317" y="210.511572" style="fill: #cbcbcb; stroke: #ffffff; stroke-width: 0.48"/>
    </g>
    <g clip-path="url(#p465b60ec63)">
     <use xlink:href="#C1_0_c4b69a3de4" x="64.180002" y="214.894552" style="fill: #cbcbcb; stroke: #ffffff; stroke-width: 0.48"/>
    </g>
    <g clip-path="url(#p465b60ec63)">
     <use xlink:href="#C1_0_c4b69a3de4" x="54.126259" y="208.527969" style="fill: #cbcbcb; stroke: #ffffff; stroke-width: 0.48"/>
    </g>
    <g clip-path="url(#p465b60ec63)">
     <use xlink:href="#C1_0_c4b69a3de4" x="55.131492" y="214.065356" style="fill: #cbcbcb; stroke: #ffffff; stroke-width: 0.48"/>
    </g>
   </g>
   <g id="PathCollection_7"/>
   <g id="PathCollection_8"/>
   <g id="matplotlib.axis_3">
    <g id="xtick_5">
     <g id="line2d_7">
      <g>
       <use xlink:href="#mbcbaa0daa2" x="28.485404" y="225.741176" style="stroke: #000000; stroke-width: 0.8"/>
      </g>
     </g>
     <g id="text_6">
      <!-- -20 -->
      <g transform="translate(19.814467 239.849301)scale(0.12 -0.12)">
       <defs>
        <path id="Helvetica-32" d="M 200 0 
Q 231 578 439 1006 
Q 647 1434 1250 1784 
L 1850 2131 
Q 2253 2366 2416 2531 
Q 2672 2791 2672 3125 
Q 2672 3516 2437 3745 
Q 2203 3975 1813 3975 
Q 1234 3975 1013 3538 
Q 894 3303 881 2888 
L 309 2888 
Q 319 3472 525 3841 
Q 891 4491 1816 4491 
Q 2584 4491 2939 4075 
Q 3294 3659 3294 3150 
Q 3294 2613 2916 2231 
Q 2697 2009 2131 1694 
L 1703 1456 
Q 1397 1288 1222 1134 
Q 909 863 828 531 
L 3272 531 
L 3272 0 
L 200 0 
z
" transform="scale(0.015625)"/>
       </defs>
       <use xlink:href="#Helvetica-2d"/>
       <use xlink:href="#Helvetica-32" x="33.300781"/>
       <use xlink:href="#Helvetica-30" x="88.916016"/>
      </g>
     </g>
    </g>
    <g id="xtick_6">
     <g id="line2d_8">
      <g>
       <use xlink:href="#mbcbaa0daa2" x="77.720699" y="225.741176" style="stroke: #000000; stroke-width: 0.8"/>
      </g>
     </g>
     <g id="text_7">
      <!-- -10 -->
      <g transform="translate(69.049761 239.849301)scale(0.12 -0.12)">
       <use xlink:href="#Helvetica-2d"/>
       <use xlink:href="#Helvetica-31" x="33.300781"/>
       <use xlink:href="#Helvetica-30" x="88.916016"/>
      </g>
     </g>
    </g>
    <g id="xtick_7">
     <g id="line2d_9">
      <g>
       <use xlink:href="#mbcbaa0daa2" x="126.955993" y="225.741176" style="stroke: #000000; stroke-width: 0.8"/>
      </g>
     </g>
     <g id="text_8">
      <!-- 0 -->
      <g transform="translate(123.61943 239.849301)scale(0.12 -0.12)">
       <use xlink:href="#Helvetica-30"/>
      </g>
     </g>
    </g>
    <g id="xtick_8">
     <g id="line2d_10">
      <g>
       <use xlink:href="#mbcbaa0daa2" x="176.191287" y="225.741176" style="stroke: #000000; stroke-width: 0.8"/>
      </g>
     </g>
     <g id="text_9">
      <!-- 10 -->
      <g transform="translate(169.518162 239.849301)scale(0.12 -0.12)">
       <use xlink:href="#Helvetica-31"/>
       <use xlink:href="#Helvetica-30" x="55.615234"/>
      </g>
     </g>
    </g>
   </g>
   <g id="matplotlib.axis_4">
    <g id="ytick_3">
     <g id="line2d_11">
      <g>
       <use xlink:href="#me08f09ffba" x="23.561875" y="182.789096" style="stroke: #000000; stroke-width: 0.8"/>
      </g>
     </g>
     <g id="text_10">
      <!-- -10 -->
      <g transform="translate(0.72 187.093159)scale(0.12 -0.12)">
       <use xlink:href="#Helvetica-2d"/>
       <use xlink:href="#Helvetica-31" x="33.300781"/>
       <use xlink:href="#Helvetica-30" x="88.916016"/>
      </g>
     </g>
    </g>
    <g id="ytick_4">
     <g id="line2d_12">
      <g>
       <use xlink:href="#me08f09ffba" x="23.561875" y="135.064562" style="stroke: #000000; stroke-width: 0.8"/>
      </g>
     </g>
     <g id="text_11">
      <!-- 0 -->
      <g transform="translate(11.38875 139.368625)scale(0.12 -0.12)">
       <use xlink:href="#Helvetica-30"/>
      </g>
     </g>
    </g>
   </g>
   <g id="patch_9">
    <path d="M 23.561875 225.741176 
L 23.561875 115.974749 
" style="fill: none; stroke: #000000; stroke-width: 1.5; stroke-linejoin: miter; stroke-linecap: square"/>
   </g>
   <g id="patch_10">
    <path d="M 190.961875 225.741176 
L 190.961875 115.974749 
" style="fill: none; stroke: #000000; stroke-width: 1.5; stroke-linejoin: miter; stroke-linecap: square"/>
   </g>
   <g id="patch_11">
    <path d="M 23.561875 225.741176 
L 190.961875 225.741176 
" style="fill: none; stroke: #000000; stroke-width: 1.5; stroke-linejoin: miter; stroke-linecap: square"/>
   </g>
   <g id="patch_12">
    <path d="M 23.561875 115.974749 
L 190.961875 115.974749 
" style="fill: none; stroke: #000000; stroke-width: 1.5; stroke-linejoin: miter; stroke-linecap: square"/>
   </g>
   <g id="text_12">
    <!-- End -->
    <g transform="translate(98.365781 126.966149)scale(0.1 -0.1)">
     <defs>
      <path id="Helvetica-45" d="M 547 4591 
L 3894 4591 
L 3894 4028 
L 1153 4028 
L 1153 2634 
L 3688 2634 
L 3688 2103 
L 1153 2103 
L 1153 547 
L 3941 547 
L 3941 0 
L 547 0 
L 547 4591 
z
M 2244 4591 
L 2244 4591 
z
" transform="scale(0.015625)"/>
     </defs>
     <use xlink:href="#Helvetica-45"/>
     <use xlink:href="#Helvetica-6e" x="66.699219"/>
     <use xlink:href="#Helvetica-64" x="122.314453"/>
    </g>
   </g>
  </g>
 </g>
 <defs>
  <clipPath id="p1e280f76eb">
   <rect x="23.561875" y="0.72" width="167.4" height="109.766428"/>
  </clipPath>
  <clipPath id="p465b60ec63">
   <rect x="23.561875" y="115.974749" width="167.4" height="109.766428"/>
  </clipPath>
 </defs>
</svg>
