<?xml version="1.0" encoding="utf-8" standalone="no"?>
<!DOCTYPE svg PUBLIC "-//W3C//DTD SVG 1.1//EN"
  "http://www.w3.org/Graphics/SVG/1.1/DTD/svg11.dtd">
<svg xmlns:xlink="http://www.w3.org/1999/xlink" width="142.129965pt" height="400.867035pt" viewBox="0 0 142.129965 400.867035" xmlns="http://www.w3.org/2000/svg" version="1.1">
 <metadata>
  <rdf:RDF xmlns:dc="http://purl.org/dc/elements/1.1/" xmlns:cc="http://creativecommons.org/ns#" xmlns:rdf="http://www.w3.org/1999/02/22-rdf-syntax-ns#">
   <cc:Work>
    <dc:type rdf:resource="http://purl.org/dc/dcmitype/StillImage"/>
    <dc:date>2024-05-11T14:14:48.960638</dc:date>
    <dc:format>image/svg+xml</dc:format>
    <dc:creator>
     <cc:Agent>
      <dc:title>Matplotlib v3.5.1, https://matplotlib.org/</dc:title>
     </cc:Agent>
    </dc:creator>
   </cc:Work>
  </rdf:RDF>
 </metadata>
 <defs>
  <style type="text/css">*{stroke-linejoin: round; stroke-linecap: butt}</style>
 </defs>
 <g id="figure_1">
  <g id="patch_1">
   <path d="M 0 400.867035 
L 142.129965 400.867035 
L 142.129965 0 
L 0 0 
L 0 400.867035 
z
" style="fill: none"/>
  </g>
  <g id="axes_1">
   <g id="patch_2">
    <path d="M 0.72 400.147035 
L 69.304598 400.147035 
L 69.304598 24.726562 
L 0.72 24.726562 
z
" style="fill: #ffffff"/>
   </g>
   <g id="PathCollection_1"/>
   <g id="PathCollection_2"/>
   <g id="PathCollection_3"/>
   <g id="PathCollection_4"/>
   <g id="PathCollection_5"/>
   <g id="PathCollection_6"/>
   <g id="PathCollection_7"/>
   <g id="PathCollection_8"/>
   <g id="PathCollection_9"/>
   <g id="PathCollection_10"/>
   <g id="PathCollection_11"/>
   <g id="PathCollection_12"/>
   <g id="PathCollection_13"/>
   <g id="PathCollection_14"/>
   <g id="PathCollection_15"/>
   <g id="PathCollection_16"/>
   <g id="PathCollection_17"/>
   <g id="PathCollection_18"/>
   <g id="PathCollection_19"/>
   <g id="PathCollection_20"/>
   <g id="PathCollection_21"/>
   <g id="PathCollection_22"/>
   <g id="PathCollection_23"/>
   <g id="PathCollection_24"/>
   <g id="PathCollection_25"/>
   <g id="matplotlib.axis_1">
    <g id="xtick_1">
     <g id="line2d_1">
      <defs>
       <path id="mc7b7cbb9a7" d="M 0 0 
L 0 -2 
" style="stroke: #000000; stroke-width: 0.8"/>
      </defs>
      <g>
       <use xlink:href="#mc7b7cbb9a7" x="4.407344" y="24.726562" style="stroke: #000000; stroke-width: 0.8"/>
      </g>
     </g>
     <g id="text_1">
      <!-- 0 -->
      <g transform="translate(1.626875 20.642187)scale(0.1 -0.1)">
       <defs>
        <path id="Helvetica-30" d="M 1731 4475 
Q 2600 4475 2988 3759 
Q 3288 3206 3288 2244 
Q 3288 1331 3016 734 
Q 2622 -122 1728 -122 
Q 922 -122 528 578 
Q 200 1163 200 2147 
Q 200 2909 397 3456 
Q 766 4475 1731 4475 
z
M 1725 391 
Q 2163 391 2422 778 
Q 2681 1166 2681 2222 
Q 2681 2984 2493 3476 
Q 2306 3969 1766 3969 
Q 1269 3969 1039 3501 
Q 809 3034 809 2125 
Q 809 1441 956 1025 
Q 1181 391 1725 391 
z
" transform="scale(0.015625)"/>
       </defs>
       <use xlink:href="#Helvetica-30"/>
      </g>
     </g>
    </g>
    <g id="xtick_2">
     <g id="line2d_2">
      <g>
       <use xlink:href="#mc7b7cbb9a7" x="33.906096" y="24.726562" style="stroke: #000000; stroke-width: 0.8"/>
      </g>
     </g>
     <g id="text_2">
      <!-- 40 -->
      <g transform="translate(28.345158 20.642187)scale(0.1 -0.1)">
       <defs>
        <path id="Helvetica-34" d="M 2116 1584 
L 2116 3613 
L 681 1584 
L 2116 1584 
z
M 2125 0 
L 2125 1094 
L 163 1094 
L 163 1644 
L 2213 4488 
L 2688 4488 
L 2688 1584 
L 3347 1584 
L 3347 1094 
L 2688 1094 
L 2688 0 
L 2125 0 
z
" transform="scale(0.015625)"/>
       </defs>
       <use xlink:href="#Helvetica-34"/>
       <use xlink:href="#Helvetica-30" x="55.615234"/>
      </g>
     </g>
    </g>
    <g id="xtick_3">
     <g id="line2d_3">
      <g>
       <use xlink:href="#mc7b7cbb9a7" x="63.404847" y="24.726562" style="stroke: #000000; stroke-width: 0.8"/>
      </g>
     </g>
     <g id="text_3">
      <!-- 80 -->
      <g transform="translate(57.84391 20.642187)scale(0.1 -0.1)">
       <defs>
        <path id="Helvetica-38" d="M 1741 2600 
Q 2113 2600 2322 2808 
Q 2531 3016 2531 3303 
Q 2531 3553 2331 3762 
Q 2131 3972 1722 3972 
Q 1316 3972 1134 3762 
Q 953 3553 953 3272 
Q 953 2956 1187 2778 
Q 1422 2600 1741 2600 
z
M 1775 384 
Q 2166 384 2423 595 
Q 2681 806 2681 1225 
Q 2681 1659 2415 1884 
Q 2150 2109 1734 2109 
Q 1331 2109 1076 1879 
Q 822 1650 822 1244 
Q 822 894 1055 639 
Q 1288 384 1775 384 
z
M 975 2384 
Q 741 2484 609 2619 
Q 363 2869 363 3269 
Q 363 3769 725 4128 
Q 1088 4488 1753 4488 
Q 2397 4488 2762 4148 
Q 3128 3809 3128 3356 
Q 3128 2938 2916 2678 
Q 2797 2531 2547 2391 
Q 2825 2263 2984 2097 
Q 3281 1784 3281 1284 
Q 3281 694 2884 283 
Q 2488 -128 1763 -128 
Q 1109 -128 657 226 
Q 206 581 206 1256 
Q 206 1653 400 1942 
Q 594 2231 975 2384 
z
" transform="scale(0.015625)"/>
       </defs>
       <use xlink:href="#Helvetica-38"/>
       <use xlink:href="#Helvetica-30" x="55.615234"/>
      </g>
     </g>
    </g>
    <g id="text_4">
     <!-- -log(P) -->
     <g transform="translate(17.010424 9.46875)scale(0.12 -0.12)">
      <defs>
       <path id="Helvetica-2d" d="M 266 2072 
L 1834 2072 
L 1834 1494 
L 266 1494 
L 266 2072 
z
" transform="scale(0.015625)"/>
       <path id="Helvetica-6c" d="M 428 4591 
L 991 4591 
L 991 0 
L 428 0 
L 428 4591 
z
" transform="scale(0.015625)"/>
       <path id="Helvetica-6f" d="M 1741 363 
Q 2300 363 2508 786 
Q 2716 1209 2716 1728 
Q 2716 2197 2566 2491 
Q 2328 2953 1747 2953 
Q 1231 2953 997 2559 
Q 763 2166 763 1609 
Q 763 1075 997 719 
Q 1231 363 1741 363 
z
M 1763 3444 
Q 2409 3444 2856 3012 
Q 3303 2581 3303 1744 
Q 3303 934 2909 406 
Q 2516 -122 1688 -122 
Q 997 -122 590 345 
Q 184 813 184 1600 
Q 184 2444 612 2944 
Q 1041 3444 1763 3444 
z
M 1744 3428 
L 1744 3428 
z
" transform="scale(0.015625)"/>
       <path id="Helvetica-67" d="M 1594 3406 
Q 1988 3406 2281 3213 
Q 2441 3103 2606 2894 
L 2606 3316 
L 3125 3316 
L 3125 272 
Q 3125 -366 2938 -734 
Q 2588 -1416 1616 -1416 
Q 1075 -1416 706 -1173 
Q 338 -931 294 -416 
L 866 -416 
Q 906 -641 1028 -763 
Q 1219 -950 1628 -950 
Q 2275 -950 2475 -494 
Q 2594 -225 2584 466 
Q 2416 209 2178 84 
Q 1941 -41 1550 -41 
Q 1006 -41 598 345 
Q 191 731 191 1622 
Q 191 2463 602 2934 
Q 1013 3406 1594 3406 
z
M 2606 1688 
Q 2606 2309 2350 2609 
Q 2094 2909 1697 2909 
Q 1103 2909 884 2353 
Q 769 2056 769 1575 
Q 769 1009 998 714 
Q 1228 419 1616 419 
Q 2222 419 2469 966 
Q 2606 1275 2606 1688 
z
M 1659 3428 
L 1659 3428 
z
" transform="scale(0.015625)"/>
       <path id="Helvetica-28" d="M 1894 4666 
Q 1403 3713 1256 3263 
Q 1034 2578 1034 1681 
Q 1034 775 1288 25 
Q 1444 -438 1903 -1306 
L 1525 -1306 
Q 1069 -594 959 -397 
Q 850 -200 722 138 
Q 547 600 478 1125 
Q 444 1397 444 1644 
Q 444 2569 734 3291 
Q 919 3750 1503 4666 
L 1894 4666 
z
" transform="scale(0.015625)"/>
       <path id="Helvetica-50" d="M 547 4591 
L 2613 4591 
Q 3225 4591 3600 4245 
Q 3975 3900 3975 3275 
Q 3975 2738 3640 2339 
Q 3306 1941 2613 1941 
L 1169 1941 
L 1169 0 
L 547 0 
L 547 4591 
z
M 3347 3272 
Q 3347 3778 2972 3959 
Q 2766 4056 2406 4056 
L 1169 4056 
L 1169 2466 
L 2406 2466 
Q 2825 2466 3086 2644 
Q 3347 2822 3347 3272 
z
" transform="scale(0.015625)"/>
       <path id="Helvetica-29" d="M 222 -1306 
Q 719 -338 863 106 
Q 1081 778 1081 1681 
Q 1081 2584 828 3334 
Q 672 3797 213 4666 
L 591 4666 
Q 1072 3897 1173 3717 
Q 1275 3538 1394 3222 
Q 1544 2831 1608 2450 
Q 1672 2069 1672 1716 
Q 1672 791 1378 66 
Q 1194 -400 613 -1306 
L 222 -1306 
z
" transform="scale(0.015625)"/>
      </defs>
      <use xlink:href="#Helvetica-2d"/>
      <use xlink:href="#Helvetica-6c" x="33.300781"/>
      <use xlink:href="#Helvetica-6f" x="55.517578"/>
      <use xlink:href="#Helvetica-67" x="111.132812"/>
      <use xlink:href="#Helvetica-28" x="166.748047"/>
      <use xlink:href="#Helvetica-50" x="200.048828"/>
      <use xlink:href="#Helvetica-29" x="266.748047"/>
     </g>
    </g>
   </g>
   <g id="matplotlib.axis_2">
    <g id="ytick_1">
     <g id="line2d_4">
      <path d="M 0.72 32.234972 
L 69.304598 32.234972 
" clip-path="url(#p83c336fa50)" style="fill: none; stroke-dasharray: 0.8,1.32; stroke-dashoffset: 0; stroke: #b0b0b0; stroke-width: 0.8"/>
     </g>
    </g>
    <g id="ytick_2">
     <g id="line2d_5">
      <path d="M 0.72 47.251791 
L 69.304598 47.251791 
" clip-path="url(#p83c336fa50)" style="fill: none; stroke-dasharray: 0.8,1.32; stroke-dashoffset: 0; stroke: #b0b0b0; stroke-width: 0.8"/>
     </g>
    </g>
    <g id="ytick_3">
     <g id="line2d_6">
      <path d="M 0.72 62.26861 
L 69.304598 62.26861 
" clip-path="url(#p83c336fa50)" style="fill: none; stroke-dasharray: 0.8,1.32; stroke-dashoffset: 0; stroke: #b0b0b0; stroke-width: 0.8"/>
     </g>
    </g>
    <g id="ytick_4">
     <g id="line2d_7">
      <path d="M 0.72 77.285429 
L 69.304598 77.285429 
" clip-path="url(#p83c336fa50)" style="fill: none; stroke-dasharray: 0.8,1.32; stroke-dashoffset: 0; stroke: #b0b0b0; stroke-width: 0.8"/>
     </g>
    </g>
    <g id="ytick_5">
     <g id="line2d_8">
      <path d="M 0.72 92.302248 
L 69.304598 92.302248 
" clip-path="url(#p83c336fa50)" style="fill: none; stroke-dasharray: 0.8,1.32; stroke-dashoffset: 0; stroke: #b0b0b0; stroke-width: 0.8"/>
     </g>
    </g>
    <g id="ytick_6">
     <g id="line2d_9">
      <path d="M 0.72 107.319066 
L 69.304598 107.319066 
" clip-path="url(#p83c336fa50)" style="fill: none; stroke-dasharray: 0.8,1.32; stroke-dashoffset: 0; stroke: #b0b0b0; stroke-width: 0.8"/>
     </g>
    </g>
    <g id="ytick_7">
     <g id="line2d_10">
      <path d="M 0.72 122.335885 
L 69.304598 122.335885 
" clip-path="url(#p83c336fa50)" style="fill: none; stroke-dasharray: 0.8,1.32; stroke-dashoffset: 0; stroke: #b0b0b0; stroke-width: 0.8"/>
     </g>
    </g>
    <g id="ytick_8">
     <g id="line2d_11">
      <path d="M 0.72 137.352704 
L 69.304598 137.352704 
" clip-path="url(#p83c336fa50)" style="fill: none; stroke-dasharray: 0.8,1.32; stroke-dashoffset: 0; stroke: #b0b0b0; stroke-width: 0.8"/>
     </g>
    </g>
    <g id="ytick_9">
     <g id="line2d_12">
      <path d="M 0.72 152.369523 
L 69.304598 152.369523 
" clip-path="url(#p83c336fa50)" style="fill: none; stroke-dasharray: 0.8,1.32; stroke-dashoffset: 0; stroke: #b0b0b0; stroke-width: 0.8"/>
     </g>
    </g>
    <g id="ytick_10">
     <g id="line2d_13">
      <path d="M 0.72 167.386342 
L 69.304598 167.386342 
" clip-path="url(#p83c336fa50)" style="fill: none; stroke-dasharray: 0.8,1.32; stroke-dashoffset: 0; stroke: #b0b0b0; stroke-width: 0.8"/>
     </g>
    </g>
    <g id="ytick_11">
     <g id="line2d_14">
      <path d="M 0.72 182.403161 
L 69.304598 182.403161 
" clip-path="url(#p83c336fa50)" style="fill: none; stroke-dasharray: 0.8,1.32; stroke-dashoffset: 0; stroke: #b0b0b0; stroke-width: 0.8"/>
     </g>
    </g>
    <g id="ytick_12">
     <g id="line2d_15">
      <path d="M 0.72 197.41998 
L 69.304598 197.41998 
" clip-path="url(#p83c336fa50)" style="fill: none; stroke-dasharray: 0.8,1.32; stroke-dashoffset: 0; stroke: #b0b0b0; stroke-width: 0.8"/>
     </g>
    </g>
    <g id="ytick_13">
     <g id="line2d_16">
      <path d="M 0.72 212.436799 
L 69.304598 212.436799 
" clip-path="url(#p83c336fa50)" style="fill: none; stroke-dasharray: 0.8,1.32; stroke-dashoffset: 0; stroke: #b0b0b0; stroke-width: 0.8"/>
     </g>
    </g>
    <g id="ytick_14">
     <g id="line2d_17">
      <path d="M 0.72 227.453618 
L 69.304598 227.453618 
" clip-path="url(#p83c336fa50)" style="fill: none; stroke-dasharray: 0.8,1.32; stroke-dashoffset: 0; stroke: #b0b0b0; stroke-width: 0.8"/>
     </g>
    </g>
    <g id="ytick_15">
     <g id="line2d_18">
      <path d="M 0.72 242.470437 
L 69.304598 242.470437 
" clip-path="url(#p83c336fa50)" style="fill: none; stroke-dasharray: 0.8,1.32; stroke-dashoffset: 0; stroke: #b0b0b0; stroke-width: 0.8"/>
     </g>
    </g>
    <g id="ytick_16">
     <g id="line2d_19">
      <path d="M 0.72 257.487255 
L 69.304598 257.487255 
" clip-path="url(#p83c336fa50)" style="fill: none; stroke-dasharray: 0.8,1.32; stroke-dashoffset: 0; stroke: #b0b0b0; stroke-width: 0.8"/>
     </g>
    </g>
    <g id="ytick_17">
     <g id="line2d_20">
      <path d="M 0.72 272.504074 
L 69.304598 272.504074 
" clip-path="url(#p83c336fa50)" style="fill: none; stroke-dasharray: 0.8,1.32; stroke-dashoffset: 0; stroke: #b0b0b0; stroke-width: 0.8"/>
     </g>
    </g>
    <g id="ytick_18">
     <g id="line2d_21">
      <path d="M 0.72 287.520893 
L 69.304598 287.520893 
" clip-path="url(#p83c336fa50)" style="fill: none; stroke-dasharray: 0.8,1.32; stroke-dashoffset: 0; stroke: #b0b0b0; stroke-width: 0.8"/>
     </g>
    </g>
    <g id="ytick_19">
     <g id="line2d_22">
      <path d="M 0.72 302.537712 
L 69.304598 302.537712 
" clip-path="url(#p83c336fa50)" style="fill: none; stroke-dasharray: 0.8,1.32; stroke-dashoffset: 0; stroke: #b0b0b0; stroke-width: 0.8"/>
     </g>
    </g>
    <g id="ytick_20">
     <g id="line2d_23">
      <path d="M 0.72 317.554531 
L 69.304598 317.554531 
" clip-path="url(#p83c336fa50)" style="fill: none; stroke-dasharray: 0.8,1.32; stroke-dashoffset: 0; stroke: #b0b0b0; stroke-width: 0.8"/>
     </g>
    </g>
    <g id="ytick_21">
     <g id="line2d_24">
      <path d="M 0.72 332.57135 
L 69.304598 332.57135 
" clip-path="url(#p83c336fa50)" style="fill: none; stroke-dasharray: 0.8,1.32; stroke-dashoffset: 0; stroke: #b0b0b0; stroke-width: 0.8"/>
     </g>
    </g>
    <g id="ytick_22">
     <g id="line2d_25">
      <path d="M 0.72 347.588169 
L 69.304598 347.588169 
" clip-path="url(#p83c336fa50)" style="fill: none; stroke-dasharray: 0.8,1.32; stroke-dashoffset: 0; stroke: #b0b0b0; stroke-width: 0.8"/>
     </g>
    </g>
    <g id="ytick_23">
     <g id="line2d_26">
      <path d="M 0.72 362.604988 
L 69.304598 362.604988 
" clip-path="url(#p83c336fa50)" style="fill: none; stroke-dasharray: 0.8,1.32; stroke-dashoffset: 0; stroke: #b0b0b0; stroke-width: 0.8"/>
     </g>
    </g>
    <g id="ytick_24">
     <g id="line2d_27">
      <path d="M 0.72 377.621807 
L 69.304598 377.621807 
" clip-path="url(#p83c336fa50)" style="fill: none; stroke-dasharray: 0.8,1.32; stroke-dashoffset: 0; stroke: #b0b0b0; stroke-width: 0.8"/>
     </g>
    </g>
    <g id="ytick_25">
     <g id="line2d_28">
      <path d="M 0.72 392.638625 
L 69.304598 392.638625 
" clip-path="url(#p83c336fa50)" style="fill: none; stroke-dasharray: 0.8,1.32; stroke-dashoffset: 0; stroke: #b0b0b0; stroke-width: 0.8"/>
     </g>
    </g>
   </g>
   <g id="patch_3">
    <path d="M 0.72 400.147035 
L 0.72 24.726562 
" style="fill: none; stroke: #000000; stroke-linejoin: miter; stroke-linecap: square"/>
   </g>
   <g id="patch_4">
    <path d="M 69.304598 400.147035 
L 69.304598 24.726562 
" style="fill: none; stroke: #000000; stroke-linejoin: miter; stroke-linecap: square"/>
   </g>
   <g id="patch_5">
    <path d="M 0.72 400.147035 
L 69.304598 400.147035 
" style="fill: none; stroke: #000000; stroke-linejoin: miter; stroke-linecap: square"/>
   </g>
   <g id="patch_6">
    <path d="M 0.72 24.726562 
L 69.304598 24.726562 
" style="fill: none; stroke: #000000; stroke-linejoin: miter; stroke-linecap: square"/>
   </g>
   <g id="PathCollection_26">
    <defs>
     <path id="m53f02d6296" d="M 0 2.5 
C 0.663008 2.5 1.29895 2.236584 1.767767 1.767767 
C 2.236584 1.29895 2.5 0.663008 2.5 0 
C 2.5 -0.663008 2.236584 -1.29895 1.767767 -1.767767 
C 1.29895 -2.236584 0.663008 -2.5 0 -2.5 
C -0.663008 -2.5 -1.29895 -2.236584 -1.767767 -1.767767 
C -2.236584 -1.29895 -2.5 -0.663008 -2.5 0 
C -2.5 0.663008 -2.236584 1.29895 -1.767767 1.767767 
C -1.29895 2.236584 -0.663008 2.5 0 2.5 
z
" style="stroke: #000000; stroke-width: 0.5"/>
    </defs>
    <g clip-path="url(#p83c336fa50)">
     <use xlink:href="#m53f02d6296" x="30.640945" y="32.234972" style="fill: #f2ad60; stroke: #000000; stroke-width: 0.5"/>
    </g>
   </g>
   <g id="PathCollection_27">
    <g clip-path="url(#p83c336fa50)">
     <use xlink:href="#m53f02d6296" x="40.57484" y="47.251791" style="fill: #f2ad60; stroke: #000000; stroke-width: 0.5"/>
    </g>
   </g>
   <g id="PathCollection_28">
    <defs>
     <path id="m0ccfefb297" d="M 0 2.5 
C 0.663008 2.5 1.29895 2.236584 1.767767 1.767767 
C 2.236584 1.29895 2.5 0.663008 2.5 0 
C 2.5 -0.663008 2.236584 -1.29895 1.767767 -1.767767 
C 1.29895 -2.236584 0.663008 -2.5 0 -2.5 
C -0.663008 -2.5 -1.29895 -2.236584 -1.767767 -1.767767 
C -2.236584 -1.29895 -2.5 -0.663008 -2.5 0 
C -2.5 0.663008 -2.236584 1.29895 -1.767767 1.767767 
C -1.29895 2.236584 -0.663008 2.5 0 2.5 
z
" style="stroke: #000000; stroke-width: 0.5"/>
    </defs>
    <g clip-path="url(#p83c336fa50)">
     <use xlink:href="#m0ccfefb297" x="6.105345" y="62.26861" style="fill: #4193c5; stroke: #000000; stroke-width: 0.5"/>
    </g>
   </g>
   <g id="PathCollection_29">
    <g clip-path="url(#p83c336fa50)">
     <use xlink:href="#m0ccfefb297" x="45.484565" y="77.285429" style="fill: #4193c5; stroke: #000000; stroke-width: 0.5"/>
    </g>
   </g>
   <g id="PathCollection_30">
    <g clip-path="url(#p83c336fa50)">
     <use xlink:href="#m0ccfefb297" x="28.043397" y="92.302248" style="fill: #4193c5; stroke: #000000; stroke-width: 0.5"/>
    </g>
   </g>
   <g id="PathCollection_31">
    <g clip-path="url(#p83c336fa50)">
     <use xlink:href="#m0ccfefb297" x="21.666838" y="107.319066" style="fill: #4193c5; stroke: #000000; stroke-width: 0.5"/>
    </g>
   </g>
   <g id="PathCollection_32">
    <g clip-path="url(#p83c336fa50)">
     <use xlink:href="#m0ccfefb297" x="17.195572" y="122.335885" style="fill: #4193c5; stroke: #000000; stroke-width: 0.5"/>
    </g>
   </g>
   <g id="PathCollection_33">
    <g clip-path="url(#p83c336fa50)">
     <use xlink:href="#m0ccfefb297" x="25.274006" y="137.352704" style="fill: #4193c5; stroke: #000000; stroke-width: 0.5"/>
    </g>
   </g>
   <g id="PathCollection_34">
    <defs>
     <path id="mde713ddbb2" d="M 0 2.5 
C 0.663008 2.5 1.29895 2.236584 1.767767 1.767767 
C 2.236584 1.29895 2.5 0.663008 2.5 0 
C 2.5 -0.663008 2.236584 -1.29895 1.767767 -1.767767 
C 1.29895 -2.236584 0.663008 -2.5 0 -2.5 
C -0.663008 -2.5 -1.29895 -2.236584 -1.767767 -1.767767 
C -2.236584 -1.29895 -2.5 -0.663008 -2.5 0 
C -2.5 0.663008 -2.236584 1.29895 -1.767767 1.767767 
C -1.29895 2.236584 -0.663008 2.5 0 2.5 
z
" style="stroke: #000000; stroke-width: 0.5"/>
    </defs>
    <g clip-path="url(#p83c336fa50)">
     <use xlink:href="#mde713ddbb2" x="11.217426" y="152.369523" style="fill: #bcb616; stroke: #000000; stroke-width: 0.5"/>
    </g>
   </g>
   <g id="PathCollection_35">
    <g clip-path="url(#p83c336fa50)">
     <use xlink:href="#m53f02d6296" x="17.244921" y="167.386342" style="fill: #f2ad60; stroke: #000000; stroke-width: 0.5"/>
    </g>
   </g>
   <g id="PathCollection_36">
    <g clip-path="url(#p83c336fa50)">
     <use xlink:href="#m0ccfefb297" x="18.654279" y="182.403161" style="fill: #4193c5; stroke: #000000; stroke-width: 0.5"/>
    </g>
   </g>
   <g id="PathCollection_37">
    <g clip-path="url(#p83c336fa50)">
     <use xlink:href="#m0ccfefb297" x="20.257501" y="197.41998" style="fill: #4193c5; stroke: #000000; stroke-width: 0.5"/>
    </g>
   </g>
   <g id="PathCollection_38">
    <g clip-path="url(#p83c336fa50)">
     <use xlink:href="#m0ccfefb297" x="61.842476" y="212.436799" style="fill: #4193c5; stroke: #000000; stroke-width: 0.5"/>
    </g>
   </g>
   <g id="PathCollection_39">
    <defs>
     <path id="m75f9053af4" d="M 0 2.5 
C 0.663008 2.5 1.29895 2.236584 1.767767 1.767767 
C 2.236584 1.29895 2.5 0.663008 2.5 0 
C 2.5 -0.663008 2.236584 -1.29895 1.767767 -1.767767 
C 1.29895 -2.236584 0.663008 -2.5 0 -2.5 
C -0.663008 -2.5 -1.29895 -2.236584 -1.767767 -1.767767 
C -2.236584 -1.29895 -2.5 -0.663008 -2.5 0 
C -2.5 0.663008 -2.236584 1.29895 -1.767767 1.767767 
C -1.29895 2.236584 -0.663008 2.5 0 2.5 
z
" style="stroke: #000000; stroke-width: 0.5"/>
    </defs>
    <g clip-path="url(#p83c336fa50)">
     <use xlink:href="#m75f9053af4" x="15.498548" y="227.453618" style="fill: #c84112; stroke: #000000; stroke-width: 0.5"/>
    </g>
   </g>
   <g id="PathCollection_40">
    <g clip-path="url(#p83c336fa50)">
     <use xlink:href="#m75f9053af4" x="6.255786" y="242.470437" style="fill: #c84112; stroke: #000000; stroke-width: 0.5"/>
    </g>
   </g>
   <g id="PathCollection_41">
    <g clip-path="url(#p83c336fa50)">
     <use xlink:href="#m75f9053af4" x="11.172302" y="257.487255" style="fill: #c84112; stroke: #000000; stroke-width: 0.5"/>
    </g>
   </g>
   <g id="PathCollection_42">
    <g clip-path="url(#p83c336fa50)">
     <use xlink:href="#m75f9053af4" x="9.940695" y="272.504074" style="fill: #c84112; stroke: #000000; stroke-width: 0.5"/>
    </g>
   </g>
   <g id="PathCollection_43">
    <g clip-path="url(#p83c336fa50)">
     <use xlink:href="#m53f02d6296" x="26.028601" y="287.520893" style="fill: #f2ad60; stroke: #000000; stroke-width: 0.5"/>
    </g>
   </g>
   <g id="PathCollection_44">
    <g clip-path="url(#p83c336fa50)">
     <use xlink:href="#m75f9053af4" x="7.681798" y="302.537712" style="fill: #c84112; stroke: #000000; stroke-width: 0.5"/>
    </g>
   </g>
   <g id="PathCollection_45">
    <defs>
     <path id="m6e4bccc178" d="M 0 2.5 
C 0.663008 2.5 1.29895 2.236584 1.767767 1.767767 
C 2.236584 1.29895 2.5 0.663008 2.5 0 
C 2.5 -0.663008 2.236584 -1.29895 1.767767 -1.767767 
C 1.29895 -2.236584 0.663008 -2.5 0 -2.5 
C -0.663008 -2.5 -1.29895 -2.236584 -1.767767 -1.767767 
C -2.236584 -1.29895 -2.5 -0.663008 -2.5 0 
C -2.5 0.663008 -2.236584 1.29895 -1.767767 1.767767 
C -1.29895 2.236584 -0.663008 2.5 0 2.5 
z
" style="stroke: #000000; stroke-width: 0.5"/>
    </defs>
    <g clip-path="url(#p83c336fa50)">
     <use xlink:href="#m6e4bccc178" x="21.609598" y="317.554531" style="fill: #40478c; stroke: #000000; stroke-width: 0.5"/>
    </g>
   </g>
   <g id="PathCollection_46">
    <g clip-path="url(#p83c336fa50)">
     <use xlink:href="#m0ccfefb297" x="42.64603" y="332.57135" style="fill: #4193c5; stroke: #000000; stroke-width: 0.5"/>
    </g>
   </g>
   <g id="PathCollection_47">
    <g clip-path="url(#p83c336fa50)">
     <use xlink:href="#m75f9053af4" x="22.825575" y="347.588169" style="fill: #c84112; stroke: #000000; stroke-width: 0.5"/>
    </g>
   </g>
   <g id="PathCollection_48">
    <g clip-path="url(#p83c336fa50)">
     <use xlink:href="#m0ccfefb297" x="51.209915" y="362.604988" style="fill: #4193c5; stroke: #000000; stroke-width: 0.5"/>
    </g>
   </g>
   <g id="PathCollection_49">
    <g clip-path="url(#p83c336fa50)">
     <use xlink:href="#m6e4bccc178" x="24.649194" y="377.621807" style="fill: #40478c; stroke: #000000; stroke-width: 0.5"/>
    </g>
   </g>
   <g id="PathCollection_50">
    <g clip-path="url(#p83c336fa50)">
     <use xlink:href="#m75f9053af4" x="8.135432" y="392.638625" style="fill: #c84112; stroke: #000000; stroke-width: 0.5"/>
    </g>
   </g>
  </g>
  <g id="axes_2">
   <g id="patch_7">
    <path d="M 72.733828 400.147035 
L 141.318425 400.147035 
L 141.318425 24.726562 
L 72.733828 24.726562 
z
" style="fill: #ffffff"/>
   </g>
   <g id="PathCollection_51"/>
   <g id="PathCollection_52"/>
   <g id="PathCollection_53"/>
   <g id="PathCollection_54"/>
   <g id="PathCollection_55"/>
   <g id="PathCollection_56"/>
   <g id="PathCollection_57"/>
   <g id="PathCollection_58"/>
   <g id="PathCollection_59"/>
   <g id="PathCollection_60"/>
   <g id="PathCollection_61"/>
   <g id="PathCollection_62"/>
   <g id="PathCollection_63"/>
   <g id="PathCollection_64"/>
   <g id="PathCollection_65"/>
   <g id="PathCollection_66"/>
   <g id="PathCollection_67"/>
   <g id="PathCollection_68"/>
   <g id="PathCollection_69"/>
   <g id="PathCollection_70"/>
   <g id="PathCollection_71"/>
   <g id="PathCollection_72"/>
   <g id="PathCollection_73"/>
   <g id="PathCollection_74"/>
   <g id="PathCollection_75"/>
   <g id="matplotlib.axis_3">
    <g id="xtick_4">
     <g id="line2d_29">
      <g>
       <use xlink:href="#mc7b7cbb9a7" x="79.592287" y="24.726562" style="stroke: #000000; stroke-width: 0.8"/>
      </g>
     </g>
     <g id="text_5">
      <!-- 0.6 -->
      <g transform="translate(72.642287 20.642187)scale(0.1 -0.1)">
       <defs>
        <path id="Helvetica-2e" d="M 547 681 
L 1200 681 
L 1200 0 
L 547 0 
L 547 681 
z
" transform="scale(0.015625)"/>
        <path id="Helvetica-36" d="M 1872 4494 
Q 2622 4494 2917 4105 
Q 3213 3716 3213 3303 
L 2656 3303 
Q 2606 3569 2497 3719 
Q 2294 4000 1881 4000 
Q 1409 4000 1131 3564 
Q 853 3128 822 2316 
Q 1016 2600 1309 2741 
Q 1578 2866 1909 2866 
Q 2472 2866 2890 2506 
Q 3309 2147 3309 1434 
Q 3309 825 2912 354 
Q 2516 -116 1781 -116 
Q 1153 -116 697 361 
Q 241 838 241 1966 
Q 241 2800 444 3381 
Q 834 4494 1872 4494 
z
M 1831 384 
Q 2275 384 2495 682 
Q 2716 981 2716 1388 
Q 2716 1731 2519 2042 
Q 2322 2353 1803 2353 
Q 1441 2353 1167 2112 
Q 894 1872 894 1388 
Q 894 963 1142 673 
Q 1391 384 1831 384 
z
" transform="scale(0.015625)"/>
       </defs>
       <use xlink:href="#Helvetica-30"/>
       <use xlink:href="#Helvetica-2e" x="55.615234"/>
       <use xlink:href="#Helvetica-36" x="83.398438"/>
      </g>
     </g>
    </g>
    <g id="xtick_5">
     <g id="line2d_30">
      <g>
       <use xlink:href="#mc7b7cbb9a7" x="107.026126" y="24.726562" style="stroke: #000000; stroke-width: 0.8"/>
      </g>
     </g>
     <g id="text_6">
      <!-- 0.8 -->
      <g transform="translate(100.076126 20.642187)scale(0.1 -0.1)">
       <use xlink:href="#Helvetica-30"/>
       <use xlink:href="#Helvetica-2e" x="55.615234"/>
       <use xlink:href="#Helvetica-38" x="83.398438"/>
      </g>
     </g>
    </g>
    <g id="xtick_6">
     <g id="line2d_31">
      <g>
       <use xlink:href="#mc7b7cbb9a7" x="134.459965" y="24.726562" style="stroke: #000000; stroke-width: 0.8"/>
      </g>
     </g>
     <g id="text_7">
      <!-- 1.0 -->
      <g transform="translate(127.509965 20.642187)scale(0.1 -0.1)">
       <defs>
        <path id="Helvetica-31" d="M 613 3169 
L 613 3600 
Q 1222 3659 1462 3798 
Q 1703 3938 1822 4456 
L 2266 4456 
L 2266 0 
L 1666 0 
L 1666 3169 
L 613 3169 
z
" transform="scale(0.015625)"/>
       </defs>
       <use xlink:href="#Helvetica-31"/>
       <use xlink:href="#Helvetica-2e" x="55.615234"/>
       <use xlink:href="#Helvetica-30" x="83.398438"/>
      </g>
     </g>
    </g>
    <g id="text_8">
     <!-- Weight -->
     <g transform="translate(88.353001 9.46875)scale(0.12 -0.12)">
      <defs>
       <path id="Helvetica-57" d="M 791 4591 
L 1656 856 
L 2694 4591 
L 3369 4591 
L 4406 856 
L 5272 4591 
L 5953 4591 
L 4747 0 
L 4094 0 
L 3034 3806 
L 1969 0 
L 1316 0 
L 116 4591 
L 791 4591 
z
" transform="scale(0.015625)"/>
       <path id="Helvetica-65" d="M 1806 3422 
Q 2163 3422 2497 3255 
Q 2831 3088 3006 2822 
Q 3175 2569 3231 2231 
Q 3281 2000 3281 1494 
L 828 1494 
Q 844 984 1069 676 
Q 1294 369 1766 369 
Q 2206 369 2469 659 
Q 2619 828 2681 1050 
L 3234 1050 
Q 3213 866 3089 639 
Q 2966 413 2813 269 
Q 2556 19 2178 -69 
Q 1975 -119 1719 -119 
Q 1094 -119 659 336 
Q 225 791 225 1609 
Q 225 2416 662 2919 
Q 1100 3422 1806 3422 
z
M 2703 1941 
Q 2669 2306 2544 2525 
Q 2313 2931 1772 2931 
Q 1384 2931 1121 2651 
Q 859 2372 844 1941 
L 2703 1941 
z
M 1753 3428 
L 1753 3428 
z
" transform="scale(0.015625)"/>
       <path id="Helvetica-69" d="M 413 3331 
L 984 3331 
L 984 0 
L 413 0 
L 413 3331 
z
M 413 4591 
L 984 4591 
L 984 3953 
L 413 3953 
L 413 4591 
z
" transform="scale(0.015625)"/>
       <path id="Helvetica-68" d="M 413 4606 
L 975 4606 
L 975 2894 
Q 1175 3147 1334 3250 
Q 1606 3428 2013 3428 
Q 2741 3428 3000 2919 
Q 3141 2641 3141 2147 
L 3141 0 
L 2563 0 
L 2563 2109 
Q 2563 2478 2469 2650 
Q 2316 2925 1894 2925 
Q 1544 2925 1259 2684 
Q 975 2444 975 1775 
L 975 0 
L 413 0 
L 413 4606 
z
" transform="scale(0.015625)"/>
       <path id="Helvetica-74" d="M 525 4281 
L 1094 4281 
L 1094 3347 
L 1628 3347 
L 1628 2888 
L 1094 2888 
L 1094 703 
Q 1094 528 1213 469 
Q 1278 434 1431 434 
Q 1472 434 1519 436 
Q 1566 438 1628 444 
L 1628 0 
Q 1531 -28 1426 -40 
Q 1322 -53 1200 -53 
Q 806 -53 665 148 
Q 525 350 525 672 
L 525 2888 
L 72 2888 
L 72 3347 
L 525 3347 
L 525 4281 
z
" transform="scale(0.015625)"/>
      </defs>
      <use xlink:href="#Helvetica-57"/>
      <use xlink:href="#Helvetica-65" x="94.384766"/>
      <use xlink:href="#Helvetica-69" x="150"/>
      <use xlink:href="#Helvetica-67" x="172.216797"/>
      <use xlink:href="#Helvetica-68" x="227.832031"/>
      <use xlink:href="#Helvetica-74" x="283.447266"/>
     </g>
    </g>
   </g>
   <g id="matplotlib.axis_4">
    <g id="ytick_26">
     <g id="line2d_32">
      <path d="M 72.733828 32.234972 
L 141.318425 32.234972 
" clip-path="url(#p53b3e17edc)" style="fill: none; stroke-dasharray: 0.8,1.32; stroke-dashoffset: 0; stroke: #b0b0b0; stroke-width: 0.8"/>
     </g>
    </g>
    <g id="ytick_27">
     <g id="line2d_33">
      <path d="M 72.733828 47.251791 
L 141.318425 47.251791 
" clip-path="url(#p53b3e17edc)" style="fill: none; stroke-dasharray: 0.8,1.32; stroke-dashoffset: 0; stroke: #b0b0b0; stroke-width: 0.8"/>
     </g>
    </g>
    <g id="ytick_28">
     <g id="line2d_34">
      <path d="M 72.733828 62.26861 
L 141.318425 62.26861 
" clip-path="url(#p53b3e17edc)" style="fill: none; stroke-dasharray: 0.8,1.32; stroke-dashoffset: 0; stroke: #b0b0b0; stroke-width: 0.8"/>
     </g>
    </g>
    <g id="ytick_29">
     <g id="line2d_35">
      <path d="M 72.733828 77.285429 
L 141.318425 77.285429 
" clip-path="url(#p53b3e17edc)" style="fill: none; stroke-dasharray: 0.8,1.32; stroke-dashoffset: 0; stroke: #b0b0b0; stroke-width: 0.8"/>
     </g>
    </g>
    <g id="ytick_30">
     <g id="line2d_36">
      <path d="M 72.733828 92.302248 
L 141.318425 92.302248 
" clip-path="url(#p53b3e17edc)" style="fill: none; stroke-dasharray: 0.8,1.32; stroke-dashoffset: 0; stroke: #b0b0b0; stroke-width: 0.8"/>
     </g>
    </g>
    <g id="ytick_31">
     <g id="line2d_37">
      <path d="M 72.733828 107.319066 
L 141.318425 107.319066 
" clip-path="url(#p53b3e17edc)" style="fill: none; stroke-dasharray: 0.8,1.32; stroke-dashoffset: 0; stroke: #b0b0b0; stroke-width: 0.8"/>
     </g>
    </g>
    <g id="ytick_32">
     <g id="line2d_38">
      <path d="M 72.733828 122.335885 
L 141.318425 122.335885 
" clip-path="url(#p53b3e17edc)" style="fill: none; stroke-dasharray: 0.8,1.32; stroke-dashoffset: 0; stroke: #b0b0b0; stroke-width: 0.8"/>
     </g>
    </g>
    <g id="ytick_33">
     <g id="line2d_39">
      <path d="M 72.733828 137.352704 
L 141.318425 137.352704 
" clip-path="url(#p53b3e17edc)" style="fill: none; stroke-dasharray: 0.8,1.32; stroke-dashoffset: 0; stroke: #b0b0b0; stroke-width: 0.8"/>
     </g>
    </g>
    <g id="ytick_34">
     <g id="line2d_40">
      <path d="M 72.733828 152.369523 
L 141.318425 152.369523 
" clip-path="url(#p53b3e17edc)" style="fill: none; stroke-dasharray: 0.8,1.32; stroke-dashoffset: 0; stroke: #b0b0b0; stroke-width: 0.8"/>
     </g>
    </g>
    <g id="ytick_35">
     <g id="line2d_41">
      <path d="M 72.733828 167.386342 
L 141.318425 167.386342 
" clip-path="url(#p53b3e17edc)" style="fill: none; stroke-dasharray: 0.8,1.32; stroke-dashoffset: 0; stroke: #b0b0b0; stroke-width: 0.8"/>
     </g>
    </g>
    <g id="ytick_36">
     <g id="line2d_42">
      <path d="M 72.733828 182.403161 
L 141.318425 182.403161 
" clip-path="url(#p53b3e17edc)" style="fill: none; stroke-dasharray: 0.8,1.32; stroke-dashoffset: 0; stroke: #b0b0b0; stroke-width: 0.8"/>
     </g>
    </g>
    <g id="ytick_37">
     <g id="line2d_43">
      <path d="M 72.733828 197.41998 
L 141.318425 197.41998 
" clip-path="url(#p53b3e17edc)" style="fill: none; stroke-dasharray: 0.8,1.32; stroke-dashoffset: 0; stroke: #b0b0b0; stroke-width: 0.8"/>
     </g>
    </g>
    <g id="ytick_38">
     <g id="line2d_44">
      <path d="M 72.733828 212.436799 
L 141.318425 212.436799 
" clip-path="url(#p53b3e17edc)" style="fill: none; stroke-dasharray: 0.8,1.32; stroke-dashoffset: 0; stroke: #b0b0b0; stroke-width: 0.8"/>
     </g>
    </g>
    <g id="ytick_39">
     <g id="line2d_45">
      <path d="M 72.733828 227.453618 
L 141.318425 227.453618 
" clip-path="url(#p53b3e17edc)" style="fill: none; stroke-dasharray: 0.8,1.32; stroke-dashoffset: 0; stroke: #b0b0b0; stroke-width: 0.8"/>
     </g>
    </g>
    <g id="ytick_40">
     <g id="line2d_46">
      <path d="M 72.733828 242.470437 
L 141.318425 242.470437 
" clip-path="url(#p53b3e17edc)" style="fill: none; stroke-dasharray: 0.8,1.32; stroke-dashoffset: 0; stroke: #b0b0b0; stroke-width: 0.8"/>
     </g>
    </g>
    <g id="ytick_41">
     <g id="line2d_47">
      <path d="M 72.733828 257.487255 
L 141.318425 257.487255 
" clip-path="url(#p53b3e17edc)" style="fill: none; stroke-dasharray: 0.8,1.32; stroke-dashoffset: 0; stroke: #b0b0b0; stroke-width: 0.8"/>
     </g>
    </g>
    <g id="ytick_42">
     <g id="line2d_48">
      <path d="M 72.733828 272.504074 
L 141.318425 272.504074 
" clip-path="url(#p53b3e17edc)" style="fill: none; stroke-dasharray: 0.8,1.32; stroke-dashoffset: 0; stroke: #b0b0b0; stroke-width: 0.8"/>
     </g>
    </g>
    <g id="ytick_43">
     <g id="line2d_49">
      <path d="M 72.733828 287.520893 
L 141.318425 287.520893 
" clip-path="url(#p53b3e17edc)" style="fill: none; stroke-dasharray: 0.8,1.32; stroke-dashoffset: 0; stroke: #b0b0b0; stroke-width: 0.8"/>
     </g>
    </g>
    <g id="ytick_44">
     <g id="line2d_50">
      <path d="M 72.733828 302.537712 
L 141.318425 302.537712 
" clip-path="url(#p53b3e17edc)" style="fill: none; stroke-dasharray: 0.8,1.32; stroke-dashoffset: 0; stroke: #b0b0b0; stroke-width: 0.8"/>
     </g>
    </g>
    <g id="ytick_45">
     <g id="line2d_51">
      <path d="M 72.733828 317.554531 
L 141.318425 317.554531 
" clip-path="url(#p53b3e17edc)" style="fill: none; stroke-dasharray: 0.8,1.32; stroke-dashoffset: 0; stroke: #b0b0b0; stroke-width: 0.8"/>
     </g>
    </g>
    <g id="ytick_46">
     <g id="line2d_52">
      <path d="M 72.733828 332.57135 
L 141.318425 332.57135 
" clip-path="url(#p53b3e17edc)" style="fill: none; stroke-dasharray: 0.8,1.32; stroke-dashoffset: 0; stroke: #b0b0b0; stroke-width: 0.8"/>
     </g>
    </g>
    <g id="ytick_47">
     <g id="line2d_53">
      <path d="M 72.733828 347.588169 
L 141.318425 347.588169 
" clip-path="url(#p53b3e17edc)" style="fill: none; stroke-dasharray: 0.8,1.32; stroke-dashoffset: 0; stroke: #b0b0b0; stroke-width: 0.8"/>
     </g>
    </g>
    <g id="ytick_48">
     <g id="line2d_54">
      <path d="M 72.733828 362.604988 
L 141.318425 362.604988 
" clip-path="url(#p53b3e17edc)" style="fill: none; stroke-dasharray: 0.8,1.32; stroke-dashoffset: 0; stroke: #b0b0b0; stroke-width: 0.8"/>
     </g>
    </g>
    <g id="ytick_49">
     <g id="line2d_55">
      <path d="M 72.733828 377.621807 
L 141.318425 377.621807 
" clip-path="url(#p53b3e17edc)" style="fill: none; stroke-dasharray: 0.8,1.32; stroke-dashoffset: 0; stroke: #b0b0b0; stroke-width: 0.8"/>
     </g>
    </g>
    <g id="ytick_50">
     <g id="line2d_56">
      <path d="M 72.733828 392.638625 
L 141.318425 392.638625 
" clip-path="url(#p53b3e17edc)" style="fill: none; stroke-dasharray: 0.8,1.32; stroke-dashoffset: 0; stroke: #b0b0b0; stroke-width: 0.8"/>
     </g>
    </g>
   </g>
   <g id="patch_8">
    <path d="M 72.733828 400.147035 
L 72.733828 24.726562 
" style="fill: none; stroke: #000000; stroke-linejoin: miter; stroke-linecap: square"/>
   </g>
   <g id="patch_9">
    <path d="M 141.318425 400.147035 
L 141.318425 24.726562 
" style="fill: none; stroke: #000000; stroke-linejoin: miter; stroke-linecap: square"/>
   </g>
   <g id="patch_10">
    <path d="M 72.733828 400.147035 
L 141.318425 400.147035 
" style="fill: none; stroke: #000000; stroke-linejoin: miter; stroke-linecap: square"/>
   </g>
   <g id="patch_11">
    <path d="M 72.733828 24.726562 
L 141.318425 24.726562 
" style="fill: none; stroke: #000000; stroke-linejoin: miter; stroke-linecap: square"/>
   </g>
   <g id="PathCollection_76">
    <g clip-path="url(#p53b3e17edc)">
     <use xlink:href="#m53f02d6296" x="134.459965" y="32.234972" style="fill: #f2ad60; stroke: #000000; stroke-width: 0.5"/>
    </g>
   </g>
   <g id="PathCollection_77">
    <g clip-path="url(#p53b3e17edc)">
     <use xlink:href="#m53f02d6296" x="124.940925" y="47.251791" style="fill: #f2ad60; stroke: #000000; stroke-width: 0.5"/>
    </g>
   </g>
   <g id="PathCollection_78">
    <g clip-path="url(#p53b3e17edc)">
     <use xlink:href="#m0ccfefb297" x="121.35631" y="62.26861" style="fill: #4193c5; stroke: #000000; stroke-width: 0.5"/>
    </g>
   </g>
   <g id="PathCollection_79">
    <g clip-path="url(#p53b3e17edc)">
     <use xlink:href="#m0ccfefb297" x="120.52248" y="77.285429" style="fill: #4193c5; stroke: #000000; stroke-width: 0.5"/>
    </g>
   </g>
   <g id="PathCollection_80">
    <g clip-path="url(#p53b3e17edc)">
     <use xlink:href="#m0ccfefb297" x="114.423386" y="92.302248" style="fill: #4193c5; stroke: #000000; stroke-width: 0.5"/>
    </g>
   </g>
   <g id="PathCollection_81">
    <g clip-path="url(#p53b3e17edc)">
     <use xlink:href="#m0ccfefb297" x="114.323101" y="107.319066" style="fill: #4193c5; stroke: #000000; stroke-width: 0.5"/>
    </g>
   </g>
   <g id="PathCollection_82">
    <g clip-path="url(#p53b3e17edc)">
     <use xlink:href="#m0ccfefb297" x="114.163004" y="122.335885" style="fill: #4193c5; stroke: #000000; stroke-width: 0.5"/>
    </g>
   </g>
   <g id="PathCollection_83">
    <g clip-path="url(#p53b3e17edc)">
     <use xlink:href="#m0ccfefb297" x="113.635517" y="137.352704" style="fill: #4193c5; stroke: #000000; stroke-width: 0.5"/>
    </g>
   </g>
   <g id="PathCollection_84">
    <g clip-path="url(#p53b3e17edc)">
     <use xlink:href="#mde713ddbb2" x="113.322299" y="152.369523" style="fill: #bcb616; stroke: #000000; stroke-width: 0.5"/>
    </g>
   </g>
   <g id="PathCollection_85">
    <g clip-path="url(#p53b3e17edc)">
     <use xlink:href="#m53f02d6296" x="112.813619" y="167.386342" style="fill: #f2ad60; stroke: #000000; stroke-width: 0.5"/>
    </g>
   </g>
   <g id="PathCollection_86">
    <g clip-path="url(#p53b3e17edc)">
     <use xlink:href="#m0ccfefb297" x="110.2108" y="182.403161" style="fill: #4193c5; stroke: #000000; stroke-width: 0.5"/>
    </g>
   </g>
   <g id="PathCollection_87">
    <g clip-path="url(#p53b3e17edc)">
     <use xlink:href="#m0ccfefb297" x="110.203362" y="197.41998" style="fill: #4193c5; stroke: #000000; stroke-width: 0.5"/>
    </g>
   </g>
   <g id="PathCollection_88">
    <g clip-path="url(#p53b3e17edc)">
     <use xlink:href="#m0ccfefb297" x="99.452596" y="212.436799" style="fill: #4193c5; stroke: #000000; stroke-width: 0.5"/>
    </g>
   </g>
   <g id="PathCollection_89">
    <g clip-path="url(#p53b3e17edc)">
     <use xlink:href="#m75f9053af4" x="97.20234" y="227.453618" style="fill: #c84112; stroke: #000000; stroke-width: 0.5"/>
    </g>
   </g>
   <g id="PathCollection_90">
    <g clip-path="url(#p53b3e17edc)">
     <use xlink:href="#m75f9053af4" x="95.072232" y="242.470437" style="fill: #c84112; stroke: #000000; stroke-width: 0.5"/>
    </g>
   </g>
   <g id="PathCollection_91">
    <g clip-path="url(#p53b3e17edc)">
     <use xlink:href="#m75f9053af4" x="89.479312" y="257.487255" style="fill: #c84112; stroke: #000000; stroke-width: 0.5"/>
    </g>
   </g>
   <g id="PathCollection_92">
    <g clip-path="url(#p53b3e17edc)">
     <use xlink:href="#m75f9053af4" x="89.352248" y="272.504074" style="fill: #c84112; stroke: #000000; stroke-width: 0.5"/>
    </g>
   </g>
   <g id="PathCollection_93">
    <g clip-path="url(#p53b3e17edc)">
     <use xlink:href="#m53f02d6296" x="88.555101" y="287.520893" style="fill: #f2ad60; stroke: #000000; stroke-width: 0.5"/>
    </g>
   </g>
   <g id="PathCollection_94">
    <g clip-path="url(#p53b3e17edc)">
     <use xlink:href="#m75f9053af4" x="88.319617" y="302.537712" style="fill: #c84112; stroke: #000000; stroke-width: 0.5"/>
    </g>
   </g>
   <g id="PathCollection_95">
    <g clip-path="url(#p53b3e17edc)">
     <use xlink:href="#m6e4bccc178" x="86.838848" y="317.554531" style="fill: #40478c; stroke: #000000; stroke-width: 0.5"/>
    </g>
   </g>
   <g id="PathCollection_96">
    <g clip-path="url(#p53b3e17edc)">
     <use xlink:href="#m0ccfefb297" x="84.63501" y="332.57135" style="fill: #4193c5; stroke: #000000; stroke-width: 0.5"/>
    </g>
   </g>
   <g id="PathCollection_97">
    <g clip-path="url(#p53b3e17edc)">
     <use xlink:href="#m75f9053af4" x="84.348876" y="347.588169" style="fill: #c84112; stroke: #000000; stroke-width: 0.5"/>
    </g>
   </g>
   <g id="PathCollection_98">
    <g clip-path="url(#p53b3e17edc)">
     <use xlink:href="#m0ccfefb297" x="84.002502" y="362.604988" style="fill: #4193c5; stroke: #000000; stroke-width: 0.5"/>
    </g>
   </g>
   <g id="PathCollection_99">
    <g clip-path="url(#p53b3e17edc)">
     <use xlink:href="#m6e4bccc178" x="83.443815" y="377.621807" style="fill: #40478c; stroke: #000000; stroke-width: 0.5"/>
    </g>
   </g>
   <g id="PathCollection_100">
    <g clip-path="url(#p53b3e17edc)">
     <use xlink:href="#m75f9053af4" x="82.688396" y="392.638625" style="fill: #c84112; stroke: #000000; stroke-width: 0.5"/>
    </g>
   </g>
  </g>
 </g>
 <defs>
  <clipPath id="p83c336fa50">
   <rect x="0.72" y="24.726562" width="68.584598" height="375.420472"/>
  </clipPath>
  <clipPath id="p53b3e17edc">
   <rect x="72.733828" y="24.726562" width="68.584598" height="375.420472"/>
  </clipPath>
 </defs>
</svg>
