<svg xmlns="http://www.w3.org/2000/svg" xmlns:xlink="http://www.w3.org/1999/xlink" version="1.1" baseProfile="full" width="300" height="540" style="position:absolute;left:0;top:0;user-select:none"><rect width="300" height="540" x="0" y="0" id="0" fill="rgb(0,0,0)" fill-opacity="0"></rect><g><path d="M20 308.6C60.5 308.6 60.5 279.364 101 279.364L101 310.248C60.5 310.248 60.5 339.484 20 339.484Z" transform="translate(3 5.4)" fill="rgb(166,181,225)" fill-opacity="0.2"></path><path d="M20 80C60.5 80 60.5 72 101 72L101 111.708C60.5 111.708 60.5 119.708 20 119.708Z" transform="translate(3 5.4)" fill="rgb(166,181,225)" fill-opacity="0.2"></path><path d="M121 301.424C161.5 301.424 161.5 245.424 202 245.424L202 276.308C161.5 276.308 161.5 332.308 121 332.308Z" transform="translate(3 5.4)" fill="rgb(203,176,227)" fill-opacity="0.2"></path><path d="M121 332.308C161.5 332.308 161.5 276.308 202 276.308L202 316.016C161.5 316.016 161.5 372.016 121 372.016Z" transform="translate(3 5.4)" fill="rgb(203,176,227)" fill-opacity="0.2"></path><path d="M20 339.484C60.5 339.484 60.5 310.248 101 310.248L101 376.428C60.5 376.428 60.5 405.664 20 405.664Z" transform="translate(3 5.4)" fill="rgb(166,181,225)" fill-opacity="0.2"></path><path d="M20 119.708C60.5 119.708 60.5 111.708 101 111.708L101 177.888C60.5 177.888 60.5 185.888 20 185.888Z" transform="translate(3 5.4)" fill="rgb(166,181,225)" fill-opacity="0.2"></path><path d="M121 72C161.5 72 161.5 0 202 0L202 66.18C161.5 66.18 161.5 138.18 121 138.18Z" transform="translate(3 5.4)" fill="rgb(203,176,227)" fill-opacity="0.2"></path><path d="M121 138.18C161.5 138.18 161.5 66.18 202 66.18L202 132.36C161.5 132.36 161.5 204.36 121 204.36Z" transform="translate(3 5.4)" fill="rgb(203,176,227)" fill-opacity="0.2"></path><path d="M20 493.904C60.5 493.904 60.5 493.904 101 493.904L101 502.728C60.5 502.728 60.5 502.728 20 502.728Z" transform="translate(3 5.4)" fill="rgb(166,181,225)" fill-opacity="0.2"></path><path d="M121 515.964C161.5 515.964 161.5 507.964 202 507.964L202 516.788C161.5 516.788 161.5 524.788 121 524.788Z" transform="translate(3 5.4)" fill="rgb(84,142,179)" fill-opacity="0.2"></path><path d="M20 405.664C60.5 405.664 60.5 376.428 101 376.428L101 380.84C60.5 380.84 60.5 410.076 20 410.076Z" transform="translate(3 5.4)" fill="rgb(166,181,225)" fill-opacity="0.2"></path><path d="M20 185.888C60.5 185.888 60.5 177.888 101 177.888L101 186.712C60.5 186.712 60.5 194.712 20 194.712Z" transform="translate(3 5.4)" fill="rgb(166,181,225)" fill-opacity="0.2"></path><path d="M121 424.96C161.5 424.96 161.5 414.196 202 414.196L202 418.608C161.5 418.608 161.5 429.372 121 429.372Z" transform="translate(3 5.4)" fill="rgb(203,176,227)" fill-opacity="0.2"></path><path d="M121 429.372C161.5 429.372 161.5 418.608 202 418.608L202 427.432C161.5 427.432 161.5 438.196 121 438.196Z" transform="translate(3 5.4)" fill="rgb(203,176,227)" fill-opacity="0.2"></path><path d="M20 410.076C60.5 410.076 60.5 380.84 101 380.84L101 407.312C60.5 407.312 60.5 436.548 20 436.548Z" transform="translate(3 5.4)" fill="rgb(166,181,225)" fill-opacity="0.2"></path><path d="M20 194.712C60.5 194.712 60.5 186.712 101 186.712L101 213.184C60.5 213.184 60.5 221.184 20 221.184Z" transform="translate(3 5.4)" fill="rgb(166,181,225)" fill-opacity="0.2"></path><path d="M121 372.016C161.5 372.016 161.5 353.252 202 353.252L202 379.724C161.5 379.724 161.5 398.488 121 398.488Z" transform="translate(3 5.4)" fill="rgb(203,176,227)" fill-opacity="0.2"></path><path d="M121 398.488C161.5 398.488 161.5 379.724 202 379.724L202 406.196C161.5 406.196 161.5 424.96 121 424.96Z" transform="translate(3 5.4)" fill="rgb(203,176,227)" fill-opacity="0.2"></path><path d="M20 436.548C60.5 436.548 60.5 407.312 101 407.312L101 451.432C60.5 451.432 60.5 480.668 20 480.668Z" transform="translate(3 5.4)" fill="rgb(166,181,225)" fill-opacity="0.2"></path><path d="M20 221.184C60.5 221.184 60.5 213.184 101 213.184L101 266.128C60.5 266.128 60.5 274.128 20 274.128Z" transform="translate(3 5.4)" fill="rgb(166,181,225)" fill-opacity="0.2"></path><path d="M121 204.36C161.5 204.36 161.5 140.36 202 140.36L202 184.48C161.5 184.48 161.5 248.48 121 248.48Z" transform="translate(3 5.4)" fill="rgb(203,176,227)" fill-opacity="0.2"></path><path d="M121 248.48C161.5 248.48 161.5 184.48 202 184.48L202 237.424C161.5 237.424 161.5 301.424 121 301.424Z" transform="translate(3 5.4)" fill="rgb(203,176,227)" fill-opacity="0.2"></path><path d="M20 480.668C60.5 480.668 60.5 451.432 101 451.432L101 460.256C60.5 460.256 60.5 489.492 20 489.492Z" transform="translate(3 5.4)" fill="rgb(166,181,225)" fill-opacity="0.2"></path><path d="M20 274.128C60.5 274.128 60.5 266.128 101 266.128L101 270.54C60.5 270.54 60.5 278.54 20 278.54Z" transform="translate(3 5.4)" fill="rgb(166,181,225)" fill-opacity="0.2"></path><path d="M121 438.196C161.5 438.196 161.5 435.432 202 435.432L202 444.256C161.5 444.256 161.5 447.02 121 447.02Z" transform="translate(3 5.4)" fill="rgb(203,176,227)" fill-opacity="0.2"></path><path d="M121 447.02C161.5 447.02 161.5 444.256 202 444.256L202 448.668C161.5 448.668 161.5 451.432 121 451.432Z" transform="translate(3 5.4)" fill="rgb(203,176,227)" fill-opacity="0.2"></path><path d="M20 489.492C60.5 489.492 60.5 460.256 101 460.256L101 464.668C60.5 464.668 60.5 493.904 20 493.904Z" transform="translate(3 5.4)" fill="rgb(166,181,225)" fill-opacity="0.2"></path><path d="M20 278.54C60.5 278.54 60.5 270.54 101 270.54L101 279.364C60.5 279.364 60.5 287.364 20 287.364Z" transform="translate(3 5.4)" fill="rgb(166,181,225)" fill-opacity="0.2"></path><path d="M121 451.432C161.5 451.432 161.5 456.668 202 456.668L202 461.08C161.5 461.08 161.5 455.844 121 455.844Z" transform="translate(3 5.4)" fill="rgb(203,176,227)" fill-opacity="0.2"></path><path d="M121 455.844C161.5 455.844 161.5 461.08 202 461.08L202 469.904C161.5 469.904 161.5 464.668 121 464.668Z" transform="translate(3 5.4)" fill="rgb(203,176,227)" fill-opacity="0.2"></path><path d="M20 287.364C60.5 287.364 60.5 472.668 101 472.668L101 477.08C60.5 477.08 60.5 291.776 20 291.776Z" transform="translate(3 5.4)" fill="rgb(166,181,225)" fill-opacity="0.2"></path><path d="M121 481.492C161.5 481.492 161.5 340.84 202 340.84L202 345.252C161.5 345.252 161.5 485.904 121 485.904Z" transform="translate(3 5.4)" fill="rgb(82,117,155)" fill-opacity="0.2"></path><path d="M20 502.728C60.5 502.728 60.5 502.728 101 502.728L101 524.788C60.5 524.788 60.5 524.788 20 524.788Z" transform="translate(3 5.4)" fill="rgb(166,181,225)" fill-opacity="0.2"></path><path d="M121 493.904C161.5 493.904 161.5 477.904 202 477.904L202 499.964C161.5 499.964 161.5 515.964 121 515.964Z" transform="translate(3 5.4)" fill="rgb(84,142,179)" fill-opacity="0.2"></path><path d="M20 291.776C60.5 291.776 60.5 477.08 101 477.08L101 485.904C60.5 485.904 60.5 300.6 20 300.6Z" transform="translate(3 5.4)" fill="rgb(166,181,225)" fill-opacity="0.2"></path><path d="M121 472.668C161.5 472.668 161.5 324.016 202 324.016L202 332.84C161.5 332.84 161.5 481.492 121 481.492Z" transform="translate(3 5.4)" fill="rgb(82,117,155)" fill-opacity="0.2"></path><path d="M20 524.788C60.5 524.788 60.5 524.788 101 524.788L101 529.2C60.5 529.2 60.5 529.2 20 529.2Z" transform="translate(3 5.4)" fill="rgb(166,181,225)" fill-opacity="0.2"></path><path d="M121 524.788C161.5 524.788 161.5 524.788 202 524.788L202 529.2C161.5 529.2 161.5 529.2 121 529.2Z" transform="translate(3 5.4)" fill="rgb(84,142,179)" fill-opacity="0.2"></path><path d="M0 308.6l20 0l0 220.6l-20 0Z" transform="translate(3 5.4)" fill="rgb(166,181,225)"></path><path d="M0 80l20 0l0 220.6l-20 0Z" transform="translate(3 5.4)" fill="rgb(166,181,225)"></path><path d="M101 493.904l20 0l0 35.296l-20 0Z" transform="translate(3 5.4)" fill="rgb(84,142,179)"></path><path d="M101 472.668l20 0l0 13.236l-20 0Z" transform="translate(3 5.4)" fill="rgb(82,117,155)"></path><path d="M101 72l20 0l0 392.668l-20 0Z" transform="translate(3 5.4)" fill="rgb(203,176,227)"></path><path d="M202 245.424l20 0l0 70.592l-20 0Z" transform="translate(3 5.4)" fill="rgb(88,183,217)"></path><path d="M202 0l20 0l0 132.36l-20 0Z" transform="translate(3 5.4)" fill="rgb(185,182,222)"></path><path d="M202 507.964l20 0l0 8.824l-20 0Z" transform="translate(3 5.4)" fill="rgb(81,112,150)"></path><path d="M202 414.196l20 0l0 13.236l-20 0Z" transform="translate(3 5.4)" fill="rgb(82,117,155)"></path><path d="M202 353.252l20 0l0 52.944l-20 0Z" transform="translate(3 5.4)" fill="rgb(86,163,198)"></path><path d="M202 140.36l20 0l0 97.064l-20 0Z" transform="translate(3 5.4)" fill="rgb(118,192,228)"></path><path d="M202 435.432l20 0l0 13.236l-20 0Z" transform="translate(3 5.4)" fill="rgb(82,117,155)"></path><path d="M202 456.668l20 0l0 13.236l-20 0Z" transform="translate(3 5.4)" fill="rgb(82,117,155)"></path><path d="M202 340.84l20 0l0 4.412l-20 0Z" transform="translate(3 5.4)" fill="rgb(81,107,145)"></path><path d="M202 477.904l20 0l0 22.06l-20 0Z" transform="translate(3 5.4)" fill="rgb(83,127,164)"></path><path d="M202 324.016l20 0l0 8.824l-20 0Z" transform="translate(3 5.4)" fill="rgb(81,112,150)"></path><path d="M202 524.788l20 0l0 4.412l-20 0Z" transform="translate(3 5.4)" fill="rgb(81,107,145)"></path><text dominant-baseline="central" text-anchor="start" style="font-size:12px;font-family:Arial;" xml:space="preserve" transform="translate(28 424.3)" fill="black">w/o C</text><text dominant-baseline="central" text-anchor="start" style="font-size:12px;font-family:Arial;" xml:space="preserve" transform="translate(28 195.7)" fill="black">w C</text><text dominant-baseline="central" text-anchor="start" style="font-size:12px;font-family:Arial;" xml:space="preserve" transform="translate(129 516.952)" fill="black">w/o C only</text><text dominant-baseline="central" text-anchor="start" style="font-size:12px;font-family:Arial;" xml:space="preserve" transform="translate(129 484.686)" fill="black">w C only</text><text dominant-baseline="central" text-anchor="start" style="font-size:12px;font-family:Arial;" transform="translate(129 273.734)" fill="black">both</text><text dominant-baseline="central" text-anchor="start" style="font-size:12px;font-family:Arial;" transform="translate(230 286.12)" fill="black">CASC15</text><text dominant-baseline="central" text-anchor="start" style="font-size:12px;font-family:Arial;" transform="translate(230 71.58)" fill="black">EGFR</text><text dominant-baseline="central" text-anchor="start" style="font-size:12px;font-family:Arial;" transform="translate(230 517.776)" fill="black">JAZF1</text><text dominant-baseline="central" text-anchor="start" style="font-size:12px;font-family:Arial;" transform="translate(230 426.214)" fill="black">KCNQ1DN</text><text dominant-baseline="central" text-anchor="start" style="font-size:12px;font-family:Arial;" transform="translate(230 385.124)" fill="black">Kir2.2</text><text dominant-baseline="central" text-anchor="start" style="font-size:12px;font-family:Arial;" transform="translate(230 194.292)" fill="black">Kv1.1</text><text dominant-baseline="central" text-anchor="start" style="font-size:12px;font-family:Arial;" transform="translate(230 447.45)" fill="black">MPPED1</text><text dominant-baseline="central" text-anchor="start" style="font-size:12px;font-family:Arial;" transform="translate(230 468.686)" fill="black">NSP</text><text dominant-baseline="central" text-anchor="start" style="font-size:12px;font-family:Arial;" transform="translate(230 348.446)" fill="black">NgR3</text><text dominant-baseline="central" text-anchor="start" style="font-size:12px;font-family:Arial;" transform="translate(230 494.334)" fill="black">RASGEF1A</text><text dominant-baseline="central" text-anchor="start" style="font-size:12px;font-family:Arial;" transform="translate(230 333.828)" fill="black">SAMD4A</text><text dominant-baseline="central" text-anchor="start" style="font-size:12px;font-family:Arial;" transform="translate(230 532.394)" fill="black">WIPI2</text><path d="M-5 -5l10 0l0 10l-10 0Z" transform="translate(5 5)" fill="rgb(0,0,0)" fill-opacity="0" stroke="#ccc" stroke-width="0"></path></g></svg>